<svg width="77" height="79" viewBox="0 0 77 79" fill="none" xmlns="http://www.w3.org/2000/svg">
<path d="M38.3423 73.9768C36.191 73.9775 34.0441 73.7818 31.9283 73.3921L32.3297 71.2143C34.3131 71.5799 36.3256 71.7638 38.3423 71.7639V73.9768ZM29.1461 72.7578C27.0681 72.1925 25.0466 71.4365 23.1072 70.4995L24.0692 68.5044C25.8849 69.3827 27.778 70.0907 29.7241 70.6194L29.1461 72.7578ZM20.5892 69.1534C18.7339 68.0601 16.9822 66.7993 15.3561 65.3867L16.8071 63.7131C18.3304 65.0372 19.9716 66.2188 21.7103 67.243L20.5892 69.1534ZM13.279 63.4281C11.7735 61.8885 10.4118 60.2142 9.21075 58.4264L11.0456 57.1898C12.1719 58.8653 13.4486 60.4343 14.8599 61.8773L13.279 63.4281ZM7.71601 55.9927C6.66387 54.1128 5.78773 52.1395 5.09875 50.0979L7.1949 49.389C7.84041 51.3008 8.66083 53.1489 9.64575 54.9096L7.71601 55.9927ZM4.29735 47.3544C3.77892 45.263 3.45351 43.1283 3.3252 40.9772L5.53374 40.8457C5.6534 42.8607 5.95831 44.8604 6.4446 46.8194L4.29735 47.3544Z" fill="#CFFF04"/>
<path d="M38.3418 73.9773V71.7629C56.4656 71.7629 71.2116 57.0003 71.2116 38.8496H73.4231C73.4267 43.4637 72.5218 48.0332 70.7601 52.2967C68.9984 56.5602 66.4145 60.4341 63.1561 63.6968C59.8978 66.9594 56.029 69.5467 51.7711 71.3108C47.5132 73.0748 42.9498 73.9809 38.3418 73.9773Z" fill="#08E2F0"/>
<path d="M71.1518 36.8508C71.0307 34.8359 70.7258 32.8364 70.2409 30.8771L72.3882 30.3421C72.9066 32.4335 73.232 34.5682 73.3603 36.7193L71.1518 36.8508ZM69.4892 28.3104C68.8436 26.3986 68.0232 24.5506 67.0383 22.7898L68.9695 21.7067C70.0201 23.5872 70.8957 25.5605 71.5853 27.6015L69.4892 28.3104ZM65.6384 20.5096C64.5131 18.8339 63.2368 17.2648 61.8257 15.8222L63.4051 14.2728C64.9109 15.8119 66.2732 17.4856 67.4747 19.2731L65.6384 20.5096ZM59.877 13.9863C58.3539 12.6626 56.7132 11.481 54.9752 10.4565L56.0963 8.54755C57.9512 9.64015 59.7024 10.9005 61.3279 12.3127L59.877 13.9863ZM52.6149 9.19505C50.7992 8.31703 48.9061 7.60949 46.96 7.08152L47.5438 4.94311C49.6221 5.50679 51.6437 6.26231 53.5827 7.19992L52.6149 9.19505ZM44.3529 6.48662C42.37 6.1215 40.358 5.93804 38.3418 5.9385V3.72266C40.4931 3.72197 42.64 3.91767 44.7558 4.30732L44.3529 6.48662Z" fill="#CFFF04"/>
<path d="M5.47271 38.8479H3.25978C3.25613 34.2337 4.16108 29.664 5.92286 25.4002C7.68464 21.1365 10.2687 17.2625 13.5271 13.9997C16.7856 10.7369 20.6546 8.14948 24.9126 6.38537C29.1707 4.62126 33.7344 3.71511 38.3425 3.71876V5.9346C20.2173 5.9346 5.47271 20.6987 5.47271 38.8479Z" fill="#08E2F0"/>
<path d="M38.3419 68.432C31.507 68.4318 24.8837 66.0585 19.6003 61.7166C14.317 57.3747 10.7006 51.3328 9.36737 44.6203C8.03411 37.9078 9.06648 30.9401 12.2885 24.9044C15.5106 18.8686 20.723 14.1382 27.0377 11.5192C33.3524 8.90027 40.3786 8.55471 46.9191 10.5415C53.4597 12.5282 59.11 16.7243 62.9072 22.4149C66.7045 28.1054 68.4138 34.9383 67.7439 41.7493C67.074 48.5603 64.0663 54.928 59.2333 59.7674C56.4966 62.5236 53.2409 64.7086 49.6548 66.196C46.0686 67.6833 42.2235 68.4433 38.3419 68.432ZM38.3419 11.1356C23.0777 11.1356 10.6599 23.5698 10.6599 38.8542C10.6599 54.1386 23.0777 66.5728 38.3419 66.5728C53.6062 66.5728 66.0239 54.1371 66.0239 38.8542C66.0239 23.5712 53.6062 11.1297 38.3419 11.1297V11.1356Z" fill="#08E2F0"/>
<path d="M38.342 69.9663C31.1517 69.9667 24.1838 67.4705 18.6254 62.9033C13.067 58.336 9.26217 51.9802 7.85916 44.9188C6.45615 37.8573 7.54177 30.5273 10.9311 24.1775C14.3204 17.8277 19.8036 12.8511 26.4465 10.0957C33.0894 7.3403 40.481 6.97655 47.3617 9.06642C54.2424 11.1563 60.1866 15.5705 64.1814 21.5568C68.1761 27.5432 69.9744 34.7314 69.2697 41.8965C68.565 49.0617 65.4009 55.7605 60.3166 60.8515C57.4377 63.7504 54.0132 66.0486 50.2412 67.6132C46.4692 69.1778 42.4248 69.9776 38.342 69.9663ZM38.342 8.00577C21.3583 8.00577 7.54207 21.8402 7.54207 38.8465C7.54207 55.8527 21.3597 69.6872 38.342 69.6872C55.3243 69.6872 69.142 55.8512 69.142 38.8465C69.142 21.8417 55.3258 8.00577 38.342 8.00577Z" fill="#08E2F0"/>
<path d="M44.6773 78.8022L44.2803 76.2823C49.5857 75.4527 54.6504 73.4885 59.1299 70.5234L60.5313 72.653C55.7489 75.8189 50.3416 77.9162 44.6773 78.8022Z" fill="#CFFF04"/>
<path d="M62.8582 71.0017L60.7109 69.6774C65.4654 66.0265 69.3999 61.4151 72.2587 56.1426L73.9009 58.0588C71.1733 63.105 67.4099 67.516 62.8582 71.0017Z" fill="#CFFF04"/>
<path d="M2.41728 26.8827L0 26.0788C1.8108 20.633 4.75913 15.6359 8.6488 11.4199L10.5201 13.1505C6.87021 17.0955 4.10718 21.7781 2.41728 26.8827Z" fill="#CFFF04"/>
<path d="M11.0638 12.3405L10.7441 9.62034C14.916 5.68411 19.8764 2.68172 25.296 0.8125L27.5513 2.36182C21.4064 4.46993 15.7843 7.8726 11.0638 12.3405Z" fill="#CFFF04"/>
<path d="M13.8868 38.8481H12.2402C12.241 31.9163 14.9913 25.2687 19.8864 20.3672C24.7814 15.4657 31.4202 12.7117 38.3428 12.7109V14.3597C24.858 14.3597 13.8868 25.3454 13.8868 38.8481Z" fill="#CFFF04"/>
<path d="M38.3418 64.9853V63.3365C51.8266 63.3365 62.7964 52.3523 62.7964 38.8496H64.4429C64.4431 42.2818 63.7681 45.6805 62.4565 48.8515C61.1448 52.0225 59.2223 54.9038 56.7985 57.3307C54.3748 59.7577 51.4973 61.6828 48.3305 62.9962C45.1637 64.3096 41.7695 64.9854 38.3418 64.9853Z" fill="#CFFF04"/>
<path d="M3.55572 38.8482H0.236335C0.233265 33.8375 1.21661 28.8754 3.13016 24.2456C5.0437 19.6157 7.8499 15.409 11.3883 11.8659C14.9267 8.32286 19.1278 5.51293 23.7516 3.59686C28.3753 1.68078 33.3308 0.696151 38.3349 0.699226V4.02154C19.1615 4.0157 3.55572 19.6421 3.55572 38.8482Z" fill="#08E2F0"/>
<path d="M38.3418 77.0044V73.6806C57.5224 73.6806 73.1268 58.0556 73.1268 38.8496H76.4462C76.4492 43.8603 75.4659 48.8224 73.5523 53.4522C71.6388 58.082 68.8326 62.2887 65.2942 65.8318C61.7558 69.3749 57.5547 72.1848 52.931 74.1009C48.3072 76.0169 43.3517 77.0016 38.3476 76.9985L38.3418 77.0044Z" fill="#08E2F0"/>
<rect opacity="0.07" x="15" y="16" width="46.6729" height="46.6729" rx="23.3364" fill="#08E2F0"/>
<g filter="url(#filter0_f_236_3984)">
<path d="M42.1111 38.5992L35.8055 49.7635H44.6944L51 38.5992L44.8611 27.7344H35.9722L42.1111 38.5992ZM39.1944 38.5992L33.0556 27.7344H24.1667L30.3055 38.5992L24 49.7635H32.8889L39.1944 38.5992Z" fill="#08E2F0"/>
</g>
<path d="M42.1111 38.5992L35.8055 49.7635H44.6944L51 38.5992L44.8611 27.7344H35.9722L42.1111 38.5992ZM39.1944 38.5992L33.0556 27.7344H24.1667L30.3055 38.5992L24 49.7635H32.8889L39.1944 38.5992Z" fill="#08E2F0"/>
<defs>
<filter id="filter0_f_236_3984" x="20" y="23.7344" width="35" height="30.0293" filterUnits="userSpaceOnUse" color-interpolation-filters="sRGB">
<feFlood flood-opacity="0" result="BackgroundImageFix"/>
<feBlend mode="normal" in="SourceGraphic" in2="BackgroundImageFix" result="shape"/>
<feGaussianBlur stdDeviation="2" result="effect1_foregroundBlur_236_3984"/>
</filter>
</defs>
</svg>
