<svg width="350" height="99" viewBox="0 0 350 99" fill="none" xmlns="http://www.w3.org/2000/svg">
<path d="M142.812 95.3657C142.812 95.3657 143.565 95.2921 144.87 95.1633C146.174 95.0345 148.067 94.8138 150.326 94.5746C151.466 94.4458 152.678 94.3171 153.983 94.1699C155.287 94.0227 156.665 93.8388 158.08 93.6732C159.494 93.4892 160.964 93.3052 162.452 93.1212C163.941 92.9373 165.466 92.7165 166.972 92.5142C168.497 92.3118 170.004 92.1095 171.51 91.8887C172.998 91.6679 174.468 91.4656 175.883 91.2448C177.298 91.0424 178.675 90.8217 179.98 90.6377C181.284 90.4538 182.515 90.233 183.636 90.0674C185.896 89.6995 187.788 89.4051 189.111 89.1844C189.773 89.074 190.287 88.982 190.636 88.9268C190.985 88.8716 191.187 88.8348 191.187 88.8348C191.187 88.8348 191.996 88.1909 192.749 87.5654C193.502 86.9215 194.219 86.3145 194.219 86.3145C194.219 86.3145 193.374 86.4616 191.904 86.7192C191.169 86.848 190.287 86.9951 189.258 87.1791C188.229 87.3447 187.072 87.5286 185.822 87.731C183.305 88.1357 180.366 88.6141 177.206 89.074C175.626 89.3131 173.99 89.5523 172.337 89.7914C170.683 90.0306 168.993 90.2514 167.303 90.4722C160.56 91.392 153.836 92.183 148.82 92.7349C148.195 92.8085 147.589 92.8637 147.019 92.9373C146.45 92.9925 145.917 93.0477 145.403 93.1029C144.392 93.2133 143.51 93.2868 142.775 93.3604C141.324 93.5076 140.497 93.5812 140.497 93.5812C140.497 93.5812 141.011 94.0411 141.581 94.4827C142.151 94.9426 142.775 95.3841 142.775 95.3841L142.812 95.3657Z" fill="#08E2F0"/>
<path d="M133.041 93.5874L136.422 93.2931L137.8 91.7109L134.566 91.9869L133.041 93.5874Z" fill="#08E2F0"/>
<path d="M142.719 91.2477C142.719 91.2477 141.892 91.3213 141.084 91.4133C140.68 91.4501 140.276 91.4869 139.963 91.5053C139.669 91.5237 139.449 91.5421 139.449 91.5421L138.126 93.1242C138.126 93.1242 138.346 93.1058 138.659 93.069C138.971 93.0322 139.394 93.0138 139.816 92.9586C140.661 92.885 141.525 92.793 141.525 92.793L142.719 91.2109V91.2477Z" fill="#08E2F0"/>
<path d="M144.391 91.0843L143.271 92.6664L146.669 92.3169L147.68 90.7715L144.391 91.0843Z" fill="#08E2F0"/>
<path d="M149.358 90.5867L148.421 92.132L151.857 91.7641L152.665 90.2188L149.358 90.5867Z" fill="#08E2F0"/>
<path d="M104.858 93.6388L102.212 95.313L105.354 95.2026L107.871 93.5469L104.858 93.6388Z" fill="#08E2F0"/>
<path d="M115.415 93.2351L113.174 94.8908L116.389 94.7436L118.502 93.0879L115.415 93.2351Z" fill="#08E2F0"/>
<path d="M128.003 93.9889L131.328 93.7314L132.89 92.1309L129.693 92.3516L128.003 93.9889Z" fill="#08E2F0"/>
<path d="M154.35 90.0348L153.597 91.5617C153.597 91.5617 154.46 91.4697 155.305 91.3593C156.169 91.2673 157.032 91.157 157.032 91.157L157.657 89.6484C157.657 89.6484 156.83 89.7588 156.003 89.8508C155.177 89.9428 154.35 90.0348 154.35 90.0348Z" fill="#08E2F0"/>
<path d="M109.412 93.4921L106.95 95.1478C106.95 95.1478 107.74 95.1294 108.53 95.0926C108.916 95.0926 109.32 95.0558 109.614 95.0374C109.908 95.0374 110.11 95.019 110.11 95.019L112.462 93.3633C112.462 93.3633 112.26 93.3633 111.984 93.3817C111.69 93.3817 111.305 93.4185 110.937 93.4185C110.184 93.4369 109.43 93.4737 109.43 93.4737L109.412 93.4921Z" fill="#08E2F0"/>
<path d="M124.88 92.7032L123.006 94.3405C123.006 94.3405 123.814 94.2853 124.659 94.2301C125.486 94.1749 126.313 94.1013 126.313 94.1013L128.077 92.4824C128.077 92.4824 127.268 92.5376 126.478 92.5928C125.67 92.648 124.898 92.7032 124.898 92.7032H124.88Z" fill="#08E2F0"/>
<path d="M100.374 93.729L97.5811 95.4031L100.631 95.3479L103.332 93.6738L100.374 93.729Z" fill="#08E2F0"/>
<path d="M120.122 92.9926L118.064 94.6299L121.335 94.4459L123.264 92.8086L120.122 92.9926Z" fill="#08E2F0"/>
<path d="M207.709 81.7188L204.457 82.3627L205.578 83.6136L208.958 82.9513L207.709 81.7188Z" fill="#08E2F0"/>
<path d="M213.02 84.8066C213.02 84.8066 213.755 84.6595 215.059 84.4019C216.364 84.1443 218.201 83.758 220.406 83.2981C221.508 83.0589 222.702 82.8198 223.97 82.5438C225.219 82.2678 226.542 81.9735 227.902 81.6791C229.261 81.3664 230.658 81.0537 232.091 80.7409C233.505 80.4098 234.938 80.0786 236.353 79.7475C237.768 79.4164 239.201 79.0668 240.597 78.7357C241.975 78.3862 243.335 78.055 244.639 77.7238C245.944 77.3927 247.211 77.08 248.406 76.7672C249.581 76.4545 250.684 76.1601 251.713 75.9026C253.752 75.3507 255.479 74.9091 256.637 74.578C257.794 74.2469 258.474 74.0629 258.474 74.0629C258.474 74.0629 258.364 73.5294 258.198 72.9959C258.051 72.4624 257.831 71.9473 257.831 71.9473C257.831 71.9473 257.096 72.1496 255.81 72.5176C255.167 72.7015 254.377 72.9223 253.476 73.1615C253.017 73.2902 252.539 73.419 252.043 73.5662C251.529 73.7134 250.978 73.8421 250.427 74.0077C249.288 74.3021 248.057 74.6332 246.752 74.9827C246.091 75.1483 245.429 75.3323 244.749 75.5163C244.051 75.7002 243.335 75.8658 242.618 76.0497C241.167 76.4177 239.66 76.7856 238.135 77.172C236.61 77.5583 235.012 77.9262 233.432 78.2941C227.112 79.8027 220.608 81.2009 215.684 82.2311C215.078 82.3599 214.49 82.4886 213.92 82.599C213.351 82.7094 212.818 82.8198 212.322 82.9118C211.311 83.1141 210.429 83.2797 209.713 83.4269C208.261 83.7028 207.435 83.8684 207.435 83.8684C207.435 83.8684 208.776 84.1075 210.19 84.3467C211.587 84.5859 213.038 84.8066 213.038 84.8066H213.02Z" fill="#08E2F0"/>
<path d="M195.248 85.5062C195.248 85.5062 196.112 85.359 196.957 85.2118C197.82 85.0647 198.666 84.8991 198.666 84.8991L197.784 83.6113C197.784 83.6113 196.957 83.7585 196.13 83.9057C195.303 84.0529 194.477 84.2 194.477 84.2L195.23 85.5062H195.248Z" fill="#08E2F0"/>
<path d="M200.412 84.5679L203.829 83.9424L202.763 82.6914L199.475 83.2985L200.412 84.5679Z" fill="#08E2F0"/>
<path d="M159.367 89.4243L158.798 90.9328L162.252 90.5097L162.693 89.0195L159.367 89.4243Z" fill="#08E2F0"/>
<path d="M214.283 80.3955L215.771 81.5729L219.115 80.8739L217.498 79.7148L214.283 80.3955Z" fill="#08E2F0"/>
<path d="M209.384 81.4076L210.688 82.6218C210.688 82.6218 211.533 82.4562 212.379 82.2906C213.224 82.1251 214.069 81.9411 214.069 81.9411L212.636 80.7637C212.636 80.7637 211.827 80.9293 211.019 81.0949C210.211 81.2604 209.384 81.426 209.384 81.426V81.4076Z" fill="#08E2F0"/>
<path d="M174.455 87.4206L174.437 88.8371L177.891 88.3404L177.78 86.9238L174.455 87.4206Z" fill="#08E2F0"/>
<path d="M169.424 88.1162L169.24 89.5695C169.24 89.5695 170.104 89.4591 170.967 89.3304C171.408 89.2752 171.831 89.22 172.161 89.1648C172.492 89.1096 172.694 89.0913 172.694 89.0913L172.768 87.6562C172.768 87.6562 172.566 87.6931 172.253 87.7299C171.941 87.7666 171.518 87.8219 171.114 87.8771C170.287 87.9874 169.442 88.0978 169.442 88.0978L169.424 88.1162Z" fill="#08E2F0"/>
<path d="M164.387 88.8009L164.02 90.2911L167.474 89.8312L167.712 88.3594L164.387 88.8009Z" fill="#08E2F0"/>
<path d="M179.47 86.6655L179.653 88.0636C179.653 88.0636 180.517 87.9349 181.38 87.8061C182.244 87.6773 183.108 87.5302 183.108 87.5302L182.795 86.1504C182.795 86.1504 181.968 86.2791 181.142 86.4079C180.315 86.5367 179.488 86.6655 179.488 86.6655H179.47Z" fill="#08E2F0"/>
<path d="M189.501 85.0469L190.052 86.3898L193.488 85.8011L192.808 84.4766L189.501 85.0469Z" fill="#08E2F0"/>
<path d="M184.482 85.8773L184.85 87.257L188.304 86.7051L187.808 85.3438L184.482 85.8773Z" fill="#08E2F0"/>
<path d="M44.5774 89.8438L39.6719 91.3707L41.6561 91.7755L46.4881 90.2301L44.5774 89.8438Z" fill="#08E2F0"/>
<path d="M31.4023 89.3713L33.111 89.8496L38.2369 88.3779L36.6202 87.918L31.4023 89.3713Z" fill="#08E2F0"/>
<path d="M40.8841 89.0383L39.1203 88.6152L34.0127 90.087L35.8316 90.5285L40.8841 89.0383Z" fill="#08E2F0"/>
<path d="M50.5454 90.9355L45.8604 92.4992C45.8604 92.4992 46.3932 92.5912 46.926 92.6832C47.4771 92.7568 48.0283 92.8488 48.0283 92.8488L52.6215 91.2667C52.6215 91.2667 52.0887 91.1931 51.5559 91.1195C51.0414 91.0275 50.5454 90.9539 50.5454 90.9539V90.9355Z" fill="#08E2F0"/>
<path d="M41.7823 89.2617L36.7666 90.7702C36.7666 90.7702 37.2259 90.8806 37.6852 90.991C38.1813 91.083 38.659 91.1934 38.659 91.1934L43.6012 89.6665C43.6012 89.6665 43.1235 89.5744 42.6642 89.4641C42.2233 89.3537 41.7823 89.2617 41.7823 89.2617Z" fill="#08E2F0"/>
<path d="M47.4798 90.4219L42.6846 91.9673L44.7974 92.3352L49.5008 90.7714L47.4798 90.4219Z" fill="#08E2F0"/>
<path d="M219.154 79.3835L220.826 80.5057C220.826 80.5057 221.028 80.4689 221.341 80.3953C221.653 80.3217 222.057 80.2297 222.48 80.1377C223.307 79.9538 224.133 79.7698 224.133 79.7698L222.333 78.666C222.333 78.666 221.543 78.85 220.753 79.0156C220.349 79.1075 219.963 79.1995 219.65 79.2547C219.356 79.3283 219.154 79.3651 219.154 79.3651V79.3835Z" fill="#08E2F0"/>
<path d="M95.9617 93.784L92.9854 95.4582C92.9854 95.4582 93.7386 95.4582 94.4735 95.4582C95.2268 95.4582 95.9985 95.4397 95.9985 95.4397L98.8646 93.7656C98.8646 93.7656 98.1297 93.7656 97.3948 93.784C96.6783 93.784 95.9617 93.784 95.9617 93.784Z" fill="#08E2F0"/>
<path d="M28.9238 88.6146C28.9238 88.6146 29.3097 88.7434 29.6955 88.8722C30.118 89.0009 30.5406 89.1113 30.5406 89.1113L35.7768 87.6764C35.7768 87.6764 35.3726 87.566 34.9684 87.4372C34.601 87.3084 34.2152 87.1797 34.2152 87.1797L28.9238 88.5962V88.6146Z" fill="#08E2F0"/>
<path d="M27.9706 84.7871L22.4404 86.1301C22.4404 86.1301 22.7344 86.2773 23.0835 86.4245C23.4325 86.5716 23.7633 86.7188 23.7633 86.7188L29.2567 85.3574C29.2567 85.3574 28.926 85.2286 28.5953 85.0815C28.2645 84.9343 27.989 84.7871 27.989 84.7871H27.9706Z" fill="#08E2F0"/>
<path d="M26.1662 83.9219L20.5625 85.2281L21.7935 85.8167L27.3604 84.4922L26.1662 83.9219Z" fill="#08E2F0"/>
<path d="M31.9916 86.4453L26.6084 87.8434L28.1333 88.3585L33.4614 86.942L31.9916 86.4453Z" fill="#08E2F0"/>
<path d="M29.9127 85.6367L24.4561 86.9981L25.8524 87.5684L31.254 86.1702L29.9127 85.6367Z" fill="#08E2F0"/>
<path d="M28.2428 93.6411C28.2428 93.6411 28.6286 93.7331 29.4003 93.8987C30.1535 94.0459 31.2375 94.2666 32.542 94.5242C35.1877 95.0393 38.9173 95.6464 42.9042 96.1799C43.8779 96.3271 44.9252 96.4375 45.9357 96.5478C46.9645 96.6582 47.9567 96.7686 48.9304 96.879C50.8963 97.0813 52.8438 97.2469 54.4606 97.3941C54.8648 97.4309 55.269 97.4677 55.6364 97.5045C56.0222 97.5229 56.3897 97.5597 56.7388 97.5781C57.4369 97.6333 58.0249 97.6701 58.5209 97.7069C59.5131 97.7804 60.0826 97.8172 60.0826 97.8172C60.0826 97.8172 62.1955 97.3021 64.2716 96.7686C65.3005 96.511 66.3661 96.2351 67.1377 96.0327C67.9094 95.8304 68.4422 95.7016 68.4422 95.7016C68.4422 95.7016 68.2768 95.7016 67.9645 95.6832C67.6521 95.6648 67.2112 95.6464 66.66 95.6096C65.5576 95.536 63.9776 95.4257 62.0852 95.2969C60.2112 95.1681 58.1351 94.9657 55.8569 94.7634C54.7545 94.653 53.6522 94.5242 52.5131 94.3954C51.3923 94.2666 50.2165 94.1378 49.1325 93.9907C46.9462 93.6963 44.7414 93.402 42.8491 93.0525C41.8937 92.8869 40.9567 92.7397 40.0748 92.5741C39.248 92.4086 38.458 92.2614 37.7415 92.1142C37.0249 91.967 36.3635 91.8382 35.7756 91.7095C35.206 91.5807 34.7467 91.4703 34.3425 91.3783C33.5525 91.1944 33.1116 91.084 33.1116 91.084C33.1116 91.084 31.8622 91.7279 30.6312 92.3718C29.4003 93.0157 28.2061 93.6779 28.2061 93.6779L28.2428 93.6411Z" fill="#08E2F0"/>
<path d="M77.6113 98.4577C77.6113 98.4577 78.2544 98.4577 79.3567 98.4761C80.4775 98.4761 82.0391 98.5129 84.0234 98.5129C84.9971 98.5129 86.0628 98.5129 87.2019 98.5129C88.3226 98.5129 89.5168 98.5129 90.7845 98.4761C92.0522 98.4577 93.3567 98.4209 94.6795 98.4025C95.3409 98.4025 96.0024 98.3841 96.6822 98.3657C97.3619 98.3657 98.0601 98.3289 98.7399 98.3105C104.215 98.1449 109.874 97.8874 114.155 97.6482C116.304 97.5195 118.105 97.4091 119.372 97.3355C120.622 97.2619 121.357 97.2067 121.357 97.2067C121.357 97.2067 122.955 96.5628 124.517 95.9373C126.078 95.2934 127.585 94.668 127.585 94.668C127.585 94.668 126.777 94.7232 125.362 94.8335C124.664 94.8887 123.782 94.9439 122.808 95.0175C121.834 95.0726 120.732 95.1463 119.538 95.2199C118.343 95.2934 117.039 95.367 115.679 95.459C114.32 95.5326 112.905 95.5878 111.435 95.6614C109.984 95.7349 108.441 95.8086 106.934 95.8638C105.428 95.9189 103.884 95.9741 102.359 96.0109C100.816 96.0661 99.3278 96.0845 97.858 96.1213C96.3882 96.1397 94.9367 96.1765 93.5404 96.1949C90.8029 96.1949 88.2491 96.2133 86.0995 96.1949C83.9866 96.1581 82.2229 96.1397 80.9919 96.1213C80.3856 96.1213 79.8895 96.1213 79.5772 96.1029C79.2649 96.1029 79.0811 96.1029 79.0811 96.1029C79.0811 96.1029 78.9893 96.2501 78.8239 96.4892C78.6769 96.71 78.4932 97.0227 78.3095 97.3171C77.9604 97.9058 77.6481 98.4945 77.6481 98.4945L77.6113 98.4577Z" fill="#08E2F0"/>
<path d="M71.4893 95.0405L74.1717 95.1693L77.8278 93.4951L75.2373 93.3848L71.4893 95.0405Z" fill="#08E2F0"/>
<path d="M53.7244 91.4141L49.168 92.9962L51.4094 93.3089L55.8923 91.7084L53.7244 91.4141Z" fill="#08E2F0"/>
<path d="M85.9877 93.729C85.9877 93.729 85.2895 93.729 84.6097 93.7106C83.9299 93.6922 83.2685 93.6738 83.2685 93.6738L79.8145 95.3479C79.8145 95.3479 80.5126 95.3663 81.2108 95.3847C81.9273 95.3847 82.6439 95.4031 82.6439 95.4031L85.9877 93.729Z" fill="#08E2F0"/>
<path d="M91.6302 93.8036L88.5068 95.4776L91.4648 95.4593L94.4963 93.7852L91.6302 93.8036Z" fill="#08E2F0"/>
<path d="M87.404 93.748L84.1152 95.4221L86.9998 95.4589L90.1966 93.7848L87.404 93.748Z" fill="#08E2F0"/>
<path d="M75.5703 95.221L78.363 95.313L81.8721 93.6388L79.1897 93.5469L75.5703 95.221Z" fill="#08E2F0"/>
<path d="M57.0136 91.8496L52.5674 93.4501L54.9191 93.7261L59.2734 92.1071L57.0136 91.8496Z" fill="#08E2F0"/>
<path d="M60.4349 92.2363L56.1357 93.8553C56.1357 93.8553 56.7237 93.9288 57.3116 93.984C57.9179 94.0392 58.5426 94.0944 58.5426 94.0944L62.7683 92.4755C62.7683 92.4755 62.1803 92.4203 61.5924 92.3651C61.0229 92.3099 60.4533 92.2363 60.4533 92.2363H60.4349Z" fill="#08E2F0"/>
<path d="M67.4844 94.817C67.4844 94.817 68.1274 94.8538 68.7888 94.909C69.4502 94.9458 70.13 94.9826 70.13 94.9826L73.9332 93.3269C73.9332 93.3269 73.2901 93.2901 72.6471 93.2533C72.0224 93.2165 71.3977 93.1797 71.3977 93.1797L67.5027 94.8354L67.4844 94.817Z" fill="#08E2F0"/>
<path d="M63.9753 92.5879L59.8047 94.2068L62.285 94.4459L66.3637 92.8086L63.9753 92.5879Z" fill="#08E2F0"/>
<path d="M67.6133 92.9082L63.5713 94.5455L66.1434 94.7295L70.0936 93.0738L67.6133 92.9082Z" fill="#08E2F0"/>
<path d="M247.19 72.5759L249.946 73.4406C249.946 73.4406 250.736 73.2382 251.471 73.0174C252.225 72.7967 252.996 72.5943 252.996 72.5943L250.13 71.748C250.13 71.748 249.395 71.9504 248.679 72.1528C247.962 72.3551 247.19 72.5575 247.19 72.5575V72.5759Z" fill="#08E2F0"/>
<path d="M314.051 46.8561L319.324 46.7641L320.922 45.7891L315.594 45.9179L314.051 46.8561Z" fill="#08E2F0"/>
<path d="M333.942 35.2148C333.942 35.2148 334.144 34.9756 334.346 34.7548C334.456 34.6445 334.53 34.5157 334.603 34.4421C334.658 34.3501 334.714 34.2949 334.714 34.2949L328.889 34.8468C328.889 34.8468 328.853 34.902 328.798 34.994C328.742 35.0676 328.669 35.1779 328.559 35.3067C328.357 35.5275 328.173 35.7483 328.173 35.7483L333.979 35.2331L333.942 35.2148Z" fill="#08E2F0"/>
<path d="M326.926 37.0857L332.676 36.6258L333.522 35.6875L327.734 36.1843L326.926 37.0857Z" fill="#08E2F0"/>
<path d="M325.531 38.4649L331.227 38.0418L332.219 37.1035L326.487 37.545L325.531 38.4649Z" fill="#08E2F0"/>
<path d="M340.672 23.8417C340.672 23.8417 340.69 24.3016 340.727 24.9822C340.727 25.3318 340.8 25.7181 340.727 26.1596C340.653 26.6011 340.58 27.0611 340.506 27.5394C340.451 27.9993 340.249 28.496 340.102 28.9376C339.937 29.3791 339.808 29.8022 339.643 30.1701C339.239 30.906 338.981 31.4027 338.981 31.4027C338.981 31.4027 341.168 30.9244 343.354 30.4461C345.54 29.9494 347.745 29.4527 347.745 29.4527C347.745 29.4527 347.8 29.3423 347.911 29.1399C347.984 28.9375 348.094 28.6616 348.223 28.3304C348.462 27.6681 348.811 26.7851 348.903 25.9204C348.958 25.4973 349.031 25.0558 349.086 24.6695C349.086 24.2831 349.068 23.9152 349.05 23.6025C349.013 22.977 348.995 22.5723 348.995 22.5723L340.708 23.8417H340.672Z" fill="#08E2F0"/>
<path d="M330.62 32.1947L330.143 33.0777L336.022 32.4523L336.518 31.5508L330.62 32.1947Z" fill="#08E2F0"/>
<path d="M316.346 45.4378L321.692 45.2906L323.162 44.334L317.76 44.518L316.346 45.4378Z" fill="#08E2F0"/>
<path d="M330.86 31.768L336.758 31.1057C336.758 31.1057 336.868 30.8849 336.997 30.6642C337.125 30.4434 337.199 30.2227 337.199 30.2227L331.283 30.9217C331.283 30.9217 331.209 31.1241 331.081 31.3448C330.971 31.5656 330.86 31.768 330.86 31.768Z" fill="#08E2F0"/>
<path d="M318.478 44.0418L323.916 43.8395C323.916 43.8395 324.283 43.6003 324.632 43.3611C324.963 43.122 325.294 42.8828 325.294 42.8828L319.819 43.122C319.819 43.122 319.506 43.3611 319.176 43.5819C318.845 43.8211 318.478 44.0418 318.478 44.0418Z" fill="#08E2F0"/>
<path d="M324.01 39.8461L329.65 39.4782C329.65 39.4782 329.926 39.239 330.22 38.9998C330.477 38.7607 330.716 38.5215 330.716 38.5215L325.039 38.9262C325.039 38.9262 324.8 39.147 324.561 39.3861C324.285 39.6069 324.01 39.8461 324.01 39.8461Z" fill="#08E2F0"/>
<path d="M320.463 42.6244L325.975 42.3852L327.279 41.4102L321.731 41.7045L320.463 42.6244Z" fill="#08E2F0"/>
<path d="M322.315 41.2236L327.901 40.9293L329.058 39.9727L323.436 40.3038L322.315 41.2236Z" fill="#08E2F0"/>
<path d="M335.049 33.83L335.692 32.9102L329.831 33.5172L329.206 34.4003L335.049 33.83Z" fill="#08E2F0"/>
<path d="M331.445 30.4669L337.361 29.7494L337.674 28.8848L331.739 29.639L331.445 30.4669Z" fill="#08E2F0"/>
<path d="M331.888 29.192L337.822 28.4193C337.822 28.4193 337.84 28.3641 337.877 28.2721C337.877 28.1985 337.914 28.0882 337.932 27.9778C337.969 27.7571 338.006 27.5547 338.006 27.5547L332.053 28.3457C332.053 28.3457 332.016 28.5481 331.98 28.7505C331.98 28.8609 331.943 28.9528 331.924 29.0264C331.888 29.1 331.888 29.1552 331.888 29.1552V29.192Z" fill="#08E2F0"/>
<path d="M332.127 27.9612L338.08 27.1333L338.208 26.2871L332.256 27.1333L332.127 27.9612Z" fill="#08E2F0"/>
<path d="M332.255 26.7296L338.208 25.8649L338.171 25.0371L332.219 25.9385L332.255 26.7296Z" fill="#08E2F0"/>
<path d="M338.153 24.6129L338.116 24.2266L332.163 25.1464L332.2 25.5327L338.153 24.6129Z" fill="#08E2F0"/>
<path d="M238.096 74.9485L240.484 75.9051L243.663 75.114L241.146 74.1758L238.096 74.9485Z" fill="#08E2F0"/>
<path d="M263.508 69.5755C263.508 69.5755 263.692 69.5203 263.967 69.4467C264.243 69.3731 264.61 69.2627 264.959 69.1523C265.676 68.9316 266.392 68.7108 266.392 68.7108L263.049 68.0117C263.049 68.0117 262.369 68.2325 261.671 68.4349C261.322 68.5452 260.973 68.6556 260.715 68.7292C260.458 68.8028 260.274 68.858 260.274 68.858L263.508 69.5939V69.5755Z" fill="#08E2F0"/>
<path d="M277.141 68.5101C277.141 68.5101 277.747 68.3077 278.813 67.9582C279.879 67.6086 281.367 67.1119 283.186 66.5232C284.986 65.9161 286.989 65.217 289.157 64.4444C290.259 64.058 291.325 63.6717 292.427 63.267C293.529 62.8623 294.632 62.4575 295.734 62.0344C297.92 61.2065 300.015 60.3787 301.999 59.5876C303.928 58.7966 305.674 58.0607 307.18 57.4352C308.687 56.8097 309.826 56.2762 310.671 55.9083C311.498 55.5403 311.976 55.3196 311.976 55.3196C311.976 55.3196 310.983 54.97 309.936 54.6389C308.871 54.3077 307.787 53.9766 307.787 53.9766C307.787 53.9766 307.291 54.2157 306.409 54.6205C305.49 55.0252 304.167 55.6139 302.569 56.3314C301.779 56.6809 300.878 57.0673 299.923 57.472C298.949 57.8767 297.939 58.2998 296.892 58.723C295.844 59.1645 294.669 59.606 293.529 60.0659C292.354 60.5258 291.214 60.9858 289.984 61.4457C287.503 62.3655 285.096 63.267 282.634 64.1132C281.422 64.5364 280.246 64.9411 279.144 65.3274C278.023 65.7138 276.921 66.0633 275.91 66.3944C273.907 67.0567 272.235 67.6087 271.005 67.995C269.792 68.3813 269.094 68.5837 269.094 68.5837C269.094 68.5837 271.06 68.5837 273.081 68.5469C275.083 68.5285 277.141 68.4917 277.141 68.4917V68.5101Z" fill="#08E2F0"/>
<path d="M272.523 64.9397L276.235 65.5284C276.235 65.5284 276.4 65.4732 276.657 65.3812C276.915 65.2892 277.264 65.1788 277.576 65.0684C278.237 64.8477 278.899 64.6085 278.899 64.6085L275.096 64.0566C275.096 64.0566 274.453 64.2774 273.828 64.4981C273.516 64.6085 273.185 64.7189 272.928 64.7925C272.689 64.8661 272.523 64.9213 272.523 64.9213V64.9397Z" fill="#08E2F0"/>
<path d="M264.442 67.5533L267.841 68.2339L270.671 67.3509L267.18 66.707L264.442 67.5533Z" fill="#08E2F0"/>
<path d="M268.539 66.2494L272.085 66.8933L274.841 65.9918L271.185 65.3848L268.539 66.2494Z" fill="#08E2F0"/>
<path d="M254.538 72.1705L257.552 71.3243L254.538 70.5332L251.617 71.3427L254.538 72.1705Z" fill="#08E2F0"/>
<path d="M259.057 70.8846L261.997 70.0199L258.819 69.2656L255.989 70.1119L259.057 70.8846Z" fill="#08E2F0"/>
<path d="M233.45 76.0883L235.673 77.1001C235.673 77.1001 236.482 76.9161 237.272 76.7137C238.062 76.5114 238.87 76.309 238.87 76.309L236.537 75.334C236.537 75.334 235.765 75.5179 235.012 75.7203C234.259 75.9043 233.469 76.1066 233.469 76.1066L233.45 76.0883Z" fill="#08E2F0"/>
<path d="M228.727 77.2085L230.784 78.2572L234.018 77.4845L231.85 76.4727L228.727 77.2085Z" fill="#08E2F0"/>
<path d="M242.671 73.7715L245.261 74.6914L248.366 73.8635L245.666 72.9805L242.671 73.7715Z" fill="#08E2F0"/>
<path d="M223.968 78.2956L225.823 79.381C225.823 79.381 226.65 79.197 227.477 79.0131C227.881 78.9211 228.304 78.8291 228.616 78.7555C228.928 78.6819 229.13 78.6451 229.13 78.6451L227.146 77.5781C227.146 77.5781 226.963 77.6333 226.65 77.6885C226.356 77.7621 225.952 77.8357 225.566 77.9277C224.776 78.1116 223.986 78.2772 223.986 78.2772L223.968 78.2956Z" fill="#08E2F0"/>
<path d="M24.5475 83.0059L18.8887 84.2752L19.9543 84.9191L25.5763 83.613L24.5475 83.0059Z" fill="#08E2F0"/>
<path d="M297.461 55.3359L302.109 55.5566L304.277 54.6L299.555 54.416L297.461 55.3359Z" fill="#08E2F0"/>
<path d="M324.464 49.1343C324.464 49.1343 324.849 48.9135 325.529 48.5456C325.86 48.3616 326.264 48.1225 326.742 47.8649C327.201 47.6073 327.679 47.313 328.23 46.9818C330.416 45.694 333.117 43.9832 335.45 42.2907C336.608 41.4444 337.784 40.5981 338.702 39.8071C339.639 39.016 340.576 38.2801 341.201 37.6546C341.844 37.0291 342.395 36.514 342.781 36.1461C342.983 35.9621 343.093 35.815 343.185 35.723C343.277 35.631 343.314 35.5758 343.314 35.5758C343.314 35.5758 341.55 35.4654 339.786 35.3734C338.023 35.2814 336.222 35.1895 336.222 35.1895C336.222 35.1895 336.02 35.4102 335.671 35.8149C335.487 36.0173 335.267 36.2565 335.028 36.5324C334.734 36.8084 334.403 37.1211 334.054 37.4706C333.687 37.8202 333.301 38.1881 332.878 38.5929C332.456 38.9976 331.905 39.4207 331.39 39.8438C330.857 40.2854 330.324 40.7269 329.718 41.1868C329.094 41.6468 328.451 42.125 327.807 42.585C327.477 42.8241 327.164 43.0633 326.834 43.284C326.485 43.5232 326.136 43.7624 325.786 43.9831C325.088 44.4431 324.39 44.903 323.71 45.3445C322.277 46.2275 320.881 47.0738 319.687 47.7729C318.401 48.4904 317.335 49.0791 316.582 49.5022C316.196 49.7045 315.902 49.8701 315.7 49.9805C315.479 50.0909 315.369 50.1461 315.369 50.1461C315.369 50.1461 315.939 50.0725 316.802 49.9805C317.647 49.8701 318.786 49.7413 319.907 49.6126C322.185 49.3366 324.482 49.0423 324.482 49.0423L324.464 49.1343Z" fill="#08E2F0"/>
<path d="M308.408 52.6318C308.408 52.6318 308.536 52.5766 308.72 52.4846C308.904 52.3926 309.161 52.2822 309.4 52.1534L310.355 51.6751L305.413 51.6016L304.494 52.0615C304.274 52.1719 304.017 52.3006 303.833 52.3742C303.649 52.4662 303.521 52.5214 303.521 52.5214L308.389 52.6318H308.408Z" fill="#08E2F0"/>
<path d="M311.638 48.2755L316.819 48.2387C316.819 48.2387 317.26 47.9996 317.682 47.742C318.087 47.5028 318.491 47.2637 318.491 47.2637L313.254 47.3373L312.464 47.7972C312.06 48.0364 311.638 48.2755 311.638 48.2755Z" fill="#08E2F0"/>
<path d="M305.318 54.1077L307.357 53.1327L302.525 53.0039L300.56 53.9422L305.318 54.1077Z" fill="#08E2F0"/>
<path d="M308.188 50.166L306.351 51.1042L311.33 51.1778L313.222 50.2028L308.188 50.166Z" fill="#08E2F0"/>
<path d="M309.067 49.6871L314.138 49.7055L315.902 48.7305L310.776 48.7488L309.067 49.6871Z" fill="#08E2F0"/>
<path d="M283.898 60.8914L288.032 61.3145C288.032 61.3145 288.197 61.2593 288.418 61.1673C288.657 61.0753 288.969 60.965 289.263 60.8362C289.869 60.597 290.475 60.3579 290.475 60.3579L286.25 59.9531C286.25 59.9531 285.662 60.1739 285.074 60.413C284.78 60.5234 284.486 60.6338 284.247 60.7258C284.008 60.8178 283.861 60.873 283.861 60.873L283.898 60.8914Z" fill="#08E2F0"/>
<path d="M280.203 62.2549L284.208 62.7333L286.744 61.795L282.647 61.3535L280.203 62.2549Z" fill="#08E2F0"/>
<path d="M294.26 56.7343L298.779 57.0103C298.779 57.0103 298.926 56.9551 299.129 56.8631C299.349 56.7711 299.625 56.6607 299.9 56.532C300.451 56.2928 300.984 56.0536 300.984 56.0536L296.391 55.8145C296.391 55.8145 295.858 56.0536 295.344 56.2744C295.087 56.3848 294.811 56.5136 294.609 56.5871C294.407 56.6791 294.26 56.7343 294.26 56.7343Z" fill="#08E2F0"/>
<path d="M276.422 63.594L280.262 64.1275L282.907 63.2077L278.957 62.7109L276.422 63.594Z" fill="#08E2F0"/>
<path d="M287.465 59.5136L291.727 59.8999L294.134 58.9433L289.78 58.5938L287.465 59.5136Z" fill="#08E2F0"/>
<path d="M290.92 58.1347L295.311 58.4658L297.608 57.5092L293.143 57.2148L290.92 58.1347Z" fill="#08E2F0"/>
<path d="M304.419 9.03321L309.324 7.50629L307.34 7.10156L302.508 8.64689L304.419 9.03321Z" fill="#08E2F0"/>
<path d="M237.18 3.95117L233.983 4.09838L231.815 5.73567L234.902 5.60693L237.18 3.95117Z" fill="#08E2F0"/>
<path d="M241.989 3.75C241.989 3.75 241.199 3.76839 240.428 3.80519C239.638 3.84198 238.829 3.87879 238.829 3.87879L236.478 5.53449C236.478 5.53449 237.249 5.49769 238.021 5.46089C238.774 5.44249 239.527 5.4057 239.527 5.4057L241.989 3.75Z" fill="#08E2F0"/>
<path d="M244.105 5.26201L246.732 3.58789L243.59 3.69827L241.073 5.35397L244.105 5.26201Z" fill="#08E2F0"/>
<path d="M298.456 7.9437L303.122 6.37996C303.122 6.37996 302.59 6.28798 302.075 6.21439C301.524 6.14081 300.954 6.04883 300.954 6.04883L296.361 7.63093C296.361 7.63093 296.894 7.70455 297.427 7.77813C297.941 7.87012 298.456 7.9437 298.456 7.9437Z" fill="#08E2F0"/>
<path d="M307.212 9.61914L312.228 8.11059C312.228 8.11059 311.769 8.00022 311.31 7.88984C310.813 7.79785 310.336 7.6875 310.336 7.6875L305.394 9.21441C305.394 9.21441 305.871 9.30637 306.331 9.41675C306.772 9.52713 307.212 9.61914 307.212 9.61914Z" fill="#08E2F0"/>
<path d="M314.78 11.6797L320.072 10.2447C320.072 10.2447 319.686 10.116 319.282 9.98721C318.859 9.87683 318.436 9.74805 318.436 9.74805L313.2 11.2014C313.2 11.2014 313.604 11.3117 314.009 11.4405C314.394 11.5693 314.762 11.6797 314.762 11.6797H314.78Z" fill="#08E2F0"/>
<path d="M312.393 10.9599L317.592 9.4881L315.902 9.00977L310.758 10.4815L312.393 10.9599Z" fill="#08E2F0"/>
<path d="M309.896 10.2648L315.003 8.79307L313.166 8.35156L308.132 9.8417L309.896 10.2648Z" fill="#08E2F0"/>
<path d="M301.514 8.46211L306.291 6.91679L304.196 6.54883L299.475 8.11257L301.514 8.46211Z" fill="#08E2F0"/>
<path d="M328.453 13.6481L327.241 13.041L321.674 14.3656L322.868 14.9543L328.453 13.6481Z" fill="#08E2F0"/>
<path d="M317.039 12.4348L322.404 11.0366L320.879 10.5215L315.551 11.9381L317.039 12.4348Z" fill="#08E2F0"/>
<path d="M326.595 12.7305C326.595 12.7305 326.522 12.6936 326.393 12.6384C326.283 12.5832 326.118 12.5097 325.952 12.4361C325.603 12.2889 325.254 12.1602 325.254 12.1602L319.761 13.5215C319.761 13.5215 320.091 13.6503 320.422 13.7974C320.587 13.871 320.734 13.9446 320.845 13.9998C320.955 14.055 321.028 14.0918 321.028 14.0918L326.559 12.7489L326.595 12.7305Z" fill="#08E2F0"/>
<path d="M331.964 8.40715C331.964 8.40715 331.634 8.29675 331.027 8.09438C330.421 7.89202 329.613 7.5977 328.529 7.26656C327.426 6.95381 326.14 6.56749 324.707 6.18115C323.201 5.81322 321.621 5.42685 319.949 5.05892C319.085 4.87495 318.222 4.70938 317.376 4.54381C316.513 4.37824 315.705 4.19431 314.823 4.06553C313.096 3.77118 311.497 3.49519 310.046 3.27442C307.106 2.86969 305.14 2.59375 305.14 2.59375C305.14 2.59375 302.899 3.0721 300.713 3.55042C298.508 4.02874 296.34 4.52545 296.34 4.52545C296.34 4.52545 296.909 4.59899 297.92 4.70937C298.949 4.81975 300.29 5.02214 301.925 5.2429C302.734 5.35328 303.652 5.48204 304.534 5.62922C305.416 5.77639 306.353 5.92356 307.308 6.08914C307.786 6.16272 308.282 6.25473 308.778 6.34672C309.256 6.4387 309.733 6.53068 310.211 6.62266C311.148 6.80663 312.122 7.00901 313.077 7.21137C314.033 7.41374 314.896 7.63449 315.796 7.83686C316.66 8.05762 317.579 8.24158 318.332 8.46234C319.104 8.6831 319.857 8.90388 320.573 9.10624C321.29 9.30861 321.951 9.51099 322.502 9.69495C323.623 10.0813 324.56 10.394 325.222 10.6148C325.828 10.854 326.177 10.9827 326.177 10.9827C326.177 10.9827 327.684 10.3388 329.153 9.69495C330.605 9.05107 332.02 8.42557 332.02 8.42557L331.964 8.40715Z" fill="#08E2F0"/>
<path d="M317.761 12.6923L319.12 13.2442L324.577 11.8644L323.181 11.3125L317.761 12.6923Z" fill="#08E2F0"/>
<path d="M252.994 5.11357L255.952 3.43945C255.952 3.43945 255.198 3.43945 254.464 3.43945C253.692 3.43945 252.939 3.45787 252.939 3.45787L250.091 5.13199C250.091 5.13199 250.826 5.13197 251.561 5.11357C252.277 5.11357 252.994 5.11357 252.994 5.11357Z" fill="#08E2F0"/>
<path d="M273.724 5.51887L277.491 3.86317L274.79 3.73438L271.134 5.39013L273.724 5.51887Z" fill="#08E2F0"/>
<path d="M261.56 5.13199L264.849 3.45787L261.946 3.43945L258.768 5.11357L261.56 5.13199Z" fill="#08E2F0"/>
<path d="M269.789 5.33556L273.371 3.67985L270.597 3.58789L267.088 5.26201L269.789 5.33556Z" fill="#08E2F0"/>
<path d="M265.71 5.22345L269.164 3.54939C269.164 3.54939 268.466 3.53095 267.768 3.51256C267.052 3.51256 266.335 3.49414 266.335 3.49414L262.991 5.16826C262.991 5.16826 263.689 5.16826 264.369 5.16826C265.049 5.18666 265.71 5.20509 265.71 5.20509V5.22345Z" fill="#08E2F0"/>
<path d="M248.572 5.16826L251.383 3.49414L248.315 3.54939L245.633 5.22345L248.572 5.16826Z" fill="#08E2F0"/>
<path d="M295.253 7.46518L299.81 5.88308L297.568 5.57031L293.104 7.17083L295.253 7.46518Z" fill="#08E2F0"/>
<path d="M257.337 5.0999L260.46 3.42578H257.484L254.452 5.11826L257.337 5.0999Z" fill="#08E2F0"/>
<path d="M296.41 5.42438L294.058 5.14844L289.704 6.76737L291.964 7.02489L296.41 5.42438Z" fill="#08E2F0"/>
<path d="M292.845 5.02237C292.845 5.02237 292.257 4.96717 291.67 4.89358C291.063 4.83839 290.439 4.7832 290.439 4.7832L286.213 6.40213C286.213 6.40213 286.801 6.45732 287.407 6.51251C287.977 6.5677 288.546 6.6413 288.546 6.6413L292.845 5.02237Z" fill="#08E2F0"/>
<path d="M277.596 5.72367L281.491 4.06796C281.491 4.06796 280.848 4.03114 280.186 3.97595C279.507 3.93915 278.845 3.90234 278.845 3.90234L275.042 5.5581C275.042 5.5581 275.685 5.59489 276.328 5.61329C276.953 5.65009 277.577 5.70525 277.577 5.70525L277.596 5.72367Z" fill="#08E2F0"/>
<path d="M289.432 1.1223C289.432 1.1223 288.863 1.08551 287.871 1.01192C286.879 0.938337 285.372 0.883156 283.608 0.791171C282.726 0.754378 281.753 0.699174 280.742 0.66238C279.695 0.625587 278.574 0.588797 277.435 0.552004C276.278 0.51521 275.083 0.478421 273.871 0.441627C272.621 0.441627 271.354 0.404836 270.086 0.386439C268.8 0.386439 267.551 0.349609 266.265 0.349609C264.978 0.349609 263.711 0.349609 262.48 0.349609C261.249 0.349609 260.073 0.349627 258.915 0.368024C257.758 0.386421 256.674 0.404816 255.663 0.423212C253.642 0.460006 251.971 0.496795 250.74 0.533589C249.527 0.570383 248.847 0.588777 248.847 0.588777C248.847 0.588777 247.047 1.19588 245.283 1.80297C243.519 2.41007 241.811 3.01717 241.811 3.01717C241.811 3.01717 242.582 2.98036 243.923 2.94357C245.265 2.90678 247.194 2.8148 249.454 2.778C253.955 2.68602 259.908 2.59406 265.53 2.68604C266.926 2.70444 268.359 2.7228 269.719 2.75959C271.06 2.79638 272.383 2.83317 273.669 2.86997C274.312 2.86997 274.936 2.90676 275.543 2.92515C276.131 2.94355 276.719 2.98036 277.288 2.99876C278.409 3.05395 279.493 3.10917 280.467 3.14596C280.963 3.16436 281.422 3.20111 281.881 3.21951C282.304 3.2563 282.726 3.27472 283.112 3.29311C283.884 3.3483 284.545 3.38511 285.115 3.4219C286.217 3.49549 286.842 3.53228 286.842 3.53228C286.842 3.53228 287.522 2.9068 288.183 2.28131C288.826 1.65582 289.432 1.03028 289.432 1.03028V1.1223Z" fill="#08E2F0"/>
<path d="M278.885 5.81307L281.365 5.99705L285.407 4.34135L282.816 4.17578L278.885 5.81307Z" fill="#08E2F0"/>
<path d="M39.9497 49.2489L34.8604 49.2305L33.0967 50.2055L38.241 50.1871L39.9497 49.2489Z" fill="#08E2F0"/>
<path d="M32.6717 53.5L27.3253 53.6471L25.8555 54.6222L31.257 54.4198L32.6717 53.5Z" fill="#08E2F0"/>
<path d="M20.9184 63.1875L15.1127 63.7026C15.1127 63.7026 14.9106 63.9418 14.7085 64.1625C14.5247 64.4017 14.3594 64.6225 14.3594 64.6225L20.1835 64.0706C20.1835 64.0706 20.3305 63.8498 20.5142 63.629C20.7163 63.4082 20.9001 63.1875 20.9001 63.1875H20.9184Z" fill="#08E2F0"/>
<path d="M22.1067 61.8477L16.3561 62.3076L15.5293 63.2458L21.3167 62.7307L22.1067 61.8477Z" fill="#08E2F0"/>
<path d="M22.568 61.3945L23.5234 60.4746L17.8095 60.8978L16.8174 61.836L22.568 61.3945Z" fill="#08E2F0"/>
<path d="M18.2087 67.1641L12.3111 67.8447C12.3111 67.8447 12.1825 68.0655 12.0722 68.2862C11.9436 68.507 11.8701 68.7278 11.8701 68.7278L17.7861 68.0287C17.7861 68.0287 17.8596 67.8263 17.9698 67.6056C18.0801 67.3848 18.1903 67.1825 18.1903 67.1825L18.2087 67.1641Z" fill="#08E2F0"/>
<path d="M18.928 65.877L13.0488 66.4841L12.5527 67.3855L18.4504 66.7232L18.928 65.877Z" fill="#08E2F0"/>
<path d="M5.92021 63.1359C5.92021 63.1359 5.2037 63.9454 4.10134 65.178C3.64202 65.7851 3.12756 66.4841 2.61313 67.2384C2.11707 67.9927 1.73126 68.7653 1.30868 69.5564C0.941231 70.329 0.720747 71.1017 0.46353 71.8192C0.261431 72.5367 0.206309 73.1805 0.114445 73.7508C0.00420932 74.3211 0.0777201 74.7627 0.0777201 75.0754C0.0777201 75.3882 0.0960827 75.5722 0.0960827 75.5722C0.0960827 75.5722 2.1722 75.4985 4.26668 75.425C6.34279 75.3514 8.47401 75.241 8.47401 75.241C8.47401 75.241 8.4189 75.057 8.40053 74.6891C8.40053 74.3396 8.36377 73.8428 8.32702 73.2357C8.32702 72.6286 8.49238 71.8928 8.62099 71.1201C8.69448 70.7338 8.87821 70.3107 9.02519 69.8876C9.19055 69.4644 9.30079 69.0413 9.52126 68.5998C10.3664 66.8521 11.579 65.086 12.81 63.7246C13.4163 63.0439 13.894 62.4736 14.3165 62.0689C14.7391 61.6642 14.9779 61.4434 14.9779 61.4434C14.9779 61.4434 12.7181 61.8481 10.4399 62.2712C9.30079 62.492 8.16169 62.6944 7.31655 62.86C6.47141 63.0255 5.92021 63.1359 5.92021 63.1359Z" fill="#08E2F0"/>
<path d="M28.575 56.3105L23.0632 56.5681L21.7588 57.5247L27.3073 57.2304L28.575 56.3105Z" fill="#08E2F0"/>
<path d="M30.5399 54.8945L25.1016 55.0969C25.1016 55.0969 24.7341 55.3361 24.385 55.5753C24.0543 55.8144 23.7236 56.0535 23.7236 56.0535L29.2171 55.8144C29.2171 55.8144 29.5294 55.5752 29.8601 55.3545C30.1908 55.1153 30.5399 54.8945 30.5399 54.8945Z" fill="#08E2F0"/>
<path d="M17.6248 68.4492L11.7088 69.1851L11.3965 70.0497L17.3308 69.2955L17.6248 68.4492Z" fill="#08E2F0"/>
<path d="M19.384 59.4539C19.384 59.4539 19.1084 59.6931 18.8144 59.9322C18.5572 60.1714 18.3184 60.4105 18.3184 60.4105L23.9955 60.0058C23.9955 60.0058 24.2344 59.785 24.4732 59.5459C24.7488 59.3067 25.0244 59.0859 25.0244 59.0859L19.384 59.4539Z" fill="#08E2F0"/>
<path d="M21.135 58.0276L19.9775 58.9842L25.5996 58.6347L26.7203 57.7148L21.135 58.0276Z" fill="#08E2F0"/>
<path d="M19.8469 64.5371L14.0044 65.1074L13.3613 66.0272L19.2222 65.4201L19.8469 64.5371Z" fill="#08E2F0"/>
<path d="M17.1866 69.7383L11.2523 70.511C11.2523 70.511 11.2523 70.5661 11.2155 70.6397C11.2155 70.7133 11.1788 70.8237 11.1604 70.9341C11.1237 71.1548 11.0869 71.3572 11.0869 71.3572L17.0397 70.5662C17.0397 70.5662 17.0764 70.3638 17.1131 70.1614C17.1315 70.051 17.1499 69.9591 17.1683 69.8855C17.1867 69.8119 17.205 69.7567 17.205 69.7567L17.1866 69.7383Z" fill="#08E2F0"/>
<path d="M19.5328 79.0301L13.6719 80.1523C13.6719 80.1523 13.7086 80.2075 13.7637 80.2627C13.8372 80.3363 13.9291 80.4099 14.0026 80.5019C14.1863 80.6858 14.37 80.8514 14.37 80.8514L20.1942 79.7108C20.1942 79.7108 20.0104 79.5452 19.8451 79.3613C19.7532 79.2693 19.6797 79.1957 19.6062 79.1221C19.5327 79.0485 19.5144 79.0117 19.5144 79.0117L19.5328 79.0301Z" fill="#08E2F0"/>
<path d="M2.5625 81.59C2.5625 81.59 2.69111 81.7556 2.91158 82.0315C3.09531 82.3259 3.55464 82.6938 4.01396 83.1722C4.2528 83.4113 4.52838 83.6504 4.80397 83.9264C5.09793 84.1839 5.48375 84.4599 5.83283 84.7358C6.20028 85.0118 6.58612 85.3062 6.99032 85.5821C7.39452 85.8765 7.89059 86.1524 8.3499 86.4284C8.82759 86.7043 9.30526 86.9803 9.76458 87.2563C10.2606 87.5322 10.7935 87.7713 11.3079 88.0289C11.8223 88.2681 12.3184 88.5072 12.7777 88.7464C13.2738 88.9672 13.7698 89.1695 14.2291 89.3535C15.1478 89.7214 15.9011 90.0342 16.4706 90.2365C17.0585 90.4389 17.3892 90.5493 17.3892 90.5493C17.3892 90.5493 19.7042 90.2181 22.0008 89.8686C24.2974 89.519 26.5756 89.1695 26.5756 89.1695C26.5756 89.1695 26.1898 89.0407 25.5467 88.8199C24.9037 88.5992 23.9115 88.2865 22.9194 87.8633C21.9273 87.4402 20.6596 86.9803 19.5756 86.4284C19.0244 86.1524 18.4365 85.8765 17.8486 85.5821C17.2974 85.2878 16.7829 84.975 16.2685 84.6623C14.1557 83.4297 12.6123 82.0499 11.5835 81.0013C11.3079 80.7437 11.1058 80.5046 10.9405 80.2838C10.7751 80.0631 10.6281 79.8791 10.4995 79.7135C10.2607 79.4008 10.1321 79.2168 10.1321 79.2168C10.1321 79.2168 8.23967 79.7871 6.34729 80.3758C4.45491 80.9645 2.58089 81.5532 2.58089 81.5532L2.5625 81.59Z" fill="#08E2F0"/>
<path d="M18.7064 77.9609L12.8271 79.028L13.3967 79.7638L19.2576 78.66L18.7064 77.9609Z" fill="#08E2F0"/>
<path d="M21.7358 81.0918L15.9668 82.2692L16.8671 82.9498L22.5993 81.7357L21.7358 81.0918Z" fill="#08E2F0"/>
<path d="M20.58 80.082L14.7559 81.2226L15.5091 81.9401L21.2965 80.7443L20.58 80.082Z" fill="#08E2F0"/>
<path d="M12.1094 77.8943C12.1094 77.8943 12.2012 78.0783 12.3115 78.2807C12.4033 78.483 12.5503 78.6486 12.5503 78.6486L18.4479 77.5816C18.4479 77.5816 18.3009 77.3976 18.2274 77.2136C18.1356 77.0296 18.0437 76.8457 18.0437 76.8457L12.1277 77.8759L12.1094 77.8943Z" fill="#08E2F0"/>
<path d="M11.5254 76.7337L11.9112 77.5063L17.8272 76.4761L17.4598 75.7402L11.5254 76.7337Z" fill="#08E2F0"/>
<path d="M16.9458 70.9746L10.9931 71.8024L10.8828 72.6487L16.8356 71.8024L16.9458 70.9746Z" fill="#08E2F0"/>
<path d="M16.8356 72.207L10.8828 73.0717L10.9196 73.8996L16.8723 72.9981L16.8356 72.207Z" fill="#08E2F0"/>
<path d="M11.1787 75.5328L11.3992 76.3239L17.3336 75.3489L17.1315 74.5762L11.1787 75.5328Z" fill="#08E2F0"/>
<path d="M10.9346 74.3027C10.9346 74.3027 10.9346 74.505 10.9713 74.7074C11.0264 74.9098 11.0632 75.1121 11.0632 75.1121L17.0159 74.1739C17.0159 74.1739 16.9608 73.9899 16.924 73.7875C16.8873 73.5852 16.8873 73.3828 16.8873 73.3828L10.9346 74.2842V74.3027Z" fill="#08E2F0"/>
<path d="M37.4442 43.4177C37.4442 43.4177 36.9665 43.6385 36.1398 44.0064C35.3314 44.3744 34.2106 44.9079 32.8694 45.5518C32.208 45.8645 31.4547 46.214 30.7198 46.582C30.0033 46.9499 29.2317 47.3363 28.46 47.741C27.6884 48.1457 26.8616 48.5504 26.0716 48.9735C25.2999 49.3967 24.5283 49.8198 23.7566 50.2429C22.1766 51.1076 20.7802 51.9539 19.439 52.7449C18.0795 53.5544 16.9955 54.2903 16.0217 54.9342C15.544 55.2469 15.1031 55.5413 14.7173 55.7988C14.3498 56.0564 14.0375 56.2771 13.7802 56.4611C13.2658 56.829 12.9902 57.0498 12.9902 57.0498C12.9902 57.0498 14.5152 57.2522 16.0768 57.4177C17.6385 57.6017 19.2186 57.7489 19.2186 57.7489C19.2186 57.7489 19.5309 57.5097 20.1004 57.105C20.67 56.7002 21.4416 56.1116 22.4521 55.3941C23.5361 54.695 24.7304 53.8671 26.1634 52.9657C27.6516 52.0826 29.1582 51.126 30.9219 50.1694C31.7855 49.6911 32.649 49.2127 33.4941 48.7528C34.4128 48.2929 35.2946 47.833 36.1765 47.373C37.8852 46.49 39.6673 45.6622 41.1555 44.9447C42.6253 44.2272 43.9849 43.6569 44.9035 43.2337C45.8405 42.829 46.355 42.5898 46.355 42.5898C46.355 42.5898 44.1503 42.7739 41.9272 42.9762C39.7041 43.1602 37.4442 43.381 37.4442 43.381V43.4177Z" fill="#08E2F0"/>
<path d="M72.5598 35.3343L68.7015 34.8008L66.0742 35.7206L70.0243 36.2173L72.5598 35.3343Z" fill="#08E2F0"/>
<path d="M84.5213 31.3818L81.1224 30.7012L78.293 31.5842L81.7838 32.2281L84.5213 31.3818Z" fill="#08E2F0"/>
<path d="M76.43 33.9989L72.7187 33.4102C72.7187 33.4102 72.5534 33.4654 72.2962 33.5574C72.0389 33.6493 71.7082 33.7597 71.3775 33.8701C70.7161 34.1092 70.0547 34.33 70.0547 34.33L73.8578 34.8819C73.8578 34.8819 74.5009 34.6611 75.1255 34.4404C75.4379 34.33 75.7686 34.2196 76.0074 34.146C76.2463 34.0724 76.4116 34.0173 76.4116 34.0173L76.43 33.9989Z" fill="#08E2F0"/>
<path d="M80.417 32.6888L76.8711 32.0449L74.1152 32.9463L77.7714 33.5535L80.417 32.6888Z" fill="#08E2F0"/>
<path d="M42.6497 47.8286L37.6707 47.7734L35.7783 48.7301L40.8124 48.7669L42.6497 47.8286Z" fill="#08E2F0"/>
<path d="M45.4598 46.4151L40.5911 46.3047C40.5911 46.3047 40.4624 46.3599 40.2787 46.4518C40.095 46.5438 39.8378 46.6726 39.5989 46.783L38.6436 47.2613L43.5858 47.3349L44.5044 46.875C44.7249 46.7646 44.9638 46.6358 45.1659 46.5622C45.3496 46.4702 45.4782 46.4151 45.4782 46.4151H45.4598Z" fill="#08E2F0"/>
<path d="M51.5186 43.5977L46.8703 43.377L44.7207 44.3336L49.4425 44.5175L51.5186 43.5977Z" fill="#08E2F0"/>
<path d="M48.4373 44.9996L43.6605 44.834L41.6211 45.809L46.4715 45.9378L48.4373 44.9996Z" fill="#08E2F0"/>
<path d="M37.3794 50.666L32.1983 50.7028C32.1983 50.7028 32.0881 50.758 31.9227 50.85C31.7574 50.942 31.5369 51.0707 31.3348 51.1811C30.9306 51.4203 30.5264 51.6595 30.5264 51.6595L35.7626 51.5859C35.7626 51.5859 36.1484 51.3467 36.5526 51.1259C36.7363 51.0156 36.9568 50.8868 37.1222 50.8132C37.2875 50.7396 37.3794 50.666 37.3794 50.666Z" fill="#08E2F0"/>
<path d="M23.045 82.0692L17.3311 83.3018C17.3311 83.3018 17.3862 83.3385 17.478 83.4121C17.5515 83.4673 17.6801 83.5594 17.8271 83.6329C18.0843 83.7985 18.3599 83.9457 18.3599 83.9457L24.0371 82.6947C24.0371 82.6947 23.7798 82.5475 23.5226 82.3819C23.394 82.3083 23.2654 82.2347 23.1919 82.1612C23.1001 82.106 23.0633 82.0508 23.0633 82.0508L23.045 82.0692Z" fill="#08E2F0"/>
<path d="M65.0842 38.0462L60.9504 37.623C60.9504 37.623 60.785 37.6782 60.5646 37.7702C60.3257 37.8622 60.0134 37.9726 59.7194 38.1014C59.1131 38.3405 58.5068 38.5797 58.5068 38.5797L62.7325 38.9844C62.7325 38.9844 63.3205 38.7636 63.89 38.5245C64.184 38.4141 64.4779 38.3037 64.7168 38.2118C64.9372 38.1198 65.1026 38.0646 65.1026 38.0646L65.0842 38.0462Z" fill="#08E2F0"/>
<path d="M68.7547 36.6814L64.7678 36.2031L62.2324 37.1413L66.3295 37.5829L68.7547 36.6814Z" fill="#08E2F0"/>
<path d="M57.2554 39.0352L54.8486 39.9918L59.2029 40.3414L61.5179 39.4215L57.2554 39.0352Z" fill="#08E2F0"/>
<path d="M34.9661 52.0781L29.6931 52.1701L28.0947 53.1452L33.4228 53.0164L34.9661 52.0781Z" fill="#08E2F0"/>
<path d="M53.6735 40.4707L51.377 41.4274L55.8599 41.7217L58.0646 40.8019L53.6735 40.4707Z" fill="#08E2F0"/>
<path d="M52.5854 43.1235C52.5854 43.1235 53.1181 42.8844 53.6326 42.6636C53.8898 42.5532 54.1654 42.4245 54.3675 42.3509C54.5696 42.2589 54.7166 42.2037 54.7166 42.2037L50.1969 41.9277C50.1969 41.9277 50.0499 41.9829 49.8478 42.0749C49.6273 42.1669 49.3518 42.2773 49.0762 42.4061C48.525 42.6452 47.9922 42.8843 47.9922 42.8843L52.6037 43.1235H52.5854Z" fill="#08E2F0"/>
<path d="M289.174 4.67388L286.694 4.45312L282.615 6.09041L285.004 6.29281L289.174 4.67388Z" fill="#08E2F0"/>
<path d="M70.4083 36.8129C69.0671 37.3096 67.7075 37.8063 66.3663 38.3031C65.0435 38.7998 63.7758 39.3149 62.4713 39.8116C61.8283 40.0692 61.1669 40.3083 60.5422 40.5659L58.6866 41.3385C57.474 41.8536 56.1879 42.3687 55.0304 42.8839C50.2535 44.9443 45.9359 47.06 41.9675 49.1756C38.0173 51.2912 34.6 53.4069 31.5685 55.5225L29.4189 57.1046C28.7208 57.6197 28.1328 58.1533 27.4898 58.6684C27.1775 58.9259 26.8468 59.1835 26.5528 59.4594L25.726 60.2321L24.9176 61.0047C24.642 61.2623 24.3848 61.5199 24.1643 61.7774L22.8048 63.3043C22.3822 63.8195 22.0515 64.3162 21.684 64.8129L21.1512 65.5672L20.747 66.303C20.4898 66.7998 20.1775 67.2964 19.9937 67.7748C19.1486 69.7248 18.9465 71.5829 19.1486 73.3858C19.4977 75.1703 20.2693 76.8812 21.6473 78.4817C21.978 78.8865 22.4189 79.2728 22.8048 79.6592L23.4111 80.2478L24.146 80.7997C24.6604 81.1677 25.1013 81.554 25.6709 81.9036L27.4347 82.9521C27.7103 83.1361 28.041 83.3017 28.3901 83.4673L29.4005 83.964L30.411 84.4607C30.7601 84.6263 31.1643 84.7734 31.5318 84.9206C32.3034 85.2334 33.0199 85.5461 33.8467 85.8405L36.3638 86.7051C39.8913 87.8089 43.7863 88.8023 48.1958 89.6302C52.6236 90.4397 57.3637 91.1571 62.5448 91.6906C63.8125 91.8378 65.1721 91.9482 66.4949 92.0586L68.4975 92.2426C69.1773 92.2978 69.8755 92.3345 70.5737 92.3897C71.97 92.4817 73.3296 92.5737 74.7443 92.6657C76.1773 92.7393 77.6104 92.8129 79.0435 92.8681C90.6733 93.3464 103.406 93.2544 116.707 92.5921L119.188 92.4633L121.705 92.3162C123.395 92.2058 125.067 92.1138 126.739 92.0034C130.138 91.7459 133.518 91.5251 136.954 91.2124C143.77 90.6421 150.678 89.9062 157.513 89.1151C160.949 88.692 164.348 88.2873 167.747 87.8089C169.437 87.5698 171.146 87.349 172.836 87.1098C174.526 86.8523 176.216 86.6131 177.888 86.374C178.733 86.2452 179.56 86.1348 180.405 85.9877C181.232 85.8589 182.077 85.7301 182.904 85.5829C184.576 85.307 186.23 85.0494 187.883 84.7918C189.537 84.5159 191.172 84.2215 192.807 83.9456C194.442 83.6696 196.077 83.3937 197.694 83.0809C199.311 82.7866 200.928 82.4739 202.526 82.1795L203.739 81.9588L204.933 81.7196C205.723 81.5724 206.513 81.4068 207.303 81.2413C208.883 80.9285 210.463 80.6157 212.025 80.303C213.586 79.9719 215.13 79.6591 216.673 79.328C217.445 79.1624 218.216 78.9968 218.97 78.8313C219.723 78.6657 220.476 78.5002 221.229 78.3346C222.736 78.0034 224.243 77.6539 225.731 77.3227C227.219 76.9916 228.67 76.6236 230.122 76.2925C231.573 75.943 233.043 75.6118 234.458 75.2439C245.849 72.4292 256.284 69.4857 265.581 66.5238C274.878 63.5619 282.98 60.5816 289.962 57.7117C296.943 54.8418 302.786 52.0455 307.618 49.4331C312.431 46.8208 316.271 44.374 319.192 42.1296C319.982 41.5593 320.607 41.0258 321.25 40.4923C321.893 39.9588 322.536 39.4437 323.032 38.947C323.565 38.4502 324.08 37.9535 324.576 37.4752C324.998 36.9969 325.421 36.5369 325.825 36.0954C328.948 32.508 329.72 29.8589 329.94 28.1112C330.014 27.6697 330.069 27.2833 330.032 26.9522C330.032 26.621 330.014 26.3635 329.996 26.1428C329.977 25.7013 329.959 25.4805 329.959 25.4805L326.486 26.014C326.486 26.014 326.486 26.2348 326.523 26.6579C326.523 26.8787 326.541 27.1362 326.56 27.4489C326.597 27.7617 326.542 28.148 326.468 28.5711C326.266 30.282 325.494 32.876 322.444 36.3714C322.059 36.8129 321.654 37.2544 321.232 37.7328C320.736 38.1927 320.24 38.6894 319.725 39.1677C319.229 39.6644 318.605 40.1611 317.98 40.6946C317.337 41.2097 316.749 41.7433 315.959 42.2952C313.111 44.4844 309.345 46.876 304.641 49.4331C299.92 51.9903 294.206 54.7131 287.389 57.5278C280.555 60.3425 272.636 63.2492 263.56 66.1559C254.484 69.0442 244.287 71.9324 233.135 74.6736C231.757 75.0231 230.324 75.3543 228.909 75.6854C227.476 76.0166 226.061 76.3661 224.61 76.6972C223.14 77.0284 221.689 77.3595 220.201 77.6907C219.466 77.8563 218.731 78.0218 217.977 78.1874C217.243 78.3529 216.489 78.5001 215.736 78.6657C214.229 78.9785 212.723 79.2912 211.198 79.6223C209.673 79.9351 208.13 80.2294 206.586 80.5422C205.815 80.6893 205.043 80.8365 204.253 81.0021L203.096 81.2228L201.92 81.4436C200.34 81.738 198.778 82.0323 197.18 82.3267C195.6 82.621 194.001 82.897 192.403 83.173C190.804 83.4489 189.188 83.7248 187.589 84.0008C185.972 84.2583 184.356 84.5159 182.72 84.7918L180.277 85.1782C179.468 85.307 178.642 85.4173 177.815 85.5461C176.18 85.7853 174.526 86.0244 172.873 86.282C171.219 86.5211 169.566 86.7419 167.894 86.9627C164.568 87.4226 161.243 87.8274 157.881 88.2321C151.193 89.0047 144.45 89.7406 137.781 90.2925C134.419 90.6053 131.13 90.826 127.804 91.0652C126.151 91.1755 124.516 91.2675 122.881 91.3779L120.419 91.5251L117.993 91.6355C104.986 92.2793 92.529 92.3714 81.1563 91.893C79.76 91.8194 78.3453 91.7642 76.949 91.6906C75.5527 91.6171 74.2298 91.5067 72.8702 91.4331C72.1905 91.3779 71.5107 91.3411 70.8492 91.2859L68.9017 91.1203C67.6157 90.9916 66.2745 90.8996 65.0435 90.7524C59.9727 90.2373 55.3427 89.5383 51.0068 88.7472C46.6892 87.9377 42.9044 86.9627 39.4504 85.8956L36.9884 85.0494C36.1984 84.7551 35.4819 84.4607 34.7286 84.148C34.3612 84.0008 33.9753 83.8536 33.6262 83.6881L32.6341 83.2097L31.642 82.7314C31.3113 82.5658 30.9806 82.4187 30.705 82.2347L28.978 81.2045C28.4268 80.8549 27.9858 80.487 27.4898 80.1191L26.7733 79.5671L26.167 78.9968C25.7811 78.6105 25.3402 78.2426 25.0279 77.8378C23.6683 76.2741 22.9334 74.5816 22.5843 72.8523C22.4006 71.0862 22.5843 69.2649 23.4111 67.3517C23.5948 66.8734 23.9071 66.395 24.146 65.9167L24.5502 65.1992L25.0646 64.4634C25.432 63.9666 25.7444 63.4883 26.167 62.9916L27.4898 61.5015C27.6919 61.2439 27.9675 61.0048 28.2247 60.7472L29.0147 59.9929L29.8231 59.2387C30.0987 58.9811 30.4294 58.7235 30.7234 58.466C31.348 57.9509 31.936 57.4542 32.6157 56.9391L34.7286 55.3937C37.6866 53.3333 41.0304 51.2545 44.8887 49.194C48.7837 47.1336 52.991 45.0731 57.6577 43.0494C58.7968 42.5343 60.0461 42.0376 61.2404 41.5409L63.0409 40.7866C63.6655 40.5291 64.2902 40.2899 64.9333 40.0508C66.201 39.5541 67.4319 39.0573 68.7364 38.579C70.0592 38.0823 71.382 37.604 72.6865 37.1257" fill="#08E2F0"/>
<path d="M254.406 6.693C263.942 6.7114 272.375 7.11614 279.724 7.74163C287.073 8.36712 293.356 9.25016 298.611 10.262C303.865 11.2738 308.165 12.4328 311.545 13.6654C312.445 13.9598 313.18 14.2725 313.952 14.5853C314.705 14.898 315.459 15.1924 316.083 15.5051C316.726 15.8178 317.351 16.1306 317.957 16.4249C318.49 16.7377 319.005 17.0504 319.519 17.3448C323.487 19.7732 324.976 22.0175 325.692 23.5813C325.894 23.9676 326.06 24.3172 326.115 24.6299C326.207 24.9427 326.262 25.2002 326.317 25.4025C326.427 25.8257 326.482 26.028 326.482 26.028L329.955 25.4946C329.955 25.4946 329.899 25.2738 329.789 24.8507C329.734 24.6299 329.661 24.3724 329.569 24.0596C329.514 23.7469 329.33 23.3973 329.128 22.9926C328.393 21.392 326.868 19.0924 322.808 16.6089C322.293 16.2961 321.76 15.9834 321.209 15.6707C320.585 15.3579 319.942 15.0452 319.298 14.7324C318.674 14.4013 317.902 14.1069 317.131 13.7941C316.34 13.4814 315.587 13.1503 314.669 12.8559C311.215 11.605 306.823 10.4275 301.44 9.37892C296.057 8.3303 289.645 7.44726 282.112 6.80338C274.579 6.15949 265.963 5.75472 256.207 5.73633" fill="#08E2F0"/>
<path d="M252.926 7.48481C271.648 7.54 286.015 8.97494 296.322 10.9802C301.485 11.9736 305.71 13.1142 309.017 14.31C309.899 14.586 310.616 14.9172 311.369 15.2115C312.104 15.5059 312.857 15.8002 313.464 16.1129C314.088 16.4257 314.695 16.72 315.301 17.0144C315.815 17.3271 316.33 17.6215 316.826 17.9158C320.721 20.289 322.191 22.4966 322.889 24.042C323.091 24.4283 323.256 24.7594 323.311 25.0722C323.385 25.3665 323.458 25.6241 323.514 25.8265C323.624 26.2312 323.679 26.4519 323.679 26.4519L325.075 26.2312C325.075 26.2312 325.02 26.0104 324.91 25.6057C324.855 25.4033 324.781 25.1458 324.708 24.833C324.653 24.5203 324.487 24.1891 324.285 23.8028C323.587 22.2575 322.099 20.0315 318.167 17.6215C317.671 17.3271 317.138 17.0144 316.624 16.7016C316.017 16.4073 315.393 16.0945 314.768 15.8002C314.162 15.4874 313.409 15.1931 312.655 14.8803C311.902 14.586 311.167 14.2548 310.267 13.9789C306.923 12.7647 302.661 11.6241 297.443 10.6123C292.225 9.60047 286.015 8.73579 278.721 8.1103C271.427 7.4848 263.086 7.09847 253.624 7.08008" fill="#08E2F0"/>
<path d="M73.6775 37.1964C72.3731 37.6747 71.0686 38.1531 69.7641 38.6498C68.478 39.1281 67.2471 39.6248 65.9977 40.1215C65.3731 40.3607 64.7484 40.6183 64.1237 40.8574L62.3416 41.6116C61.1657 42.1084 59.9348 42.6051 58.7957 43.1018C54.1657 45.1071 49.9951 47.1491 46.1369 49.1912C42.297 51.2332 39.0083 53.2937 36.0687 55.3357L33.9926 56.8626C33.3311 57.3777 32.7432 57.8745 32.1186 58.3896C31.8246 58.6472 31.4939 58.9047 31.2183 59.1438L30.4283 59.8981L29.6383 60.6524C29.3627 60.9099 29.1055 61.1491 28.9034 61.4066L27.5805 62.8968C27.158 63.3935 26.8456 63.8719 26.4965 64.3686L25.9821 65.1044L25.5963 65.8219C25.3574 66.3002 25.0451 66.7785 24.8614 67.2568C24.053 69.1517 23.8509 70.9546 24.0346 72.7023C24.3837 74.4316 25.1186 76.0873 26.4598 77.6511C26.7721 78.0374 27.2131 78.4053 27.5805 78.7917L28.1684 79.362L28.885 79.8955C29.381 80.245 29.822 80.6129 30.3731 80.9625L32.0818 81.9743C32.3574 82.1399 32.6697 82.3055 33.0005 82.471L33.9742 82.9493L34.9663 83.4277C35.3154 83.5748 35.6829 83.722 36.0503 83.8876C36.8036 84.1819 37.5018 84.4947 38.2918 84.7706L40.7353 85.5985C44.1526 86.6655 47.9191 87.6221 52.1815 88.4316C56.4623 89.2227 61.0555 89.9033 66.0896 90.4184C67.3022 90.5656 68.6434 90.6576 69.9111 90.7864L71.8402 90.9519C72.5017 91.0071 73.1814 91.044 73.8429 91.0992C75.1841 91.1911 76.5069 91.2831 77.8848 91.3567C79.2812 91.4303 80.6591 91.4855 82.0554 91.5591C93.3179 92.019 105.646 91.9454 118.544 91.3015L120.95 91.1911L123.394 91.044C125.029 90.952 126.646 90.86 128.281 90.7496C131.588 90.5105 134.84 90.2897 138.166 89.9769C144.761 89.425 151.449 88.7076 158.082 87.9349C161.407 87.5302 164.714 87.1254 168.003 86.6655C169.656 86.4448 171.291 86.224 172.927 85.9848C174.562 85.7457 176.197 85.5065 177.814 85.2673C178.622 85.1386 179.449 85.0282 180.257 84.8994L182.682 84.5131C184.299 84.2555 185.898 83.998 187.514 83.7404C189.113 83.4645 190.711 83.1885 192.291 82.9125C193.871 82.6366 195.47 82.3791 197.031 82.0663C198.593 81.772 200.155 81.4776 201.717 81.2017L202.874 80.9809L204.032 80.7601C204.803 80.6129 205.575 80.4473 206.328 80.3002C207.853 79.9874 209.396 79.6931 210.903 79.3803C212.409 79.0676 213.898 78.7549 215.404 78.4421C216.157 78.2766 216.892 78.1294 217.627 77.9638C218.362 77.7982 219.097 77.6327 219.814 77.4671C221.265 77.136 222.735 76.8232 224.168 76.4921C225.601 76.1609 227.016 75.8298 228.43 75.4986C229.827 75.1675 231.26 74.8364 232.619 74.4868C243.661 71.7641 253.766 68.9125 262.751 66.0426C271.753 63.1727 279.598 60.2845 286.359 57.5065C293.121 54.7102 298.779 52.0242 303.464 49.4855C308.131 46.9467 311.842 44.5735 314.672 42.4211C315.443 41.8692 316.031 41.3541 316.674 40.839C317.299 40.3239 317.924 39.8272 318.401 39.3305C318.916 38.8521 319.412 38.3738 319.889 37.9139C320.294 37.454 320.698 37.0125 321.084 36.5709C324.097 33.0939 324.85 30.5368 325.052 28.8443C325.126 28.4212 325.181 28.0348 325.144 27.7221C325.144 27.4093 325.126 27.1334 325.107 26.931C325.089 26.5079 325.071 26.2871 325.071 26.2871L323.674 26.5079C323.674 26.5079 323.674 26.7286 323.711 27.1518C323.711 27.3725 323.729 27.6301 323.748 27.9428C323.784 28.2556 323.729 28.6235 323.656 29.0466C323.454 30.7207 322.701 33.2595 319.724 36.6997C319.338 37.1228 318.934 37.5644 318.53 38.0243C318.052 38.4842 317.556 38.9625 317.042 39.4408C316.564 39.9191 315.939 40.4159 315.315 40.931C314.69 41.4461 314.102 41.9612 313.33 42.4947C310.538 44.6471 306.845 46.9835 302.215 49.5039C292.992 54.5078 279.708 60.2109 261.869 65.9139C252.958 68.747 242.945 71.5801 232.013 74.2844C230.672 74.634 229.257 74.9467 227.861 75.2779C226.465 75.609 225.068 75.9402 223.635 76.2713C222.202 76.5841 220.769 76.9152 219.318 77.2463C218.601 77.4119 217.866 77.5591 217.15 77.7246C216.415 77.8902 215.68 78.0374 214.945 78.1845C213.457 78.4973 211.987 78.8101 210.499 79.1228C209.011 79.4355 207.486 79.7299 205.979 80.0242C205.226 80.1714 204.454 80.3186 203.701 80.4658L202.562 80.6865L201.404 80.9073C199.861 81.2016 198.318 81.4776 196.756 81.7719C195.213 82.0663 193.633 82.3238 192.071 82.5998C190.491 82.8757 188.911 83.1517 187.331 83.4092C185.751 83.6668 184.152 83.9244 182.554 84.1819L180.147 84.5682C179.339 84.697 178.549 84.8074 177.74 84.9178C176.123 85.157 174.507 85.3961 172.89 85.6353C171.273 85.8745 169.638 86.0768 168.003 86.316C164.732 86.7759 161.462 87.1622 158.173 87.5669C151.614 88.3396 144.982 89.0387 138.441 89.5906C135.152 89.885 131.919 90.1057 128.648 90.3449C127.032 90.4553 125.433 90.5473 123.816 90.6392L121.391 90.7864L119.003 90.8968C106.234 91.5223 94.0161 91.6143 82.8455 91.1543C81.4675 91.0808 80.0896 91.0255 78.7116 90.9519C77.3521 90.8784 76.0476 90.7864 74.7064 90.6944C74.045 90.6392 73.3652 90.6024 72.7221 90.5472L70.8114 90.3817C69.5437 90.2713 68.2392 90.1609 67.0266 90.0321C62.0476 89.517 57.5096 88.8363 53.2471 88.0636C49.0214 87.2726 45.2918 86.316 41.8928 85.2673L39.4676 84.4395C38.6776 84.1635 37.9794 83.8508 37.2445 83.5564C36.8955 83.4093 36.5096 83.2621 36.1606 83.1149L35.1868 82.6366L34.2131 82.1583C33.8823 81.9927 33.57 81.8455 33.2944 81.6799L31.6041 80.6681C31.053 80.337 30.6304 79.9691 30.1343 79.6011L29.4362 79.0676L28.8482 78.5157C28.4808 78.1478 28.0398 77.7798 27.7275 77.3751C26.4047 75.8297 25.6697 74.1924 25.3207 72.4815C25.1369 70.7522 25.3207 68.9493 26.1475 67.0913C26.3312 66.6313 26.6251 66.153 26.864 65.6747L27.2498 64.9572L27.7642 64.2398C28.1317 63.7615 28.4257 63.2831 28.8482 62.7864L30.1527 61.3147C30.3548 61.0755 30.612 60.818 30.8876 60.5788L31.6776 59.8429L32.4676 59.0886C32.7432 58.8311 33.0556 58.592 33.3679 58.3344C33.9926 57.8377 34.5621 57.341 35.2235 56.8259L37.2813 55.3173C40.1842 53.2937 43.4545 51.2516 47.2576 49.228C51.0791 47.2043 55.213 45.1807 59.8062 43.1938C60.9269 42.6971 62.1395 42.2004 63.3153 41.7037L65.0791 40.9678C65.6854 40.7286 66.3101 40.4894 66.9348 40.2319C68.1841 39.7536 69.3967 39.2569 70.6644 38.7786C71.9505 38.3003 73.2549 37.8219 74.541 37.3436" fill="#08E2F0"/>
<path d="M337.157 21.3574L331.241 22.3876L331.59 23.1235L337.525 22.1301L337.157 21.3574Z" fill="#08E2F0"/>
<path d="M336.519 20.1953L330.621 21.2623C330.621 21.2623 330.658 21.2991 330.695 21.3727C330.75 21.4463 330.805 21.5383 330.842 21.6303C330.933 21.8142 331.025 21.9982 331.025 21.9982L336.941 20.9679C336.941 20.9679 336.849 20.784 336.739 20.5816C336.684 20.4896 336.629 20.3977 336.574 20.3241C336.519 20.2505 336.482 20.2137 336.482 20.2137L336.519 20.1953Z" fill="#08E2F0"/>
<path d="M337.675 22.5371L331.74 23.5121L331.942 24.2848L337.895 23.3282L337.675 22.5371Z" fill="#08E2F0"/>
<path d="M335.668 19.0977L329.807 20.2015L330.339 20.9006L336.219 19.8335L335.668 19.0977Z" fill="#08E2F0"/>
<path d="M332.051 24.6668L332.161 25.1451L338.114 24.2253L338.004 23.7285L332.051 24.6668Z" fill="#08E2F0"/>
<path d="M348.919 22.3676C348.919 22.3676 348.736 21.6686 348.46 20.62C348.258 20.1049 347.946 19.5162 347.633 18.8907C347.486 18.5779 347.248 18.2467 347.009 17.934C346.77 17.6213 346.513 17.2901 346.274 16.959C346.053 16.6278 345.704 16.3151 345.392 16.0208C345.08 15.708 344.749 15.4136 344.455 15.1193C344.161 14.8249 343.775 14.5674 343.444 14.3098C343.095 14.0523 342.783 13.8131 342.489 13.5924C341.92 13.1508 341.295 12.8013 340.891 12.5622C340.486 12.323 340.248 12.1758 340.248 12.1758C340.248 12.1758 337.969 12.4333 335.691 12.6909C333.431 12.9484 331.135 13.2428 331.135 13.2428C331.135 13.2428 331.429 13.3716 331.851 13.6291C332.274 13.8867 332.899 14.2547 333.633 14.6962C334.35 15.1377 335.03 15.6896 335.82 16.2783C336.555 16.867 337.179 17.5293 337.859 18.1916C338.392 18.8723 338.943 19.5529 339.347 20.1968C339.678 20.8591 340.027 21.4846 340.229 22.0181C340.523 23.1219 340.707 23.8578 340.707 23.8578L347.266 22.846L348.938 22.3861L348.919 22.3676Z" fill="#08E2F0"/>
<path d="M329.077 13.9629L323.455 15.2507L324.484 15.8578L330.143 14.5884L329.077 13.9629Z" fill="#08E2F0"/>
<path d="M330.695 14.9199L325.018 16.1709C325.018 16.1709 325.275 16.3181 325.532 16.4837C325.808 16.6308 326.01 16.7964 326.01 16.7964L331.724 15.5638C331.724 15.5638 331.503 15.3982 331.228 15.2326C330.97 15.0671 330.695 14.9199 330.695 14.9199Z" fill="#08E2F0"/>
<path d="M334.663 17.9941L328.839 19.1347C328.839 19.1347 329.023 19.3003 329.188 19.4843C329.28 19.5763 329.353 19.6499 329.427 19.7234C329.5 19.7786 329.519 19.8338 329.519 19.8338L335.361 18.7116C335.361 18.7116 335.324 18.6565 335.251 18.6013C335.177 18.5277 335.104 18.4541 335.012 18.3621C334.828 18.1781 334.645 18.0126 334.645 18.0126L334.663 17.9941Z" fill="#08E2F0"/>
<path d="M333.543 16.9219L327.756 18.0992C327.756 18.0992 327.811 18.136 327.884 18.2096C327.958 18.2832 328.05 18.3568 328.123 18.4488C328.307 18.6144 328.472 18.7983 328.472 18.7983L334.297 17.6393C334.297 17.6393 334.113 17.4553 333.929 17.2898C333.837 17.1978 333.745 17.1059 333.672 17.0507C333.598 16.9771 333.543 16.9403 333.543 16.9403V16.9219Z" fill="#08E2F0"/>
<path d="M332.18 15.9121L326.447 17.1263L327.311 17.7886L333.08 16.5928L332.18 15.9121Z" fill="#08E2F0"/>
</svg>
