<svg width="549" height="155" viewBox="0 0 549 155" fill="none" xmlns="http://www.w3.org/2000/svg">
<path d="M224.389 149.273C224.389 149.273 225.565 149.144 227.622 148.942C229.68 148.74 232.657 148.39 236.203 148.004C237.985 147.801 239.914 147.581 241.935 147.36C243.974 147.121 246.142 146.845 248.365 146.569C250.588 146.293 252.903 145.999 255.255 145.723C257.607 145.428 259.995 145.097 262.365 144.766C264.754 144.435 267.142 144.122 269.494 143.791C271.845 143.46 274.142 143.11 276.384 142.779C278.607 142.448 280.775 142.135 282.814 141.822C284.853 141.528 286.782 141.197 288.565 140.921C292.129 140.351 295.105 139.872 297.181 139.541C298.21 139.376 299.037 139.228 299.588 139.136C300.139 139.045 300.452 138.989 300.452 138.989C300.452 138.989 301.719 137.978 302.914 136.984C304.108 135.991 305.229 135.016 305.229 135.016C305.229 135.016 303.906 135.236 301.609 135.641C300.452 135.843 299.055 136.083 297.457 136.359C295.84 136.616 294.04 136.91 292.055 137.242C288.087 137.867 283.475 138.621 278.515 139.339C276.034 139.707 273.462 140.093 270.872 140.479C268.263 140.847 265.617 141.197 262.971 141.565C252.37 143.018 241.806 144.251 233.924 145.115C232.932 145.226 231.995 145.336 231.095 145.428C230.195 145.52 229.349 145.594 228.559 145.686C226.961 145.851 225.583 145.98 224.444 146.09C222.166 146.311 220.861 146.44 220.861 146.44C220.861 146.44 221.67 147.158 222.57 147.875C223.47 148.592 224.444 149.292 224.444 149.292L224.389 149.273Z" fill="#08E2F0"/>
<path d="M209.05 146.493L214.341 146.033L216.509 143.531L211.42 143.973L209.05 146.493Z" fill="#08E2F0"/>
<path d="M224.263 142.814C224.263 142.814 222.977 142.943 221.69 143.072C221.047 143.146 220.404 143.182 219.927 143.238C219.449 143.274 219.137 143.311 219.137 143.311L217.061 145.813C217.061 145.813 217.391 145.776 217.887 145.74C218.383 145.703 219.045 145.648 219.706 145.574C221.047 145.445 222.389 145.316 222.389 145.316L224.263 142.833V142.814Z" fill="#08E2F0"/>
<path d="M226.893 142.558L225.111 145.023L230.458 144.49L232.056 142.043L226.893 142.558Z" fill="#08E2F0"/>
<path d="M234.701 141.766L233.213 144.195L238.596 143.606L239.882 141.178L234.701 141.766Z" fill="#08E2F0"/>
<path d="M164.735 146.563L160.602 149.194L165.525 149.028L169.476 146.416L164.735 146.563Z" fill="#08E2F0"/>
<path d="M181.342 145.938L177.833 148.532L182.867 148.293L186.211 145.699L181.342 145.938Z" fill="#08E2F0"/>
<path d="M201.137 147.103L206.355 146.717L208.835 144.178L203.801 144.564L201.137 147.103Z" fill="#08E2F0"/>
<path d="M242.539 140.901L241.345 143.311C241.345 143.311 242.686 143.164 244.046 142.998C245.405 142.833 246.746 142.667 246.746 142.667L247.738 140.275C247.738 140.275 246.434 140.441 245.129 140.588C243.825 140.735 242.539 140.883 242.539 140.883V140.901Z" fill="#08E2F0"/>
<path d="M171.919 146.331L168.042 148.944C168.042 148.944 169.273 148.907 170.504 148.852C171.11 148.852 171.753 148.796 172.213 148.778C172.69 148.778 173.003 148.741 173.003 148.741L176.696 146.129C176.696 146.129 176.383 146.129 175.942 146.166C175.483 146.166 174.877 146.221 174.289 146.239C173.094 146.276 171.9 146.331 171.9 146.331H171.919Z" fill="#08E2F0"/>
<path d="M196.208 145.098L193.269 147.673C193.269 147.673 194.555 147.6 195.859 147.489C197.164 147.397 198.468 147.305 198.468 147.305L201.224 144.748C201.224 144.748 199.975 144.84 198.707 144.932C197.439 145.024 196.208 145.098 196.208 145.098Z" fill="#08E2F0"/>
<path d="M157.7 146.715L153.309 149.346L158.122 149.254L162.348 146.623L157.7 146.715Z" fill="#08E2F0"/>
<path d="M188.731 145.556L185.497 148.132L190.641 147.819L193.691 145.262L188.731 145.556Z" fill="#08E2F0"/>
<path d="M326.4 127.844L321.274 128.856L323.038 130.806L328.348 129.757L326.4 127.844Z" fill="#08E2F0"/>
<path d="M334.721 132.7C334.721 132.7 335.897 132.461 337.937 132.074C339.976 131.669 342.86 131.044 346.333 130.326C348.06 129.959 349.934 129.554 351.937 129.149C353.902 128.726 355.979 128.266 358.11 127.788C360.241 127.309 362.446 126.813 364.687 126.316C366.91 125.801 369.152 125.267 371.393 124.734C373.635 124.2 375.858 123.667 378.063 123.152C380.23 122.618 382.362 122.085 384.419 121.57C386.477 121.055 388.461 120.558 390.335 120.079C392.173 119.601 393.918 119.141 395.535 118.7C398.75 117.835 401.451 117.136 403.27 116.621C405.107 116.106 406.154 115.811 406.154 115.811C406.154 115.811 405.989 114.965 405.732 114.137C405.493 113.309 405.162 112.5 405.162 112.5C405.162 112.5 404.005 112.831 401.984 113.383C400.973 113.677 399.724 114.008 398.328 114.413C397.611 114.616 396.858 114.818 396.068 115.039C395.259 115.259 394.396 115.48 393.514 115.719C391.732 116.198 389.784 116.713 387.745 117.246C386.716 117.522 385.669 117.798 384.585 118.074C383.482 118.35 382.362 118.645 381.223 118.92C378.944 119.491 376.574 120.079 374.168 120.687C371.761 121.275 369.244 121.864 366.782 122.453C356.86 124.826 346.609 127.033 338.892 128.634C337.937 128.836 337 129.039 336.118 129.204C335.236 129.388 334.391 129.554 333.601 129.701C332.021 130.014 330.643 130.29 329.504 130.51C327.225 130.952 325.921 131.21 325.921 131.21C325.921 131.21 328.034 131.596 330.238 131.964C332.425 132.332 334.703 132.681 334.703 132.681L334.721 132.7Z" fill="#08E2F0"/>
<path d="M306.8 133.782C306.8 133.782 308.141 133.543 309.5 133.304C310.842 133.064 312.183 132.807 312.183 132.807L310.805 130.783C310.805 130.783 309.519 131.022 308.214 131.262C306.91 131.482 305.605 131.721 305.605 131.721L306.781 133.782H306.8Z" fill="#08E2F0"/>
<path d="M314.933 132.312L320.298 131.318L318.626 129.35L313.463 130.306L314.933 132.312Z" fill="#08E2F0"/>
<path d="M250.405 139.947L249.523 142.32L254.943 141.658L255.623 139.303L250.405 139.947Z" fill="#08E2F0"/>
<path d="M336.72 125.758L339.071 127.598L344.326 126.494L341.772 124.691L336.72 125.758Z" fill="#08E2F0"/>
<path d="M329.004 127.325L331.062 129.22C331.062 129.22 332.384 128.962 333.726 128.686C335.049 128.429 336.371 128.153 336.371 128.153L334.112 126.295C334.112 126.295 332.844 126.571 331.558 126.81C330.272 127.068 329.004 127.325 329.004 127.325Z" fill="#08E2F0"/>
<path d="M274.108 136.784V139.029L279.528 138.238L279.326 136.012L274.108 136.784Z" fill="#08E2F0"/>
<path d="M266.204 137.903L265.91 140.203C265.91 140.203 267.27 140.019 268.629 139.835C269.309 139.743 269.989 139.651 270.503 139.577C271.018 139.504 271.348 139.448 271.348 139.448L271.459 137.186C271.459 137.186 271.128 137.241 270.65 137.314C270.154 137.388 269.511 137.48 268.85 137.554C267.545 137.737 266.241 137.903 266.241 137.903H266.204Z" fill="#08E2F0"/>
<path d="M258.307 138.971L257.701 141.307L263.139 140.571L263.525 138.271L258.307 138.971Z" fill="#08E2F0"/>
<path d="M282.007 135.601L282.301 137.809C282.301 137.809 283.66 137.607 285.002 137.386C286.361 137.165 287.702 136.944 287.702 136.944L287.225 134.773C287.225 134.773 285.92 134.976 284.616 135.197C283.311 135.417 282.007 135.601 282.007 135.601Z" fill="#08E2F0"/>
<path d="M297.757 133.085L298.639 135.201L304.04 134.262L302.975 132.184L297.757 133.085Z" fill="#08E2F0"/>
<path d="M289.89 134.351L290.478 136.522L295.879 135.657L295.107 133.523L289.89 134.351Z" fill="#08E2F0"/>
<path d="M70.0222 140.625L62.3057 143.017L65.4106 143.642L73.0169 141.214L70.0222 140.625Z" fill="#08E2F0"/>
<path d="M49.3135 139.875L51.9775 140.629L60.0615 138.311L57.4893 137.594L49.3135 139.875Z" fill="#08E2F0"/>
<path d="M64.1976 139.342L61.4234 138.68L53.3945 140.998L56.2607 141.697L64.1976 139.342Z" fill="#08E2F0"/>
<path d="M79.395 142.315L72.0459 144.78C72.0459 144.78 72.8727 144.909 73.7178 145.056C74.5813 145.185 75.4632 145.296 75.4632 145.296L82.6837 142.812C82.6837 142.812 81.8569 142.683 81.0118 142.573C80.2034 142.444 79.4134 142.297 79.4134 142.297L79.395 142.315Z" fill="#08E2F0"/>
<path d="M65.6182 139.669L57.7363 142.024C57.7363 142.024 58.4528 142.189 59.1878 142.373C59.9594 142.539 60.7311 142.686 60.7311 142.686L68.5027 140.294C68.5027 140.294 67.7678 140.147 67.0145 139.982C66.3164 139.816 65.6182 139.65 65.6182 139.65V139.669Z" fill="#08E2F0"/>
<path d="M74.5865 141.51L67.0537 143.938L70.3608 144.508L77.765 142.062L74.5865 141.51Z" fill="#08E2F0"/>
<path d="M344.367 124.142L347.013 125.908C347.013 125.908 347.343 125.853 347.821 125.743C348.317 125.632 348.96 125.485 349.603 125.356C350.889 125.062 352.194 124.786 352.194 124.786L349.364 123.057C349.364 123.057 348.115 123.333 346.866 123.609C346.241 123.737 345.616 123.885 345.139 123.995C344.679 124.105 344.349 124.16 344.349 124.16L344.367 124.142Z" fill="#08E2F0"/>
<path d="M150.769 146.806L146.103 149.437C146.103 149.437 147.278 149.437 148.454 149.437C149.63 149.437 150.843 149.4 150.843 149.4L155.344 146.77C155.344 146.77 154.187 146.788 153.047 146.806C151.927 146.806 150.788 146.806 150.788 146.806H150.769Z" fill="#08E2F0"/>
<path d="M45.4199 138.695C45.4199 138.695 46.0262 138.897 46.6509 139.099C47.3123 139.283 47.9737 139.486 47.9737 139.486L56.2047 137.223C56.2047 137.223 55.5616 137.039 54.9369 136.855C54.349 136.653 53.7611 136.469 53.7611 136.469L45.4383 138.713L45.4199 138.695Z" fill="#08E2F0"/>
<path d="M43.8963 132.678L35.2061 134.775C35.2061 134.775 35.6838 135.014 36.1982 135.235C36.731 135.456 37.2822 135.676 37.2822 135.676L45.899 133.542C45.899 133.542 45.3845 133.322 44.8517 133.119C44.3373 132.899 43.8963 132.678 43.8963 132.678Z" fill="#08E2F0"/>
<path d="M41.0906 131.301L32.29 133.343L34.2192 134.299L42.9462 132.202L41.0906 131.301Z" fill="#08E2F0"/>
<path d="M50.2239 135.252L41.7725 137.441L44.1793 138.269L52.5572 136.043L50.2239 135.252Z" fill="#08E2F0"/>
<path d="M46.9667 133.986L38.3867 136.139L40.5914 137.022L49.0796 134.833L46.9667 133.986Z" fill="#08E2F0"/>
<path d="M44.3418 146.553C44.3418 146.553 44.9665 146.718 46.1607 146.939C47.3549 147.178 49.0636 147.528 51.1029 147.933C55.2735 148.724 61.116 149.699 67.3995 150.527C68.9244 150.747 70.5596 150.931 72.158 151.115C73.7564 151.299 75.3365 151.465 76.8614 151.649C79.948 151.98 82.9979 152.219 85.5517 152.458C86.1947 152.513 86.8194 152.569 87.4073 152.624C88.0136 152.661 88.5832 152.716 89.1343 152.734C90.2183 152.808 91.1737 152.881 91.9454 152.937C93.507 153.047 94.4073 153.102 94.4073 153.102C94.4073 153.102 97.7328 152.274 101.003 151.446C102.638 151.042 104.292 150.6 105.504 150.287C106.735 149.975 107.544 149.754 107.544 149.754C107.544 149.754 107.287 149.754 106.809 149.717C106.331 149.68 105.615 149.662 104.751 149.607C103.024 149.496 100.525 149.331 97.549 149.11C94.591 148.889 91.339 148.576 87.7748 148.264C86.0477 148.08 84.3023 147.877 82.5202 147.675C80.7564 147.473 78.9008 147.289 77.2105 147.031C73.7748 146.553 70.3024 146.093 67.3444 145.559C65.8378 145.302 64.3864 145.063 62.9901 144.824C61.6856 144.566 60.4546 144.327 59.3155 144.088C58.1948 143.867 57.1475 143.646 56.2289 143.462C55.3286 143.278 54.5937 143.076 53.9691 142.929C52.7381 142.634 52.0399 142.469 52.0399 142.469C52.0399 142.469 50.0557 143.481 48.1449 144.492C46.2158 145.504 44.3418 146.534 44.3418 146.534V146.553Z" fill="#08E2F0"/>
<path d="M121.925 154.15C121.925 154.15 122.917 154.15 124.662 154.187C126.426 154.187 128.87 154.26 131.993 154.242C133.536 154.242 135.208 154.242 136.972 154.242C138.754 154.242 140.591 154.242 142.594 154.187C144.578 154.15 146.618 154.113 148.712 154.076C149.759 154.058 150.807 154.04 151.854 154.021C152.919 154.003 154.003 153.948 155.087 153.929C163.704 153.69 172.578 153.267 179.321 152.881C182.72 152.678 185.531 152.494 187.515 152.384C189.481 152.274 190.639 152.182 190.639 152.182C190.639 152.182 193.156 151.188 195.599 150.176C198.043 149.183 200.413 148.189 200.413 148.189C200.413 148.189 199.145 148.281 196.904 148.447C195.801 148.521 194.423 148.631 192.898 148.741C191.373 148.833 189.646 148.944 187.754 149.054C185.88 149.164 183.841 149.293 181.691 149.422C179.56 149.532 177.337 149.643 175.022 149.753C172.725 149.864 170.3 149.992 167.948 150.066C165.578 150.139 163.171 150.231 160.765 150.305C158.339 150.397 156.006 150.434 153.691 150.471C151.376 150.507 149.116 150.544 146.912 150.599C142.612 150.599 138.589 150.636 135.227 150.618C131.901 150.581 129.127 150.544 127.198 150.507C126.242 150.507 125.471 150.489 124.975 150.471C124.479 150.471 124.203 150.452 124.203 150.452C124.203 150.452 124.038 150.691 123.799 151.041C123.56 151.409 123.266 151.869 122.99 152.329C122.439 153.267 121.943 154.187 121.943 154.187L121.925 154.15Z" fill="#08E2F0"/>
<path d="M112.296 148.755L116.54 148.957L122.272 146.345L118.194 146.143L112.296 148.755Z" fill="#08E2F0"/>
<path d="M84.4102 143.074L77.2266 145.558L80.7541 146.054L87.7908 143.534L84.4102 143.074Z" fill="#08E2F0"/>
<path d="M135.086 146.715C135.086 146.715 133.983 146.715 132.918 146.678C131.852 146.641 130.805 146.623 130.805 146.623L125.385 149.254C125.385 149.254 126.487 149.291 127.589 149.309C128.71 149.327 129.849 149.346 129.849 149.346L135.104 146.715H135.086Z" fill="#08E2F0"/>
<path d="M143.953 146.821L139.029 149.452L143.714 149.433L148.473 146.803L143.953 146.821Z" fill="#08E2F0"/>
<path d="M137.325 146.756L132.144 149.387L136.7 149.442L141.697 146.811L137.325 146.756Z" fill="#08E2F0"/>
<path d="M118.729 149.052L123.12 149.181L128.631 146.568L124.406 146.439L118.729 149.052Z" fill="#08E2F0"/>
<path d="M89.554 143.771L82.5908 146.273L86.2837 146.697L93.1183 144.176L89.554 143.771Z" fill="#08E2F0"/>
<path d="M94.9399 144.377L88.1787 146.916C88.1787 146.916 89.0974 147.026 90.0344 147.118C91.0081 147.21 91.9635 147.302 91.9635 147.302L98.596 144.745C98.596 144.745 97.659 144.653 96.7404 144.579C95.8401 144.487 94.9399 144.377 94.9399 144.377Z" fill="#08E2F0"/>
<path d="M106.001 148.406C106.001 148.406 107.011 148.48 108.04 148.535C109.088 148.59 110.135 148.646 110.135 148.646L116.106 146.052C116.106 146.052 115.095 145.996 114.085 145.941C113.111 145.868 112.119 145.812 112.119 145.812L106.001 148.406Z" fill="#08E2F0"/>
<path d="M100.503 144.914L93.9443 147.471L97.8394 147.821L104.251 145.264L100.503 144.914Z" fill="#08E2F0"/>
<path d="M106.22 145.41L99.8633 147.986L103.924 148.262L110.134 145.686L106.22 145.41Z" fill="#08E2F0"/>
<path d="M388.438 113.453L392.756 114.833C392.756 114.833 393.987 114.52 395.163 114.17C396.357 113.839 397.551 113.508 397.551 113.508L393.05 112.184C393.05 112.184 391.911 112.496 390.753 112.827C389.614 113.14 388.42 113.453 388.42 113.453H388.438Z" fill="#08E2F0"/>
<path d="M493.494 73.053L501.762 72.9058L504.297 71.3789L495.919 71.5812L493.494 73.053Z" fill="#08E2F0"/>
<path d="M524.765 54.7475C524.765 54.7475 525.078 54.3795 525.408 54.0299C525.574 53.846 525.702 53.662 525.794 53.5333C525.886 53.4045 525.959 53.3125 525.959 53.3125L516.81 54.1772C516.81 54.1772 516.755 54.2691 516.644 54.3979C516.553 54.5267 516.442 54.6923 516.277 54.8762C515.965 55.2258 515.652 55.5753 515.652 55.5753L524.765 54.7659V54.7475Z" fill="#08E2F0"/>
<path d="M513.743 57.7154L522.783 56.9795L524.105 55.5078L515.011 56.2989L513.743 57.7154Z" fill="#08E2F0"/>
<path d="M511.54 59.8665L520.506 59.2042L522.049 57.7324L513.028 58.4315L511.54 59.8665Z" fill="#08E2F0"/>
<path d="M535.329 36.8666C535.329 36.8666 535.366 37.5841 535.421 38.6511C535.421 39.1846 535.531 39.8101 535.421 40.4908C535.311 41.1898 535.2 41.9257 535.072 42.6616C534.998 43.3974 534.668 44.1517 534.429 44.8692C534.172 45.5683 533.951 46.249 533.694 46.8193C533.069 47.9783 532.665 48.7509 532.665 48.7509C532.665 48.7509 536.101 47.9967 539.555 47.2424C542.99 46.4697 546.445 45.697 546.445 45.697C546.445 45.697 546.536 45.5131 546.702 45.2188C546.812 44.906 546.977 44.4829 547.179 43.9494C547.565 42.9007 548.098 41.5026 548.245 40.1596C548.337 39.4973 548.447 38.8166 548.539 38.1911C548.521 37.5657 548.502 36.9953 548.484 36.4986C548.429 35.5236 548.392 34.8613 548.392 34.8613L535.366 36.8666H535.329Z" fill="#08E2F0"/>
<path d="M519.53 50.0244L518.776 51.3858L528.018 50.4107L528.789 48.9941L519.53 50.0244Z" fill="#08E2F0"/>
<path d="M497.098 70.8297L505.512 70.5905L507.827 69.082L499.339 69.358L497.098 70.8297Z" fill="#08E2F0"/>
<path d="M519.917 49.3237L529.195 48.2751C529.195 48.2751 529.379 47.9256 529.563 47.576C529.765 47.2265 529.893 46.877 529.893 46.877L520.597 47.9808C520.597 47.9808 520.487 48.3119 520.284 48.643C520.101 48.9742 519.935 49.3237 519.935 49.3237H519.917Z" fill="#08E2F0"/>
<path d="M500.461 68.6221L509.004 68.3093C509.004 68.3093 509.592 67.923 510.125 67.5551C510.639 67.1687 511.172 66.8008 511.172 66.8008L502.555 67.1687C502.555 67.1687 502.059 67.5367 501.545 67.9046C501.03 68.2725 500.461 68.6405 500.461 68.6405V68.6221Z" fill="#08E2F0"/>
<path d="M509.133 62.037L518.007 61.4667C518.007 61.4667 518.448 61.0988 518.907 60.7124C519.311 60.3445 519.697 59.9766 519.697 59.9766L510.768 60.602C510.768 60.602 510.382 60.9516 510.015 61.3196C509.592 61.6875 509.151 62.037 509.151 62.037H509.133Z" fill="#08E2F0"/>
<path d="M503.565 66.4113L512.237 66.0066L514.277 64.498L505.55 64.958L503.565 66.4113Z" fill="#08E2F0"/>
<path d="M506.502 64.2056L515.266 63.7273L517.085 62.2188L508.247 62.7706L506.502 64.2056Z" fill="#08E2F0"/>
<path d="M526.492 52.5611L527.521 51.1445L518.298 52.0827L517.306 53.4625L526.492 52.5611Z" fill="#08E2F0"/>
<path d="M520.833 47.3008L530.148 46.1786L530.626 44.7988L521.311 45.9763L520.833 47.3008Z" fill="#08E2F0"/>
<path d="M521.535 45.2907L530.868 44.0949C530.868 44.0949 530.905 44.0029 530.942 43.8741C530.96 43.7454 530.997 43.5798 531.034 43.4142C531.089 43.0831 531.144 42.752 531.144 42.752L521.792 44.0029C521.792 44.0029 521.737 44.3157 521.682 44.6468C521.664 44.8124 521.627 44.9779 521.609 45.0883C521.572 45.2171 521.535 45.2907 521.535 45.2907Z" fill="#08E2F0"/>
<path d="M521.896 43.3467L531.248 42.0589L531.45 40.7344L522.099 42.0589L521.896 43.3467Z" fill="#08E2F0"/>
<path d="M522.104 41.4128L531.456 40.0698L531.401 38.7637L522.049 40.1618L522.104 41.4128Z" fill="#08E2F0"/>
<path d="M531.362 38.0993L531.325 37.4922L521.974 38.9271L522.01 39.5343L531.362 38.0993Z" fill="#08E2F0"/>
<path d="M374.13 117.191L377.896 118.699L382.894 117.448L378.925 115.977L374.13 117.191Z" fill="#08E2F0"/>
<path d="M414.071 108.74C414.071 108.74 414.365 108.648 414.788 108.52C415.229 108.391 415.799 108.225 416.35 108.041C417.47 107.692 418.591 107.342 418.591 107.342L413.337 106.238C413.337 106.238 412.253 106.569 411.169 106.901C410.636 107.066 410.085 107.232 409.662 107.361C409.239 107.489 408.964 107.563 408.964 107.563L414.053 108.703L414.071 108.74Z" fill="#08E2F0"/>
<path d="M435.49 107.07C435.49 107.07 436.446 106.758 438.118 106.206C439.771 105.654 442.141 104.881 444.989 103.943C447.818 103.005 450.96 101.882 454.377 100.687C456.104 100.098 457.795 99.4725 459.503 98.8286C461.23 98.2031 462.976 97.5408 464.721 96.8969C468.157 95.6091 471.445 94.2846 474.569 93.052C477.6 91.8194 480.338 90.6604 482.708 89.667C485.06 88.6736 486.878 87.8457 488.201 87.257C489.506 86.6683 490.259 86.3372 490.259 86.3372C490.259 86.3372 488.697 85.7852 487.044 85.2517C485.372 84.7182 483.663 84.2031 483.663 84.2031C483.663 84.2031 482.873 84.571 481.495 85.2149C480.044 85.8588 477.968 86.7786 475.469 87.9008C474.238 88.4528 472.823 89.0599 471.299 89.6853C469.774 90.3108 468.194 90.9732 466.54 91.6722C464.905 92.3529 463.049 93.0704 461.249 93.7694C459.411 94.4869 457.611 95.2228 455.663 95.9403C451.768 97.3753 447.965 98.8102 444.125 100.135C442.233 100.797 440.377 101.441 438.65 102.048C436.886 102.655 435.16 103.207 433.579 103.741C430.419 104.789 427.792 105.654 425.863 106.242C423.952 106.831 422.868 107.181 422.868 107.181C422.868 107.181 425.973 107.181 429.115 107.126C432.275 107.089 435.49 107.034 435.49 107.034V107.07Z" fill="#08E2F0"/>
<path d="M428.258 101.456L434.082 102.376C434.082 102.376 434.358 102.284 434.762 102.155C435.166 102.026 435.699 101.842 436.213 101.658C437.26 101.29 438.289 100.941 438.289 100.941L432.318 100.076C432.318 100.076 431.308 100.426 430.316 100.775C429.82 100.941 429.305 101.125 428.919 101.254C428.533 101.382 428.276 101.474 428.276 101.474L428.258 101.456Z" fill="#08E2F0"/>
<path d="M415.524 105.581L420.871 106.648L425.335 105.25L419.824 104.238L415.524 105.581Z" fill="#08E2F0"/>
<path d="M421.972 103.538L427.557 104.531L431.875 103.115L426.124 102.158L421.972 103.538Z" fill="#08E2F0"/>
<path d="M399.981 112.829L404.721 111.505L399.962 110.254L395.388 111.542L399.981 112.829Z" fill="#08E2F0"/>
<path d="M407.089 110.802L411.7 109.441L406.703 108.264L402.257 109.588L407.089 110.802Z" fill="#08E2F0"/>
<path d="M366.832 118.989L370.323 120.571C370.323 120.571 371.591 120.277 372.84 119.964C374.089 119.651 375.339 119.338 375.339 119.338L371.664 117.793C371.664 117.793 370.451 118.087 369.257 118.4C368.063 118.694 366.832 118.989 366.832 118.989Z" fill="#08E2F0"/>
<path d="M359.411 120.757L362.645 122.394L367.734 121.198L364.335 119.598L359.411 120.757Z" fill="#08E2F0"/>
<path d="M381.33 115.351L385.39 116.786L390.259 115.498L386.033 114.1L381.33 115.351Z" fill="#08E2F0"/>
<path d="M351.933 122.469L354.855 124.18C354.855 124.18 356.159 123.885 357.445 123.591C358.088 123.444 358.731 123.297 359.227 123.186C359.705 123.076 360.017 123.002 360.017 123.002L356.894 121.328C356.894 121.328 356.6 121.402 356.122 121.512C355.663 121.622 355.038 121.751 354.414 121.898C353.164 122.174 351.915 122.45 351.915 122.45L351.933 122.469Z" fill="#08E2F0"/>
<path d="M38.5543 129.863L29.6436 131.85L31.3338 132.844L40.1711 130.82L38.5543 129.863Z" fill="#08E2F0"/>
<path d="M467.443 86.3733L474.719 86.7228L478.118 85.2143L470.714 84.9199L467.443 86.3733Z" fill="#08E2F0"/>
<path d="M509.864 76.6191C509.864 76.6191 510.471 76.288 511.536 75.6993C512.069 75.4049 512.712 75.0554 513.447 74.6322C514.182 74.2275 514.917 73.7676 515.78 73.2525C519.198 71.2472 523.442 68.5613 527.135 65.8937C528.953 64.5692 530.809 63.2262 532.242 61.9936C533.73 60.761 535.182 59.602 536.156 58.627C537.184 57.6519 538.03 56.8241 538.636 56.2538C538.948 55.9595 539.132 55.7387 539.279 55.5915C539.407 55.4443 539.481 55.3523 539.481 55.3523C539.481 55.3523 536.725 55.1868 533.932 55.0396C531.14 54.8924 528.329 54.7637 528.329 54.7637C528.329 54.7637 528.016 55.1132 527.447 55.7387C527.171 56.0514 526.822 56.4378 526.436 56.8609C525.977 57.3024 525.463 57.7992 524.911 58.3327C524.342 58.8846 523.717 59.4732 523.056 60.0803C522.394 60.7058 521.531 61.3681 520.722 62.0488C519.877 62.7295 519.051 63.4469 518.114 64.1644C517.121 64.9003 516.129 65.6362 515.119 66.3721C514.604 66.74 514.108 67.108 513.594 67.4759C513.043 67.8438 512.492 68.2117 511.94 68.5797C510.838 69.3155 509.736 70.033 508.688 70.7321C506.447 72.1303 504.242 73.4364 502.35 74.5586C500.329 75.6808 498.639 76.6191 497.463 77.263C496.875 77.5941 496.397 77.8517 496.085 78.0172C495.754 78.2012 495.57 78.2932 495.57 78.2932C495.57 78.2932 496.471 78.1828 497.812 78.0356C499.153 77.8701 500.935 77.6677 502.699 77.4469C506.263 77.0238 509.883 76.5639 509.883 76.5639L509.864 76.6191Z" fill="#08E2F0"/>
<path d="M484.623 82.146C484.623 82.146 484.825 82.054 485.119 81.9068C485.413 81.7597 485.817 81.5757 486.184 81.3917L487.691 80.619L479.937 80.4902L478.486 81.2262C478.137 81.4101 477.733 81.5941 477.457 81.7228C477.163 81.87 476.979 81.962 476.979 81.962L484.641 82.146H484.623Z" fill="#08E2F0"/>
<path d="M489.708 75.281L497.829 75.2074C497.829 75.2074 498.527 74.8211 499.188 74.4348C499.831 74.0485 500.474 73.6621 500.474 73.6621L492.243 73.7909L491.012 74.5268C490.388 74.8947 489.708 75.2626 489.708 75.2626V75.281Z" fill="#08E2F0"/>
<path d="M479.791 84.4391L482.988 82.9122L475.4 82.6914L472.313 84.1631L479.791 84.4391Z" fill="#08E2F0"/>
<path d="M484.274 78.2617L481.408 79.7334L489.235 79.8255L492.193 78.2985L484.274 78.2617Z" fill="#08E2F0"/>
<path d="M485.672 77.5027L493.646 77.5211L496.42 75.9941L488.354 76.031L485.672 77.5027Z" fill="#08E2F0"/>
<path d="M446.114 95.0904L452.6 95.771C452.6 95.771 452.839 95.6791 453.225 95.5503C453.592 95.4031 454.088 95.2191 454.566 95.0352C455.521 94.6672 456.476 94.2993 456.476 94.2993L449.844 93.6738C449.844 93.6738 448.925 94.0417 448.007 94.3913C447.547 94.5752 447.07 94.7409 446.721 94.888C446.372 95.0352 446.133 95.1088 446.133 95.1088L446.114 95.0904Z" fill="#08E2F0"/>
<path d="M440.324 97.2506L446.589 98.0049L450.576 96.5331L444.164 95.834L440.324 97.2506Z" fill="#08E2F0"/>
<path d="M462.405 88.5823L469.515 89.0238C469.515 89.0238 469.736 88.9318 470.067 88.7846C470.397 88.6374 470.857 88.4535 471.279 88.2695C472.124 87.8832 472.988 87.5152 472.988 87.5152L465.749 87.1289C465.749 87.1289 464.922 87.4968 464.096 87.8648C463.691 88.0487 463.25 88.2327 462.938 88.3615C462.607 88.4902 462.405 88.5823 462.405 88.5823Z" fill="#08E2F0"/>
<path d="M434.358 99.363L440.403 100.191L444.555 98.756L438.345 97.9648L434.358 99.363Z" fill="#08E2F0"/>
<path d="M451.697 92.9389L458.403 93.5275L462.188 92.0374L455.353 91.5039L451.697 92.9389Z" fill="#08E2F0"/>
<path d="M457.158 90.7717L464.066 91.2868L467.667 89.7783L460.631 89.3184L457.158 90.7717Z" fill="#08E2F0"/>
<path d="M478.362 13.5972L486.078 11.1872L482.955 10.5801L475.367 12.9901L478.362 13.5972Z" fill="#08E2F0"/>
<path d="M372.696 5.61328L367.662 5.85245L364.263 8.44635L369.113 8.2256L372.696 5.61328Z" fill="#08E2F0"/>
<path d="M380.246 5.29883C380.246 5.29883 379.015 5.33566 377.784 5.39085C376.534 5.42764 375.285 5.50122 375.285 5.50122L371.61 8.09518C371.61 8.09518 372.841 8.03994 374.036 7.98475C375.23 7.94796 376.406 7.9112 376.406 7.9112L380.264 5.29883H380.246Z" fill="#08E2F0"/>
<path d="M383.57 7.67097L387.704 5.05859L382.78 5.22416L378.812 7.83653L383.57 7.67097Z" fill="#08E2F0"/>
<path d="M468.972 11.8827L476.322 9.41745C476.322 9.41745 475.495 9.28869 474.668 9.14151C473.786 9.01273 472.923 8.90234 472.923 8.90234L465.702 11.3859C465.702 11.3859 466.547 11.5147 467.392 11.6251C468.201 11.7539 468.991 11.8827 468.991 11.8827H468.972Z" fill="#08E2F0"/>
<path d="M482.765 14.5327L490.629 12.1779C490.629 12.1779 489.912 12.0124 489.177 11.8284C488.406 11.6628 487.634 11.5156 487.634 11.5156L479.881 13.9072C479.881 13.9072 480.634 14.0544 481.369 14.22C482.067 14.3855 482.765 14.5511 482.765 14.5511V14.5327Z" fill="#08E2F0"/>
<path d="M494.669 17.7543L502.992 15.5099C502.992 15.5099 502.404 15.3075 501.761 15.1051C501.099 14.9212 500.438 14.7188 500.438 14.7188L492.207 17C492.207 17 492.85 17.1839 493.475 17.3679C494.081 17.5519 494.669 17.7543 494.669 17.7543Z" fill="#08E2F0"/>
<path d="M490.911 16.6273L499.087 14.3277L496.423 13.5918L488.339 15.8914L490.911 16.6273Z" fill="#08E2F0"/>
<path d="M486.971 15.5464L494.981 13.2284L492.115 12.5293L484.196 14.8841L486.971 15.5464Z" fill="#08E2F0"/>
<path d="M473.795 12.7135L481.31 10.2668L478.021 9.71484L470.599 12.1617L473.795 12.7135Z" fill="#08E2F0"/>
<path d="M516.15 20.8629L514.221 19.9062L505.494 22.0035L507.35 22.9049L516.15 20.8629Z" fill="#08E2F0"/>
<path d="M498.199 18.9507L506.632 16.7615L504.225 15.9336L495.865 18.1596L498.199 18.9507Z" fill="#08E2F0"/>
<path d="M513.228 19.4229C513.228 19.4229 513.099 19.3677 512.916 19.2758C512.732 19.1838 512.493 19.0734 512.217 18.963C511.666 18.7422 511.133 18.5215 511.133 18.5215L502.517 20.6555C502.517 20.6555 503.031 20.8763 503.564 21.0787C503.839 21.1891 504.06 21.2994 504.244 21.3914C504.427 21.4834 504.538 21.5386 504.538 21.5386L513.228 19.4413V19.4229Z" fill="#08E2F0"/>
<path d="M521.645 12.6178C521.645 12.6178 521.112 12.4338 520.194 12.1211C519.238 11.8083 517.971 11.3485 516.262 10.8333C514.517 10.3366 512.496 9.7479 510.254 9.14081C507.884 8.57051 505.404 7.94503 502.758 7.37473C501.398 7.09878 500.039 6.8228 498.698 6.54685C497.338 6.28929 496.052 5.99498 494.674 5.77421C491.955 5.31429 489.438 4.87274 487.178 4.5416C482.548 3.89771 479.462 3.47461 479.462 3.47461C479.462 3.47461 475.952 4.22889 472.498 4.98316C469.026 5.73743 465.627 6.51008 465.627 6.51008C465.627 6.51008 466.527 6.62044 468.107 6.78602C469.724 6.95159 471.819 7.26436 474.409 7.6139C475.677 7.79786 477.11 7.98185 478.506 8.20261C479.902 8.44177 481.354 8.68091 482.879 8.93847C483.632 9.06725 484.404 9.19601 485.175 9.32479C485.947 9.45357 486.664 9.61912 487.417 9.76629C488.905 10.0606 490.412 10.3734 491.918 10.6861C493.406 10.9989 494.766 11.3484 496.181 11.6796C497.54 12.0107 498.973 12.3235 500.168 12.673C501.38 13.0226 502.556 13.3537 503.677 13.6665C504.797 13.9792 505.845 14.292 506.708 14.5863C508.472 15.1934 509.96 15.6901 510.989 16.0396C511.926 16.4076 512.477 16.6283 512.477 16.6283C512.477 16.6283 514.829 15.6349 517.162 14.6231C519.459 13.6113 521.682 12.6178 521.682 12.6178H521.645Z" fill="#08E2F0"/>
<path d="M499.337 19.3689L501.45 20.2152L510.03 18.0628L507.825 17.1797L499.337 19.3689Z" fill="#08E2F0"/>
<path d="M397.541 7.44915L402.207 4.81836C402.207 4.81836 401.032 4.81836 399.874 4.81836C398.68 4.83676 397.467 4.85519 397.467 4.85519L392.984 7.48592C392.984 7.48592 394.142 7.46755 395.299 7.44915C396.42 7.44915 397.559 7.44915 397.559 7.44915H397.541Z" fill="#08E2F0"/>
<path d="M430.127 8.0776L436.024 5.48364L431.78 5.28125L426.048 7.89362L430.127 8.0776Z" fill="#08E2F0"/>
<path d="M411.004 7.49061L416.167 4.85988L411.629 4.80469L406.613 7.43542L411.004 7.49061Z" fill="#08E2F0"/>
<path d="M423.92 7.80249L429.579 5.19012L425.206 5.04297L419.713 7.6737L423.92 7.80249Z" fill="#08E2F0"/>
<path d="M417.538 7.61924L422.958 4.9885C422.958 4.9885 421.856 4.95171 420.754 4.93331C419.615 4.93331 418.494 4.89648 418.494 4.89648L413.239 7.52722C413.239 7.52722 414.323 7.52725 415.426 7.56405C416.491 7.60084 417.538 7.63765 417.538 7.63765V7.61924Z" fill="#08E2F0"/>
<path d="M390.587 7.52247L394.996 4.91016L390.183 5.00212L385.957 7.61449L390.587 7.52247Z" fill="#08E2F0"/>
<path d="M463.972 11.1482L471.119 8.66472L467.61 8.16797L460.573 10.6883L463.972 11.1482Z" fill="#08E2F0"/>
<path d="M404.351 7.41589L409.275 4.78516L404.59 4.80357L399.85 7.4343L404.351 7.41589Z" fill="#08E2F0"/>
<path d="M465.778 7.95049L462.066 7.52734L455.25 10.0478L458.814 10.4708L465.778 7.95049Z" fill="#08E2F0"/>
<path d="M460.166 7.3054C460.166 7.3054 459.229 7.21345 458.311 7.10306C457.337 7.01108 456.382 6.9375 456.382 6.9375L449.749 9.49463C449.749 9.49463 450.686 9.58661 451.623 9.6602C452.523 9.75218 453.424 9.86259 453.424 9.86259L460.185 7.32382L460.166 7.3054Z" fill="#08E2F0"/>
<path d="M436.211 8.40539L442.329 5.81143C442.329 5.81143 441.301 5.73783 440.29 5.68264C439.243 5.62745 438.177 5.57227 438.177 5.57227L432.206 8.18464C432.206 8.18464 433.217 8.23981 434.227 8.2766C435.219 8.35019 436.193 8.40539 436.193 8.40539H436.211Z" fill="#08E2F0"/>
<path d="M454.806 1.19584C454.806 1.19584 453.905 1.1406 452.344 1.03022C450.8 0.919837 448.43 0.827848 445.656 0.680674C444.26 0.607086 442.735 0.551923 441.136 0.478336C439.483 0.423145 437.737 0.367961 435.937 0.312771C434.118 0.25758 432.244 0.202397 430.352 0.147206C428.386 0.128809 426.402 0.0919819 424.399 0.0551882C422.396 0.0551882 420.412 0 418.409 0C416.388 0 414.404 0 412.475 0C410.528 0 408.69 3.59321e-05 406.871 0.0368296C405.053 0.0736233 403.344 0.0919976 401.745 0.128791C398.567 0.183982 395.921 0.239184 394.011 0.312771C392.118 0.367961 391.034 0.404733 391.034 0.404733C391.034 0.404733 388.205 1.36138 385.449 2.31802C382.675 3.27465 379.992 4.2313 379.992 4.2313C379.992 4.2313 381.205 4.19452 383.299 4.12093C385.394 4.06574 388.444 3.93693 391.99 3.86335C399.081 3.71617 408.415 3.56902 417.252 3.7162C419.457 3.75299 421.698 3.77138 423.829 3.82657C425.942 3.88176 428.018 3.95536 430.039 4.01055C431.05 4.02895 432.024 4.06572 432.997 4.10251C433.934 4.13931 434.853 4.19451 435.735 4.2313C437.517 4.32329 439.189 4.39689 440.732 4.47047C441.504 4.50727 442.239 4.54406 442.937 4.58085C443.617 4.61764 444.26 4.67279 444.866 4.70958C446.079 4.80157 447.126 4.85681 448.008 4.93039C449.735 5.04077 450.727 5.11432 450.727 5.11432C450.727 5.11432 451.811 4.13929 452.821 3.16426C453.832 2.18923 454.787 1.19584 454.787 1.19584H454.806Z" fill="#08E2F0"/>
<path d="M438.212 8.55294L442.125 8.81047L448.464 6.23493L444.403 5.95898L438.212 8.55294Z" fill="#08E2F0"/>
<path d="M62.7312 76.8074L54.7391 76.7891L51.9648 78.316L60.0488 78.2792L62.7312 76.8074Z" fill="#08E2F0"/>
<path d="M51.3195 83.4648L42.8864 83.704L40.5898 85.231L49.078 84.9366L51.3195 83.4648Z" fill="#08E2F0"/>
<path d="M32.8207 98.7324L23.7079 99.5419C23.7079 99.5419 23.3955 99.9098 23.0648 100.278C22.7709 100.646 22.5137 100.995 22.5137 100.995L31.6816 100.131C31.6816 100.131 31.9205 99.7811 32.196 99.4315C32.5084 99.082 32.8207 98.7324 32.8207 98.7324Z" fill="#08E2F0"/>
<path d="M34.71 96.6016L25.6707 97.3374L24.3662 98.8092L33.4423 98.0181L34.71 96.6016Z" fill="#08E2F0"/>
<path d="M35.4157 95.8822L36.9222 94.4473L27.9564 95.0912L26.4131 96.5813L35.4157 95.8822Z" fill="#08E2F0"/>
<path d="M28.5781 104.973L19.2999 106.021C19.2999 106.021 19.1162 106.371 18.9324 106.72C18.7303 107.07 18.6201 107.419 18.6201 107.419L27.9167 106.316C27.9167 106.316 28.0269 105.985 28.2106 105.653C28.3944 105.322 28.5597 104.973 28.5597 104.973H28.5781Z" fill="#08E2F0"/>
<path d="M29.6967 102.932L20.4552 103.907L19.6836 105.305L28.9434 104.275L29.6967 102.932Z" fill="#08E2F0"/>
<path d="M9.24846 98.6254C9.24846 98.6254 8.10936 99.9132 6.4007 101.845C5.6658 102.801 4.87577 103.905 4.049 105.083C3.25898 106.26 2.67105 107.493 1.99126 108.725C1.42171 109.958 1.05425 111.154 0.650051 112.276C0.337716 113.398 0.245861 114.41 0.0988798 115.293C-0.0848468 116.176 0.043764 116.875 0.043764 117.372C0.0621367 117.868 0.0805032 118.144 0.0805032 118.144C0.0805032 118.144 3.35084 118.034 6.63954 117.905C9.8915 117.776 13.2537 117.629 13.2537 117.629C13.2537 117.629 13.1618 117.335 13.1435 116.765C13.1251 116.213 13.0884 115.422 13.0332 114.465C13.0516 113.508 13.3088 112.349 13.5109 111.135C13.6395 110.528 13.9151 109.866 14.1356 109.204C14.3928 108.541 14.5582 107.879 14.9256 107.198C16.2668 104.457 18.1776 101.661 20.1067 99.5268C21.0621 98.4598 21.8154 97.5583 22.4768 96.9328C23.1382 96.3073 23.5056 95.9395 23.5056 95.9395C23.5056 95.9395 19.9414 96.5833 16.3771 97.2456C14.5949 97.5768 12.7944 97.9263 11.4716 98.1655C10.1487 98.423 9.26683 98.5885 9.26683 98.5885L9.24846 98.6254Z" fill="#08E2F0"/>
<path d="M44.8489 87.9004L36.1954 88.3051L34.1377 89.8137L42.8831 89.3538L44.8489 87.9004Z" fill="#08E2F0"/>
<path d="M47.9583 85.6922L39.4151 86.005C39.4151 86.005 38.8271 86.3913 38.2943 86.7592C37.7799 87.1456 37.2471 87.5135 37.2471 87.5135L45.8639 87.1456C45.8639 87.1456 46.3599 86.7776 46.856 86.4097C47.3704 86.0418 47.94 85.6738 47.94 85.6738L47.9583 85.6922Z" fill="#08E2F0"/>
<path d="M27.6559 106.998L18.341 108.139L17.8633 109.5L27.1966 108.323L27.6559 106.998Z" fill="#08E2F0"/>
<path d="M30.4346 92.8515C30.4346 92.8515 29.9937 93.2195 29.5527 93.6058C29.1669 93.9738 28.7627 94.3417 28.7627 94.3417L37.6918 93.7162C37.6918 93.7162 38.0776 93.3667 38.4635 92.9988C38.886 92.6308 39.3086 92.2812 39.3086 92.2812L30.4346 92.8515Z" fill="#08E2F0"/>
<path d="M33.1675 90.5885L31.3486 92.0787L40.1859 91.5452L41.9313 90.0918L33.1675 90.5885Z" fill="#08E2F0"/>
<path d="M31.1712 100.834L21.9849 101.735L20.9561 103.17L30.1791 102.214L31.1712 100.834Z" fill="#08E2F0"/>
<path d="M26.9575 109.002L17.6242 110.198C17.6242 110.198 17.6058 110.29 17.5507 110.419C17.5323 110.547 17.4956 110.713 17.4589 110.878C17.4037 111.21 17.3486 111.541 17.3486 111.541L26.7003 110.29C26.7003 110.29 26.7554 109.959 26.8106 109.646C26.8473 109.48 26.8657 109.315 26.884 109.204C26.9208 109.076 26.9391 109.002 26.9391 109.002H26.9575Z" fill="#08E2F0"/>
<path d="M30.6754 123.629L21.4707 125.377C21.4707 125.377 21.5258 125.45 21.6177 125.561C21.7279 125.671 21.8565 125.8 22.0035 125.947C22.2791 126.223 22.5731 126.499 22.5731 126.499L31.741 124.714C31.741 124.714 31.4654 124.438 31.1899 124.181C31.0612 124.052 30.9142 123.905 30.8224 123.813C30.7305 123.721 30.6754 123.647 30.6754 123.647V123.629Z" fill="#08E2F0"/>
<path d="M3.99201 127.641C3.99201 127.641 4.1941 127.898 4.54318 128.34C4.83714 128.8 5.55368 129.389 6.27021 130.124C6.65604 130.492 7.07861 130.897 7.51956 131.302C7.97887 131.725 8.56679 132.13 9.13634 132.571C9.72427 133.013 10.3306 133.454 10.9552 133.914C11.5799 134.374 12.3699 134.797 13.0865 135.239C13.8214 135.68 14.5746 136.122 15.3096 136.545C16.0996 136.968 16.9264 137.354 17.7164 137.759C18.5248 138.145 19.2964 138.513 20.0313 138.881C20.803 139.231 21.593 139.544 22.3095 139.838C23.7426 140.427 24.9368 140.905 25.8187 141.236C26.7373 141.567 27.2702 141.733 27.2702 141.733C27.2702 141.733 30.9079 141.199 34.509 140.666C38.11 140.132 41.6927 139.58 41.6927 139.58C41.6927 139.58 41.1047 139.378 40.0575 139.028C39.047 138.661 37.4853 138.182 35.9237 137.538C34.3436 136.876 32.3594 136.159 30.6691 135.275C29.7872 134.852 28.8869 134.392 27.9499 133.933C27.068 133.454 26.278 132.976 25.4696 132.479C22.1442 130.529 19.719 128.395 18.1206 126.739C17.6796 126.335 17.3673 125.948 17.1101 125.599C16.8529 125.249 16.614 124.955 16.4303 124.697C16.0628 124.201 15.8424 123.906 15.8424 123.906C15.8424 123.906 12.866 124.808 9.88963 125.746C6.91326 126.666 3.97363 127.604 3.97363 127.604L3.99201 127.641Z" fill="#08E2F0"/>
<path d="M29.3635 121.936L20.1221 123.61L21.0039 124.787L30.2086 123.039L29.3635 121.936Z" fill="#08E2F0"/>
<path d="M34.1288 126.846L25.0527 128.704L26.4674 129.771L35.4884 127.858L34.1288 126.846Z" fill="#08E2F0"/>
<path d="M32.2855 125.248L23.1543 127.069L24.3301 128.173L33.4246 126.315L32.2855 125.248Z" fill="#08E2F0"/>
<path d="M18.9862 121.825C18.9862 121.825 19.1515 122.119 19.2985 122.432C19.4271 122.745 19.6659 123.021 19.6659 123.021L28.9257 121.347C28.9257 121.347 28.6869 121.071 28.5583 120.776C28.4113 120.482 28.2643 120.188 28.2643 120.188L18.9678 121.806L18.9862 121.825Z" fill="#08E2F0"/>
<path d="M18.0859 119.983L18.6738 121.197L27.9888 119.597L27.4009 118.438L18.0859 119.983Z" fill="#08E2F0"/>
<path d="M26.5891 110.951L17.2374 112.239L17.0537 113.564L26.4054 112.239L26.5891 110.951Z" fill="#08E2F0"/>
<path d="M26.4238 112.881L17.0537 114.224L17.1088 115.53L26.4605 114.132L26.4238 112.881Z" fill="#08E2F0"/>
<path d="M17.5312 118.105L17.862 119.356L27.1953 117.829L26.8646 116.615L17.5312 118.105Z" fill="#08E2F0"/>
<path d="M17.1504 116.195C17.1504 116.195 17.1504 116.526 17.2055 116.839C17.279 117.151 17.3525 117.464 17.3525 117.464L26.7042 115.992C26.7042 115.992 26.6307 115.698 26.5572 115.385C26.5021 115.073 26.5021 114.76 26.5021 114.76L17.1504 116.176V116.195Z" fill="#08E2F0"/>
<path d="M58.8 67.6247C58.8 67.6247 58.0651 67.9558 56.7607 68.5445C55.493 69.1332 53.7475 69.9611 51.6347 70.9729C50.5874 71.4696 49.43 72.0216 48.2725 72.5919C47.1518 73.1806 45.9392 73.7692 44.7082 74.4131C43.4956 75.0386 42.1911 75.7009 40.9602 76.3632C39.766 77.0255 38.535 77.7061 37.3224 78.3684C34.8421 79.7114 32.6374 81.0544 30.5429 82.3054C28.3933 83.5748 26.703 84.7338 25.1597 85.7456C24.4064 86.2423 23.7083 86.7022 23.102 87.1253C22.514 87.5301 22.0363 87.8796 21.6321 88.174C20.8421 88.7627 20.3828 89.0938 20.3828 89.0938C20.3828 89.0938 22.7896 89.4065 25.2332 89.6825C27.6768 89.9584 30.157 90.216 30.157 90.216C30.157 90.216 30.6531 89.8481 31.535 89.2042C32.4169 88.5603 33.6295 87.6404 35.2279 86.5182C36.9182 85.4144 38.8106 84.1083 41.0704 82.7101C43.4037 81.312 45.7738 79.8218 48.5481 78.3317C49.9077 77.5774 51.2672 76.8415 52.6084 76.1056C54.0415 75.3697 55.4562 74.6523 56.8158 73.9532C59.4982 72.555 62.3092 71.2489 64.6425 70.145C66.9575 69.0228 69.0887 68.103 70.5218 67.4591C71.9732 66.8152 72.8184 66.4473 72.8184 66.4473C72.8184 66.4473 69.3643 66.7416 65.8551 67.036C62.346 67.3303 58.8 67.6615 58.8 67.6615V67.6247Z" fill="#08E2F0"/>
<path d="M113.989 54.9517L107.926 54.1055L103.792 55.5588L109.984 56.3499L113.989 54.9517Z" fill="#08E2F0"/>
<path d="M132.786 48.7358L127.439 47.6504L122.993 49.0485L128.487 50.0787L132.786 48.7358Z" fill="#08E2F0"/>
<path d="M120.073 52.8359L114.249 51.916C114.249 51.916 113.974 52.008 113.57 52.1368C113.165 52.2655 112.633 52.4496 112.118 52.6335C111.071 53.0015 110.042 53.351 110.042 53.351L116.013 54.2156C116.013 54.2156 117.024 53.8661 118.016 53.5165C118.512 53.3326 119.026 53.167 119.412 53.0383C119.798 52.9095 120.055 52.8175 120.055 52.8175L120.073 52.8359Z" fill="#08E2F0"/>
<path d="M126.357 50.7747L120.772 49.7812L116.454 51.1978L122.205 52.136L126.357 50.7747Z" fill="#08E2F0"/>
<path d="M66.9791 74.5802L59.1523 74.4883L56.1943 76.0152L64.1129 76.052L66.9791 74.5802Z" fill="#08E2F0"/>
<path d="M71.4025 72.3519L63.7411 72.168C63.7411 72.168 63.539 72.26 63.245 72.4071C62.9511 72.5543 62.5469 72.7383 62.1794 72.9407L60.6729 73.7133L68.4445 73.8421L69.8959 73.1062C70.245 72.9223 70.6308 72.7383 70.9248 72.6095C71.2188 72.4807 71.4025 72.3887 71.4025 72.3887V72.3519Z" fill="#08E2F0"/>
<path d="M80.9429 67.9238L73.649 67.5742L70.25 69.1011L77.6725 69.3955L80.9429 67.9238Z" fill="#08E2F0"/>
<path d="M76.0679 70.1325L68.5902 69.875L65.375 71.4019L72.9813 71.6043L76.0679 70.1325Z" fill="#08E2F0"/>
<path d="M58.6863 79.0332L50.5472 79.1068C50.5472 79.1068 50.3819 79.1987 50.1246 79.3459C49.8674 79.4931 49.5183 79.6771 49.206 79.8794C48.563 80.2658 47.9199 80.6521 47.9199 80.6521L56.1509 80.5233C56.1509 80.5233 56.7572 80.1554 57.3818 79.7874C57.6758 79.6035 58.0065 79.4195 58.2637 79.2907C58.5209 79.162 58.6863 79.07 58.6863 79.07V79.0332Z" fill="#08E2F0"/>
<path d="M36.1854 128.371L27.2012 130.303C27.2012 130.303 27.2931 130.376 27.4217 130.468C27.5503 130.56 27.7524 130.689 27.9545 130.818C28.377 131.075 28.7812 131.315 28.7812 131.315L37.7103 129.346C37.7103 129.346 37.3062 129.107 36.902 128.868C36.6999 128.757 36.4977 128.629 36.3875 128.537C36.2589 128.445 36.167 128.371 36.167 128.371H36.1854Z" fill="#08E2F0"/>
<path d="M102.233 59.2003L95.7292 58.5195C95.7292 58.5195 95.4903 58.6116 95.1045 58.7403C94.7371 58.8875 94.241 59.0715 93.7633 59.2554C92.8079 59.6234 91.8525 60.0097 91.8525 60.0097L98.4851 60.6352C98.4851 60.6352 99.4037 60.2856 100.322 59.9177C100.782 59.7337 101.241 59.5498 101.608 59.421C101.957 59.2922 102.196 59.2003 102.196 59.2003H102.233Z" fill="#08E2F0"/>
<path d="M108.019 57.0648L101.735 56.3105L97.7666 57.7823L104.179 58.4814L108.019 57.0648Z" fill="#08E2F0"/>
<path d="M89.9381 60.7617L86.1533 62.2519L93.0063 62.8038L96.6441 61.3688L89.9381 60.7617Z" fill="#08E2F0"/>
<path d="M54.9231 81.2559L46.637 81.403L44.1016 82.93L52.4795 82.7276L54.9231 81.2559Z" fill="#08E2F0"/>
<path d="M84.302 63.0273L80.6826 64.5359L87.7377 64.9774L91.2102 63.5425L84.302 63.0273Z" fill="#08E2F0"/>
<path d="M82.6101 67.1851C82.6101 67.1851 83.4369 66.8171 84.2636 66.4492C84.6678 66.2652 85.0904 66.0813 85.4211 65.9525C85.7518 65.8237 85.9539 65.7317 85.9539 65.7317L78.8437 65.3086C78.8437 65.3086 78.6232 65.4006 78.2925 65.5478C77.9435 65.6949 77.5209 65.8789 77.0983 66.0629C76.2531 66.4492 75.3896 66.8171 75.3896 66.8171L82.6285 67.1851H82.6101Z" fill="#08E2F0"/>
<path d="M454.402 6.75189L450.507 6.40234L444.095 8.97789L447.843 9.30902L454.402 6.75189Z" fill="#08E2F0"/>
<path d="M110.593 57.2471C108.481 58.0197 106.368 58.8109 104.236 59.6019C102.142 60.393 100.158 61.184 98.1183 61.9935C97.1078 62.3982 96.079 62.7845 95.0869 63.1893L92.184 64.4035C90.2732 65.2129 88.2706 66.0224 86.4333 66.8319C78.9189 70.0881 72.1394 73.3811 65.8927 76.711C59.6828 80.0408 54.3179 83.3706 49.5594 86.682L46.1788 89.1656C45.0948 89.9934 44.1579 90.8029 43.1474 91.6308C42.6513 92.0355 42.1368 92.4586 41.6959 92.8634L40.3915 94.0776L39.1054 95.2918C38.6828 95.6965 38.2602 96.1012 37.9111 96.506L35.7799 98.9159C35.1001 99.707 34.6041 100.498 34.0161 101.289L33.1894 102.467L32.5463 103.626C32.1421 104.398 31.6461 105.189 31.3521 105.943C30.0293 108.997 29.717 111.941 30.0109 114.774C30.5805 117.57 31.7563 120.256 33.9427 122.795C34.4571 123.439 35.1552 124.028 35.7615 124.653L36.7169 125.573L37.8744 126.456C38.6644 127.045 39.381 127.633 40.2812 128.185L43.0371 129.841C43.4781 130.117 44.0109 130.375 44.5437 130.632L46.1237 131.405L47.7222 132.177C48.2917 132.417 48.898 132.656 49.4859 132.913C50.6985 133.392 51.8376 133.888 53.1237 134.348L57.0922 135.691C62.6407 137.42 68.7588 138.984 75.667 140.272C82.6302 141.56 90.0711 142.664 98.2286 143.51C100.213 143.731 102.362 143.896 104.439 144.099L107.58 144.374C108.646 144.466 109.748 144.522 110.832 144.614C113.019 144.761 115.15 144.908 117.373 145.037C119.633 145.147 121.893 145.258 124.134 145.368C142.396 146.122 162.423 145.975 183.331 144.945L187.244 144.761L191.213 144.522C193.858 144.356 196.486 144.209 199.131 144.025C204.478 143.62 209.769 143.271 215.171 142.774C225.882 141.891 236.74 140.732 247.488 139.463C252.871 138.8 258.236 138.156 263.582 137.42C266.247 137.053 268.911 136.703 271.575 136.317C274.22 135.93 276.884 135.544 279.512 135.139C280.834 134.937 282.139 134.753 283.462 134.551C284.766 134.348 286.089 134.127 287.393 133.925C290.002 133.502 292.63 133.079 295.22 132.674C297.811 132.233 300.401 131.791 302.973 131.35C305.546 130.908 308.118 130.466 310.653 129.988C313.189 129.51 315.724 129.05 318.259 128.572L320.152 128.222L322.026 127.854C323.275 127.615 324.525 127.357 325.756 127.118C328.236 126.622 330.734 126.143 333.178 125.647C335.622 125.131 338.047 124.616 340.472 124.12C341.685 123.862 342.897 123.604 344.091 123.347C345.286 123.089 346.461 122.813 347.656 122.556C350.026 122.022 352.378 121.489 354.729 120.974C357.063 120.44 359.341 119.888 361.637 119.355C363.916 118.803 366.23 118.288 368.435 117.718C386.349 113.302 402.737 108.666 417.325 104.012C431.931 99.3574 444.663 94.6663 455.632 90.159C466.619 85.6334 475.787 81.255 483.375 77.1525C490.944 73.05 496.97 69.2051 501.564 65.6913C502.813 64.8082 503.787 63.9619 504.797 63.1157C505.808 62.2878 506.818 61.46 507.608 60.6689C508.435 59.8778 509.243 59.1052 510.033 58.3509C510.695 57.615 511.356 56.8792 511.981 56.1801C516.886 50.5323 518.099 46.3746 518.43 43.6334C518.54 42.9343 518.632 42.3273 518.577 41.8306C518.558 41.3155 518.54 40.8923 518.521 40.5428C518.485 39.8437 518.466 39.4941 518.466 39.4941L513.01 40.3404C513.01 40.3404 513.01 40.69 513.065 41.3707C513.065 41.7018 513.101 42.1249 513.12 42.6216C513.175 43.1183 513.083 43.707 512.973 44.3877C512.642 47.0736 511.448 51.1394 506.653 56.6584C506.028 57.3575 505.403 58.0566 504.742 58.7925C503.97 59.5283 503.18 60.2826 502.372 61.0552C501.6 61.8279 500.608 62.619 499.616 63.4469C498.605 64.2563 497.668 65.1026 496.437 65.9672C491.955 69.389 486.057 73.1604 478.653 77.1709C471.249 81.1814 462.264 85.4678 451.535 89.8831C440.805 94.2983 428.348 98.8791 414.073 103.423C399.797 107.967 383.776 112.511 366.267 116.816C364.099 117.368 361.858 117.883 359.616 118.417C357.375 118.95 355.133 119.484 352.855 119.999C350.559 120.514 348.262 121.029 345.947 121.544C344.79 121.802 343.632 122.059 342.456 122.317C341.28 122.574 340.105 122.813 338.91 123.071C336.54 123.568 334.17 124.064 331.782 124.561C329.393 125.058 326.968 125.518 324.525 126.014C323.312 126.254 322.099 126.493 320.868 126.732L319.031 127.081L317.175 127.431C314.714 127.891 312.233 128.351 309.735 128.811C307.254 129.289 304.737 129.712 302.22 130.135C299.703 130.577 297.186 131.018 294.632 131.442C292.097 131.846 289.543 132.251 286.989 132.674L283.149 133.281C281.863 133.484 280.577 133.668 279.291 133.852C276.719 134.238 274.128 134.624 271.519 135.011C268.929 135.397 266.32 135.728 263.711 136.096C258.493 136.832 253.257 137.457 247.984 138.101C237.475 139.334 226.874 140.456 216.401 141.339C211.129 141.817 205.947 142.167 200.73 142.553C198.139 142.719 195.567 142.866 192.976 143.032L189.1 143.252L185.278 143.436C164.829 144.448 145.263 144.595 127.404 143.859C125.2 143.749 122.995 143.639 120.79 143.547C118.604 143.436 116.509 143.271 114.378 143.124C113.313 143.05 112.247 142.976 111.2 142.903L108.131 142.627C106.11 142.443 103.998 142.277 102.068 142.056C94.1131 141.229 86.8191 140.143 80.0213 138.892C73.2418 137.623 67.2706 136.096 61.8507 134.403L57.9741 133.079C56.7247 132.619 55.604 132.141 54.4282 131.681C53.8586 131.442 53.2523 131.202 52.7011 130.963L51.1395 130.209L49.5961 129.455C49.0817 129.197 48.5673 128.958 48.1263 128.682L45.4256 127.063C44.5621 126.511 43.8639 125.941 43.0739 125.371L41.9531 124.506L41.0161 123.604C40.4282 122.997 39.73 122.409 39.234 121.802C37.1027 119.336 35.9453 116.687 35.3941 113.965C35.1001 111.187 35.4125 108.317 36.6986 105.336C36.9925 104.601 37.4702 103.828 37.856 103.074L38.4807 101.933L39.2891 100.774C39.8586 100.001 40.3547 99.2287 41.0161 98.456L43.1106 96.1012C43.4413 95.7149 43.8455 95.3101 44.2681 94.9054L45.5174 93.7096L46.7851 92.5138C47.2261 92.1091 47.7405 91.7044 48.2182 91.318C49.2103 90.5086 50.129 89.7175 51.1762 88.9081L54.4833 86.4797C59.1499 83.2418 64.3861 79.9856 70.4675 76.7294C76.5672 73.4915 83.1998 70.2537 90.5488 67.071C92.331 66.28 94.2968 65.4889 96.1708 64.6978L99.0186 63.5204C99.9924 63.1341 101.003 62.7478 101.977 62.343C103.979 61.5704 105.908 60.7793 107.966 60.025C110.042 59.2523 112.118 58.4981 114.176 57.7254" fill="#08E2F0"/>
<path d="M399.763 9.93601C414.736 9.9728 427.983 10.5983 439.558 11.5733C451.114 12.5667 460.962 13.9281 469.248 15.5286C477.516 17.1291 484.277 18.9504 489.568 20.8637C490.983 21.3236 492.14 21.8203 493.353 22.2986C494.529 22.7769 495.723 23.2553 496.697 23.752C497.707 24.2487 498.681 24.727 499.636 25.1869C500.482 25.6837 501.29 26.162 502.098 26.6403C508.327 30.4484 510.678 33.9806 511.799 36.4458C512.111 37.0529 512.387 37.6048 512.479 38.0831C512.608 38.5615 512.718 38.9662 512.81 39.2973C512.975 39.9596 513.067 40.2908 513.067 40.2908L518.524 39.4445C518.524 39.4445 518.432 39.095 518.266 38.4327C518.174 38.1015 518.064 37.6784 517.936 37.1817C517.844 36.685 517.568 36.1331 517.256 35.5076C516.117 32.9872 513.71 29.3814 507.335 25.4813C506.508 25.003 505.681 24.5063 504.818 24.0096C503.844 23.5313 502.833 23.0345 501.804 22.5378C500.812 22.0227 499.6 21.5444 498.387 21.0477C497.156 20.5509 495.98 20.0358 494.529 19.5759C489.091 17.6075 482.182 15.7494 473.731 14.1121C465.261 12.4748 455.193 11.0766 443.361 10.0647C431.529 9.05292 417.988 8.42742 402.666 8.39062" fill="#08E2F0"/>
<path d="M397.443 11.1688C426.858 11.2608 449.456 13.5236 465.643 16.6694C473.763 18.2516 480.396 20.0177 485.595 21.9125C486.992 22.3541 488.112 22.8508 489.307 23.3291C490.464 23.8074 491.64 24.2673 492.595 24.7457C493.587 25.224 494.543 25.7023 495.48 26.1622C496.307 26.6405 497.115 27.1189 497.887 27.5788C504.005 31.3133 506.32 34.7903 507.404 37.2003C507.716 37.8074 507.973 38.3409 508.065 38.8192C508.194 39.2975 508.304 39.7023 508.396 40.015C508.561 40.6589 508.653 40.99 508.653 40.99L510.839 40.6589C510.839 40.6589 510.748 40.3277 510.582 39.6655C510.49 39.3343 510.38 38.9296 510.27 38.4513C510.178 37.973 509.902 37.4211 509.608 36.8324C508.506 34.3856 506.154 30.9086 500 27.1189C499.21 26.6589 498.401 26.1806 497.574 25.6839C496.619 25.224 495.645 24.7457 494.653 24.249C493.698 23.7522 492.522 23.2923 491.346 22.814C490.152 22.3357 489.013 21.8389 487.598 21.3974C482.343 19.5025 475.656 17.6997 467.462 16.1175C459.267 14.5354 449.511 13.174 438.047 12.199C426.582 11.224 413.464 10.6169 398.619 10.5801" fill="#08E2F0"/>
<path d="M115.735 57.8726C113.677 58.6269 111.638 59.3812 109.58 60.1538C107.559 60.9265 105.63 61.6992 103.646 62.4534C102.672 62.8398 101.68 63.2261 100.706 63.6124L97.8951 64.7898C96.0395 65.5809 94.092 66.3535 92.3282 67.1446C85.0526 70.2905 78.4752 73.4915 72.4306 76.711C66.4044 79.9304 61.2233 83.1499 56.5934 86.3693L53.323 88.7793C52.2758 89.5704 51.3572 90.3614 50.3834 91.1709C49.9057 91.5756 49.4097 91.962 48.9687 92.3667L47.7194 93.5441L46.4884 94.7215C46.0658 95.1078 45.6617 95.5125 45.3309 95.8989L43.2548 98.2353C42.5934 99.008 42.1157 99.7622 41.5462 100.535L40.7378 101.675L40.1131 102.798C39.7273 103.552 39.2496 104.306 38.974 105.042C37.6879 108.004 37.3756 110.855 37.6695 113.597C38.2207 116.301 39.3782 118.913 41.4727 121.36C41.9687 121.967 42.6485 122.556 43.2365 123.145L44.1735 124.028L45.2942 124.874C46.0658 125.444 46.764 126.014 47.6275 126.548L50.3099 128.149C50.7325 128.424 51.2469 128.664 51.7614 128.921L53.3047 129.675L54.848 130.43C55.3808 130.669 55.9871 130.908 56.5566 131.147C57.7325 131.607 58.8348 132.104 60.0842 132.545L63.9241 133.852C69.2889 135.526 75.2049 137.034 81.9293 138.304C88.672 139.536 95.8925 140.622 103.774 141.431C105.685 141.652 107.78 141.799 109.782 142.001L112.814 142.277C113.843 142.351 114.908 142.424 115.955 142.498C118.068 142.645 120.144 142.792 122.312 142.921C124.499 143.032 126.685 143.124 128.871 143.234C146.564 143.97 165.947 143.823 186.212 142.829L189.997 142.645L193.837 142.406C196.409 142.259 198.945 142.112 201.517 141.928C206.698 141.541 211.824 141.192 217.06 140.732C227.441 139.867 237.95 138.745 248.349 137.531C253.567 136.887 258.766 136.262 263.947 135.544C266.538 135.195 269.11 134.863 271.682 134.477C274.254 134.091 276.808 133.723 279.38 133.336C280.666 133.152 281.934 132.968 283.202 132.766L287.005 132.159C289.54 131.754 292.057 131.35 294.593 130.945C297.11 130.522 299.609 130.08 302.107 129.657C304.606 129.216 307.086 128.811 309.548 128.332C312.01 127.873 314.472 127.413 316.916 126.971L318.753 126.622L320.572 126.272C321.784 126.033 322.979 125.794 324.191 125.555C326.598 125.076 329.005 124.616 331.375 124.12C333.745 123.623 336.097 123.126 338.43 122.629C339.606 122.372 340.782 122.133 341.939 121.894C343.097 121.636 344.236 121.378 345.393 121.121C347.69 120.606 349.968 120.091 352.246 119.594C354.506 119.079 356.711 118.545 358.934 118.012C361.139 117.478 363.38 116.982 365.511 116.43C382.855 112.143 398.729 107.654 412.876 103.147C427.023 98.64 439.351 94.096 449.989 89.7176C460.626 85.3391 469.519 81.0894 476.868 77.1157C484.199 73.142 490.041 69.4074 494.487 66.004C495.7 65.1394 496.637 64.3299 497.629 63.5204C498.603 62.711 499.595 61.9199 500.348 61.1473C501.138 60.393 501.928 59.6387 502.7 58.9029C503.343 58.1854 503.986 57.4863 504.592 56.7872C509.332 51.3233 510.527 47.2945 510.839 44.6453C510.949 43.983 511.041 43.3759 510.986 42.8976C510.968 42.4009 510.949 41.9778 510.931 41.6466C510.894 40.9843 510.876 40.6348 510.876 40.6348L508.689 40.966C508.689 40.966 508.708 41.3155 508.744 41.9778C508.744 42.3089 508.781 42.7137 508.8 43.2104C508.855 43.6887 508.763 44.2774 508.653 44.9397C508.34 47.5704 507.164 51.5625 502.461 56.9712C501.855 57.6518 501.23 58.3509 500.587 59.05C499.834 59.7675 499.062 60.5217 498.254 61.276C497.5 62.0303 496.527 62.8214 495.553 63.6124C494.561 64.4219 493.642 65.2314 492.448 66.0776C488.057 69.4442 482.251 73.142 474.994 77.0789C460.479 84.9528 439.627 93.912 411.59 102.871C397.59 107.342 381.863 111.775 364.666 116.025C362.553 116.559 360.33 117.074 358.144 117.589C355.939 118.104 353.753 118.637 351.511 119.152C349.251 119.649 346.992 120.164 344.732 120.679C343.593 120.937 342.454 121.176 341.314 121.434C340.157 121.673 338.999 121.912 337.842 122.17C335.509 122.648 333.175 123.145 330.842 123.641C328.509 124.12 326.102 124.598 323.732 125.058C322.538 125.297 321.343 125.536 320.149 125.757L318.349 126.106L316.53 126.438C314.104 126.879 311.679 127.339 309.236 127.781C306.792 128.241 304.33 128.664 301.868 129.087C299.406 129.51 296.908 129.951 294.427 130.375C291.929 130.779 289.43 131.184 286.913 131.589L283.147 132.196C281.879 132.398 280.63 132.564 279.362 132.766C276.826 133.152 274.291 133.52 271.737 133.888C269.183 134.256 266.63 134.587 264.076 134.937C258.95 135.654 253.805 136.262 248.624 136.905C238.317 138.12 227.9 139.223 217.63 140.088C212.449 140.566 207.378 140.898 202.233 141.284C199.698 141.449 197.163 141.597 194.627 141.744L190.824 141.965L187.076 142.149C166.995 143.142 147.795 143.271 130.268 142.553C128.1 142.443 125.95 142.351 123.782 142.24C121.633 142.13 119.593 141.965 117.499 141.836C116.451 141.762 115.404 141.689 114.375 141.615L111.362 141.339C109.378 141.155 107.302 140.99 105.41 140.769C97.5828 139.978 90.4358 138.911 83.7665 137.678C77.1156 136.427 71.2547 134.937 65.9267 133.281L62.1235 131.993C60.8926 131.552 59.7902 131.074 58.6327 130.614C58.0632 130.375 57.4753 130.154 56.9424 129.915L55.4175 129.179L53.8926 128.424C53.3782 128.185 52.8821 127.928 52.4595 127.652L49.8139 126.07C48.9687 125.536 48.2706 124.966 47.5173 124.414L46.4149 123.568L45.4963 122.685C44.9084 122.096 44.2286 121.526 43.7325 120.9C41.638 118.49 40.4989 115.878 39.9661 113.21C39.6722 110.488 39.9845 107.673 41.2522 104.729C41.5278 103.993 42.0055 103.239 42.3913 102.503L42.9976 101.381L43.806 100.241C44.3756 99.4863 44.8532 98.732 45.4963 97.9593L47.554 95.6413C47.8847 95.255 48.2889 94.8687 48.6931 94.4823L49.9241 93.3049L51.1551 92.1275C51.596 91.7412 52.0921 91.3364 52.5514 90.9501C53.5251 90.159 54.4254 89.368 55.4543 88.577L58.7062 86.2038C63.281 83.0211 68.4254 79.82 74.3781 76.6374C80.3676 73.4547 86.8715 70.2721 94.092 67.163C95.8374 66.372 97.7665 65.6177 99.6038 64.8266L102.396 63.6676C103.352 63.2813 104.344 62.895 105.318 62.527C107.284 61.7544 109.176 61.0001 111.197 60.2458C113.236 59.4915 115.257 58.7373 117.297 57.983" fill="#08E2F0"/>
<path d="M529.804 32.9883L520.508 34.5888L521.096 35.7478L530.411 34.2024L529.804 32.9883Z" fill="#08E2F0"/>
<path d="M528.81 31.1641L519.55 32.8382C519.55 32.8382 519.605 32.9118 519.678 33.0037C519.77 33.1141 519.862 33.2613 519.917 33.3901C520.064 33.6845 520.211 33.9788 520.211 33.9788L529.489 32.3598C529.489 32.3598 529.324 32.0655 529.177 31.7528C529.104 31.6056 529.012 31.4584 528.92 31.348C528.846 31.2377 528.791 31.1641 528.791 31.1641H528.81Z" fill="#08E2F0"/>
<path d="M530.624 34.8262L521.291 36.3715L521.622 37.5673L530.973 36.0771L530.624 34.8262Z" fill="#08E2F0"/>
<path d="M527.468 29.416L518.264 31.1453L519.109 32.2675L528.35 30.575L527.468 29.416Z" fill="#08E2F0"/>
<path d="M521.789 38.1905L521.973 38.9263L531.324 37.4914L531.141 36.7188L521.789 38.1905Z" fill="#08E2F0"/>
<path d="M548.285 34.5456C548.285 34.5456 547.991 33.4418 547.55 31.7861C547.237 30.9766 546.741 30.0568 546.245 29.0634C546.025 28.5667 545.639 28.0699 545.253 27.5548C544.867 27.0581 544.481 26.543 544.096 26.0279C543.728 25.5128 543.195 25.0344 542.718 24.5377C542.222 24.0594 541.726 23.5811 541.248 23.1212C540.789 22.6613 540.182 22.2381 539.668 21.8334C539.135 21.4287 538.621 21.0608 538.161 20.7112C537.261 20.0121 536.287 19.4602 535.663 19.0739C535.02 18.6875 534.652 18.4668 534.652 18.4668C534.652 18.4668 531.069 18.8715 527.505 19.2947C523.959 19.7178 520.34 20.1593 520.34 20.1593C520.34 20.1593 520.799 20.3801 521.479 20.7848C522.159 21.1895 523.114 21.7783 524.272 22.4589C525.392 23.158 526.458 24.0226 527.689 24.9425C528.846 25.8623 529.82 26.9109 530.886 27.9412C531.712 29.0082 532.594 30.0752 533.219 31.1054C533.752 32.154 534.285 33.1107 534.597 33.9753C535.056 35.7046 535.369 36.8636 535.369 36.8636L545.694 35.2631L548.321 34.5456H548.285Z" fill="#08E2F0"/>
<path d="M517.1 21.3379L508.263 23.38L509.898 24.3366L518.79 22.3497L517.1 21.3379Z" fill="#08E2F0"/>
<path d="M519.655 22.8672L510.726 24.8356C510.726 24.8356 511.13 25.0748 511.534 25.3139C511.957 25.5531 512.287 25.8106 512.287 25.8106L521.271 23.879C521.271 23.879 520.922 23.603 520.5 23.3639C520.077 23.1063 519.673 22.8672 519.673 22.8672H519.655Z" fill="#08E2F0"/>
<path d="M525.886 27.7051L516.736 29.508C516.736 29.508 517.012 29.7656 517.288 30.0415C517.416 30.1703 517.563 30.299 517.655 30.4094C517.765 30.5014 517.82 30.575 517.82 30.575L527.007 28.8273C527.007 28.8273 526.952 28.7537 526.841 28.6433C526.731 28.533 526.602 28.4042 526.455 28.257C526.162 27.9811 525.886 27.7051 525.886 27.7051Z" fill="#08E2F0"/>
<path d="M524.121 26.0117L515.026 27.8698C515.026 27.8698 515.118 27.925 515.228 28.0354C515.339 28.1458 515.486 28.2745 515.614 28.4033C515.89 28.6608 516.165 28.9368 516.165 28.9368L525.297 27.1155C525.297 27.1155 525.003 26.8396 524.709 26.5636C524.562 26.4164 524.415 26.2877 524.305 26.1773C524.194 26.0669 524.102 26.0117 524.102 26.0117H524.121Z" fill="#08E2F0"/>
<path d="M521.991 24.4141L512.97 26.3273L514.348 27.3575L523.405 25.4811L521.991 24.4141Z" fill="#08E2F0"/>
</svg>
