<svg width="244" height="67" viewBox="0 0 244 67" fill="none" xmlns="http://www.w3.org/2000/svg">
<g opacity="0.5">
<path d="M100.119 64.6363C100.119 64.6363 100.634 64.581 101.552 64.4891C102.471 64.3971 103.775 64.2499 105.356 64.066C106.146 63.974 106.991 63.882 107.891 63.79C108.791 63.6797 109.747 63.5693 110.739 63.4405C111.731 63.3117 112.741 63.1829 113.789 63.0541C114.836 62.9253 115.883 62.7782 116.93 62.631C117.996 62.4838 119.043 62.3367 120.09 62.2079C121.138 62.0607 122.148 61.9135 123.14 61.7664C124.132 61.6192 125.088 61.472 125.988 61.3432C126.888 61.2144 127.752 61.0673 128.542 60.9385C130.122 60.6809 131.445 60.4786 132.363 60.3314C132.823 60.2578 133.19 60.2026 133.429 60.1474C133.668 60.1106 133.815 60.0738 133.815 60.0738C133.815 60.0738 134.384 59.6323 134.899 59.1908C135.432 58.7493 135.928 58.3262 135.928 58.3262C135.928 58.3262 135.34 58.4181 134.329 58.6021C133.815 58.6941 133.208 58.786 132.492 58.9148C131.775 59.0252 130.967 59.154 130.103 59.3012C128.358 59.5772 126.3 59.9083 124.096 60.2394C122.993 60.405 121.854 60.5706 120.715 60.7362C119.558 60.9017 118.382 61.0489 117.206 61.2144C112.502 61.8583 107.836 62.4102 104.345 62.7782C103.904 62.8334 103.481 62.8702 103.096 62.9254C102.691 62.9622 102.324 62.999 101.975 63.0358C101.277 63.1093 100.652 63.1645 100.156 63.2197C99.1456 63.3117 98.5576 63.3669 98.5576 63.3669C98.5576 63.3669 98.9251 63.6796 99.3109 63.9924C99.7151 64.3051 100.138 64.6179 100.138 64.6179L100.119 64.6363Z" fill="#08E2F0"/>
<path d="M93.3252 63.3988L95.6769 63.178L96.6323 62.0742L94.3724 62.2766L93.3252 63.3988Z" fill="#08E2F0"/>
<path d="M100.069 61.7656C100.069 61.7656 99.4994 61.8208 98.9298 61.876C98.6359 61.9128 98.3603 61.9312 98.1398 61.9496C97.9377 61.9496 97.7907 61.9864 97.7907 61.9864L96.8721 63.0902C96.8721 63.0902 97.019 63.0902 97.2395 63.0534C97.46 63.035 97.754 63.0166 98.0479 62.9798C98.6358 62.9246 99.2238 62.8694 99.2238 62.8694L100.051 61.7656H100.069Z" fill="#08E2F0"/>
<path d="M101.22 61.6513L100.43 62.7367L102.8 62.4975L103.516 61.4121L101.22 61.6513Z" fill="#08E2F0"/>
<path d="M104.673 61.3045L104.012 62.3714L106.4 62.1139L106.97 61.0469L104.673 61.3045Z" fill="#08E2F0"/>
<path d="M73.7015 63.4185L71.8643 64.5959L74.0506 64.5223L75.796 63.3633L73.7015 63.4185Z" fill="#08E2F0"/>
<path d="M81.049 63.1428L79.4873 64.3018L81.7288 64.1914L83.1986 63.0508L81.049 63.1428Z" fill="#08E2F0"/>
<path d="M89.8135 63.6589L92.1284 63.4933L93.2308 62.3711L90.9893 62.5367L89.8135 63.6589Z" fill="#08E2F0"/>
<path d="M108.168 60.9177L107.635 61.9847C107.635 61.9847 108.223 61.9111 108.829 61.8559C109.435 61.7824 110.023 61.7088 110.023 61.7088L110.464 60.6602C110.464 60.6602 109.895 60.7337 109.307 60.8073C108.737 60.8809 108.149 60.9361 108.149 60.9361L108.168 60.9177Z" fill="#08E2F0"/>
<path d="M76.8805 63.3256L75.1719 64.4845C75.1719 64.4845 75.7231 64.4845 76.2742 64.4477C76.5498 64.4477 76.8254 64.4294 77.0275 64.411C77.2296 64.411 77.3766 64.411 77.3766 64.411L79.0118 63.252C79.0118 63.252 78.8832 63.252 78.6811 63.252C78.479 63.252 78.2034 63.2703 77.9461 63.2887C77.4133 63.3071 76.8989 63.3256 76.8989 63.3256H76.8805Z" fill="#08E2F0"/>
<path d="M87.6463 62.773L86.3418 63.9136C86.3418 63.9136 86.9113 63.8768 87.4809 63.84C88.0504 63.8032 88.6384 63.748 88.6384 63.748L89.851 62.6074C89.851 62.6074 89.2998 62.6442 88.7302 62.681C88.1607 62.7178 87.6279 62.7546 87.6279 62.7546L87.6463 62.773Z" fill="#08E2F0"/>
<path d="M70.5803 63.49L68.6328 64.649L70.764 64.6121L72.638 63.4531L70.5803 63.49Z" fill="#08E2F0"/>
<path d="M84.3208 62.9764L82.8877 64.117L85.1659 63.9883L86.5255 62.8477L84.3208 62.9764Z" fill="#08E2F0"/>
<path d="M145.295 55.1387L143.035 55.5802L143.807 56.4448L146.159 55.9849L145.295 55.1387Z" fill="#08E2F0"/>
<path d="M148.992 57.2732C148.992 57.2732 149.507 57.1812 150.425 56.9973C151.326 56.8133 152.612 56.5373 154.155 56.2246C154.927 56.059 155.753 55.8934 156.635 55.7095C157.517 55.5255 158.417 55.3231 159.373 55.1024C160.31 54.9 161.302 54.6609 162.294 54.4585C163.286 54.2377 164.278 53.9986 165.27 53.7594C166.263 53.5202 167.255 53.2811 168.228 53.0603C169.184 52.8212 170.121 52.582 171.039 52.3612C171.958 52.1221 172.822 51.9013 173.667 51.699C174.494 51.4782 175.265 51.2758 175.982 51.0918C177.396 50.7055 178.609 50.4112 179.417 50.172C180.226 49.9512 180.685 49.8224 180.685 49.8224C180.685 49.8224 180.612 49.4545 180.501 49.0866C180.391 48.7187 180.244 48.3691 180.244 48.3691C180.244 48.3691 179.73 48.5163 178.829 48.7555C178.389 48.8842 177.837 49.0314 177.213 49.2154C176.9 49.3074 176.57 49.3993 176.221 49.4913C175.871 49.5833 175.486 49.6937 175.081 49.7857C174.291 49.988 173.428 50.2272 172.528 50.4663C172.068 50.5767 171.609 50.7055 171.131 50.8343C170.654 50.9631 170.158 51.0918 169.643 51.2022C168.633 51.4598 167.585 51.7173 166.52 51.9749C165.454 52.2325 164.333 52.49 163.249 52.766C158.858 53.8146 154.32 54.7896 150.903 55.5071C150.48 55.5991 150.058 55.6727 149.672 55.7646C149.286 55.8382 148.9 55.9118 148.551 55.9854C147.853 56.1142 147.247 56.243 146.732 56.3349C145.722 56.5373 145.152 56.6477 145.152 56.6477C145.152 56.6477 146.089 56.8133 147.063 56.9788C148.037 57.1444 149.047 57.2916 149.047 57.2916L148.992 57.2732Z" fill="#08E2F0"/>
<path d="M136.628 57.7718C136.628 57.7718 137.234 57.6615 137.822 57.5695C138.41 57.4591 139.016 57.3487 139.016 57.3487L138.41 56.4473C138.41 56.4473 137.84 56.5577 137.271 56.6497C136.701 56.7416 136.113 56.852 136.113 56.852L136.628 57.7718Z" fill="#08E2F0"/>
<path d="M140.226 57.107L142.596 56.6654L141.861 55.8008L139.564 56.2239L140.226 57.107Z" fill="#08E2F0"/>
<path d="M111.64 60.4908L111.254 61.5394L113.642 61.2451L113.955 60.2148L111.64 60.4908Z" fill="#08E2F0"/>
<path d="M149.87 54.2041L150.917 55.0319L153.251 54.5352L152.112 53.7441L149.87 54.2041Z" fill="#08E2F0"/>
<path d="M146.46 54.8994L147.379 55.7456C147.379 55.7456 147.967 55.6353 148.554 55.5065C149.142 55.3961 149.73 55.2673 149.73 55.2673L148.738 54.4395C148.738 54.4395 148.187 54.5682 147.617 54.6786C147.048 54.789 146.478 54.8994 146.478 54.8994H146.46Z" fill="#08E2F0"/>
<path d="M122.13 59.0956L122.148 60.0891L124.537 59.7395L124.445 58.7461L122.13 59.0956Z" fill="#08E2F0"/>
<path d="M118.64 59.5929L118.512 60.6047C118.512 60.6047 119.118 60.5127 119.724 60.4391C120.018 60.4023 120.331 60.3656 120.551 60.3288C120.772 60.292 120.919 60.2736 120.919 60.2736L120.955 59.2617C120.955 59.2617 120.808 59.2801 120.588 59.3169C120.367 59.3537 120.073 59.3905 119.798 59.4273C119.228 59.5009 118.64 59.5929 118.64 59.5929Z" fill="#08E2F0"/>
<path d="M115.148 60.0511L114.872 61.0996L117.279 60.7685L117.463 59.7383L115.148 60.0511Z" fill="#08E2F0"/>
<path d="M125.639 58.582L125.767 59.557C125.767 59.557 126.373 59.465 126.961 59.373C127.568 59.281 128.156 59.1891 128.156 59.1891L127.935 58.2324C127.935 58.2324 127.366 58.3244 126.778 58.4164C126.208 58.5084 125.62 58.6004 125.62 58.6004L125.639 58.582Z" fill="#08E2F0"/>
<path d="M132.623 57.4555L133.009 58.3754L135.397 57.9706L134.92 57.0508L132.623 57.4555Z" fill="#08E2F0"/>
<path d="M129.127 58.0125L129.384 58.9875L131.773 58.6012L131.442 57.6445L129.127 58.0125Z" fill="#08E2F0"/>
<path d="M31.7347 60.7852L28.3174 61.8521L29.6953 62.1281L33.0575 61.0611L31.7347 60.7852Z" fill="#08E2F0"/>
<path d="M22.5664 60.4552L23.7423 60.7863L27.3249 59.7745L26.1858 59.4434L22.5664 60.4552Z" fill="#08E2F0"/>
<path d="M29.1625 60.2162L27.9315 59.9219L24.3672 60.9521L25.6533 61.2648L29.1625 60.2162Z" fill="#08E2F0"/>
<path d="M35.8896 61.5391L32.6377 62.6245C32.6377 62.6245 33.0051 62.6797 33.3726 62.7533C33.7584 62.8085 34.1442 62.8636 34.1442 62.8636L37.3411 61.7598C37.3411 61.7598 36.9736 61.7046 36.6062 61.6494C36.2571 61.5942 35.8896 61.5391 35.8896 61.5391Z" fill="#08E2F0"/>
<path d="M29.7926 60.3789L26.3018 61.4275C26.3018 61.4275 26.6325 61.5011 26.9448 61.5747C27.2755 61.6483 27.6246 61.7218 27.6246 61.7218L31.0603 60.6548C31.0603 60.6548 30.7296 60.5812 30.3989 60.5261C30.0865 60.4525 29.7742 60.3789 29.7742 60.3789H29.7926Z" fill="#08E2F0"/>
<path d="M33.7569 61.1934L30.4131 62.2604L31.8829 62.5179L35.1716 61.4325L33.7569 61.1934Z" fill="#08E2F0"/>
<path d="M153.27 53.5037L154.445 54.2948C154.445 54.2948 154.592 54.258 154.813 54.2212C155.033 54.166 155.309 54.1108 155.603 54.0556C156.172 53.9268 156.76 53.798 156.76 53.798L155.511 53.0254C155.511 53.0254 154.96 53.1542 154.409 53.2646C154.133 53.3197 153.857 53.3933 153.655 53.4301C153.453 53.4853 153.306 53.5037 153.306 53.5037H153.27Z" fill="#08E2F0"/>
<path d="M67.5126 63.5293L65.4365 64.6883C65.4365 64.6883 65.951 64.6883 66.4838 64.6883C66.9982 64.6883 67.5494 64.6883 67.5494 64.6883L69.5336 63.5293C69.5336 63.5293 69.0192 63.5293 68.5048 63.5293C68.0087 63.5293 67.5126 63.5293 67.5126 63.5293Z" fill="#08E2F0"/>
<path d="M20.8408 59.9434C20.8408 59.9434 21.1164 60.0354 21.392 60.1274C21.6859 60.2194 21.9799 60.293 21.9799 60.293L25.6177 59.2812C25.6177 59.2812 25.3421 59.2076 25.0481 59.1156C24.7909 59.0236 24.5337 58.9316 24.5337 58.9316L20.8408 59.9251V59.9434Z" fill="#08E2F0"/>
<path d="M20.1649 57.2754L16.3066 58.2136C16.3066 58.2136 16.5087 58.324 16.7476 58.416C16.9864 58.508 17.2253 58.6184 17.2253 58.6184L21.0468 57.6801C21.0468 57.6801 20.8079 57.5881 20.5875 57.4961C20.367 57.4042 20.1649 57.2938 20.1649 57.2938V57.2754Z" fill="#08E2F0"/>
<path d="M18.9271 56.6621L15.0137 57.5636L15.8772 57.9867L19.7355 57.0668L18.9271 56.6621Z" fill="#08E2F0"/>
<path d="M22.9707 58.418L19.2227 59.393L20.2883 59.761L23.9995 58.7675L22.9707 58.418Z" fill="#08E2F0"/>
<path d="M21.5248 57.8457L17.7217 58.8023L18.6954 59.1887L22.4618 58.232L21.5248 57.8457Z" fill="#08E2F0"/>
<path d="M20.3672 63.4173C20.3672 63.4173 20.6428 63.4909 21.1756 63.6013C21.7084 63.7117 22.4617 63.8588 23.3619 64.0428C25.1992 64.3923 27.7897 64.8339 30.5824 65.2018C31.2622 65.2938 31.9787 65.3857 32.6953 65.4593C33.4118 65.5329 34.1099 65.6249 34.7897 65.6985C36.1493 65.8457 37.5089 65.9561 38.648 66.048C38.9419 66.0664 39.2175 66.1032 39.4748 66.1216C39.7504 66.14 40.0076 66.1584 40.228 66.1768C40.7057 66.2136 41.1283 66.232 41.4774 66.2688C42.1755 66.324 42.5614 66.3424 42.5614 66.3424C42.5614 66.3424 44.0312 65.9745 45.4826 65.6065C46.1991 65.4226 46.9341 65.2386 47.4852 65.0914C48.0364 64.9443 48.3855 64.8523 48.3855 64.8523C48.3855 64.8523 48.2753 64.8523 48.0548 64.8523C47.8527 64.8523 47.522 64.8339 47.1362 64.7971C46.3645 64.7419 45.2621 64.6683 43.9577 64.5763C42.6532 64.4843 41.2018 64.3371 39.6217 64.2084C38.8501 64.1348 38.0784 64.0428 37.2884 63.9508C36.4984 63.8588 35.69 63.7853 34.9367 63.6565C33.4118 63.4541 31.8868 63.2333 30.564 63.0126C29.9026 62.9022 29.2412 62.7918 28.6349 62.6814C28.0653 62.5711 27.5142 62.4607 26.9997 62.3503C26.5037 62.2399 26.0444 62.1479 25.6402 62.0743C25.236 62.0007 24.9236 61.9088 24.648 61.8352C24.0968 61.7064 23.7845 61.6328 23.7845 61.6328C23.7845 61.6328 22.9026 62.0743 22.0575 62.5342C21.2123 62.9758 20.3672 63.4357 20.3672 63.4357V63.4173Z" fill="#08E2F0"/>
<path d="M54.743 66.7858C54.743 66.7858 55.184 66.7858 55.9556 66.7858C56.7273 66.7858 57.8296 66.8226 59.2075 66.8042C59.8873 66.8042 60.6222 66.8042 61.4123 66.8042C62.2023 66.8042 63.0107 66.8042 63.9109 66.7858C64.7928 66.7858 65.6931 66.749 66.6117 66.7306C67.071 66.7306 67.5304 66.7307 68.0081 66.7123C68.4857 66.7123 68.9634 66.6754 69.4411 66.6754C73.2626 66.5651 77.1944 66.3811 80.1707 66.2155C81.6773 66.1235 82.9266 66.05 83.8085 65.9948C84.6904 65.9396 85.1865 65.9028 85.1865 65.9028C85.1865 65.9028 86.3072 65.4613 87.3912 65.0197C88.4752 64.5782 89.5224 64.1367 89.5224 64.1367C89.5224 64.1367 88.9529 64.1735 87.9608 64.2471C87.4647 64.2839 86.8584 64.3206 86.1786 64.3758C85.4988 64.4126 84.7455 64.4678 83.9004 64.5046C83.0736 64.5598 82.1734 64.615 81.218 64.6702C80.281 64.7254 79.2889 64.7622 78.26 64.8174C77.2495 64.8542 76.1655 64.9277 75.1366 64.9461C74.0894 64.9829 73.0238 65.0198 71.9582 65.0566C70.8926 65.0934 69.8453 65.1117 68.8165 65.1301C67.7876 65.1301 66.7954 65.1669 65.8033 65.1853C63.9109 65.1853 62.1104 65.1853 60.6222 65.1853C59.1524 65.1669 57.9215 65.1485 57.0579 65.1301C56.6354 65.1301 56.2863 65.1301 56.0658 65.1301C55.8454 65.1301 55.7167 65.1301 55.7167 65.1301C55.7167 65.1301 55.6432 65.2405 55.533 65.3877C55.4228 65.5533 55.2942 65.7556 55.1839 65.958C54.9451 66.3811 54.7246 66.7858 54.7246 66.7858H54.743Z" fill="#08E2F0"/>
<path d="M50.4795 64.3914L52.3535 64.4834L54.8889 63.3244L53.0884 63.2324L50.4795 64.3914Z" fill="#08E2F0"/>
<path d="M38.116 61.8691L34.9375 62.973L36.4992 63.1937L39.6041 62.0715L38.116 61.8691Z" fill="#08E2F0"/>
<path d="M60.5599 63.493C60.5599 63.493 60.0639 63.493 59.6046 63.493C59.1269 63.493 58.6676 63.4746 58.6676 63.4746L56.2607 64.6336C56.2607 64.6336 56.7384 64.6336 57.2345 64.6704C57.7306 64.6704 58.2266 64.6704 58.2266 64.6704L60.5599 63.5114V63.493Z" fill="#08E2F0"/>
<path d="M64.493 63.5293L62.3066 64.7067H64.3828L66.4772 63.5293H64.493Z" fill="#08E2F0"/>
<path d="M61.5554 63.5078L59.2588 64.6668L61.2614 64.6852L63.4845 63.5262L61.5554 63.5078Z" fill="#08E2F0"/>
<path d="M53.3252 64.5223L55.2543 64.5775L57.6979 63.4185L55.8239 63.3633L53.3252 64.5223Z" fill="#08E2F0"/>
<path d="M40.3913 62.1855L37.3047 63.3078L38.9399 63.4918L41.9714 62.3695L40.3913 62.1855Z" fill="#08E2F0"/>
<path d="M42.7779 62.459L39.7832 63.5812C39.7832 63.5812 40.1874 63.618 40.61 63.6732C41.0325 63.71 41.4551 63.7467 41.4551 63.7467L44.3947 62.6245C44.3947 62.6245 43.9905 62.5877 43.568 62.5509C43.1638 62.5142 42.7779 62.459 42.7779 62.459Z" fill="#08E2F0"/>
<path d="M47.6807 64.2481C47.6807 64.2481 48.14 64.2849 48.5809 64.3033C49.0402 64.3217 49.5179 64.3584 49.5179 64.3584L52.1636 63.1994C52.1636 63.1994 51.7226 63.181 51.2633 63.1626C50.8224 63.1258 50.3998 63.1074 50.3998 63.1074L47.6807 64.2481Z" fill="#08E2F0"/>
<path d="M45.2398 62.7012L42.3369 63.8234L44.0639 63.989L46.9117 62.8484L45.2398 62.7012Z" fill="#08E2F0"/>
<path d="M47.7798 62.9199L44.9688 64.0421L46.7509 64.1709L49.5068 63.0303L47.7798 62.9199Z" fill="#08E2F0"/>
<path d="M172.786 48.7558L174.697 49.3629C174.697 49.3629 175.248 49.2158 175.762 49.0686C176.295 48.9214 176.81 48.7743 176.81 48.7743L174.825 48.1855C174.825 48.1855 174.311 48.3327 173.815 48.4615C173.319 48.6087 172.786 48.7374 172.786 48.7374V48.7558Z" fill="#08E2F0"/>
<path d="M219.32 30.855L222.977 30.7998L224.116 30.1191L220.404 30.2112L219.32 30.855Z" fill="#08E2F0"/>
<path d="M233.178 22.7603C233.178 22.7603 233.324 22.5947 233.453 22.4475C233.527 22.3556 233.582 22.2819 233.618 22.2267C233.655 22.1715 233.692 22.1348 233.692 22.1348L229.632 22.5211C229.632 22.5211 229.613 22.5579 229.558 22.6131C229.521 22.6683 229.466 22.7419 229.393 22.8339C229.264 22.981 229.117 23.1466 229.117 23.1466L233.159 22.7787L233.178 22.7603Z" fill="#08E2F0"/>
<path d="M228.288 24.0668L232.293 23.7357L232.881 23.0918L228.858 23.4413L228.288 24.0668Z" fill="#08E2F0"/>
<path d="M227.315 25.025L231.284 24.7307L231.964 24.0684L227.977 24.3811L227.315 25.025Z" fill="#08E2F0"/>
<path d="M237.858 14.8284C237.858 14.8284 237.877 15.1411 237.895 15.6194C237.895 15.8586 237.95 16.1345 237.895 16.4289C237.84 16.7416 237.803 17.0544 237.748 17.3856C237.711 17.7167 237.564 18.0479 237.454 18.3606C237.344 18.6733 237.234 18.9677 237.123 19.2253C236.848 19.7404 236.664 20.0899 236.664 20.0899C236.664 20.0899 238.189 19.7587 239.714 19.4276C241.239 19.0964 242.764 18.7469 242.764 18.7469C242.764 18.7469 242.801 18.6733 242.874 18.5262C242.929 18.3974 243.003 18.195 243.094 17.9742C243.26 17.5143 243.499 16.8889 243.572 16.3002C243.609 16.0058 243.664 15.693 243.701 15.4171C243.701 15.1411 243.701 14.8836 243.682 14.6628C243.664 14.2213 243.646 13.9453 243.646 13.9453L237.877 14.8284H237.858Z" fill="#08E2F0"/>
<path d="M230.857 20.667L230.526 21.2556L234.623 20.8325L234.954 20.207L230.857 20.667Z" fill="#08E2F0"/>
<path d="M220.924 29.8828L224.654 29.7725L225.682 29.0918L221.916 29.2206L220.924 29.8828Z" fill="#08E2F0"/>
<path d="M231.025 20.3491L235.141 19.8892C235.141 19.8892 235.214 19.7236 235.306 19.5764C235.398 19.4109 235.453 19.2637 235.453 19.2637L231.338 19.7604C231.338 19.7604 231.283 19.9075 231.191 20.0547C231.117 20.2019 231.025 20.3491 231.025 20.3491Z" fill="#08E2F0"/>
<path d="M222.404 28.8856L226.189 28.7384C226.189 28.7384 226.446 28.5729 226.685 28.4073C226.924 28.2417 227.144 28.0762 227.144 28.0762L223.323 28.2417C223.323 28.2417 223.102 28.4073 222.882 28.5729C222.643 28.7384 222.404 28.904 222.404 28.904V28.8856Z" fill="#08E2F0"/>
<path d="M226.253 25.9823L230.185 25.7248L230.589 25.3936C230.773 25.2281 230.938 25.0625 230.938 25.0625L226.988 25.3384C226.988 25.3384 226.822 25.504 226.657 25.6512C226.473 25.8168 226.271 25.964 226.271 25.964L226.253 25.9823Z" fill="#08E2F0"/>
<path d="M223.789 27.9147L227.629 27.7307L228.529 27.0684L224.671 27.2708L223.789 27.9147Z" fill="#08E2F0"/>
<path d="M225.071 26.935L228.966 26.7326L229.775 26.0703L225.861 26.3094L225.071 26.935Z" fill="#08E2F0"/>
<path d="M233.944 21.7884L234.385 21.1445L230.306 21.5677L229.865 22.1932L233.944 21.7884Z" fill="#08E2F0"/>
<path d="M231.428 19.4534L235.562 18.9567L235.782 18.3496L231.648 18.8647L231.428 19.4534Z" fill="#08E2F0"/>
<path d="M231.738 18.5655L235.872 18.032C235.872 18.032 235.872 17.9952 235.909 17.9401C235.909 17.8849 235.927 17.8113 235.946 17.7377C235.964 17.5905 236.001 17.4434 236.001 17.4434L231.867 17.9952C231.867 17.9952 231.849 18.1424 231.812 18.2896C231.812 18.3632 231.793 18.4367 231.775 18.4919C231.757 18.5471 231.738 18.584 231.738 18.584V18.5655Z" fill="#08E2F0"/>
<path d="M231.905 17.7L236.058 17.1297L236.131 16.541L231.997 17.1297L231.905 17.7Z" fill="#08E2F0"/>
<path d="M231.999 16.8348L236.133 16.2461L236.114 15.6758L231.962 16.2829L231.999 16.8348Z" fill="#08E2F0"/>
<path d="M236.094 15.3815L236.075 15.1055L231.941 15.7494L231.96 16.007L236.094 15.3815Z" fill="#08E2F0"/>
<path d="M166.445 50.4104L168.117 51.0727L170.322 50.5208L168.577 49.877L166.445 50.4104Z" fill="#08E2F0"/>
<path d="M184.136 46.6772C184.136 46.6772 184.264 46.6404 184.448 46.5852C184.65 46.5301 184.889 46.4564 185.146 46.3828C185.642 46.2357 186.138 46.0701 186.138 46.0701L183.805 45.5918C183.805 45.5918 183.327 45.739 182.85 45.8862C182.611 45.9597 182.372 46.0333 182.188 46.0885C182.005 46.1437 181.876 46.1805 181.876 46.1805L184.136 46.6956V46.6772Z" fill="#08E2F0"/>
<path d="M193.637 45.9221C193.637 45.9221 194.059 45.7933 194.794 45.5358C195.529 45.2966 196.576 44.9471 197.844 44.524C199.094 44.1009 200.49 43.6041 201.996 43.089C202.768 42.8315 203.503 42.5371 204.275 42.2612C205.046 41.9852 205.8 41.6909 206.59 41.4149C208.115 40.8446 209.566 40.2559 210.944 39.7224C212.285 39.1705 213.498 38.6554 214.545 38.2322C215.592 37.7907 216.382 37.4228 216.97 37.1653C217.54 36.9077 217.87 36.7605 217.87 36.7605C217.87 36.7605 217.172 36.5213 216.456 36.2822C215.721 36.043 214.949 35.8223 214.949 35.8223C214.949 35.8223 214.6 35.9878 213.994 36.2822C213.351 36.5765 212.432 36.9813 211.33 37.4596C210.779 37.7172 210.154 37.9747 209.493 38.2507C208.813 38.5266 208.115 38.8209 207.38 39.1337C206.645 39.4464 205.836 39.7592 205.028 40.0719C204.22 40.3847 203.411 40.7158 202.548 41.0285C200.821 41.6724 199.149 42.2979 197.44 42.8866C196.595 43.181 195.786 43.4569 195.015 43.7329C194.225 44.0088 193.472 44.248 192.773 44.4872C191.377 44.9471 190.22 45.3334 189.356 45.591C188.511 45.8485 188.033 46.0141 188.033 46.0141C188.033 46.0141 189.411 46.0141 190.807 46.0141C192.204 46.0141 193.637 45.9773 193.637 45.9773V45.9221Z" fill="#08E2F0"/>
<path d="M190.429 43.4411L193.001 43.8458C193.001 43.8458 193.129 43.809 193.295 43.7538C193.478 43.6986 193.717 43.6067 193.938 43.5331C194.397 43.3675 194.856 43.2203 194.856 43.2203L192.211 42.834C192.211 42.834 191.77 42.9812 191.329 43.1468C191.108 43.2203 190.888 43.2939 190.704 43.3491C190.539 43.4043 190.41 43.4411 190.41 43.4411H190.429Z" fill="#08E2F0"/>
<path d="M184.781 45.2645L187.151 45.7428L189.136 45.1173L186.692 44.6758L184.781 45.2645Z" fill="#08E2F0"/>
<path d="M187.646 44.361L190.108 44.8025L192.019 44.1771L189.484 43.7539L187.646 44.361Z" fill="#08E2F0"/>
<path d="M177.891 48.4843L180.004 47.8956L177.891 47.3438L175.87 47.914L177.891 48.4843Z" fill="#08E2F0"/>
<path d="M181.048 47.5773L183.087 46.9702L180.883 46.4551L178.898 47.0438L181.048 47.5773Z" fill="#08E2F0"/>
<path d="M163.212 51.2191L164.755 51.9182C164.755 51.9182 165.325 51.7894 165.876 51.6422C166.427 51.495 166.978 51.3663 166.978 51.3663L165.343 50.6855C165.343 50.6855 164.81 50.8144 164.277 50.9615C163.745 51.0903 163.193 51.2191 163.193 51.2191H163.212Z" fill="#08E2F0"/>
<path d="M159.94 51.9956L161.355 52.713L163.615 52.1979L162.108 51.4805L159.94 51.9956Z" fill="#08E2F0"/>
<path d="M169.641 49.5843L171.423 50.2281L173.591 49.6579L171.717 49.0508L169.641 49.5843Z" fill="#08E2F0"/>
<path d="M156.613 52.7487L157.918 53.5029C157.918 53.5029 158.487 53.3742 159.057 53.2454C159.351 53.1718 159.626 53.1166 159.847 53.0614C160.067 53.0062 160.196 52.9878 160.196 52.9878L158.818 52.252C158.818 52.252 158.689 52.2888 158.469 52.3256C158.267 52.3807 157.991 52.4359 157.716 52.4911C157.164 52.6199 156.613 52.7487 156.613 52.7487Z" fill="#08E2F0"/>
<path d="M17.7901 56.0254L13.8584 56.9084L14.5933 57.35L18.5067 56.4485L17.7901 56.0254Z" fill="#08E2F0"/>
<path d="M207.784 36.763L211.018 36.9102L212.506 36.2479L209.236 36.1191L207.784 36.763Z" fill="#08E2F0"/>
<path d="M226.579 32.4404C226.579 32.4404 226.855 32.2932 227.314 32.0357C227.553 31.9069 227.829 31.7413 228.159 31.5574C228.49 31.3734 228.821 31.171 229.188 30.9503C230.713 30.0672 232.587 28.8714 234.222 27.694C235.031 27.1053 235.857 26.5167 236.482 25.9648C237.143 25.4129 237.787 24.8977 238.209 24.4746C238.668 24.033 239.036 23.6835 239.311 23.426C239.44 23.2972 239.532 23.2052 239.587 23.1316C239.642 23.058 239.679 23.0213 239.679 23.0213C239.679 23.0213 238.448 22.9477 237.217 22.8925C235.986 22.8189 234.737 22.7637 234.737 22.7637C234.737 22.7637 234.59 22.9293 234.351 23.2052C234.222 23.334 234.075 23.518 233.892 23.7019C233.689 23.9043 233.469 24.125 233.212 24.3642C232.955 24.6033 232.679 24.8609 232.385 25.1369C232.091 25.4128 231.705 25.7072 231.356 26.0199C230.989 26.3327 230.621 26.6454 230.199 26.9581C229.758 27.2709 229.317 27.602 228.876 27.9332C228.655 28.0987 228.417 28.2644 228.196 28.4299C227.957 28.5955 227.7 28.761 227.461 28.9266C226.965 29.2578 226.487 29.5705 226.01 29.8832C225.018 30.4903 224.044 31.0791 223.199 31.5758C222.298 32.0725 221.564 32.4772 221.031 32.7716C220.774 32.9187 220.553 33.0291 220.424 33.1027C220.277 33.1763 220.186 33.2131 220.186 33.2131C220.186 33.2131 220.59 33.1763 221.178 33.1027C221.766 33.0291 222.556 32.9371 223.346 32.8452C224.926 32.6612 226.524 32.4588 226.524 32.4588L226.579 32.4404Z" fill="#08E2F0"/>
<path d="M215.386 34.8843C215.386 34.8843 215.478 34.8475 215.607 34.7739C215.735 34.7187 215.919 34.6267 216.084 34.5348L216.746 34.2036L213.31 34.1484L212.667 34.4796C212.52 34.5532 212.336 34.6452 212.208 34.7004C212.079 34.7556 211.987 34.8108 211.987 34.8108L215.368 34.9027L215.386 34.8843Z" fill="#08E2F0"/>
<path d="M217.651 31.8475L221.252 31.8108C221.252 31.8108 221.565 31.6452 221.859 31.4796C222.134 31.3141 222.428 31.1484 222.428 31.1484L218.791 31.2036C218.791 31.2036 218.515 31.3692 218.239 31.5348C217.964 31.7004 217.67 31.8659 217.67 31.8659L217.651 31.8475Z" fill="#08E2F0"/>
<path d="M213.256 35.8988L214.671 35.2365L211.309 35.1445L209.931 35.7884L213.256 35.8988Z" fill="#08E2F0"/>
<path d="M215.245 33.1758L213.978 33.8197L217.432 33.8565L218.754 33.1942L215.245 33.1758Z" fill="#08E2F0"/>
<path d="M215.85 32.8224L219.396 32.8408L220.627 32.1602L217.044 32.1785L215.85 32.8224Z" fill="#08E2F0"/>
<path d="M198.339 40.6235L201.205 40.9179C201.205 40.9179 201.315 40.8811 201.481 40.8259C201.646 40.7707 201.866 40.6788 202.069 40.6052C202.491 40.4396 202.914 40.274 202.914 40.274L199.974 39.998C199.974 39.998 199.57 40.1636 199.166 40.3108C198.964 40.3844 198.761 40.4764 198.596 40.5316C198.431 40.5868 198.339 40.6235 198.339 40.6235Z" fill="#08E2F0"/>
<path d="M195.769 41.5794L198.543 41.9106L200.307 41.2483L197.477 40.9355L195.769 41.5794Z" fill="#08E2F0"/>
<path d="M205.539 37.7377L208.681 37.9216C208.681 37.9216 208.791 37.8848 208.938 37.8112C209.085 37.756 209.287 37.664 209.471 37.5904C209.857 37.4249 210.224 37.2593 210.224 37.2593L207.027 37.0938C207.027 37.0938 206.66 37.2593 206.292 37.4249C206.109 37.4985 205.925 37.5904 205.778 37.6456C205.631 37.7008 205.539 37.7377 205.539 37.7377Z" fill="#08E2F0"/>
<path d="M193.122 42.522L195.804 42.8899L197.642 42.246L194.886 41.8965L193.122 42.522Z" fill="#08E2F0"/>
<path d="M200.802 39.6645L203.778 39.9221L205.45 39.2782L202.419 39.0391L200.802 39.6645Z" fill="#08E2F0"/>
<path d="M203.229 38.7123L206.278 38.933L207.877 38.2707L204.772 38.0684L203.229 38.7123Z" fill="#08E2F0"/>
<path d="M212.618 4.53239L216.035 3.46539L214.657 3.18945L211.295 4.25644L212.618 4.53239Z" fill="#08E2F0"/>
<path d="M208.467 3.77575L211.719 2.69034C211.719 2.69034 211.352 2.63519 210.984 2.5616C210.598 2.50641 210.212 2.45117 210.212 2.45117L207.016 3.55499C207.016 3.55499 207.383 3.61018 207.769 3.66537C208.118 3.72056 208.485 3.77575 208.485 3.77575H208.467Z" fill="#08E2F0"/>
<path d="M214.564 4.93786L218.054 3.88928C218.054 3.88928 217.742 3.81566 217.411 3.74207C217.062 3.66849 216.732 3.61328 216.732 3.61328L213.296 4.66191C213.296 4.66191 213.627 4.73553 213.957 4.80912C214.27 4.88271 214.582 4.95627 214.582 4.95627L214.564 4.93786Z" fill="#08E2F0"/>
<path d="M219.834 6.36832L223.527 5.37493C223.527 5.37493 223.251 5.28294 222.976 5.19096C222.682 5.11737 222.388 5.02539 222.388 5.02539L218.75 6.03719C218.75 6.03719 219.026 6.11077 219.32 6.20276C219.595 6.29474 219.852 6.36832 219.852 6.36832H219.834Z" fill="#08E2F0"/>
<path d="M218.167 5.87307L221.804 4.86126L220.61 4.51172L217.046 5.54194L218.167 5.87307Z" fill="#08E2F0"/>
<path d="M216.44 5.39762L219.986 4.3674L218.718 4.05469L215.209 5.08491L216.44 5.39762Z" fill="#08E2F0"/>
<path d="M210.593 4.12731L213.937 3.06032L212.467 2.80273L209.179 3.8882L210.593 4.12731Z" fill="#08E2F0"/>
<path d="M229.356 7.74926L228.51 7.32617L224.634 8.24601L225.461 8.65075L229.356 7.74926Z" fill="#08E2F0"/>
<path d="M221.398 6.90354L225.146 5.92851L224.08 5.56055L220.369 6.55399L221.398 6.90354Z" fill="#08E2F0"/>
<path d="M228.066 7.10395C228.066 7.10395 228.011 7.0855 227.938 7.04871C227.864 7.01191 227.754 6.95675 227.625 6.90156C227.387 6.79118 227.148 6.69922 227.148 6.69922L223.326 7.63742C223.326 7.63742 223.565 7.72941 223.785 7.8214C223.896 7.87659 224.006 7.9134 224.079 7.95019C224.153 7.98698 224.208 8.00538 224.208 8.00538L228.066 7.06712V7.10395Z" fill="#08E2F0"/>
<path d="M231.794 4.08912C231.794 4.08912 231.555 4.01554 231.151 3.86837C230.728 3.73959 230.177 3.51883 229.405 3.29807C228.634 3.07731 227.734 2.81975 226.741 2.54379C225.694 2.28624 224.592 2.0103 223.416 1.75274C222.81 1.62397 222.203 1.51356 221.615 1.38478C221.009 1.25601 220.44 1.14564 219.833 1.05366C218.621 0.85129 217.518 0.648892 216.508 0.501717C214.45 0.225764 213.091 0.0234375 213.091 0.0234375C213.091 0.0234375 211.529 0.354553 210.004 0.685696C208.461 1.01684 206.954 1.36637 206.954 1.36637C206.954 1.36637 207.358 1.42157 208.056 1.49516C208.773 1.56875 209.71 1.69755 210.849 1.86312C211.419 1.93671 212.043 2.02866 212.668 2.12065C213.293 2.23103 213.936 2.323 214.597 2.45178C214.928 2.50697 215.277 2.56221 215.608 2.6174C215.938 2.67259 216.269 2.74615 216.6 2.81974C217.261 2.94851 217.923 3.09569 218.602 3.22447C219.264 3.35325 219.87 3.5188 220.495 3.66597C221.101 3.81315 221.726 3.96036 222.258 4.10754C222.791 4.25471 223.324 4.40187 223.82 4.54904C224.316 4.69622 224.776 4.825 225.161 4.95377C225.951 5.21133 226.594 5.4505 227.054 5.59767C227.476 5.76325 227.715 5.8552 227.715 5.8552C227.715 5.8552 228.762 5.41371 229.791 4.97219C230.802 4.53067 231.794 4.08912 231.794 4.08912Z" fill="#08E2F0"/>
<path d="M221.906 7.09026L222.843 7.45817L226.646 6.50155L225.673 6.11523L221.906 7.09026Z" fill="#08E2F0"/>
<path d="M191.243 2.08496L193.852 0.925946L191.978 0.833984L189.442 1.99294L191.243 2.08496Z" fill="#08E2F0"/>
<path d="M182.78 1.82469L185.076 0.647321L183.055 0.628906L180.832 1.78792L182.78 1.82469Z" fill="#08E2F0"/>
<path d="M188.513 1.95639L191.011 0.797376L189.064 0.742188L186.639 1.9012L188.513 1.95639Z" fill="#08E2F0"/>
<path d="M185.678 1.86297L188.085 0.703962C188.085 0.703962 187.607 0.703944 187.111 0.685547C186.615 0.685547 186.101 0.685547 186.101 0.685547L183.768 1.84456C183.768 1.84456 184.245 1.84456 184.741 1.84456C185.219 1.84456 185.678 1.86297 185.678 1.86297Z" fill="#08E2F0"/>
<path d="M206.242 3.44371L209.42 2.33989L207.859 2.11914L204.735 3.22296L206.242 3.44371Z" fill="#08E2F0"/>
<path d="M179.838 1.78792L182.006 0.628906H179.948L177.835 1.78792H179.838Z" fill="#08E2F0"/>
<path d="M207.032 2.0082L205.397 1.82422L202.384 2.94645L203.964 3.13043L207.032 2.0082Z" fill="#08E2F0"/>
<path d="M204.566 1.73392C204.566 1.73392 204.162 1.69715 203.74 1.64196C203.317 1.60517 202.876 1.56836 202.876 1.56836L199.937 2.70895C199.937 2.70895 200.359 2.74576 200.763 2.78256C201.168 2.81935 201.553 2.87452 201.553 2.87452L204.548 1.75234L204.566 1.73392Z" fill="#08E2F0"/>
<path d="M193.952 2.22949L196.653 1.08889C196.653 1.08889 196.194 1.0521 195.753 1.0337C195.293 1.01531 194.816 0.978516 194.816 0.978516L192.17 2.13752C192.17 2.13752 192.611 2.1559 193.07 2.1743C193.511 2.21109 193.934 2.22949 193.934 2.22949H193.952Z" fill="#08E2F0"/>
<path d="M194.832 2.28513L196.577 2.41392L199.388 1.27332L197.588 1.14453L194.832 2.28513Z" fill="#08E2F0"/>
<path d="M28.5056 32.5301L24.9781 32.5117L23.7471 33.1924L27.3298 33.174L28.5056 32.5301Z" fill="#08E2F0"/>
<path d="M23.4519 35.4766L19.7223 35.5869L18.6934 36.2676L22.4598 36.1389L23.4519 35.4766Z" fill="#08E2F0"/>
<path d="M15.2556 42.2266L11.2137 42.5945C11.2137 42.5945 11.0667 42.76 10.9381 42.9256C10.8095 43.0912 10.6992 43.2384 10.6992 43.2384L14.7596 42.852C14.7596 42.852 14.8698 42.7048 14.9984 42.5393C15.127 42.3737 15.274 42.2266 15.274 42.2266H15.2556Z" fill="#08E2F0"/>
<path d="M16.101 41.2852L12.0957 41.6163L11.5078 42.2602L15.5314 41.9106L16.101 41.2852Z" fill="#08E2F0"/>
<path d="M16.4135 40.972L17.0749 40.3281L13.1064 40.6224L12.4082 41.2847L16.4135 40.972Z" fill="#08E2F0"/>
<path d="M13.3809 45L9.26546 45.4599C9.26546 45.4599 9.1736 45.6071 9.10011 45.7727C9.00825 45.9383 8.95312 46.0854 8.95312 46.0854L13.0686 45.5887C13.0686 45.5887 13.1053 45.4415 13.1972 45.2944C13.2707 45.1472 13.3626 45 13.3626 45H13.3809Z" fill="#08E2F0"/>
<path d="M13.8827 44.0996L9.78561 44.5228L9.43652 45.1482L13.552 44.6883L13.8827 44.0996Z" fill="#08E2F0"/>
<path d="M4.82079 42.1871C4.82079 42.1871 4.32472 42.7575 3.55307 43.6037C3.22236 44.0269 2.87327 44.5236 2.50582 45.0387C2.15674 45.5538 1.89954 46.1057 1.60557 46.6576C1.34836 47.2095 1.18299 47.743 1.01764 48.2397C0.889028 48.7364 0.833901 49.178 0.778783 49.5827C0.705292 49.969 0.76043 50.2818 0.742058 50.5025C0.742058 50.7233 0.742058 50.8521 0.742058 50.8521C0.742058 50.8521 2.1935 50.7968 3.64494 50.7416C5.09638 50.6865 6.56619 50.6129 6.56619 50.6129C6.56619 50.6129 6.52943 50.4841 6.52943 50.2265C6.52943 49.9874 6.51106 49.6379 6.47432 49.2147C6.47432 48.7916 6.60293 48.2765 6.67642 47.743C6.73154 47.4671 6.86013 47.1727 6.952 46.8967C7.06223 46.6024 7.13573 46.3081 7.30108 46.0137C7.88901 44.7995 8.73415 43.5669 9.59766 42.6103C10.0202 42.132 10.351 41.7456 10.6449 41.4513C10.9389 41.1753 11.1042 41.0098 11.1042 41.0098C11.1042 41.0098 9.52418 41.3041 7.94414 41.5985C7.15411 41.7457 6.36408 41.8928 5.75779 42.0032C5.16986 42.1135 4.78404 42.1871 4.78404 42.1871H4.82079Z" fill="#08E2F0"/>
<path d="M20.5839 37.4414L16.7624 37.6254L15.8438 38.2876L19.7204 38.0853L20.5839 37.4414Z" fill="#08E2F0"/>
<path d="M21.9628 36.4696L18.178 36.6167C18.178 36.6167 17.9208 36.7823 17.682 36.9479C17.4431 37.1134 17.2227 37.2791 17.2227 37.2791L21.0442 37.1135C21.0442 37.1135 21.2646 36.9479 21.4851 36.7823C21.7056 36.6167 21.9628 36.4512 21.9628 36.4512V36.4696Z" fill="#08E2F0"/>
<path d="M12.9764 45.9082L8.84253 46.4049L8.62207 47.012L12.7559 46.4969L12.9764 45.9082Z" fill="#08E2F0"/>
<path d="M14.1861 39.6287C14.1861 39.6287 13.984 39.7942 13.8003 39.9598C13.6165 40.1254 13.4512 40.2909 13.4512 40.2909L17.4013 40.015C17.4013 40.015 17.5666 39.8494 17.7504 39.7022C17.9341 39.5367 18.1178 39.3711 18.1178 39.3711L14.1861 39.6287Z" fill="#08E2F0"/>
<path d="M15.4207 38.6368L14.6123 39.2807L18.5257 39.0415L19.2973 38.416L15.4207 38.6368Z" fill="#08E2F0"/>
<path d="M14.5216 43.1621L10.4613 43.5668L10.002 44.2107L14.0807 43.7692L14.5216 43.1621Z" fill="#08E2F0"/>
<path d="M12.6658 46.7898L8.53191 47.3234C8.53191 47.3234 8.53193 47.3601 8.49519 47.4153C8.49519 47.4705 8.47681 47.5441 8.45844 47.6177C8.44006 47.7649 8.40332 47.9121 8.40332 47.9121L12.5372 47.3601C12.5372 47.3601 12.5555 47.213 12.5923 47.0658C12.5923 46.9922 12.6107 46.9186 12.629 46.8634C12.629 46.8083 12.6658 46.7715 12.6658 46.7715V46.7898Z" fill="#08E2F0"/>
<path d="M14.3033 53.2645L10.2246 54.0371C10.2246 54.0371 10.243 54.074 10.2981 54.1107C10.3532 54.1659 10.4083 54.2211 10.4635 54.2763C10.5921 54.4051 10.7207 54.5155 10.7207 54.5155L14.781 53.7244C14.781 53.7244 14.6524 53.614 14.5422 53.4853C14.4871 53.4301 14.4136 53.3749 14.3768 53.3197C14.3401 53.2829 14.3033 53.2461 14.3033 53.2461V53.2645Z" fill="#08E2F0"/>
<path d="M2.49023 55.0514C2.49023 55.0514 2.58211 55.1618 2.72909 55.3641C2.8577 55.5665 3.17003 55.824 3.50074 56.1552C3.66609 56.3207 3.84982 56.4863 4.05192 56.6703C4.25402 56.8542 4.51124 57.0383 4.76845 57.2406C5.02567 57.443 5.30124 57.6269 5.57683 57.8293C5.85242 58.0317 6.20151 58.2156 6.51385 58.418C6.84456 58.6204 7.17526 58.8043 7.4876 59.0067C7.83668 59.1907 8.20413 59.3747 8.55321 59.5402C8.9023 59.7058 9.25137 59.8714 9.58208 60.0369C9.93116 60.1841 10.2802 60.3313 10.5926 60.4601C11.2356 60.7176 11.75 60.9384 12.1542 61.0856C12.5584 61.2327 12.7973 61.3063 12.7973 61.3063C12.7973 61.3063 14.4141 61.0671 16.0125 60.828C17.6109 60.5888 19.191 60.3496 19.191 60.3496C19.191 60.3496 18.9338 60.2577 18.4744 60.1105C18.0335 59.945 17.3353 59.7426 16.6372 59.4482C15.939 59.1539 15.0571 58.8411 14.3038 58.4364C13.918 58.2524 13.5138 58.0501 13.1096 57.8477C12.7238 57.6453 12.3747 57.4246 12.0073 57.2038C10.5374 56.3392 9.45348 55.3825 8.75532 54.665C8.55322 54.4811 8.4246 54.3155 8.31436 54.1683C8.20413 54.0212 8.09388 53.874 8.02039 53.7636C7.85504 53.5428 7.76318 53.4141 7.76318 53.4141C7.76318 53.4141 6.44036 53.8188 5.1359 54.2235C3.81307 54.6283 2.5086 55.0514 2.5086 55.0514H2.49023Z" fill="#08E2F0"/>
<path d="M13.7319 52.5098L9.63477 53.264L10.0206 53.7792L14.0993 53.0065L13.7319 52.5098Z" fill="#08E2F0"/>
<path d="M15.8236 54.6797L11.8184 55.5259L12.443 55.9858L16.4299 55.1396L15.8236 54.6797Z" fill="#08E2F0"/>
<path d="M15.0156 53.9805L10.9736 54.7899L11.5065 55.2683L15.5301 54.4588L15.0156 53.9805Z" fill="#08E2F0"/>
<path d="M9.13672 52.4694C9.13672 52.4694 9.21021 52.5982 9.2837 52.7454C9.33882 52.8742 9.44905 53.0029 9.44905 53.0029L13.5462 52.2671C13.5462 52.2671 13.4359 52.1383 13.3808 52.0095L13.2522 51.752L9.13672 52.4694Z" fill="#08E2F0"/>
<path d="M8.73438 51.6455L8.99159 52.1974L13.1254 51.48L12.8682 50.9648L8.73438 51.6455Z" fill="#08E2F0"/>
<path d="M12.5011 47.6504L8.36726 48.2207L8.27539 48.8094L12.4276 48.2207L12.5011 47.6504Z" fill="#08E2F0"/>
<path d="M12.4276 48.502L8.27539 49.109L8.29378 49.6793L12.446 49.0538L12.4276 48.502Z" fill="#08E2F0"/>
<path d="M8.47949 50.8166L8.64487 51.3685L12.7787 50.6878L12.6317 50.1543L8.47949 50.8166Z" fill="#08E2F0"/>
<path d="M8.31152 49.9712C8.31152 49.9712 8.31151 50.1184 8.32989 50.2655C8.36663 50.3943 8.40339 50.5415 8.40339 50.5415L12.5556 49.8976C12.5556 49.8976 12.5189 49.7688 12.4821 49.6216C12.4638 49.4929 12.4637 49.3457 12.4637 49.3457L8.31152 49.9712Z" fill="#08E2F0"/>
<path d="M26.7748 28.4668C26.7748 28.4668 26.4441 28.614 25.8745 28.8715C25.305 29.1291 24.5334 29.497 23.5964 29.9385C23.137 30.1593 22.6226 30.3985 22.1081 30.656L20.5281 31.4655C19.9953 31.7414 19.4074 32.0358 18.8746 32.3301C18.3418 32.6245 17.8089 32.9188 17.2578 33.2131C16.1554 33.8018 15.1817 34.409 14.263 34.9609C13.3077 35.5312 12.5544 36.0462 11.8746 36.4878C11.5439 36.7085 11.2315 36.9109 10.956 37.0949C10.6987 37.2789 10.4783 37.426 10.3129 37.5548C9.96382 37.8124 9.76172 37.9596 9.76172 37.9596C9.76172 37.9596 10.8274 38.0883 11.9113 38.2171C12.9953 38.3459 14.0977 38.4562 14.0977 38.4562C14.0977 38.4562 14.3181 38.2907 14.704 38.0147C15.0898 37.7204 15.641 37.3156 16.3391 36.8373C17.0924 36.3406 17.9192 35.7703 18.9297 35.1448C19.9586 34.5193 21.0058 33.8571 22.2368 33.1948C22.8431 32.8636 23.4494 32.5325 24.0373 32.2013C24.6803 31.8702 25.305 31.5575 25.8929 31.2447C27.0872 30.6192 28.3181 30.0489 29.3654 29.5522C30.3942 29.0555 31.3312 28.6508 31.9743 28.3564C32.6173 28.0621 32.9848 27.8965 32.9848 27.8965C32.9848 27.8965 31.4415 28.0252 29.8982 28.154C28.3365 28.2828 26.7748 28.43 26.7748 28.43V28.4668Z" fill="#08E2F0"/>
<path d="M51.213 22.8348L48.5306 22.4668L46.6934 23.1107L49.4493 23.4602L51.213 22.8348Z" fill="#08E2F0"/>
<path d="M30.3949 31.5368L26.9224 31.5L25.5996 32.1623L29.1088 32.1807L30.3949 31.5368Z" fill="#08E2F0"/>
<path d="M32.3425 30.5443L28.9435 30.4707C28.9435 30.4707 28.8517 30.5075 28.7231 30.5811C28.5945 30.6363 28.4108 30.7283 28.2454 30.8202L27.584 31.1514L31.0197 31.2066L31.6627 30.8754C31.8281 30.8018 31.9934 30.7099 32.122 30.6547C32.2506 30.5995 32.3425 30.5443 32.3425 30.5443Z" fill="#08E2F0"/>
<path d="M36.5634 28.5913L33.3298 28.4258L31.8232 29.1065L35.1119 29.2352L36.5634 28.5913Z" fill="#08E2F0"/>
<path d="M34.4208 29.5694L31.0953 29.459L29.6807 30.1212L33.0429 30.2133L34.4208 29.5694Z" fill="#08E2F0"/>
<path d="M26.7185 33.5059L23.1174 33.5427C23.1174 33.5427 23.0439 33.5795 22.9337 33.6531C22.8235 33.7083 22.6765 33.8002 22.5295 33.8922C22.2539 34.0578 21.96 34.2234 21.96 34.2234L25.6161 34.1682C25.6161 34.1682 25.8917 34.0026 26.1673 33.837C26.2959 33.7635 26.4429 33.6714 26.5531 33.6162C26.6634 33.561 26.7368 33.5059 26.7368 33.5059H26.7185Z" fill="#08E2F0"/>
<path d="M16.7417 55.3633L12.7549 56.2279C12.7549 56.2279 12.7916 56.2647 12.8651 56.3015C12.9202 56.3383 13.0121 56.4119 13.104 56.4671C13.2877 56.5775 13.4714 56.6879 13.4714 56.6879L17.4216 55.8048C17.4216 55.8048 17.2378 55.6944 17.0725 55.584C16.9806 55.5288 16.8887 55.4737 16.852 55.4369C16.7969 55.4001 16.7601 55.3633 16.7601 55.3633H16.7417Z" fill="#08E2F0"/>
<path d="M46.0102 24.7319L43.1256 24.4375C43.1256 24.4375 43.0154 24.4743 42.8501 24.5295C42.6847 24.5847 42.4642 24.6767 42.2621 24.7503C41.8395 24.9158 41.417 25.0814 41.417 25.0814L44.3566 25.3573C44.3566 25.3573 44.7608 25.1918 45.165 25.0446C45.3671 24.971 45.5692 24.879 45.7345 24.8238C45.8999 24.7686 45.9918 24.7319 45.9918 24.7319H46.0102Z" fill="#08E2F0"/>
<path d="M48.5693 23.7745L45.795 23.4434L44.0312 24.0873L46.879 24.4L48.5693 23.7745Z" fill="#08E2F0"/>
<path d="M40.5538 25.4277L38.8818 26.0716L41.9133 26.3107L43.5301 25.6853L40.5538 25.4277Z" fill="#08E2F0"/>
<path d="M25.0511 34.498L21.3766 34.5532L20.2559 35.2339L23.9671 35.1419L25.0511 34.498Z" fill="#08E2F0"/>
<path d="M38.0574 26.4238L36.459 27.0861L39.5823 27.2884L41.1256 26.6446L38.0574 26.4238Z" fill="#08E2F0"/>
<path d="M37.323 28.2615C37.323 28.2615 37.6905 28.0959 38.0579 27.9487C38.2416 27.8751 38.4254 27.7831 38.5723 27.7279C38.7193 27.6728 38.8112 27.6176 38.8112 27.6176L35.6695 27.4336C35.6695 27.4336 35.5776 27.4704 35.4306 27.544C35.2836 27.5992 35.0815 27.6911 34.8978 27.7647C34.5304 27.9303 34.1445 28.0959 34.1445 28.0959L37.3414 28.2615H37.323Z" fill="#08E2F0"/>
<path d="M201.994 1.4976L200.267 1.33203L197.438 2.47263L199.091 2.61983L201.994 1.4976Z" fill="#08E2F0"/>
<path d="M49.7061 23.8632C48.7691 24.2128 47.8321 24.5623 46.8951 24.8935C45.9581 25.243 45.0946 25.5925 44.176 25.9421C43.735 26.1261 43.2757 26.2916 42.8348 26.4756L41.5487 27.0091C40.7035 27.3586 39.8033 27.7265 38.9949 28.0945C35.6694 29.5294 32.6563 31.0012 29.9004 32.4729C27.1445 33.9447 24.7745 35.4164 22.6616 36.8882L21.1734 37.992C20.6957 38.3599 20.2732 38.7279 19.8322 39.0774C19.6117 39.2614 19.3913 39.4454 19.1892 39.6293L18.6196 40.1628L18.0501 40.6963C17.8663 40.8803 17.6826 41.0643 17.5172 41.2298L16.5619 42.2968C16.2679 42.6464 16.0474 42.9959 15.7719 43.3455L15.4044 43.8606L15.1288 44.3757C14.9451 44.7252 14.7246 45.0564 14.596 45.4059C14.0081 46.7673 13.8611 48.055 14.0081 49.306C14.2469 50.5386 14.7797 51.7344 15.7535 52.8567C15.974 53.1326 16.2863 53.4085 16.5619 53.6845L16.9845 54.0892L17.4989 54.4756C17.848 54.7331 18.1603 54.9907 18.5645 55.2482L19.7955 55.9841C19.9976 56.1129 20.218 56.2232 20.4569 56.3336L21.1551 56.6832L21.8716 57.0327C22.1104 57.1431 22.386 57.2535 22.6432 57.3638C23.176 57.5846 23.6905 57.787 24.26 58.0077L26.0238 58.6149C28.4857 59.3875 31.1865 60.0682 34.2547 60.6385C37.3413 61.2088 40.6484 61.7055 44.2495 62.0734C45.1314 62.1654 46.0867 62.239 47.0054 62.331L48.4017 62.4598C48.8794 62.4966 49.3571 62.5334 49.8348 62.5702C50.8085 62.6254 51.7455 62.699 52.7377 62.7542C53.7298 62.8093 54.7403 62.8461 55.7324 62.9013C63.8163 63.2324 72.6903 63.1772 81.9502 62.7173L83.6772 62.6254L85.441 62.5333C86.6168 62.4598 87.7743 62.3862 88.9501 62.3126C91.3202 62.1286 93.6719 61.9815 96.0603 61.7607C100.8 61.3744 105.614 60.8592 110.373 60.2889C112.761 59.9946 115.131 59.7186 117.501 59.3875C118.677 59.2219 119.871 59.0748 121.047 58.8908C122.223 58.7252 123.399 58.5413 124.556 58.3757C125.144 58.2837 125.732 58.2101 126.302 58.1181C126.89 58.0261 127.459 57.9342 128.047 57.8422C129.205 57.6582 130.362 57.4743 131.52 57.2903C132.677 57.0879 133.816 56.9039 134.955 56.7016C136.094 56.4992 137.234 56.3152 138.354 56.0945C139.475 55.8921 140.596 55.6713 141.716 55.469L142.562 55.3034L143.388 55.1378C143.94 55.0275 144.491 54.9171 145.042 54.8067C146.144 54.5859 147.247 54.3836 148.331 54.1444C149.415 53.9236 150.48 53.6845 151.564 53.4637C152.097 53.3533 152.63 53.243 153.163 53.1326C153.695 53.0222 154.21 52.8934 154.743 52.783C155.79 52.5439 156.837 52.3047 157.884 52.084C158.913 51.8448 159.924 51.6057 160.953 51.3665C161.963 51.1274 162.992 50.8882 163.966 50.649C171.903 48.6989 179.16 46.6385 185.627 44.5781C192.094 42.5176 197.735 40.4388 202.603 38.4335C207.472 36.4283 211.532 34.4966 214.895 32.6753C218.257 30.854 220.921 29.1431 222.96 27.5978C223.511 27.2115 223.934 26.8251 224.393 26.4572C224.834 26.0893 225.294 25.7213 225.643 25.3718C226.01 25.0223 226.359 24.6727 226.708 24.3416C227.002 24.0104 227.296 23.6976 227.572 23.3849C229.74 20.8829 230.273 19.0433 230.438 17.8291C230.493 17.5163 230.53 17.2588 230.511 17.038C230.511 16.8173 230.493 16.6149 230.493 16.4677C230.493 16.155 230.475 16.0078 230.475 16.0078L228.049 16.3757C228.049 16.3757 228.05 16.5229 228.068 16.8356C228.068 16.9828 228.068 17.1668 228.086 17.3876C228.105 17.6083 228.086 17.8659 228.013 18.1786C227.866 19.3744 227.333 21.1773 225.22 23.6057C224.945 23.9184 224.669 24.2312 224.375 24.5439C224.044 24.8751 223.677 25.2062 223.328 25.5374C222.997 25.8869 222.538 26.2364 222.115 26.6043C221.674 26.9723 221.252 27.3402 220.719 27.7082C218.735 29.2351 216.126 30.8908 212.837 32.6753C209.548 34.4598 205.58 36.3547 200.821 38.3048C196.063 40.2548 190.551 42.2784 184.231 44.3021C177.911 46.3073 170.819 48.331 163.047 50.2443C162.092 50.4834 161.081 50.7226 160.107 50.9618C159.115 51.2009 158.123 51.4401 157.113 51.6608C156.102 51.8816 155.073 52.1208 154.044 52.3415C153.53 52.4519 153.016 52.5623 152.501 52.6911C151.987 52.8015 151.454 52.9118 150.939 53.0222C149.892 53.243 148.845 53.4637 147.779 53.6845C146.732 53.9052 145.648 54.1076 144.564 54.3284C144.031 54.4388 143.48 54.5492 142.947 54.6411L142.139 54.8067L141.312 54.9539C140.21 55.1562 139.126 55.3586 138.023 55.561C136.921 55.7634 135.819 55.9657 134.698 56.1496C133.577 56.3336 132.475 56.536 131.336 56.7199C130.215 56.9039 129.076 57.0879 127.937 57.2719L126.228 57.5478C125.659 57.6398 125.089 57.7134 124.52 57.8054C123.381 57.971 122.241 58.1365 121.084 58.3205C119.926 58.4861 118.787 58.6332 117.63 58.7988C115.315 59.1299 113 59.4059 110.667 59.6819C106.018 60.2338 101.315 60.7305 96.6666 61.1168C94.3333 61.3376 92.0367 61.4848 89.7218 61.6503C88.5827 61.7239 87.4436 61.7975 86.2861 61.8527L84.5774 61.963L82.8872 62.0367C73.8294 62.4782 65.1576 62.5518 57.2573 62.2206C56.2836 62.1838 55.3098 62.1286 54.3361 62.0734C53.3623 62.0182 52.4437 61.9447 51.4883 61.8895C51.029 61.8527 50.5513 61.8343 50.0736 61.7975L48.714 61.6687C47.8138 61.5767 46.8768 61.5215 46.0316 61.4112C42.5041 61.0432 39.2705 60.5649 36.2574 60.013C33.2626 59.4611 30.617 58.7804 28.2101 58.0262L26.4831 57.4374C25.9319 57.2351 25.4359 57.0143 24.9031 56.812C24.6458 56.7016 24.3886 56.5912 24.1314 56.4992L23.4332 56.1681L22.7535 55.8369C22.5146 55.7265 22.2941 55.6162 22.1104 55.4874L20.9162 54.7699C20.5304 54.5307 20.218 54.2732 19.8689 54.0157L19.3729 53.6293L18.9503 53.2246C18.6931 52.967 18.3808 52.691 18.1603 52.4151C17.2233 51.3113 16.7089 50.1523 16.4517 48.9381C16.3231 47.7055 16.4516 46.4361 17.0396 45.1115C17.1682 44.7804 17.3886 44.4493 17.554 44.0997L17.8296 43.6031L18.1971 43.0879C18.4543 42.7384 18.6747 42.4073 18.9687 42.0577L19.9057 41.0091C20.0527 40.8251 20.2364 40.6595 20.4201 40.4756L20.9713 39.942L21.5225 39.4086C21.7246 39.2246 21.9451 39.059 22.1472 38.8751C22.5881 38.5255 22.9923 38.1575 23.4516 37.808L24.9214 36.7226C26.9792 35.2876 29.3125 33.8527 31.9949 32.3994C34.6957 30.9644 37.6353 29.5295 40.8873 28.1313C41.6773 27.7818 42.5408 27.4322 43.3676 27.0827L44.6353 26.5492C45.0579 26.3836 45.5172 26.1996 45.9397 26.034C46.8216 25.6845 47.6852 25.335 48.5854 25.0038C49.504 24.6543 50.4227 24.3232 51.3413 23.992" fill="#08E2F0"/>
<path d="M177.799 2.89278C184.431 2.91118 190.311 3.18712 195.418 3.62865C200.544 4.07017 204.898 4.67729 208.573 5.37637C212.229 6.09384 215.224 6.88491 217.576 7.73116C218.2 7.93352 218.715 8.15424 219.248 8.375C219.78 8.59577 220.295 8.79814 220.736 9.0189C221.177 9.23967 221.618 9.44204 222.04 9.6628C222.408 9.88357 222.775 10.1043 223.124 10.3067C225.88 11.9992 226.927 13.5629 227.423 14.6483C227.57 14.9243 227.681 15.1635 227.717 15.3842C227.772 15.605 227.828 15.7705 227.864 15.9177C227.938 16.2121 227.975 16.3593 227.975 16.3593L230.4 15.9913C230.4 15.9913 230.363 15.8441 230.289 15.5314C230.253 15.3842 230.198 15.2003 230.143 14.9795C230.106 14.7588 229.977 14.5195 229.849 14.2436C229.334 13.1214 228.268 11.5393 225.457 9.80995C225.09 9.58919 224.723 9.36846 224.337 9.1477C223.896 8.92693 223.455 8.7062 222.996 8.48544C222.555 8.26467 222.022 8.04388 221.489 7.82312C220.938 7.60236 220.423 7.38162 219.78 7.16086C217.373 6.29621 214.324 5.4683 210.576 4.75083C206.828 4.03335 202.363 3.40791 197.127 2.96639C191.891 2.52486 185.883 2.24887 179.103 2.23047" fill="#08E2F0"/>
<path d="M176.771 3.44391C189.797 3.4807 199.81 4.49254 206.975 5.8723C210.576 6.57138 213.516 7.36247 215.812 8.19032C216.437 8.39269 216.933 8.61344 217.448 8.81581C217.962 9.03657 218.476 9.23893 218.899 9.44129C219.34 9.66206 219.763 9.86441 220.185 10.0668C220.553 10.2875 220.902 10.4899 221.251 10.6923C223.952 12.348 224.98 13.8933 225.476 14.9603C225.605 15.2179 225.734 15.457 225.77 15.6778C225.826 15.8986 225.881 16.0641 225.917 16.2113C225.991 16.5057 226.028 16.6528 226.028 16.6528L227.001 16.5057C227.001 16.5057 226.965 16.3585 226.891 16.0642C226.854 15.917 226.799 15.733 226.744 15.5306C226.707 15.3099 226.579 15.0707 226.45 14.8131C225.954 13.7277 224.925 12.1824 222.188 10.5083C221.839 10.3059 221.471 10.0852 221.104 9.86444C220.681 9.66208 220.259 9.4413 219.818 9.22054C219.395 8.99978 218.862 8.7974 218.348 8.57664C217.815 8.37428 217.319 8.13512 216.694 7.95116C214.361 7.1049 211.403 6.3138 207.765 5.61472C204.127 4.91564 199.81 4.3086 194.739 3.88547C189.668 3.46234 183.844 3.18637 177.267 3.16797" fill="#08E2F0"/>
<path d="M51.9812 24.1453C51.081 24.4764 50.1623 24.8076 49.2621 25.1571C48.3618 25.4883 47.5167 25.8378 46.6348 26.1874C46.1939 26.3529 45.7529 26.5369 45.3303 26.7025L44.081 27.2176C43.2542 27.5671 42.3907 27.9167 41.6191 28.2662C38.4039 29.6644 35.4826 31.0809 32.8002 32.4975C30.1362 33.914 27.8396 35.3489 25.7818 36.7839L24.3304 37.8509C23.8711 38.2005 23.4669 38.55 23.0259 38.8996C22.8238 39.0835 22.6034 39.2491 22.4013 39.433L21.8501 39.9481L21.2989 40.4817C21.1152 40.6656 20.9314 40.8312 20.7845 40.9968L19.8658 42.027C19.5719 42.3765 19.3514 42.7077 19.1126 43.0389L18.7451 43.554L18.4695 44.0507C18.3042 44.3818 18.0837 44.713 17.9551 45.0441C17.3855 46.3503 17.2569 47.6197 17.3855 48.8338C17.6244 50.0296 18.1388 51.1886 19.0758 52.274C19.2963 52.55 19.5902 52.8075 19.8658 53.0651L20.27 53.4514L20.7661 53.8194C21.1152 54.0769 21.4091 54.3161 21.795 54.5736L22.9708 55.2911C23.1545 55.4199 23.3934 55.5303 23.6139 55.6406L24.2936 55.9718L24.9734 56.303C25.2123 56.4133 25.4695 56.5053 25.7267 56.6157C26.2411 56.818 26.7372 57.0388 27.2884 57.2412L28.997 57.8115C31.3671 58.5474 33.9944 59.228 36.9708 59.7799C39.9472 60.3318 43.1624 60.8101 46.6532 61.1597C47.4983 61.2517 48.4353 61.3253 49.3172 61.4173L50.6584 61.5276C51.1177 61.5644 51.5954 61.6012 52.0547 61.6196C52.9917 61.6748 53.9104 61.7484 54.8657 61.8036C55.8395 61.8588 56.7949 61.8956 57.7686 61.9508C65.6137 62.2819 74.1938 62.2083 83.178 61.7668L84.8499 61.6932L86.5586 61.5828C87.6977 61.5092 88.8184 61.4541 89.9575 61.3805C92.2541 61.2149 94.5139 61.0493 96.8289 60.847C101.422 60.4606 106.07 59.9639 110.682 59.4304C112.997 59.136 115.293 58.8785 117.59 58.5474C118.729 58.4002 119.887 58.253 121.026 58.069C122.165 57.9035 123.304 57.7379 124.425 57.5723C124.994 57.4804 125.564 57.4067 126.115 57.3148L127.805 57.0388C128.926 56.8548 130.047 56.6709 131.167 56.5053C132.27 56.3213 133.39 56.119 134.493 55.935C135.595 55.7326 136.698 55.5486 137.782 55.3463C138.865 55.1439 139.968 54.9416 141.052 54.7392L141.86 54.5921L142.669 54.4264C143.201 54.3161 143.734 54.2241 144.267 54.1137C145.333 53.893 146.398 53.6906 147.446 53.4882C148.493 53.2675 149.54 53.0467 150.569 52.8259C151.083 52.7155 151.616 52.6052 152.112 52.4948C152.627 52.3844 153.141 52.274 153.637 52.1452C154.648 51.9245 155.658 51.6853 156.669 51.4646C157.661 51.2438 158.653 51.0046 159.627 50.7655C160.6 50.5263 161.592 50.3056 162.548 50.0664C170.228 48.1715 177.264 46.1847 183.529 44.1794C189.795 42.1742 195.251 40.1689 199.973 38.2373C204.676 36.2872 208.627 34.4107 211.878 32.663C215.13 30.8969 217.721 29.2412 219.687 27.751C220.22 27.3647 220.642 27.0152 221.083 26.6473C221.506 26.2793 221.947 25.9298 222.296 25.5986C222.645 25.2491 222.994 24.9363 223.343 24.6052C223.637 24.2924 223.913 23.9797 224.188 23.667C226.301 21.257 226.815 19.4541 226.962 18.2767C227.018 17.9823 227.054 17.7248 227.018 17.504C227.018 17.2833 227.018 17.0993 226.999 16.9521C226.999 16.6578 226.981 16.4922 226.981 16.4922L226.007 16.6394C226.007 16.6394 226.007 16.7866 226.025 17.0809C226.025 17.2281 226.025 17.412 226.044 17.6328C226.062 17.8535 226.044 18.1111 225.97 18.4055C225.823 19.5645 225.309 21.349 223.233 23.7405C222.957 24.0349 222.682 24.3476 222.406 24.6604C222.075 24.9731 221.726 25.3043 221.377 25.6354C221.046 25.9666 220.605 26.3161 220.183 26.6656C219.742 27.0152 219.338 27.3831 218.805 27.751C216.857 29.2412 214.285 30.8785 211.07 32.6262C204.64 36.1032 195.398 40.0769 182.997 44.0507C176.787 46.0375 169.823 48.006 162.217 49.8825C161.28 50.1216 160.288 50.3423 159.333 50.5815C158.359 50.8023 157.385 51.0414 156.393 51.2806C155.401 51.5014 154.39 51.7221 153.38 51.9613C152.884 52.0717 152.369 52.1821 151.873 52.2925C151.359 52.4028 150.845 52.5132 150.33 52.6236C149.301 52.8443 148.272 53.0651 147.225 53.2675C146.178 53.4882 145.131 53.6906 144.065 53.893C143.532 54.0034 142.999 54.0953 142.467 54.2057L141.677 54.3712L140.868 54.5185C139.803 54.7208 138.719 54.9232 137.635 55.1072C136.551 55.3095 135.467 55.4935 134.364 55.6775C133.262 55.8614 132.178 56.0638 131.057 56.2478C129.955 56.4317 128.852 56.5973 127.732 56.7813L126.06 57.0388C125.509 57.1308 124.939 57.2044 124.369 57.278C123.249 57.4436 122.128 57.6091 120.989 57.7747C119.868 57.9402 118.729 58.0874 117.59 58.2346C115.312 58.5473 113.034 58.8233 110.755 59.0992C106.181 59.6328 101.569 60.1295 97.031 60.4974C94.7344 60.6998 92.4929 60.847 90.2147 61.0309C89.094 61.1045 87.9733 61.1781 86.8525 61.2333L85.1623 61.3252L83.5087 61.3989C74.6164 61.8404 66.1098 61.8956 58.3382 61.5828C57.3828 61.546 56.4274 61.4909 55.4537 61.4357C54.4983 61.3805 53.598 61.3069 52.661 61.2517C52.2017 61.2149 51.724 61.1781 51.2831 61.1597L49.9419 61.0493C49.06 60.9573 48.1414 60.9022 47.2962 60.7918C43.8422 60.4422 40.6637 59.9639 37.7057 59.412C34.7661 58.8601 32.1571 58.1978 29.8054 57.462L28.1152 56.8917C27.564 56.6893 27.0863 56.4869 26.5719 56.2845C26.3146 56.1926 26.0574 56.0822 25.8186 55.9718L25.1388 55.6406L24.459 55.3095C24.2385 55.1991 23.9997 55.0888 23.816 54.9784L22.6401 54.2793C22.2543 54.0401 21.9603 53.7826 21.6112 53.5434L21.1152 53.1755L20.711 52.7891C20.4538 52.5316 20.1414 52.2741 19.9393 51.9981C19.0207 50.9311 18.5063 49.7721 18.2674 48.5947C18.1388 47.3989 18.2674 46.1479 18.837 44.8417C18.9656 44.5106 19.1677 44.1794 19.333 43.8667L19.6086 43.37L19.9577 42.8549C20.2149 42.5237 20.417 42.1926 20.711 41.843L21.6112 40.8128C21.7582 40.6472 21.942 40.4633 22.1257 40.2977L22.6769 39.7826L23.228 39.2675C23.4301 39.1019 23.6506 38.9179 23.8527 38.7524C24.2753 38.4028 24.6795 38.0533 25.1388 37.7037L26.5719 36.6552C28.5928 35.2386 30.8711 33.822 33.5167 32.4238C36.1808 31.0073 39.0469 29.6091 42.2437 28.2294C43.0154 27.8798 43.8789 27.5487 44.6873 27.1992L45.9183 26.684C46.3408 26.5185 46.7818 26.3529 47.2043 26.1689C48.0679 25.8378 48.913 25.4883 49.8133 25.1571C50.7135 24.826 51.6138 24.4948 52.514 24.1637" fill="#08E2F0"/>
<path d="M235.419 13.1035L231.285 13.821L231.542 14.3361L235.676 13.6555L235.419 13.1035Z" fill="#08E2F0"/>
<path d="M234.959 12.3164L230.862 13.0523C230.862 13.0523 230.881 13.0891 230.917 13.1259C230.954 13.1811 230.991 13.2363 231.028 13.3099C231.101 13.4386 231.156 13.5674 231.156 13.5674L235.272 12.8499C235.272 12.8499 235.198 12.7211 235.125 12.5923C235.088 12.5188 235.051 12.4636 235.015 12.4084C234.978 12.3532 234.959 12.3348 234.959 12.3348V12.3164Z" fill="#08E2F0"/>
<path d="M235.762 13.9316L231.646 14.6123L231.775 15.1458L235.927 14.4835L235.762 13.9316Z" fill="#08E2F0"/>
<path d="M234.367 11.5234L230.288 12.2961L230.674 12.7928L234.771 12.0385L234.367 11.5234Z" fill="#08E2F0"/>
<path d="M231.85 15.4182L231.941 15.7493L236.075 15.1054L236.002 14.7559L231.85 15.4182Z" fill="#08E2F0"/>
<path d="M243.594 13.7993C243.594 13.7993 243.466 13.3025 243.264 12.5851C243.117 12.2171 242.896 11.8124 242.676 11.3709C242.584 11.1501 242.4 10.9294 242.235 10.7086C242.069 10.4878 241.886 10.2487 241.72 10.0279C241.555 9.80716 241.316 9.58637 241.114 9.36561C240.894 9.14485 240.673 8.94249 240.471 8.74012C240.269 8.53776 239.993 8.35379 239.773 8.16983C239.534 7.98586 239.313 7.82031 239.111 7.67313C238.707 7.36039 238.285 7.1212 238.009 6.95563C237.715 6.79006 237.568 6.67969 237.568 6.67969C237.568 6.67969 235.97 6.86362 234.408 7.04759C232.846 7.23156 231.229 7.43396 231.229 7.43396C231.229 7.43396 231.432 7.52594 231.726 7.70991C232.019 7.89387 232.442 8.15142 232.957 8.44577C233.453 8.75851 233.93 9.14486 234.463 9.54959C234.978 9.95432 235.4 10.4326 235.878 10.8742C236.245 11.3525 236.631 11.8124 236.907 12.2723C237.145 12.7323 237.384 13.1738 237.513 13.5417C237.715 14.3144 237.844 14.8295 237.844 14.8295L242.418 14.1304L243.576 13.8177L243.594 13.7993Z" fill="#08E2F0"/>
<path d="M229.779 7.95117L225.865 8.8526L226.6 9.27575L230.532 8.39268L229.779 7.95117Z" fill="#08E2F0"/>
<path d="M230.92 8.63477L226.97 9.51783C226.97 9.51783 227.153 9.62821 227.319 9.73859C227.503 9.84897 227.65 9.95934 227.65 9.95934L231.636 9.09469C231.636 9.09469 231.489 8.98431 231.287 8.87393C231.104 8.76355 230.92 8.65318 230.92 8.65318V8.63477Z" fill="#08E2F0"/>
<path d="M233.672 10.7715L229.611 11.5625C229.611 11.5625 229.74 11.6729 229.85 11.8017C229.905 11.8569 229.96 11.9121 230.016 11.9673C230.071 12.0041 230.089 12.0409 230.089 12.0409L234.168 11.2682C234.168 11.2682 234.149 11.2314 234.094 11.1946C234.058 11.1578 233.984 11.0842 233.929 11.029C233.8 10.9002 233.672 10.7899 233.672 10.7899V10.7715Z" fill="#08E2F0"/>
<path d="M232.881 10.0332L228.857 10.861C228.857 10.861 228.894 10.8978 228.949 10.9346C229.004 10.9714 229.06 11.045 229.115 11.1002C229.243 11.2106 229.354 11.3394 229.354 11.3394L233.395 10.5299C233.395 10.5299 233.267 10.4011 233.138 10.2907C233.065 10.2355 233.01 10.162 232.955 10.1252C232.899 10.07 232.863 10.0516 232.863 10.0516L232.881 10.0332Z" fill="#08E2F0"/>
<path d="M231.939 9.31445L227.952 10.1607L228.558 10.6206L232.564 9.79279L231.939 9.31445Z" fill="#08E2F0"/>
</g>
</svg>
