<svg width="37" height="40" viewBox="0 0 37 40" fill="none" xmlns="http://www.w3.org/2000/svg">
<path d="M8.0862 40H28.3017C28.7882 40.0001 29.2583 39.8266 29.6259 39.5114C29.9935 39.1962 30.2339 38.7604 30.303 38.284L34.0975 12H36.3879V8H33.5941L30.109 1.106C29.9416 0.773546 29.6837 0.493896 29.3644 0.298507C29.0452 0.103117 28.6771 -0.000261201 28.3017 4.95623e-07H8.0862C7.32003 4.95623e-07 6.62057 0.428 6.27691 1.106L2.79378 8H0V12H2.29042L6.08486 38.284C6.15394 38.7604 6.39434 39.1962 6.76195 39.5114C7.12957 39.8266 7.59974 40.0001 8.0862 40ZM29.1467 18H7.24119L6.37395 12H30.0119L29.1467 18ZM9.83888 36L8.97164 30H27.4142L26.547 36H9.83888ZM9.33552 4H27.0524L29.0739 8H7.31397L9.33552 4Z" fill="#CFFF04"/>
</svg>
