<svg width="40" height="41" viewBox="0 0 40 41" fill="none" xmlns="http://www.w3.org/2000/svg">
<path d="M38 24.2001C36.3145 32.6435 28.9782 39 20.1818 39C10.14 39 2 30.7176 2 20.5001C2 10.908 9.17636 3.01962 18.3636 2.09277" stroke="#CFFF04" stroke-width="3" stroke-linecap="round" stroke-linejoin="round"/>
<path d="M11.0906 26.0683L11.1088 26.048M29.2725 26.0683L29.2906 26.048M18.3634 20.5184L18.3816 20.498M36.5452 14.9684L36.5634 14.9481M29.2725 9.41845L29.2906 9.39809M18.3634 2C17.4543 4.77498 19.2725 7.54996 22.1543 7.54996C18.3634 14.0249 21.9997 20.4999 31.0906 19.5749C31.0906 24.1998 35.6361 25.1248 37.8179 24.2257M10.1816 16.7999C9.94045 16.7999 9.70922 16.7024 9.53873 16.529C9.36824 16.3555 9.27246 16.1202 9.27246 15.8749C9.27246 15.6296 9.36824 15.3943 9.53873 15.2208C9.70922 15.0474 9.94045 14.9499 10.1816 14.9499C10.4227 14.9499 10.6539 15.0474 10.8244 15.2208C10.9949 15.3943 11.0906 15.6296 11.0906 15.8749C11.0906 16.1202 10.9949 16.3555 10.8244 16.529C10.6539 16.7024 10.4227 16.7999 10.1816 16.7999ZM35.6361 5.69997C35.395 5.69997 35.1638 5.60252 34.9933 5.42905C34.8228 5.25558 34.727 5.0203 34.727 4.77498C34.727 4.52966 34.8228 4.29438 34.9933 4.12091C35.1638 3.94744 35.395 3.84999 35.6361 3.84999C35.8772 3.84999 36.1084 3.94744 36.2789 4.12091C36.4494 4.29438 36.5452 4.52966 36.5452 4.77498C36.5452 5.0203 36.4494 5.25558 36.2789 5.42905C36.1084 5.60252 35.8772 5.69997 35.6361 5.69997ZM20.1816 33.4498C19.6993 33.4498 19.2369 33.2549 18.8959 32.9079C18.5549 32.561 18.3634 32.0904 18.3634 31.5998C18.3634 31.1091 18.5549 30.6386 18.8959 30.2916C19.2369 29.9447 19.6993 29.7498 20.1816 29.7498C20.6638 29.7498 21.1262 29.9447 21.4672 30.2916C21.8082 30.6386 21.9997 31.1091 21.9997 31.5998C21.9997 32.0904 21.8082 32.561 21.4672 32.9079C21.1262 33.2549 20.6638 33.4498 20.1816 33.4498Z" stroke="#CFFF04" stroke-width="3" stroke-linecap="round" stroke-linejoin="round"/>
</svg>
