<svg width="160" height="40" viewBox="0 0 160 40" fill="none" xmlns="http://www.w3.org/2000/svg">
<path d="M19.9961 39.5L24.4961 35H39.9961V39.5H19.9961Z" fill="#CFFF04"/>
<path d="M0.996094 7.5V0.5H9.99609V2.5L5.49609 7.5H0.996094Z" fill="#CFFF04"/>
<path d="M10.9961 2.45V0.5H39.9961V10.5H10.9961V17.5H34.9961L39.9961 24.5V34H23.9961L18.4961 39.5H0.996094V8.3H5.758L10.9961 2.45Z" fill="#CFFF04"/>
<path d="M10.9961 30V25H29.9961V30H10.9961Z" fill="#1E1E1E"/>
<path d="M85.2506 40V25.5446H96.1769L100.797 20.8369H114.496V0H83.9961V17.9387L79.6404 22.8231L79.2126 40H85.2506ZM79.4961 21.5L82.9961 17.5V0H75.4961V17.5L79.4961 21.5ZM114.496 25.5446V22.1662H101.613L98.2969 25.5446H114.496ZM104.385 15.2431H85.2506V10.5908H104.385V15.2431Z" fill="#CFFF04"/>
<path d="M73.4961 40V25.4596H62.3734L58.2427 20.7242H45.9961V0H74.5228V17.9387L79.6404 22.8231L81.2292 23.3983V40H73.4961ZM45.9961 25.4596V22.0613H57.5137L60.4781 25.4596H45.9961ZM55.0352 15.0975H72.1415V10.4178H55.0352V15.0975Z" fill="#CFFF04"/>
<path d="M159.254 0.00143433V4.37543L154.178 9.45144V27.4334L159.254 32.5094V38.7734H149.156V10.0994L130.094 10.0994V38.7734H125.072V24.9494L119.996 19.9274L119.996 10.0994L130.418 0.00143433L159.254 0.00143433ZM159.254 6.42743V30.4574L155.474 26.6234V10.2614L159.254 6.42743ZM119.996 22.0334L123.776 25.7594V38.7734H119.996V22.0334Z" fill="#CFFF04"/>
</svg>
