<svg width="160" height="41" viewBox="0 0 160 41" fill="none" xmlns="http://www.w3.org/2000/svg">
<path d="M94.4961 39.582L98.9961 35.082H114.496V39.582H94.4961Z" fill="#CFFF04"/>
<path d="M75.4961 7.58203V0.582031H84.4961V2.58203L79.9961 7.58203H75.4961Z" fill="#CFFF04"/>
<path d="M85.4961 2.53203V0.582031H114.496V10.582H85.4961V17.582H109.496L114.496 24.582V34.082H98.4961L92.9961 39.582H75.4961V8.38203H80.258L85.4961 2.53203Z" fill="#CFFF04"/>
<path d="M85.4961 30.082V25.082H104.496V30.082H85.4961Z" fill="#1E1E1E"/>
<path d="M40.2506 40.082V25.6267H51.1769L55.7974 20.919H69.4961V0.0820312H38.9961V18.0207L34.6404 22.9051L34.2126 40.082H40.2506ZM34.4961 21.582L37.9961 17.582V0.0820312H30.4961V17.582L34.4961 21.582ZM69.4961 25.6267V22.2482H56.6128L53.2969 25.6267H69.4961ZM59.3852 15.3251H40.2506V10.6728H59.3852V15.3251Z" fill="#CFFF04"/>
<path d="M28.4961 40.082V25.5416H17.3734L13.2427 20.8062H0.996094V0.0820312H29.5228V18.0207L34.6404 22.9051L36.2292 23.4803V40.082H28.4961ZM0.996094 25.5416V22.1433H12.5137L15.4781 25.5416H0.996094ZM10.0352 15.1795H27.1415V10.4999H10.0352V15.1795Z" fill="#CFFF04"/>
<path d="M159.754 0.0834656V4.45747L154.678 9.53347V27.5155L159.754 32.5915V38.8555H149.656V10.1815L130.594 10.1815V38.8555H125.572V25.0315L120.496 20.0095L120.496 10.1815L130.918 0.0834656L159.754 0.0834656ZM159.754 6.50946V30.5395L155.974 26.7055V10.3435L159.754 6.50946ZM120.496 22.1155L124.276 25.8415V38.8555H120.496V22.1155Z" fill="#CFFF04"/>
</svg>
