<svg width="254" height="40" viewBox="0 0 254 40" fill="none" xmlns="http://www.w3.org/2000/svg">
<path d="M29.8881 5.81659L34.748 1.01059V0.308594H30.968L25.676 5.81659H29.8881ZM39.014 39.0806L35.72 35.7866V20.2346L30.428 15.1046L35.18 10.4066H40.202V0.308594H35.99V1.82059L30.698 7.1126H24.38L16.766 14.9426H11.042V5.4386L7.42405 1.82059V0.308594H0.998047V6.3566H2.29405L7.58605 11.6486V29.6306L2.29405 34.9226H0.998047V39.0806H11.042V24.9866H30.158V39.0806H39.014ZM1.48405 33.6266L6.34405 28.8206V12.4586L1.48405 7.6526H0.998047V33.6266H1.48405ZM40.202 38.2166V24.6086L36.962 21.4766V34.9766L40.202 38.2166ZM11.042 3.33259V0.308594H8.72005V1.01059L11.042 3.33259Z" fill="#CFFF04"/>
<path d="M55.7093 39.0806V24.9866H66.5633L71.1533 20.3966H84.7613V0.308594H53.0633V17.6966L47.7713 22.9886H45.6113V39.0806H55.7093ZM46.9613 21.6926L51.7673 16.8866V0.470595L51.6053 0.308594H45.6113V21.6926H46.9613ZM84.7613 24.9866V21.6926H71.9633L68.6693 24.9866H84.7613ZM74.7173 14.9426H55.7093V10.4066H74.7173V14.9426Z" fill="#CFFF04"/>
<path d="M128.188 39.0806V28.9826H100.27V24.9866H125.434V14.9426H109.666L114.202 10.4066H128.188V5.4386H114.958L109.936 0.416596L90.1719 20.1806V39.0806H97.2999L101.998 34.3826H120.034L124.732 39.0806H128.188ZM122.626 39.0806L119.224 35.6786H102.808L99.4059 39.0806H122.626ZM128.188 4.1966V0.308594H111.934L115.768 4.1966H128.188Z" fill="#CFFF04"/>
<path d="M144.858 7.1666H133.572V0.308594H149.664V2.3606L144.858 7.1666ZM153.984 39.0806H133.572V8.46259H145.668L150.96 3.1706V0.308594H152.85L172.722 20.1806V35.1386H157.926L153.984 39.0806ZM172.722 39.0806H156.036L158.736 36.4346H172.722V39.0806ZM162.624 28.9826V24.3386L148.692 10.4066H143.616V28.9826H162.624Z" fill="#CFFF04"/>
<path d="M217.391 39.0806V34.7066L212.315 29.6306V11.6486L217.391 6.57259V0.308594H207.293V28.9826H188.231V0.308594H183.209V14.1326L178.133 19.1546V28.9826L188.555 39.0806H217.391ZM217.391 32.6546V8.6246L213.611 12.4586V28.8206L217.391 32.6546ZM178.133 17.0486L181.913 13.3226V0.308594H178.133V17.0486Z" fill="#CFFF04"/>
<path d="M236.299 39.0806H231.331V10.4066H219.181V3.81859H234.517L238.027 0.308594H253.633V10.4066H241.429V17.2646L236.299 22.3946V39.0806ZM241.429 39.0806H237.595V23.2586L241.429 19.3706V39.0806ZM233.707 2.52259H219.181V0.308594H235.921L233.707 2.52259Z" fill="#CFFF04"/>
</svg>
