<svg width="291" height="40" viewBox="0 0 291 40" fill="none" xmlns="http://www.w3.org/2000/svg">
<path d="M28.89 5.81659L33.75 1.01059V0.308594H29.97L24.678 5.81659H28.89ZM38.016 39.0806L34.722 35.7866V20.2346L29.43 15.1046L34.182 10.4066H39.204V0.308594H34.992V1.82059L29.7 7.1126H23.382L15.768 14.9426H10.044V5.4386L6.426 1.82059V0.308594H0V6.3566H1.296L6.588 11.6486V29.6306L1.296 34.9226H0V39.0806H10.044V24.9866H29.16V39.0806H38.016ZM0.486 33.6266L5.346 28.8206V12.4586L0.486 7.6526H0V33.6266H0.486ZM39.204 38.2166V24.6086L35.964 21.4766V34.9766L39.204 38.2166ZM10.044 3.33259V0.308594H7.722V1.01059L10.044 3.33259Z" fill="#CFFF04"/>
<path d="M83.7633 39.0806H78.4713V38.0006L73.1793 32.7086H55.1973L49.9053 38.0006V39.0806H44.6133V0.308594H49.9053V1.3886L55.1973 6.6806H73.1793L78.4713 1.3886V0.308594H83.7633V39.0806ZM77.1753 39.0806H51.1473V38.8106L56.0073 34.0046H72.3693L77.1753 38.8106V39.0806ZM72.3693 5.3846H56.0073L51.1473 0.578593V0.308594H77.1753V0.578593L72.3693 5.3846ZM73.6653 28.9826V10.4066H54.6573V28.9826H73.6653Z" fill="#CFFF04"/>
<path d="M157.106 39.0806H147.008V24.3386L133.076 10.4066H128.324V39.0806H118.226V24.3386L104.294 10.4066H99.2178V39.0806H89.1738V34.0046L94.4658 28.7126V10.6766C90.9018 7.1666 92.6838 8.9486 89.1738 5.3846V0.308594H108.452L118.226 10.0826V0.308594H137.234L149.978 13.0526V28.7126L155.27 34.0046H157.106V39.0806ZM89.1738 31.8986V7.49059L93.1698 11.4866V27.9026L89.1738 31.8986ZM157.106 32.7086H156.08L151.274 27.9026V14.3486L157.106 20.1806V32.7086Z" fill="#CFFF04"/>
<path d="M201.677 39.0806H196.385V38.0006L191.093 32.7086H173.111L167.819 38.0006V39.0806H162.527V0.308594H167.819V1.3886L173.111 6.6806H191.093L196.385 1.3886V0.308594H201.677V39.0806ZM195.089 39.0806H169.061V38.8106L173.921 34.0046H190.283L195.089 38.8106V39.0806ZM190.283 5.3846H173.921L169.061 0.578593V0.308594H195.089V0.578593L190.283 5.3846ZM191.579 28.9826V10.4066H172.571V28.9826H191.579Z" fill="#CFFF04"/>
<path d="M218.374 7.1666H207.088V0.308594H223.18V2.3606L218.374 7.1666ZM227.5 39.0806H207.088V8.46259H219.184L224.476 3.1706V0.308594H226.366L246.238 20.1806V35.1386H231.442L227.5 39.0806ZM246.238 39.0806H229.552L232.252 36.4346H246.238V39.0806ZM236.14 28.9826V24.3386L222.208 10.4066H217.132V28.9826H236.14Z" fill="#CFFF04"/>
<path d="M290.798 39.0806V33.8426L286.1 29.1446V11.1626L290.798 6.51859V0.308594H271.466L256.67 15.1046V29.6306L251.648 34.7066V39.0806H261.692V24.9866H280.7V39.0806H290.798ZM251.648 32.6006L255.428 28.8206V16.4006L251.648 20.1806V32.6006ZM290.798 31.7366V8.5706L287.396 11.9726V28.3346L290.798 31.7366ZM280.7 14.9426H271.088L275.624 10.4066H280.7V14.9426Z" fill="#CFFF04"/>
</svg>
