<svg width="51" height="52" viewBox="0 0 51 52" fill="none" xmlns="http://www.w3.org/2000/svg">
<mask id="path-1-inside-1_236_1100" fill="white">
<path d="M25.5 0.847656C11.4181 0.847656 0 12.2808 0 26.3814C0 40.4819 11.4181 51.9151 25.5 51.9151C39.5819 51.9151 51 40.4819 51 26.3814C51 12.2808 39.5819 0.847656 25.5 0.847656ZM33.7021 26.7747L21.2709 35.8312C21.2027 35.8802 21.1224 35.9095 21.0387 35.9158C20.955 35.9221 20.8712 35.9051 20.7965 35.8669C20.7218 35.8286 20.6591 35.7704 20.6152 35.6987C20.5714 35.6271 20.5481 35.5447 20.548 35.4607V17.3591C20.5477 17.2749 20.5707 17.1923 20.6145 17.1203C20.6582 17.0484 20.721 16.9901 20.7959 16.9517C20.8707 16.9133 20.9547 16.8965 21.0386 16.903C21.1224 16.9095 21.2028 16.9392 21.2709 16.9886L33.7021 26.0394C33.7608 26.081 33.8088 26.1361 33.8418 26.2001C33.8749 26.264 33.8921 26.335 33.8921 26.407C33.8921 26.4791 33.8749 26.55 33.8418 26.614C33.8088 26.678 33.7608 26.7331 33.7021 26.7747Z"/>
</mask>
<path d="M25.5 0.847656C11.4181 0.847656 0 12.2808 0 26.3814C0 40.4819 11.4181 51.9151 25.5 51.9151C39.5819 51.9151 51 40.4819 51 26.3814C51 12.2808 39.5819 0.847656 25.5 0.847656ZM33.7021 26.7747L21.2709 35.8312C21.2027 35.8802 21.1224 35.9095 21.0387 35.9158C20.955 35.9221 20.8712 35.9051 20.7965 35.8669C20.7218 35.8286 20.6591 35.7704 20.6152 35.6987C20.5714 35.6271 20.5481 35.5447 20.548 35.4607V17.3591C20.5477 17.2749 20.5707 17.1923 20.6145 17.1203C20.6582 17.0484 20.721 16.9901 20.7959 16.9517C20.8707 16.9133 20.9547 16.8965 21.0386 16.903C21.1224 16.9095 21.2028 16.9392 21.2709 16.9886L33.7021 26.0394C33.7608 26.081 33.8088 26.1361 33.8418 26.2001C33.8749 26.264 33.8921 26.335 33.8921 26.407C33.8921 26.4791 33.8749 26.55 33.8418 26.614C33.8088 26.678 33.7608 26.7331 33.7021 26.7747Z" fill="white" fill-opacity="0.6"/>
<path d="M21.2709 35.8312L21.8549 36.6429L21.8597 36.6394L21.2709 35.8312ZM20.548 35.4607H19.548L19.548 35.4623L20.548 35.4607ZM20.548 17.3591H21.548L21.548 17.3558L20.548 17.3591ZM21.2709 16.9886L21.8595 16.1802L21.8589 16.1798L21.2709 16.9886ZM33.7021 26.0394L33.1135 26.8479L33.1242 26.8555L33.7021 26.0394ZM33.8921 26.407H34.8921H33.8921ZM33.7021 26.7747L33.1241 25.9585L33.1133 25.9664L33.7021 26.7747ZM25.5 -0.152344C10.8645 -0.152344 -1 11.7298 -1 26.3814H1C1 12.8319 11.9716 1.84766 25.5 1.84766V-0.152344ZM-1 26.3814C-1 41.033 10.8645 52.9151 25.5 52.9151V50.9151C11.9716 50.9151 1 39.9309 1 26.3814H-1ZM25.5 52.9151C40.1354 52.9151 52 41.033 52 26.3814H50C50 39.9309 39.0284 50.9151 25.5 50.9151V52.9151ZM52 26.3814C52 11.7298 40.1354 -0.152344 25.5 -0.152344V1.84766C39.0284 1.84766 50 12.8319 50 26.3814H52ZM33.1133 25.9664L20.682 35.0229L21.8597 36.6394L34.291 27.5829L33.1133 25.9664ZM20.6868 35.0194C20.768 34.9611 20.8637 34.9261 20.9637 34.9186L21.1137 36.9129C21.381 36.8928 21.6375 36.7993 21.8549 36.6429L20.6868 35.0194ZM20.9637 34.9186C21.0636 34.9111 21.1636 34.9313 21.2526 34.9769L20.3404 36.7568C20.5789 36.879 20.8465 36.9331 21.1137 36.9129L20.9637 34.9186ZM21.2526 34.9769C21.3416 35.0225 21.4162 35.0918 21.4682 35.1768L19.7622 36.2207C19.902 36.449 20.102 36.6346 20.3404 36.7568L21.2526 34.9769ZM21.4682 35.1768C21.5203 35.2619 21.5478 35.3595 21.548 35.4591L19.548 35.4623C19.5484 35.7299 19.6225 35.9923 19.7622 36.2207L21.4682 35.1768ZM21.548 35.4607V17.3591H19.548V35.4607H21.548ZM21.548 17.3558C21.5483 17.456 21.5209 17.5544 21.4688 17.6402L19.7602 16.6005C19.6205 16.8301 19.5471 17.0938 19.548 17.3624L21.548 17.3558ZM21.4688 17.6402C21.4166 17.7259 21.3416 17.7957 21.252 17.8416L20.3398 16.0618C20.1005 16.1844 19.8999 16.371 19.7602 16.6005L21.4688 17.6402ZM21.252 17.8416C21.1623 17.8876 21.0616 17.9078 20.9611 17.9L21.1161 15.906C20.8478 15.8852 20.5792 15.9391 20.3398 16.0618L21.252 17.8416ZM20.9611 17.9C20.8606 17.8922 20.7643 17.8566 20.6829 17.7975L21.8589 16.1798C21.6414 16.0217 21.3843 15.9269 21.1161 15.906L20.9611 17.9ZM20.6823 17.7971L33.1135 26.8479L34.2907 25.231L21.8595 16.1802L20.6823 17.7971ZM33.1242 26.8555C33.0523 26.8046 32.9938 26.7373 32.9535 26.6593L34.7302 25.7409C34.6237 25.5349 34.4694 25.3574 34.28 25.2233L33.1242 26.8555ZM32.9535 26.6593C32.9132 26.5812 32.8921 26.4948 32.8921 26.407H34.8921C34.8921 26.1753 34.8366 25.9468 34.7302 25.7409L32.9535 26.6593ZM32.8921 26.407C32.8921 26.3193 32.9132 26.2328 32.9535 26.1548L34.7302 27.0732C34.8366 26.8673 34.8921 26.6388 34.8921 26.407H32.8921ZM32.9535 26.1548C32.9938 26.0768 33.0523 26.0095 33.1242 25.9586L34.28 27.5908C34.4694 27.4567 34.6237 27.2791 34.7302 27.0732L32.9535 26.1548Z" fill="white" fill-opacity="0.8" mask="url(#path-1-inside-1_236_1100)"/>
</svg>
