<svg width="145" height="146" viewBox="0 0 145 146" fill="none" xmlns="http://www.w3.org/2000/svg">
<g filter="url(#filter0_f_236_150)">
<mask id="path-1-inside-1_236_150" fill="white">
<path d="M88.793 74.2597C88.7137 74.1806 88.6063 74.1363 88.4943 74.1363C88.3824 74.1363 88.275 74.1806 88.1957 74.2597L84.5815 77.8624C84.5429 77.9006 84.5123 77.946 84.4914 77.9961C84.4705 78.0461 84.4597 78.0998 84.4597 78.1541C84.4597 78.2084 84.4705 78.2621 84.4914 78.3122C84.5123 78.3622 84.5429 78.4076 84.5815 78.4458L91.984 85.8147C92.5341 86.3382 93.259 86.6384 94.0179 86.6573C94.7769 86.6761 95.5157 86.4121 96.0911 85.9166C96.3747 85.6555 96.6017 85.3389 96.7579 84.9864C96.9141 84.6338 96.9962 84.2529 96.9991 83.8673C97.0095 83.4253 96.9303 82.9857 96.7663 82.5752C96.6022 82.1646 96.3567 81.7916 96.0446 81.4786L88.793 74.2597Z"/>
<path d="M82.3315 73.9068L84.1716 75.748L86.0734 73.8532L84.2315 72.0076C83.6364 72.6779 83.002 73.3121 82.3315 73.9068Z"/>
<path d="M75.5718 52.7379H78.2503V67.9243H75.5718V52.7379Z"/>
<path d="M67.5362 58.9911H70.2148V67.9243H67.5362V58.9911Z"/>
<path d="M59.5007 62.5644H62.1792V67.9243H59.5007V62.5644Z"/>
<path d="M67.5353 77.7508C71.5968 77.7508 75.5671 76.5458 78.9442 74.2881C82.3212 72.0305 84.9533 68.8216 86.5075 65.0672C88.0618 61.3129 88.4685 57.1817 87.6761 53.1961C86.8837 49.2105 84.9279 45.5495 82.056 42.6761C79.1841 39.8026 75.5251 37.8458 71.5416 37.053C67.5581 36.2602 63.4291 36.6671 59.6768 38.2222C55.9245 39.7773 52.7173 42.4108 50.4608 45.7896C48.2044 49.1684 47 53.1408 47 57.2045C47.0061 62.6518 49.1717 67.8743 53.0214 71.7261C56.8712 75.578 62.0909 77.7446 67.5353 77.7508ZM61.2855 45.7557V44.6981C61.2855 44.4611 61.3795 44.2339 61.547 44.0664C61.7144 43.8989 61.9415 43.8047 62.1783 43.8047C62.4151 43.8047 62.6422 43.8989 62.8096 44.0664C62.9771 44.2339 63.0711 44.4611 63.0711 44.6981V45.737C63.6971 45.9441 64.2518 46.3241 64.6711 46.8331C64.8142 47.0208 64.8773 47.2577 64.8464 47.4918C64.8155 47.7259 64.6932 47.9382 64.5063 48.0824C64.3194 48.2265 64.083 48.2908 63.8489 48.2611C63.6147 48.2314 63.4019 48.1101 63.2568 47.9238C63.1219 47.7662 62.9572 47.6368 62.7721 47.5431C62.587 47.4495 62.3852 47.3934 62.1783 47.378C61.9415 47.378 61.7144 47.4721 61.547 47.6397C61.3795 47.8072 61.2855 48.0344 61.2855 48.2713C61.2855 48.5083 61.3795 48.7355 61.547 48.903C61.7144 49.0705 61.9415 49.1646 62.1783 49.1646C62.8094 49.1634 63.4205 49.3858 63.9035 49.7922C64.3864 50.1986 64.71 50.763 64.817 51.3853C64.9239 52.0076 64.8073 52.6476 64.4878 53.1921C64.1682 53.7366 63.6664 54.1504 63.0711 54.3602V55.4179C63.0711 55.6548 62.9771 55.882 62.8096 56.0495C62.6422 56.2171 62.4151 56.3112 62.1783 56.3112C61.9415 56.3112 61.7144 56.2171 61.547 56.0495C61.3795 55.882 61.2855 55.6548 61.2855 55.4179V54.3789C60.6596 54.1721 60.105 53.7924 59.6855 53.2837C59.54 53.0968 59.4746 52.8597 59.5039 52.6246C59.5331 52.3894 59.6545 52.1755 59.8413 52.03C60.0281 51.8844 60.2651 51.819 60.5001 51.8482C60.7351 51.8775 60.9489 51.9989 61.0944 52.1858C61.2294 52.3453 61.3947 52.4762 61.5808 52.571C61.7669 52.6658 61.97 52.7225 62.1783 52.7379C62.4151 52.7379 62.6422 52.6438 62.8096 52.4763C62.9771 52.3087 63.0711 52.0815 63.0711 51.8446C63.0711 51.6077 62.9771 51.3805 62.8096 51.2129C62.6422 51.0454 62.4151 50.9513 62.1783 50.9513C61.5472 50.9525 60.9361 50.7302 60.4531 50.3237C59.9702 49.9173 59.6465 49.3529 59.5396 48.7307C59.4327 48.1084 59.5493 47.4683 59.8688 46.9238C60.1884 46.3793 60.6902 45.9655 61.2855 45.7557ZM54.1427 45.5914C54.1427 45.3545 54.2368 45.1272 54.4042 44.9597C54.5717 44.7922 54.7988 44.6981 55.0356 44.6981C55.2724 44.6981 55.4995 44.7922 55.6669 44.9597C55.8343 45.1272 55.9284 45.3545 55.9284 45.5914V67.9243H57.7141V62.5644C57.7141 62.0905 57.9022 61.6361 58.2371 61.3011C58.572 60.966 59.0262 60.7778 59.4998 60.7778H62.1783C62.6519 60.7778 63.1061 60.966 63.441 61.3011C63.7758 61.6361 63.964 62.0905 63.964 62.5644V67.9243H65.7497V58.9911C65.7497 58.5173 65.9378 58.0628 66.2727 57.7278C66.6076 57.3927 67.0617 57.2045 67.5353 57.2045H70.2139C70.6875 57.2045 71.1417 57.3927 71.4765 57.7278C71.8114 58.0628 71.9995 58.5173 71.9995 58.9911V67.9243H73.7852V52.7379C73.7852 52.2641 73.9734 51.8096 74.3082 51.4746C74.6431 51.1395 75.0973 50.9513 75.5709 50.9513H78.2494C78.723 50.9513 79.1772 51.1395 79.5121 51.4746C79.847 51.8096 80.0351 52.2641 80.0351 52.7379V67.9243H80.928C81.1648 67.9243 81.3918 68.0184 81.5593 68.1859C81.7267 68.3535 81.8208 68.5807 81.8208 68.8176C81.8208 69.0545 81.7267 69.2818 81.5593 69.4493C81.3918 69.6168 81.1648 69.7109 80.928 69.7109H55.0356C54.7988 69.7109 54.5717 69.6168 54.4042 69.4493C54.2368 69.2818 54.1427 69.0545 54.1427 68.8176V45.5914Z"/>
</mask>
<path d="M88.793 74.2597C88.7137 74.1806 88.6063 74.1363 88.4943 74.1363C88.3824 74.1363 88.275 74.1806 88.1957 74.2597L84.5815 77.8624C84.5429 77.9006 84.5123 77.946 84.4914 77.9961C84.4705 78.0461 84.4597 78.0998 84.4597 78.1541C84.4597 78.2084 84.4705 78.2621 84.4914 78.3122C84.5123 78.3622 84.5429 78.4076 84.5815 78.4458L91.984 85.8147C92.5341 86.3382 93.259 86.6384 94.0179 86.6573C94.7769 86.6761 95.5157 86.4121 96.0911 85.9166C96.3747 85.6555 96.6017 85.3389 96.7579 84.9864C96.9141 84.6338 96.9962 84.2529 96.9991 83.8673C97.0095 83.4253 96.9303 82.9857 96.7663 82.5752C96.6022 82.1646 96.3567 81.7916 96.0446 81.4786L88.793 74.2597Z" stroke="#08E2F0" stroke-width="2" mask="url(#path-1-inside-1_236_150)"/>
<path d="M82.3315 73.9068L84.1716 75.748L86.0734 73.8532L84.2315 72.0076C83.6364 72.6779 83.002 73.3121 82.3315 73.9068Z" stroke="#08E2F0" stroke-width="2" mask="url(#path-1-inside-1_236_150)"/>
<path d="M75.5718 52.7379H78.2503V67.9243H75.5718V52.7379Z" stroke="#08E2F0" stroke-width="2" mask="url(#path-1-inside-1_236_150)"/>
<path d="M67.5362 58.9911H70.2148V67.9243H67.5362V58.9911Z" stroke="#08E2F0" stroke-width="2" mask="url(#path-1-inside-1_236_150)"/>
<path d="M59.5007 62.5644H62.1792V67.9243H59.5007V62.5644Z" stroke="#08E2F0" stroke-width="2" mask="url(#path-1-inside-1_236_150)"/>
<path d="M67.5353 77.7508C71.5968 77.7508 75.5671 76.5458 78.9442 74.2881C82.3212 72.0305 84.9533 68.8216 86.5075 65.0672C88.0618 61.3129 88.4685 57.1817 87.6761 53.1961C86.8837 49.2105 84.9279 45.5495 82.056 42.6761C79.1841 39.8026 75.5251 37.8458 71.5416 37.053C67.5581 36.2602 63.4291 36.6671 59.6768 38.2222C55.9245 39.7773 52.7173 42.4108 50.4608 45.7896C48.2044 49.1684 47 53.1408 47 57.2045C47.0061 62.6518 49.1717 67.8743 53.0214 71.7261C56.8712 75.578 62.0909 77.7446 67.5353 77.7508ZM61.2855 45.7557V44.6981C61.2855 44.4611 61.3795 44.2339 61.547 44.0664C61.7144 43.8989 61.9415 43.8047 62.1783 43.8047C62.4151 43.8047 62.6422 43.8989 62.8096 44.0664C62.9771 44.2339 63.0711 44.4611 63.0711 44.6981V45.737C63.6971 45.9441 64.2518 46.3241 64.6711 46.8331C64.8142 47.0208 64.8773 47.2577 64.8464 47.4918C64.8155 47.7259 64.6932 47.9382 64.5063 48.0824C64.3194 48.2265 64.083 48.2908 63.8489 48.2611C63.6147 48.2314 63.4019 48.1101 63.2568 47.9238C63.1219 47.7662 62.9572 47.6368 62.7721 47.5431C62.587 47.4495 62.3852 47.3934 62.1783 47.378C61.9415 47.378 61.7144 47.4721 61.547 47.6397C61.3795 47.8072 61.2855 48.0344 61.2855 48.2713C61.2855 48.5083 61.3795 48.7355 61.547 48.903C61.7144 49.0705 61.9415 49.1646 62.1783 49.1646C62.8094 49.1634 63.4205 49.3858 63.9035 49.7922C64.3864 50.1986 64.71 50.763 64.817 51.3853C64.9239 52.0076 64.8073 52.6476 64.4878 53.1921C64.1682 53.7366 63.6664 54.1504 63.0711 54.3602V55.4179C63.0711 55.6548 62.9771 55.882 62.8096 56.0495C62.6422 56.2171 62.4151 56.3112 62.1783 56.3112C61.9415 56.3112 61.7144 56.2171 61.547 56.0495C61.3795 55.882 61.2855 55.6548 61.2855 55.4179V54.3789C60.6596 54.1721 60.105 53.7924 59.6855 53.2837C59.54 53.0968 59.4746 52.8597 59.5039 52.6246C59.5331 52.3894 59.6545 52.1755 59.8413 52.03C60.0281 51.8844 60.2651 51.819 60.5001 51.8482C60.7351 51.8775 60.9489 51.9989 61.0944 52.1858C61.2294 52.3453 61.3947 52.4762 61.5808 52.571C61.7669 52.6658 61.97 52.7225 62.1783 52.7379C62.4151 52.7379 62.6422 52.6438 62.8096 52.4763C62.9771 52.3087 63.0711 52.0815 63.0711 51.8446C63.0711 51.6077 62.9771 51.3805 62.8096 51.2129C62.6422 51.0454 62.4151 50.9513 62.1783 50.9513C61.5472 50.9525 60.9361 50.7302 60.4531 50.3237C59.9702 49.9173 59.6465 49.3529 59.5396 48.7307C59.4327 48.1084 59.5493 47.4683 59.8688 46.9238C60.1884 46.3793 60.6902 45.9655 61.2855 45.7557ZM54.1427 45.5914C54.1427 45.3545 54.2368 45.1272 54.4042 44.9597C54.5717 44.7922 54.7988 44.6981 55.0356 44.6981C55.2724 44.6981 55.4995 44.7922 55.6669 44.9597C55.8343 45.1272 55.9284 45.3545 55.9284 45.5914V67.9243H57.7141V62.5644C57.7141 62.0905 57.9022 61.6361 58.2371 61.3011C58.572 60.966 59.0262 60.7778 59.4998 60.7778H62.1783C62.6519 60.7778 63.1061 60.966 63.441 61.3011C63.7758 61.6361 63.964 62.0905 63.964 62.5644V67.9243H65.7497V58.9911C65.7497 58.5173 65.9378 58.0628 66.2727 57.7278C66.6076 57.3927 67.0617 57.2045 67.5353 57.2045H70.2139C70.6875 57.2045 71.1417 57.3927 71.4765 57.7278C71.8114 58.0628 71.9995 58.5173 71.9995 58.9911V67.9243H73.7852V52.7379C73.7852 52.2641 73.9734 51.8096 74.3082 51.4746C74.6431 51.1395 75.0973 50.9513 75.5709 50.9513H78.2494C78.723 50.9513 79.1772 51.1395 79.5121 51.4746C79.847 51.8096 80.0351 52.2641 80.0351 52.7379V67.9243H80.928C81.1648 67.9243 81.3918 68.0184 81.5593 68.1859C81.7267 68.3535 81.8208 68.5807 81.8208 68.8176C81.8208 69.0545 81.7267 69.2818 81.5593 69.4493C81.3918 69.6168 81.1648 69.7109 80.928 69.7109H55.0356C54.7988 69.7109 54.5717 69.6168 54.4042 69.4493C54.2368 69.2818 54.1427 69.0545 54.1427 68.8176V45.5914Z" stroke="#08E2F0" stroke-width="2" mask="url(#path-1-inside-1_236_150)"/>
</g>
<mask id="path-2-inside-2_236_150" fill="white">
<path d="M88.793 74.2597C88.7137 74.1806 88.6063 74.1363 88.4943 74.1363C88.3824 74.1363 88.275 74.1806 88.1957 74.2597L84.5815 77.8624C84.5429 77.9006 84.5123 77.946 84.4914 77.9961C84.4705 78.0461 84.4597 78.0998 84.4597 78.1541C84.4597 78.2084 84.4705 78.2621 84.4914 78.3122C84.5123 78.3622 84.5429 78.4076 84.5815 78.4458L91.984 85.8147C92.5341 86.3382 93.259 86.6384 94.0179 86.6573C94.7769 86.6761 95.5157 86.4121 96.0911 85.9166C96.3747 85.6555 96.6017 85.3389 96.7579 84.9864C96.9141 84.6338 96.9962 84.2529 96.9991 83.8673C97.0095 83.4253 96.9303 82.9857 96.7663 82.5752C96.6022 82.1646 96.3567 81.7916 96.0446 81.4786L88.793 74.2597Z"/>
<path d="M82.3315 73.9068L84.1716 75.748L86.0734 73.8532L84.2315 72.0076C83.6364 72.6779 83.002 73.3121 82.3315 73.9068Z"/>
<path d="M75.5718 52.7379H78.2503V67.9243H75.5718V52.7379Z"/>
<path d="M67.5362 58.9911H70.2148V67.9243H67.5362V58.9911Z"/>
<path d="M59.5007 62.5644H62.1792V67.9243H59.5007V62.5644Z"/>
<path d="M67.5353 77.7508C71.5968 77.7508 75.5671 76.5458 78.9442 74.2881C82.3212 72.0305 84.9533 68.8216 86.5075 65.0672C88.0618 61.3129 88.4685 57.1817 87.6761 53.1961C86.8837 49.2105 84.9279 45.5495 82.056 42.6761C79.1841 39.8026 75.5251 37.8458 71.5416 37.053C67.5581 36.2602 63.4291 36.6671 59.6768 38.2222C55.9245 39.7773 52.7173 42.4108 50.4608 45.7896C48.2044 49.1684 47 53.1408 47 57.2045C47.0061 62.6518 49.1717 67.8743 53.0214 71.7261C56.8712 75.578 62.0909 77.7446 67.5353 77.7508ZM61.2855 45.7557V44.6981C61.2855 44.4611 61.3795 44.2339 61.547 44.0664C61.7144 43.8989 61.9415 43.8047 62.1783 43.8047C62.4151 43.8047 62.6422 43.8989 62.8096 44.0664C62.9771 44.2339 63.0711 44.4611 63.0711 44.6981V45.737C63.6971 45.9441 64.2518 46.3241 64.6711 46.8331C64.8142 47.0208 64.8773 47.2577 64.8464 47.4918C64.8155 47.7259 64.6932 47.9382 64.5063 48.0824C64.3194 48.2265 64.083 48.2908 63.8489 48.2611C63.6147 48.2314 63.4019 48.1101 63.2568 47.9238C63.1219 47.7662 62.9572 47.6368 62.7721 47.5431C62.587 47.4495 62.3852 47.3934 62.1783 47.378C61.9415 47.378 61.7144 47.4721 61.547 47.6397C61.3795 47.8072 61.2855 48.0344 61.2855 48.2713C61.2855 48.5083 61.3795 48.7355 61.547 48.903C61.7144 49.0705 61.9415 49.1646 62.1783 49.1646C62.8094 49.1634 63.4205 49.3858 63.9035 49.7922C64.3864 50.1986 64.71 50.763 64.817 51.3853C64.9239 52.0076 64.8073 52.6476 64.4878 53.1921C64.1682 53.7366 63.6664 54.1504 63.0711 54.3602V55.4179C63.0711 55.6548 62.9771 55.882 62.8096 56.0495C62.6422 56.2171 62.4151 56.3112 62.1783 56.3112C61.9415 56.3112 61.7144 56.2171 61.547 56.0495C61.3795 55.882 61.2855 55.6548 61.2855 55.4179V54.3789C60.6596 54.1721 60.105 53.7924 59.6855 53.2837C59.54 53.0968 59.4746 52.8597 59.5039 52.6246C59.5331 52.3894 59.6545 52.1755 59.8413 52.03C60.0281 51.8844 60.2651 51.819 60.5001 51.8482C60.7351 51.8775 60.9489 51.9989 61.0944 52.1858C61.2294 52.3453 61.3947 52.4762 61.5808 52.571C61.7669 52.6658 61.97 52.7225 62.1783 52.7379C62.4151 52.7379 62.6422 52.6438 62.8096 52.4763C62.9771 52.3087 63.0711 52.0815 63.0711 51.8446C63.0711 51.6077 62.9771 51.3805 62.8096 51.2129C62.6422 51.0454 62.4151 50.9513 62.1783 50.9513C61.5472 50.9525 60.9361 50.7302 60.4531 50.3237C59.9702 49.9173 59.6465 49.3529 59.5396 48.7307C59.4327 48.1084 59.5493 47.4683 59.8688 46.9238C60.1884 46.3793 60.6902 45.9655 61.2855 45.7557ZM54.1427 45.5914C54.1427 45.3545 54.2368 45.1272 54.4042 44.9597C54.5717 44.7922 54.7988 44.6981 55.0356 44.6981C55.2724 44.6981 55.4995 44.7922 55.6669 44.9597C55.8343 45.1272 55.9284 45.3545 55.9284 45.5914V67.9243H57.7141V62.5644C57.7141 62.0905 57.9022 61.6361 58.2371 61.3011C58.572 60.966 59.0262 60.7778 59.4998 60.7778H62.1783C62.6519 60.7778 63.1061 60.966 63.441 61.3011C63.7758 61.6361 63.964 62.0905 63.964 62.5644V67.9243H65.7497V58.9911C65.7497 58.5173 65.9378 58.0628 66.2727 57.7278C66.6076 57.3927 67.0617 57.2045 67.5353 57.2045H70.2139C70.6875 57.2045 71.1417 57.3927 71.4765 57.7278C71.8114 58.0628 71.9995 58.5173 71.9995 58.9911V67.9243H73.7852V52.7379C73.7852 52.2641 73.9734 51.8096 74.3082 51.4746C74.6431 51.1395 75.0973 50.9513 75.5709 50.9513H78.2494C78.723 50.9513 79.1772 51.1395 79.5121 51.4746C79.847 51.8096 80.0351 52.2641 80.0351 52.7379V67.9243H80.928C81.1648 67.9243 81.3918 68.0184 81.5593 68.1859C81.7267 68.3535 81.8208 68.5807 81.8208 68.8176C81.8208 69.0545 81.7267 69.2818 81.5593 69.4493C81.3918 69.6168 81.1648 69.7109 80.928 69.7109H55.0356C54.7988 69.7109 54.5717 69.6168 54.4042 69.4493C54.2368 69.2818 54.1427 69.0545 54.1427 68.8176V45.5914Z"/>
</mask>
<path d="M88.793 74.2597C88.7137 74.1806 88.6063 74.1363 88.4943 74.1363C88.3824 74.1363 88.275 74.1806 88.1957 74.2597L84.5815 77.8624C84.5429 77.9006 84.5123 77.946 84.4914 77.9961C84.4705 78.0461 84.4597 78.0998 84.4597 78.1541C84.4597 78.2084 84.4705 78.2621 84.4914 78.3122C84.5123 78.3622 84.5429 78.4076 84.5815 78.4458L91.984 85.8147C92.5341 86.3382 93.259 86.6384 94.0179 86.6573C94.7769 86.6761 95.5157 86.4121 96.0911 85.9166C96.3747 85.6555 96.6017 85.3389 96.7579 84.9864C96.9141 84.6338 96.9962 84.2529 96.9991 83.8673C97.0095 83.4253 96.9303 82.9857 96.7663 82.5752C96.6022 82.1646 96.3567 81.7916 96.0446 81.4786L88.793 74.2597Z" stroke="#CFFF04" stroke-width="1.2" mask="url(#path-2-inside-2_236_150)"/>
<path d="M82.3315 73.9068L84.1716 75.748L86.0734 73.8532L84.2315 72.0076C83.6364 72.6779 83.002 73.3121 82.3315 73.9068Z" stroke="#CFFF04" stroke-width="1.2" mask="url(#path-2-inside-2_236_150)"/>
<path d="M75.5718 52.7379H78.2503V67.9243H75.5718V52.7379Z" stroke="#CFFF04" stroke-width="1.2" mask="url(#path-2-inside-2_236_150)"/>
<path d="M67.5362 58.9911H70.2148V67.9243H67.5362V58.9911Z" stroke="#CFFF04" stroke-width="1.2" mask="url(#path-2-inside-2_236_150)"/>
<path d="M59.5007 62.5644H62.1792V67.9243H59.5007V62.5644Z" stroke="#CFFF04" stroke-width="1.2" mask="url(#path-2-inside-2_236_150)"/>
<path d="M67.5353 77.7508C71.5968 77.7508 75.5671 76.5458 78.9442 74.2881C82.3212 72.0305 84.9533 68.8216 86.5075 65.0672C88.0618 61.3129 88.4685 57.1817 87.6761 53.1961C86.8837 49.2105 84.9279 45.5495 82.056 42.6761C79.1841 39.8026 75.5251 37.8458 71.5416 37.053C67.5581 36.2602 63.4291 36.6671 59.6768 38.2222C55.9245 39.7773 52.7173 42.4108 50.4608 45.7896C48.2044 49.1684 47 53.1408 47 57.2045C47.0061 62.6518 49.1717 67.8743 53.0214 71.7261C56.8712 75.578 62.0909 77.7446 67.5353 77.7508ZM61.2855 45.7557V44.6981C61.2855 44.4611 61.3795 44.2339 61.547 44.0664C61.7144 43.8989 61.9415 43.8047 62.1783 43.8047C62.4151 43.8047 62.6422 43.8989 62.8096 44.0664C62.9771 44.2339 63.0711 44.4611 63.0711 44.6981V45.737C63.6971 45.9441 64.2518 46.3241 64.6711 46.8331C64.8142 47.0208 64.8773 47.2577 64.8464 47.4918C64.8155 47.7259 64.6932 47.9382 64.5063 48.0824C64.3194 48.2265 64.083 48.2908 63.8489 48.2611C63.6147 48.2314 63.4019 48.1101 63.2568 47.9238C63.1219 47.7662 62.9572 47.6368 62.7721 47.5431C62.587 47.4495 62.3852 47.3934 62.1783 47.378C61.9415 47.378 61.7144 47.4721 61.547 47.6397C61.3795 47.8072 61.2855 48.0344 61.2855 48.2713C61.2855 48.5083 61.3795 48.7355 61.547 48.903C61.7144 49.0705 61.9415 49.1646 62.1783 49.1646C62.8094 49.1634 63.4205 49.3858 63.9035 49.7922C64.3864 50.1986 64.71 50.763 64.817 51.3853C64.9239 52.0076 64.8073 52.6476 64.4878 53.1921C64.1682 53.7366 63.6664 54.1504 63.0711 54.3602V55.4179C63.0711 55.6548 62.9771 55.882 62.8096 56.0495C62.6422 56.2171 62.4151 56.3112 62.1783 56.3112C61.9415 56.3112 61.7144 56.2171 61.547 56.0495C61.3795 55.882 61.2855 55.6548 61.2855 55.4179V54.3789C60.6596 54.1721 60.105 53.7924 59.6855 53.2837C59.54 53.0968 59.4746 52.8597 59.5039 52.6246C59.5331 52.3894 59.6545 52.1755 59.8413 52.03C60.0281 51.8844 60.2651 51.819 60.5001 51.8482C60.7351 51.8775 60.9489 51.9989 61.0944 52.1858C61.2294 52.3453 61.3947 52.4762 61.5808 52.571C61.7669 52.6658 61.97 52.7225 62.1783 52.7379C62.4151 52.7379 62.6422 52.6438 62.8096 52.4763C62.9771 52.3087 63.0711 52.0815 63.0711 51.8446C63.0711 51.6077 62.9771 51.3805 62.8096 51.2129C62.6422 51.0454 62.4151 50.9513 62.1783 50.9513C61.5472 50.9525 60.9361 50.7302 60.4531 50.3237C59.9702 49.9173 59.6465 49.3529 59.5396 48.7307C59.4327 48.1084 59.5493 47.4683 59.8688 46.9238C60.1884 46.3793 60.6902 45.9655 61.2855 45.7557ZM54.1427 45.5914C54.1427 45.3545 54.2368 45.1272 54.4042 44.9597C54.5717 44.7922 54.7988 44.6981 55.0356 44.6981C55.2724 44.6981 55.4995 44.7922 55.6669 44.9597C55.8343 45.1272 55.9284 45.3545 55.9284 45.5914V67.9243H57.7141V62.5644C57.7141 62.0905 57.9022 61.6361 58.2371 61.3011C58.572 60.966 59.0262 60.7778 59.4998 60.7778H62.1783C62.6519 60.7778 63.1061 60.966 63.441 61.3011C63.7758 61.6361 63.964 62.0905 63.964 62.5644V67.9243H65.7497V58.9911C65.7497 58.5173 65.9378 58.0628 66.2727 57.7278C66.6076 57.3927 67.0617 57.2045 67.5353 57.2045H70.2139C70.6875 57.2045 71.1417 57.3927 71.4765 57.7278C71.8114 58.0628 71.9995 58.5173 71.9995 58.9911V67.9243H73.7852V52.7379C73.7852 52.2641 73.9734 51.8096 74.3082 51.4746C74.6431 51.1395 75.0973 50.9513 75.5709 50.9513H78.2494C78.723 50.9513 79.1772 51.1395 79.5121 51.4746C79.847 51.8096 80.0351 52.2641 80.0351 52.7379V67.9243H80.928C81.1648 67.9243 81.3918 68.0184 81.5593 68.1859C81.7267 68.3535 81.8208 68.5807 81.8208 68.8176C81.8208 69.0545 81.7267 69.2818 81.5593 69.4493C81.3918 69.6168 81.1648 69.7109 80.928 69.7109H55.0356C54.7988 69.7109 54.5717 69.6168 54.4042 69.4493C54.2368 69.2818 54.1427 69.0545 54.1427 68.8176V45.5914Z" stroke="#CFFF04" stroke-width="1.2" mask="url(#path-2-inside-2_236_150)"/>
<g filter="url(#filter1_f_236_150)">
<path d="M7.60087 22.5926H5V5.57031H21.981V8.19349H7.60087V22.5926Z" fill="#08E2F0"/>
<path d="M140 22.5926H137.38V8.19349H123V5.57031H140V22.5926Z" fill="#08E2F0"/>
<path d="M140 140.768H123V138.145H137.38V123.746H140V140.768Z" fill="#08E2F0"/>
<path d="M21.981 140.768H5V123.746H7.60087V138.145H21.981V140.768Z" fill="#08E2F0"/>
</g>
<path d="M7.60087 22.5926H5V5.57031H21.981V8.19349H7.60087V22.5926Z" fill="#08E2F0"/>
<path d="M140 22.5926H137.38V8.19349H123V5.57031H140V22.5926Z" fill="#08E2F0"/>
<path d="M140 140.768H123V138.145H137.38V123.746H140V140.768Z" fill="#08E2F0"/>
<path d="M21.981 140.768H5V123.746H7.60087V138.145H21.981V140.768Z" fill="#08E2F0"/>
<rect opacity="0.07" x="20" y="8.6582" width="105" height="105" rx="52.5" fill="#08E2F0"/>
<g filter="url(#filter2_f_236_150)">
<path d="M137.092 73.7756H136.018V73.125H137.092V73.7756ZM133.825 73.7756H132.751V73.125H133.825V73.7756ZM130.558 73.7756H129.485V73.125H130.558V73.7756ZM127.276 73.7756H126.203V73.125H127.276V73.7756ZM124.01 73.7756H122.936V73.125H124.01V73.7756ZM120.728 73.7756H119.654V73.125H120.728V73.7756ZM117.461 73.7756H116.388V73.125H117.461V73.7756ZM114.195 73.7756H113.121V73.125H114.195V73.7756ZM110.928 73.7756H109.854V73.125H110.928V73.7756ZM107.661 73.7756H106.588V73.125H107.661V73.7756ZM104.379 73.7756H103.306V73.125H104.379V73.7756ZM101.113 73.7756H100.039V73.125H101.113V73.7756Z" fill="#08E2F0"/>
<path d="M44.0374 73.7756H42.9637V73.125H44.0374V73.7756ZM40.7707 73.7756H39.697V73.125H40.7707V73.7756ZM37.489 73.7756H36.4152V73.125H37.489V73.7756ZM34.2223 73.7756H33.1485V73.125H34.2223V73.7756ZM30.9405 73.7756H29.8667V73.125H30.9405V73.7756ZM27.6738 73.7756H26.6V73.125H27.6738V73.7756ZM24.4071 73.7756H23.3334V73.125H24.4071V73.7756ZM21.1405 73.7756H20.0667V73.125H21.1405V73.7756ZM17.8738 73.7756H16.8V73.125H17.8738V73.7756ZM14.6071 73.7756H13.5333V73.125H14.6071V73.7756ZM11.3404 73.7756H10.2667V73.125H11.3404V73.7756ZM8.07376 73.7756H7V73.125H8.07376V73.7756Z" fill="#08E2F0"/>
<path d="M72.3713 8.31833V9.39355H71.7207V8.31833H72.3713ZM72.3713 11.5893V12.6645H71.7207V11.5893H72.3713ZM72.3713 14.8603V15.9355H71.7207V14.8603H72.3713ZM72.3713 18.1465V19.2217H71.7207V18.1465H72.3713ZM72.3713 21.4175V22.4926H71.7207V21.4175H72.3713ZM72.3713 24.7036V25.7787H71.7207V24.7036H72.3713ZM72.3713 27.9746V29.0498H71.7207V27.9746H72.3713ZM72.3713 31.2456V32.3208H71.7207V31.2456H72.3713ZM72.3713 34.5166V35.5918H71.7207V34.5166H72.3713ZM72.3713 37.7876V38.8628H71.7207V37.7876H72.3713ZM72.3713 41.0737V42.149H71.7207V41.0737H72.3713ZM72.3713 44.3447V45.4199H71.7207V44.3447H72.3713Z" fill="#08E2F0"/>
<path d="M72.3713 101.496V102.571H71.7207V101.496H72.3713ZM72.3713 104.767V105.842H71.7207V104.767H72.3713ZM72.3713 108.053V109.128H71.7207V108.053H72.3713ZM72.3713 111.324V112.399H71.7207V111.324H72.3713ZM72.3713 114.61V115.685H71.7207V114.61H72.3713ZM72.3713 117.881V118.956H71.7207V117.881H72.3713ZM72.3713 121.152V122.227H71.7207V121.152H72.3713ZM72.3713 124.423V125.498H71.7207V124.423H72.3713ZM72.3713 127.694V128.769H71.7207V127.694H72.3713ZM72.3713 130.965V132.04H71.7207V130.965H72.3713ZM72.3713 134.236V135.311H71.7207V134.236H72.3713ZM72.3713 137.507V138.582H71.7207V137.507H72.3713Z" fill="#08E2F0"/>
</g>
<path d="M137.092 73.7756H136.018V73.125H137.092V73.7756ZM133.825 73.7756H132.751V73.125H133.825V73.7756ZM130.558 73.7756H129.485V73.125H130.558V73.7756ZM127.276 73.7756H126.203V73.125H127.276V73.7756ZM124.01 73.7756H122.936V73.125H124.01V73.7756ZM120.728 73.7756H119.654V73.125H120.728V73.7756ZM117.461 73.7756H116.388V73.125H117.461V73.7756ZM114.195 73.7756H113.121V73.125H114.195V73.7756ZM110.928 73.7756H109.854V73.125H110.928V73.7756ZM107.661 73.7756H106.588V73.125H107.661V73.7756ZM104.379 73.7756H103.306V73.125H104.379V73.7756ZM101.113 73.7756H100.039V73.125H101.113V73.7756Z" fill="#08E2F0"/>
<path d="M44.0374 73.7756H42.9637V73.125H44.0374V73.7756ZM40.7707 73.7756H39.697V73.125H40.7707V73.7756ZM37.489 73.7756H36.4152V73.125H37.489V73.7756ZM34.2223 73.7756H33.1485V73.125H34.2223V73.7756ZM30.9405 73.7756H29.8667V73.125H30.9405V73.7756ZM27.6738 73.7756H26.6V73.125H27.6738V73.7756ZM24.4071 73.7756H23.3334V73.125H24.4071V73.7756ZM21.1405 73.7756H20.0667V73.125H21.1405V73.7756ZM17.8738 73.7756H16.8V73.125H17.8738V73.7756ZM14.6071 73.7756H13.5333V73.125H14.6071V73.7756ZM11.3404 73.7756H10.2667V73.125H11.3404V73.7756ZM8.07376 73.7756H7V73.125H8.07376V73.7756Z" fill="#08E2F0"/>
<path d="M72.3713 8.31833V9.39355H71.7207V8.31833H72.3713ZM72.3713 11.5893V12.6645H71.7207V11.5893H72.3713ZM72.3713 14.8603V15.9355H71.7207V14.8603H72.3713ZM72.3713 18.1465V19.2217H71.7207V18.1465H72.3713ZM72.3713 21.4175V22.4926H71.7207V21.4175H72.3713ZM72.3713 24.7036V25.7787H71.7207V24.7036H72.3713ZM72.3713 27.9746V29.0498H71.7207V27.9746H72.3713ZM72.3713 31.2456V32.3208H71.7207V31.2456H72.3713ZM72.3713 34.5166V35.5918H71.7207V34.5166H72.3713ZM72.3713 37.7876V38.8628H71.7207V37.7876H72.3713ZM72.3713 41.0737V42.149H71.7207V41.0737H72.3713ZM72.3713 44.3447V45.4199H71.7207V44.3447H72.3713Z" fill="#08E2F0"/>
<path d="M72.3713 101.496V102.571H71.7207V101.496H72.3713ZM72.3713 104.767V105.842H71.7207V104.767H72.3713ZM72.3713 108.053V109.128H71.7207V108.053H72.3713ZM72.3713 111.324V112.399H71.7207V111.324H72.3713ZM72.3713 114.61V115.685H71.7207V114.61H72.3713ZM72.3713 117.881V118.956H71.7207V117.881H72.3713ZM72.3713 121.152V122.227H71.7207V121.152H72.3713ZM72.3713 124.423V125.498H71.7207V124.423H72.3713ZM72.3713 127.694V128.769H71.7207V127.694H72.3713ZM72.3713 130.965V132.04H71.7207V130.965H72.3713ZM72.3713 134.236V135.311H71.7207V134.236H72.3713ZM72.3713 137.507V138.582H71.7207V137.507H72.3713Z" fill="#08E2F0"/>
<g filter="url(#filter3_f_236_150)">
<path d="M73.9817 73.8059H70.1252C69.9437 73.8059 69.8076 73.6544 69.8076 73.4877C69.8076 73.321 69.9588 73.1696 70.1252 73.1696H73.9817C74.1632 73.1696 74.2993 73.321 74.2993 73.4877C74.2993 73.6544 74.148 73.8059 73.9817 73.8059Z" fill="#08E2F0"/>
<path d="M72.0456 75.7302C71.8641 75.7302 71.728 75.5787 71.728 75.4121V71.5486C71.728 71.3668 71.8792 71.2305 72.0456 71.2305C72.212 71.2305 72.3632 71.382 72.3632 71.5486V75.4121C72.3632 75.5939 72.212 75.7302 72.0456 75.7302Z" fill="#08E2F0"/>
</g>
<path d="M73.9817 73.8059H70.1252C69.9437 73.8059 69.8076 73.6544 69.8076 73.4877C69.8076 73.321 69.9588 73.1696 70.1252 73.1696H73.9817C74.1632 73.1696 74.2993 73.321 74.2993 73.4877C74.2993 73.6544 74.148 73.8059 73.9817 73.8059Z" fill="#08E2F0"/>
<path d="M72.0456 75.7302C71.8641 75.7302 71.728 75.5787 71.728 75.4121V71.5486C71.728 71.3668 71.8792 71.2305 72.0456 71.2305C72.212 71.2305 72.3632 71.382 72.3632 71.5486V75.4121C72.3632 75.5939 72.212 75.7302 72.0456 75.7302Z" fill="#08E2F0"/>
<defs>
<filter id="filter0_f_236_150" x="45" y="34.6582" width="54" height="54" filterUnits="userSpaceOnUse" color-interpolation-filters="sRGB">
<feFlood flood-opacity="0" result="BackgroundImageFix"/>
<feBlend mode="normal" in="SourceGraphic" in2="BackgroundImageFix" result="shape"/>
<feGaussianBlur stdDeviation="1" result="effect1_foregroundBlur_236_150"/>
</filter>
<filter id="filter1_f_236_150" x="0" y="0.570312" width="145" height="145.197" filterUnits="userSpaceOnUse" color-interpolation-filters="sRGB">
<feFlood flood-opacity="0" result="BackgroundImageFix"/>
<feBlend mode="normal" in="SourceGraphic" in2="BackgroundImageFix" result="shape"/>
<feGaussianBlur stdDeviation="2.5" result="effect1_foregroundBlur_236_150"/>
</filter>
<filter id="filter2_f_236_150" x="2" y="3.31836" width="140.092" height="140.264" filterUnits="userSpaceOnUse" color-interpolation-filters="sRGB">
<feFlood flood-opacity="0" result="BackgroundImageFix"/>
<feBlend mode="normal" in="SourceGraphic" in2="BackgroundImageFix" result="shape"/>
<feGaussianBlur stdDeviation="2.5" result="effect1_foregroundBlur_236_150"/>
</filter>
<filter id="filter3_f_236_150" x="67.8076" y="69.2305" width="8.49121" height="8.5" filterUnits="userSpaceOnUse" color-interpolation-filters="sRGB">
<feFlood flood-opacity="0" result="BackgroundImageFix"/>
<feBlend mode="normal" in="SourceGraphic" in2="BackgroundImageFix" result="shape"/>
<feGaussianBlur stdDeviation="1" result="effect1_foregroundBlur_236_150"/>
</filter>
</defs>
</svg>
