<svg width="145" height="146" viewBox="0 0 145 146" fill="none" xmlns="http://www.w3.org/2000/svg">
<g filter="url(#filter0_f_236_188)">
<mask id="path-1-inside-1_236_188" fill="white">
<path fill-rule="evenodd" clip-rule="evenodd" d="M76.3549 50.8145C76.3549 50.705 76.3765 50.5966 76.4183 50.4955C76.4602 50.3944 76.5216 50.3025 76.599 50.2251C76.6764 50.1477 76.7683 50.0864 76.8694 50.0445C76.9705 50.0026 77.0789 49.9811 77.1883 49.9812H91.0193C91.1295 49.98 91.2388 50.0006 91.341 50.042C91.4431 50.0833 91.5361 50.1445 91.6144 50.222C91.6928 50.2995 91.755 50.3918 91.7974 50.4935C91.8399 50.5952 91.8617 50.7043 91.8617 50.8145C91.8617 50.9247 91.8399 51.0338 91.7974 51.1355C91.755 51.2372 91.6928 51.3295 91.6144 51.407C91.5361 51.4845 91.4431 51.5457 91.341 51.587C91.2388 51.6284 91.1295 51.649 91.0193 51.6479H77.1883C76.9673 51.6478 76.7554 51.56 76.5991 51.4037C76.4428 51.2474 76.355 51.0355 76.3549 50.8145ZM77.1883 56.6136H91.0193C91.1295 56.6148 91.2388 56.5941 91.341 56.5527C91.4431 56.5114 91.5361 56.4502 91.6144 56.3727C91.6928 56.2952 91.755 56.2029 91.7974 56.1012C91.8399 55.9995 91.8617 55.8904 91.8617 55.7802C91.8617 55.67 91.8399 55.5609 91.7974 55.4592C91.755 55.3575 91.6928 55.2652 91.6144 55.1877C91.5361 55.1102 91.4431 55.049 91.341 55.0077C91.2388 54.9664 91.1295 54.9457 91.0193 54.9469H77.1883C77.0781 54.9457 76.9688 54.9664 76.8666 55.0077C76.7645 55.049 76.6716 55.1102 76.5932 55.1877C76.5149 55.2652 76.4527 55.3575 76.4102 55.4592C76.3678 55.5609 76.3459 55.67 76.3459 55.7802C76.3459 55.8904 76.3678 55.9995 76.4102 56.1012C76.4527 56.2029 76.5149 56.2952 76.5932 56.3727C76.6716 56.4502 76.7645 56.5114 76.8666 56.5527C76.9688 56.5941 77.0781 56.6148 77.1883 56.6136ZM77.1883 61.5788H91.0193C91.1295 61.58 91.2388 61.5593 91.341 61.518C91.4431 61.4766 91.5361 61.4154 91.6144 61.3379C91.6928 61.2604 91.755 61.1682 91.7974 61.0665C91.8399 60.9648 91.8617 60.8557 91.8617 60.7455C91.8617 60.6353 91.8399 60.5261 91.7974 60.4244C91.755 60.3227 91.6928 60.2305 91.6144 60.153C91.5361 60.0755 91.4431 60.0143 91.341 59.9729C91.2388 59.9316 91.1295 59.9109 91.0193 59.9121H77.1883C77.0781 59.9109 76.9688 59.9316 76.8666 59.9729C76.7645 60.0143 76.6716 60.0755 76.5932 60.153C76.5149 60.2305 76.4527 60.3227 76.4102 60.4244C76.3678 60.5261 76.3459 60.6353 76.3459 60.7455C76.3459 60.8557 76.3678 60.9648 76.4102 61.0665C76.4527 61.1682 76.5149 61.2604 76.5932 61.3379C76.6716 61.4154 76.7645 61.4766 76.8666 61.518C76.9688 61.5593 77.0781 61.58 77.1883 61.5788ZM77.1883 66.5446H91.0193C91.2403 66.5446 91.4523 66.4568 91.6086 66.3005C91.7649 66.1442 91.8527 65.9323 91.8527 65.7112C91.8527 65.4902 91.7649 65.2782 91.6086 65.1219C91.4523 64.9656 91.2403 64.8778 91.0193 64.8778H77.1883C76.9673 64.8778 76.7553 64.9656 76.599 65.1219C76.4427 65.2782 76.3549 65.4902 76.3549 65.7112C76.3549 65.9323 76.4427 66.1442 76.599 66.3005C76.7553 66.4568 76.9673 66.5446 77.1883 66.5446ZM87.8402 37.9696V44.3354L94.2864 44.3412L87.8402 37.9696ZM55.9539 41.3856C56.7583 41.2024 57.579 41.0995 58.4039 41.0785C58.515 41.0758 58.6255 41.0954 58.7289 41.1361C58.8324 41.1767 58.9266 41.2376 59.0062 41.3152C59.0857 41.3928 59.149 41.4855 59.1922 41.5879C59.2354 41.6903 59.2578 41.8003 59.2579 41.9114V52.9283H70.2748C70.386 52.9285 70.4961 52.9509 70.5985 52.9942C70.7009 53.0375 70.7937 53.1008 70.8713 53.1805C70.949 53.2601 71.0099 53.3545 71.0506 53.458C71.0913 53.5615 71.1108 53.6721 71.1082 53.7833C71.0588 55.6175 70.6032 57.4179 69.7741 59.0548C68.945 60.6917 67.7631 62.1243 66.3136 63.2493C64.864 64.3743 63.183 65.1637 61.3916 65.5607C59.6001 65.9577 57.743 65.9523 55.9539 65.5449V85.929C55.9539 86.1223 56.0307 86.3076 56.1674 86.4444C56.304 86.5811 56.4893 86.658 56.6826 86.6582H94.7978C94.9907 86.6573 95.1755 86.5801 95.3117 86.4435C95.448 86.3069 95.5246 86.1219 95.5251 85.929V46.0089L87.0062 46.0011C86.7853 46.0008 86.5736 45.9129 86.4175 45.7567C86.2614 45.6004 86.1738 45.3885 86.1738 45.1677V36.6582H56.6826C56.4893 36.6585 56.3041 36.7354 56.1674 36.8721C56.0308 37.0088 55.954 37.1941 55.9539 37.3874V41.3856ZM51.14 61.0462C49.7088 59.6146 48.712 57.8072 48.2649 55.8329C47.8177 53.8587 47.9386 51.7981 48.6134 49.8896C49.2882 47.9811 50.4894 46.3026 52.0781 45.0482C53.6668 43.7937 55.5782 43.0145 57.5912 42.8008V53.7617C57.5911 53.8712 57.6127 53.9795 57.6545 54.0806C57.6964 54.1818 57.7578 54.2736 57.8352 54.351C57.9126 54.4284 58.0044 54.4898 58.1055 54.5316C58.2067 54.5735 58.315 54.595 58.4245 54.595H69.3859C69.1723 56.6081 68.3932 58.5197 67.1388 60.1086C65.8843 61.6975 64.2057 62.8988 62.297 63.5737C60.3884 64.2485 58.3277 64.3693 56.3533 63.922C54.3789 63.4747 52.5715 62.4777 51.14 61.0462ZM61.0808 38.4217C61.0808 38.2043 61.1657 37.9955 61.3175 37.8399C61.4692 37.6842 61.6757 37.594 61.893 37.5884C63.5733 37.545 65.2448 37.8439 66.8058 38.467C68.3669 39.0902 69.7848 40.0244 70.9733 41.213C72.1618 42.4015 73.0959 43.8195 73.719 45.3806C74.342 46.9417 74.6409 48.6132 74.5973 50.2935C74.5921 50.5107 74.5021 50.7172 74.3465 50.8689C74.191 51.0206 73.9823 51.1054 73.765 51.1052H61.9142C61.6933 51.1051 61.4814 51.0173 61.3252 50.8612C61.1689 50.705 61.081 50.4932 61.0808 50.2723V38.4217ZM62.7475 49.4387V39.2634C65.4032 39.3963 67.9149 40.511 69.795 42.3913C71.6751 44.2717 72.7896 46.7834 72.9222 49.4392L62.7475 49.4387ZM88.0259 68.8929C88.1255 69 88.1952 69.1314 88.2281 69.274C88.2609 69.4165 88.2558 69.5652 88.2131 69.7051L86.5601 75.1042C86.5178 75.2443 86.4391 75.3707 86.3321 75.4706C86.2251 75.5704 86.0935 75.6402 85.9508 75.6728C85.8892 75.6865 85.8263 75.6936 85.7631 75.6938C85.6488 75.6939 85.5358 75.6704 85.431 75.6248C85.3261 75.5792 85.2318 75.5126 85.1539 75.429L83.8423 74.0207L77.4443 80.352C77.2881 80.5062 77.0774 80.5926 76.8579 80.5926C76.6384 80.5926 76.4277 80.5062 76.2714 80.352L70.46 74.6011L64.6487 80.352C64.491 80.5046 64.2794 80.5888 64.06 80.5864C63.8405 80.584 63.6309 80.4951 63.4766 80.339C63.3222 80.1829 63.2357 79.9723 63.2358 79.7528C63.2358 79.5334 63.3224 79.3228 63.4768 79.1668L69.8744 72.8365C70.0305 72.6823 70.2411 72.5958 70.4606 72.5958C70.6801 72.5958 70.8907 72.6823 71.0468 72.8365L76.8574 78.5875L82.6692 72.8365C82.6815 72.8252 82.6943 72.8145 82.7065 72.8031L81.3037 71.298C81.204 71.191 81.1343 71.0596 81.1015 70.917C81.0687 70.7745 81.074 70.6258 81.1168 70.486C81.1596 70.3461 81.2385 70.22 81.3455 70.1203C81.4525 70.0205 81.5838 69.9507 81.7263 69.9178L87.2286 68.6491C87.3712 68.6162 87.5199 68.6214 87.6598 68.6643C87.7998 68.7072 87.9259 68.7861 88.0256 68.8933L88.0259 68.8929ZM86.1965 70.5969L85.3892 73.2365L83.5068 71.2175L86.1965 70.5969Z"/>
</mask>
<path fill-rule="evenodd" clip-rule="evenodd" d="M76.3549 50.8145C76.3549 50.705 76.3765 50.5966 76.4183 50.4955C76.4602 50.3944 76.5216 50.3025 76.599 50.2251C76.6764 50.1477 76.7683 50.0864 76.8694 50.0445C76.9705 50.0026 77.0789 49.9811 77.1883 49.9812H91.0193C91.1295 49.98 91.2388 50.0006 91.341 50.042C91.4431 50.0833 91.5361 50.1445 91.6144 50.222C91.6928 50.2995 91.755 50.3918 91.7974 50.4935C91.8399 50.5952 91.8617 50.7043 91.8617 50.8145C91.8617 50.9247 91.8399 51.0338 91.7974 51.1355C91.755 51.2372 91.6928 51.3295 91.6144 51.407C91.5361 51.4845 91.4431 51.5457 91.341 51.587C91.2388 51.6284 91.1295 51.649 91.0193 51.6479H77.1883C76.9673 51.6478 76.7554 51.56 76.5991 51.4037C76.4428 51.2474 76.355 51.0355 76.3549 50.8145ZM77.1883 56.6136H91.0193C91.1295 56.6148 91.2388 56.5941 91.341 56.5527C91.4431 56.5114 91.5361 56.4502 91.6144 56.3727C91.6928 56.2952 91.755 56.2029 91.7974 56.1012C91.8399 55.9995 91.8617 55.8904 91.8617 55.7802C91.8617 55.67 91.8399 55.5609 91.7974 55.4592C91.755 55.3575 91.6928 55.2652 91.6144 55.1877C91.5361 55.1102 91.4431 55.049 91.341 55.0077C91.2388 54.9664 91.1295 54.9457 91.0193 54.9469H77.1883C77.0781 54.9457 76.9688 54.9664 76.8666 55.0077C76.7645 55.049 76.6716 55.1102 76.5932 55.1877C76.5149 55.2652 76.4527 55.3575 76.4102 55.4592C76.3678 55.5609 76.3459 55.67 76.3459 55.7802C76.3459 55.8904 76.3678 55.9995 76.4102 56.1012C76.4527 56.2029 76.5149 56.2952 76.5932 56.3727C76.6716 56.4502 76.7645 56.5114 76.8666 56.5527C76.9688 56.5941 77.0781 56.6148 77.1883 56.6136ZM77.1883 61.5788H91.0193C91.1295 61.58 91.2388 61.5593 91.341 61.518C91.4431 61.4766 91.5361 61.4154 91.6144 61.3379C91.6928 61.2604 91.755 61.1682 91.7974 61.0665C91.8399 60.9648 91.8617 60.8557 91.8617 60.7455C91.8617 60.6353 91.8399 60.5261 91.7974 60.4244C91.755 60.3227 91.6928 60.2305 91.6144 60.153C91.5361 60.0755 91.4431 60.0143 91.341 59.9729C91.2388 59.9316 91.1295 59.9109 91.0193 59.9121H77.1883C77.0781 59.9109 76.9688 59.9316 76.8666 59.9729C76.7645 60.0143 76.6716 60.0755 76.5932 60.153C76.5149 60.2305 76.4527 60.3227 76.4102 60.4244C76.3678 60.5261 76.3459 60.6353 76.3459 60.7455C76.3459 60.8557 76.3678 60.9648 76.4102 61.0665C76.4527 61.1682 76.5149 61.2604 76.5932 61.3379C76.6716 61.4154 76.7645 61.4766 76.8666 61.518C76.9688 61.5593 77.0781 61.58 77.1883 61.5788ZM77.1883 66.5446H91.0193C91.2403 66.5446 91.4523 66.4568 91.6086 66.3005C91.7649 66.1442 91.8527 65.9323 91.8527 65.7112C91.8527 65.4902 91.7649 65.2782 91.6086 65.1219C91.4523 64.9656 91.2403 64.8778 91.0193 64.8778H77.1883C76.9673 64.8778 76.7553 64.9656 76.599 65.1219C76.4427 65.2782 76.3549 65.4902 76.3549 65.7112C76.3549 65.9323 76.4427 66.1442 76.599 66.3005C76.7553 66.4568 76.9673 66.5446 77.1883 66.5446ZM87.8402 37.9696V44.3354L94.2864 44.3412L87.8402 37.9696ZM55.9539 41.3856C56.7583 41.2024 57.579 41.0995 58.4039 41.0785C58.515 41.0758 58.6255 41.0954 58.7289 41.1361C58.8324 41.1767 58.9266 41.2376 59.0062 41.3152C59.0857 41.3928 59.149 41.4855 59.1922 41.5879C59.2354 41.6903 59.2578 41.8003 59.2579 41.9114V52.9283H70.2748C70.386 52.9285 70.4961 52.9509 70.5985 52.9942C70.7009 53.0375 70.7937 53.1008 70.8713 53.1805C70.949 53.2601 71.0099 53.3545 71.0506 53.458C71.0913 53.5615 71.1108 53.6721 71.1082 53.7833C71.0588 55.6175 70.6032 57.4179 69.7741 59.0548C68.945 60.6917 67.7631 62.1243 66.3136 63.2493C64.864 64.3743 63.183 65.1637 61.3916 65.5607C59.6001 65.9577 57.743 65.9523 55.9539 65.5449V85.929C55.9539 86.1223 56.0307 86.3076 56.1674 86.4444C56.304 86.5811 56.4893 86.658 56.6826 86.6582H94.7978C94.9907 86.6573 95.1755 86.5801 95.3117 86.4435C95.448 86.3069 95.5246 86.1219 95.5251 85.929V46.0089L87.0062 46.0011C86.7853 46.0008 86.5736 45.9129 86.4175 45.7567C86.2614 45.6004 86.1738 45.3885 86.1738 45.1677V36.6582H56.6826C56.4893 36.6585 56.3041 36.7354 56.1674 36.8721C56.0308 37.0088 55.954 37.1941 55.9539 37.3874V41.3856ZM51.14 61.0462C49.7088 59.6146 48.712 57.8072 48.2649 55.8329C47.8177 53.8587 47.9386 51.7981 48.6134 49.8896C49.2882 47.9811 50.4894 46.3026 52.0781 45.0482C53.6668 43.7937 55.5782 43.0145 57.5912 42.8008V53.7617C57.5911 53.8712 57.6127 53.9795 57.6545 54.0806C57.6964 54.1818 57.7578 54.2736 57.8352 54.351C57.9126 54.4284 58.0044 54.4898 58.1055 54.5316C58.2067 54.5735 58.315 54.595 58.4245 54.595H69.3859C69.1723 56.6081 68.3932 58.5197 67.1388 60.1086C65.8843 61.6975 64.2057 62.8988 62.297 63.5737C60.3884 64.2485 58.3277 64.3693 56.3533 63.922C54.3789 63.4747 52.5715 62.4777 51.14 61.0462ZM61.0808 38.4217C61.0808 38.2043 61.1657 37.9955 61.3175 37.8399C61.4692 37.6842 61.6757 37.594 61.893 37.5884C63.5733 37.545 65.2448 37.8439 66.8058 38.467C68.3669 39.0902 69.7848 40.0244 70.9733 41.213C72.1618 42.4015 73.0959 43.8195 73.719 45.3806C74.342 46.9417 74.6409 48.6132 74.5973 50.2935C74.5921 50.5107 74.5021 50.7172 74.3465 50.8689C74.191 51.0206 73.9823 51.1054 73.765 51.1052H61.9142C61.6933 51.1051 61.4814 51.0173 61.3252 50.8612C61.1689 50.705 61.081 50.4932 61.0808 50.2723V38.4217ZM62.7475 49.4387V39.2634C65.4032 39.3963 67.9149 40.511 69.795 42.3913C71.6751 44.2717 72.7896 46.7834 72.9222 49.4392L62.7475 49.4387ZM88.0259 68.8929C88.1255 69 88.1952 69.1314 88.2281 69.274C88.2609 69.4165 88.2558 69.5652 88.2131 69.7051L86.5601 75.1042C86.5178 75.2443 86.4391 75.3707 86.3321 75.4706C86.2251 75.5704 86.0935 75.6402 85.9508 75.6728C85.8892 75.6865 85.8263 75.6936 85.7631 75.6938C85.6488 75.6939 85.5358 75.6704 85.431 75.6248C85.3261 75.5792 85.2318 75.5126 85.1539 75.429L83.8423 74.0207L77.4443 80.352C77.2881 80.5062 77.0774 80.5926 76.8579 80.5926C76.6384 80.5926 76.4277 80.5062 76.2714 80.352L70.46 74.6011L64.6487 80.352C64.491 80.5046 64.2794 80.5888 64.06 80.5864C63.8405 80.584 63.6309 80.4951 63.4766 80.339C63.3222 80.1829 63.2357 79.9723 63.2358 79.7528C63.2358 79.5334 63.3224 79.3228 63.4768 79.1668L69.8744 72.8365C70.0305 72.6823 70.2411 72.5958 70.4606 72.5958C70.6801 72.5958 70.8907 72.6823 71.0468 72.8365L76.8574 78.5875L82.6692 72.8365C82.6815 72.8252 82.6943 72.8145 82.7065 72.8031L81.3037 71.298C81.204 71.191 81.1343 71.0596 81.1015 70.917C81.0687 70.7745 81.074 70.6258 81.1168 70.486C81.1596 70.3461 81.2385 70.22 81.3455 70.1203C81.4525 70.0205 81.5838 69.9507 81.7263 69.9178L87.2286 68.6491C87.3712 68.6162 87.5199 68.6214 87.6598 68.6643C87.7998 68.7072 87.9259 68.7861 88.0256 68.8933L88.0259 68.8929ZM86.1965 70.5969L85.3892 73.2365L83.5068 71.2175L86.1965 70.5969Z" stroke="#08E2F0" stroke-width="2" mask="url(#path-1-inside-1_236_188)"/>
</g>
<mask id="path-2-inside-2_236_188" fill="white">
<path fill-rule="evenodd" clip-rule="evenodd" d="M76.3549 50.8145C76.3549 50.705 76.3765 50.5966 76.4183 50.4955C76.4602 50.3944 76.5216 50.3025 76.599 50.2251C76.6764 50.1477 76.7683 50.0864 76.8694 50.0445C76.9705 50.0026 77.0789 49.9811 77.1883 49.9812H91.0193C91.1295 49.98 91.2388 50.0006 91.341 50.042C91.4431 50.0833 91.5361 50.1445 91.6144 50.222C91.6928 50.2995 91.755 50.3918 91.7974 50.4935C91.8399 50.5952 91.8617 50.7043 91.8617 50.8145C91.8617 50.9247 91.8399 51.0338 91.7974 51.1355C91.755 51.2372 91.6928 51.3295 91.6144 51.407C91.5361 51.4845 91.4431 51.5457 91.341 51.587C91.2388 51.6284 91.1295 51.649 91.0193 51.6479H77.1883C76.9673 51.6478 76.7554 51.56 76.5991 51.4037C76.4428 51.2474 76.355 51.0355 76.3549 50.8145ZM77.1883 56.6136H91.0193C91.1295 56.6148 91.2388 56.5941 91.341 56.5527C91.4431 56.5114 91.5361 56.4502 91.6144 56.3727C91.6928 56.2952 91.755 56.2029 91.7974 56.1012C91.8399 55.9995 91.8617 55.8904 91.8617 55.7802C91.8617 55.67 91.8399 55.5609 91.7974 55.4592C91.755 55.3575 91.6928 55.2652 91.6144 55.1877C91.5361 55.1102 91.4431 55.049 91.341 55.0077C91.2388 54.9664 91.1295 54.9457 91.0193 54.9469H77.1883C77.0781 54.9457 76.9688 54.9664 76.8666 55.0077C76.7645 55.049 76.6716 55.1102 76.5932 55.1877C76.5149 55.2652 76.4527 55.3575 76.4102 55.4592C76.3678 55.5609 76.3459 55.67 76.3459 55.7802C76.3459 55.8904 76.3678 55.9995 76.4102 56.1012C76.4527 56.2029 76.5149 56.2952 76.5932 56.3727C76.6716 56.4502 76.7645 56.5114 76.8666 56.5527C76.9688 56.5941 77.0781 56.6148 77.1883 56.6136ZM77.1883 61.5788H91.0193C91.1295 61.58 91.2388 61.5593 91.341 61.518C91.4431 61.4766 91.5361 61.4154 91.6144 61.3379C91.6928 61.2604 91.755 61.1682 91.7974 61.0665C91.8399 60.9648 91.8617 60.8557 91.8617 60.7455C91.8617 60.6353 91.8399 60.5261 91.7974 60.4244C91.755 60.3227 91.6928 60.2305 91.6144 60.153C91.5361 60.0755 91.4431 60.0143 91.341 59.9729C91.2388 59.9316 91.1295 59.9109 91.0193 59.9121H77.1883C77.0781 59.9109 76.9688 59.9316 76.8666 59.9729C76.7645 60.0143 76.6716 60.0755 76.5932 60.153C76.5149 60.2305 76.4527 60.3227 76.4102 60.4244C76.3678 60.5261 76.3459 60.6353 76.3459 60.7455C76.3459 60.8557 76.3678 60.9648 76.4102 61.0665C76.4527 61.1682 76.5149 61.2604 76.5932 61.3379C76.6716 61.4154 76.7645 61.4766 76.8666 61.518C76.9688 61.5593 77.0781 61.58 77.1883 61.5788ZM77.1883 66.5446H91.0193C91.2403 66.5446 91.4523 66.4568 91.6086 66.3005C91.7649 66.1442 91.8527 65.9323 91.8527 65.7112C91.8527 65.4902 91.7649 65.2782 91.6086 65.1219C91.4523 64.9656 91.2403 64.8778 91.0193 64.8778H77.1883C76.9673 64.8778 76.7553 64.9656 76.599 65.1219C76.4427 65.2782 76.3549 65.4902 76.3549 65.7112C76.3549 65.9323 76.4427 66.1442 76.599 66.3005C76.7553 66.4568 76.9673 66.5446 77.1883 66.5446ZM87.8402 37.9696V44.3354L94.2864 44.3412L87.8402 37.9696ZM55.9539 41.3856C56.7583 41.2024 57.579 41.0995 58.4039 41.0785C58.515 41.0758 58.6255 41.0954 58.7289 41.1361C58.8324 41.1767 58.9266 41.2376 59.0062 41.3152C59.0857 41.3928 59.149 41.4855 59.1922 41.5879C59.2354 41.6903 59.2578 41.8003 59.2579 41.9114V52.9283H70.2748C70.386 52.9285 70.4961 52.9509 70.5985 52.9942C70.7009 53.0375 70.7937 53.1008 70.8713 53.1805C70.949 53.2601 71.0099 53.3545 71.0506 53.458C71.0913 53.5615 71.1108 53.6721 71.1082 53.7833C71.0588 55.6175 70.6032 57.4179 69.7741 59.0548C68.945 60.6917 67.7631 62.1243 66.3136 63.2493C64.864 64.3743 63.183 65.1637 61.3916 65.5607C59.6001 65.9577 57.743 65.9523 55.9539 65.5449V85.929C55.9539 86.1223 56.0307 86.3076 56.1674 86.4444C56.304 86.5811 56.4893 86.658 56.6826 86.6582H94.7978C94.9907 86.6573 95.1755 86.5801 95.3117 86.4435C95.448 86.3069 95.5246 86.1219 95.5251 85.929V46.0089L87.0062 46.0011C86.7853 46.0008 86.5736 45.9129 86.4175 45.7567C86.2614 45.6004 86.1738 45.3885 86.1738 45.1677V36.6582H56.6826C56.4893 36.6585 56.3041 36.7354 56.1674 36.8721C56.0308 37.0088 55.954 37.1941 55.9539 37.3874V41.3856ZM51.14 61.0462C49.7088 59.6146 48.712 57.8072 48.2649 55.8329C47.8177 53.8587 47.9386 51.7981 48.6134 49.8896C49.2882 47.9811 50.4894 46.3026 52.0781 45.0482C53.6668 43.7937 55.5782 43.0145 57.5912 42.8008V53.7617C57.5911 53.8712 57.6127 53.9795 57.6545 54.0806C57.6964 54.1818 57.7578 54.2736 57.8352 54.351C57.9126 54.4284 58.0044 54.4898 58.1055 54.5316C58.2067 54.5735 58.315 54.595 58.4245 54.595H69.3859C69.1723 56.6081 68.3932 58.5197 67.1388 60.1086C65.8843 61.6975 64.2057 62.8988 62.297 63.5737C60.3884 64.2485 58.3277 64.3693 56.3533 63.922C54.3789 63.4747 52.5715 62.4777 51.14 61.0462ZM61.0808 38.4217C61.0808 38.2043 61.1657 37.9955 61.3175 37.8399C61.4692 37.6842 61.6757 37.594 61.893 37.5884C63.5733 37.545 65.2448 37.8439 66.8058 38.467C68.3669 39.0902 69.7848 40.0244 70.9733 41.213C72.1618 42.4015 73.0959 43.8195 73.719 45.3806C74.342 46.9417 74.6409 48.6132 74.5973 50.2935C74.5921 50.5107 74.5021 50.7172 74.3465 50.8689C74.191 51.0206 73.9823 51.1054 73.765 51.1052H61.9142C61.6933 51.1051 61.4814 51.0173 61.3252 50.8612C61.1689 50.705 61.081 50.4932 61.0808 50.2723V38.4217ZM62.7475 49.4387V39.2634C65.4032 39.3963 67.9149 40.511 69.795 42.3913C71.6751 44.2717 72.7896 46.7834 72.9222 49.4392L62.7475 49.4387ZM88.0259 68.8929C88.1255 69 88.1952 69.1314 88.2281 69.274C88.2609 69.4165 88.2558 69.5652 88.2131 69.7051L86.5601 75.1042C86.5178 75.2443 86.4391 75.3707 86.3321 75.4706C86.2251 75.5704 86.0935 75.6402 85.9508 75.6728C85.8892 75.6865 85.8263 75.6936 85.7631 75.6938C85.6488 75.6939 85.5358 75.6704 85.431 75.6248C85.3261 75.5792 85.2318 75.5126 85.1539 75.429L83.8423 74.0207L77.4443 80.352C77.2881 80.5062 77.0774 80.5926 76.8579 80.5926C76.6384 80.5926 76.4277 80.5062 76.2714 80.352L70.46 74.6011L64.6487 80.352C64.491 80.5046 64.2794 80.5888 64.06 80.5864C63.8405 80.584 63.6309 80.4951 63.4766 80.339C63.3222 80.1829 63.2357 79.9723 63.2358 79.7528C63.2358 79.5334 63.3224 79.3228 63.4768 79.1668L69.8744 72.8365C70.0305 72.6823 70.2411 72.5958 70.4606 72.5958C70.6801 72.5958 70.8907 72.6823 71.0468 72.8365L76.8574 78.5875L82.6692 72.8365C82.6815 72.8252 82.6943 72.8145 82.7065 72.8031L81.3037 71.298C81.204 71.191 81.1343 71.0596 81.1015 70.917C81.0687 70.7745 81.074 70.6258 81.1168 70.486C81.1596 70.3461 81.2385 70.22 81.3455 70.1203C81.4525 70.0205 81.5838 69.9507 81.7263 69.9178L87.2286 68.6491C87.3712 68.6162 87.5199 68.6214 87.6598 68.6643C87.7998 68.7072 87.9259 68.7861 88.0256 68.8933L88.0259 68.8929ZM86.1965 70.5969L85.3892 73.2365L83.5068 71.2175L86.1965 70.5969Z"/>
</mask>
<path fill-rule="evenodd" clip-rule="evenodd" d="M76.3549 50.8145C76.3549 50.705 76.3765 50.5966 76.4183 50.4955C76.4602 50.3944 76.5216 50.3025 76.599 50.2251C76.6764 50.1477 76.7683 50.0864 76.8694 50.0445C76.9705 50.0026 77.0789 49.9811 77.1883 49.9812H91.0193C91.1295 49.98 91.2388 50.0006 91.341 50.042C91.4431 50.0833 91.5361 50.1445 91.6144 50.222C91.6928 50.2995 91.755 50.3918 91.7974 50.4935C91.8399 50.5952 91.8617 50.7043 91.8617 50.8145C91.8617 50.9247 91.8399 51.0338 91.7974 51.1355C91.755 51.2372 91.6928 51.3295 91.6144 51.407C91.5361 51.4845 91.4431 51.5457 91.341 51.587C91.2388 51.6284 91.1295 51.649 91.0193 51.6479H77.1883C76.9673 51.6478 76.7554 51.56 76.5991 51.4037C76.4428 51.2474 76.355 51.0355 76.3549 50.8145ZM77.1883 56.6136H91.0193C91.1295 56.6148 91.2388 56.5941 91.341 56.5527C91.4431 56.5114 91.5361 56.4502 91.6144 56.3727C91.6928 56.2952 91.755 56.2029 91.7974 56.1012C91.8399 55.9995 91.8617 55.8904 91.8617 55.7802C91.8617 55.67 91.8399 55.5609 91.7974 55.4592C91.755 55.3575 91.6928 55.2652 91.6144 55.1877C91.5361 55.1102 91.4431 55.049 91.341 55.0077C91.2388 54.9664 91.1295 54.9457 91.0193 54.9469H77.1883C77.0781 54.9457 76.9688 54.9664 76.8666 55.0077C76.7645 55.049 76.6716 55.1102 76.5932 55.1877C76.5149 55.2652 76.4527 55.3575 76.4102 55.4592C76.3678 55.5609 76.3459 55.67 76.3459 55.7802C76.3459 55.8904 76.3678 55.9995 76.4102 56.1012C76.4527 56.2029 76.5149 56.2952 76.5932 56.3727C76.6716 56.4502 76.7645 56.5114 76.8666 56.5527C76.9688 56.5941 77.0781 56.6148 77.1883 56.6136ZM77.1883 61.5788H91.0193C91.1295 61.58 91.2388 61.5593 91.341 61.518C91.4431 61.4766 91.5361 61.4154 91.6144 61.3379C91.6928 61.2604 91.755 61.1682 91.7974 61.0665C91.8399 60.9648 91.8617 60.8557 91.8617 60.7455C91.8617 60.6353 91.8399 60.5261 91.7974 60.4244C91.755 60.3227 91.6928 60.2305 91.6144 60.153C91.5361 60.0755 91.4431 60.0143 91.341 59.9729C91.2388 59.9316 91.1295 59.9109 91.0193 59.9121H77.1883C77.0781 59.9109 76.9688 59.9316 76.8666 59.9729C76.7645 60.0143 76.6716 60.0755 76.5932 60.153C76.5149 60.2305 76.4527 60.3227 76.4102 60.4244C76.3678 60.5261 76.3459 60.6353 76.3459 60.7455C76.3459 60.8557 76.3678 60.9648 76.4102 61.0665C76.4527 61.1682 76.5149 61.2604 76.5932 61.3379C76.6716 61.4154 76.7645 61.4766 76.8666 61.518C76.9688 61.5593 77.0781 61.58 77.1883 61.5788ZM77.1883 66.5446H91.0193C91.2403 66.5446 91.4523 66.4568 91.6086 66.3005C91.7649 66.1442 91.8527 65.9323 91.8527 65.7112C91.8527 65.4902 91.7649 65.2782 91.6086 65.1219C91.4523 64.9656 91.2403 64.8778 91.0193 64.8778H77.1883C76.9673 64.8778 76.7553 64.9656 76.599 65.1219C76.4427 65.2782 76.3549 65.4902 76.3549 65.7112C76.3549 65.9323 76.4427 66.1442 76.599 66.3005C76.7553 66.4568 76.9673 66.5446 77.1883 66.5446ZM87.8402 37.9696V44.3354L94.2864 44.3412L87.8402 37.9696ZM55.9539 41.3856C56.7583 41.2024 57.579 41.0995 58.4039 41.0785C58.515 41.0758 58.6255 41.0954 58.7289 41.1361C58.8324 41.1767 58.9266 41.2376 59.0062 41.3152C59.0857 41.3928 59.149 41.4855 59.1922 41.5879C59.2354 41.6903 59.2578 41.8003 59.2579 41.9114V52.9283H70.2748C70.386 52.9285 70.4961 52.9509 70.5985 52.9942C70.7009 53.0375 70.7937 53.1008 70.8713 53.1805C70.949 53.2601 71.0099 53.3545 71.0506 53.458C71.0913 53.5615 71.1108 53.6721 71.1082 53.7833C71.0588 55.6175 70.6032 57.4179 69.7741 59.0548C68.945 60.6917 67.7631 62.1243 66.3136 63.2493C64.864 64.3743 63.183 65.1637 61.3916 65.5607C59.6001 65.9577 57.743 65.9523 55.9539 65.5449V85.929C55.9539 86.1223 56.0307 86.3076 56.1674 86.4444C56.304 86.5811 56.4893 86.658 56.6826 86.6582H94.7978C94.9907 86.6573 95.1755 86.5801 95.3117 86.4435C95.448 86.3069 95.5246 86.1219 95.5251 85.929V46.0089L87.0062 46.0011C86.7853 46.0008 86.5736 45.9129 86.4175 45.7567C86.2614 45.6004 86.1738 45.3885 86.1738 45.1677V36.6582H56.6826C56.4893 36.6585 56.3041 36.7354 56.1674 36.8721C56.0308 37.0088 55.954 37.1941 55.9539 37.3874V41.3856ZM51.14 61.0462C49.7088 59.6146 48.712 57.8072 48.2649 55.8329C47.8177 53.8587 47.9386 51.7981 48.6134 49.8896C49.2882 47.9811 50.4894 46.3026 52.0781 45.0482C53.6668 43.7937 55.5782 43.0145 57.5912 42.8008V53.7617C57.5911 53.8712 57.6127 53.9795 57.6545 54.0806C57.6964 54.1818 57.7578 54.2736 57.8352 54.351C57.9126 54.4284 58.0044 54.4898 58.1055 54.5316C58.2067 54.5735 58.315 54.595 58.4245 54.595H69.3859C69.1723 56.6081 68.3932 58.5197 67.1388 60.1086C65.8843 61.6975 64.2057 62.8988 62.297 63.5737C60.3884 64.2485 58.3277 64.3693 56.3533 63.922C54.3789 63.4747 52.5715 62.4777 51.14 61.0462ZM61.0808 38.4217C61.0808 38.2043 61.1657 37.9955 61.3175 37.8399C61.4692 37.6842 61.6757 37.594 61.893 37.5884C63.5733 37.545 65.2448 37.8439 66.8058 38.467C68.3669 39.0902 69.7848 40.0244 70.9733 41.213C72.1618 42.4015 73.0959 43.8195 73.719 45.3806C74.342 46.9417 74.6409 48.6132 74.5973 50.2935C74.5921 50.5107 74.5021 50.7172 74.3465 50.8689C74.191 51.0206 73.9823 51.1054 73.765 51.1052H61.9142C61.6933 51.1051 61.4814 51.0173 61.3252 50.8612C61.1689 50.705 61.081 50.4932 61.0808 50.2723V38.4217ZM62.7475 49.4387V39.2634C65.4032 39.3963 67.9149 40.511 69.795 42.3913C71.6751 44.2717 72.7896 46.7834 72.9222 49.4392L62.7475 49.4387ZM88.0259 68.8929C88.1255 69 88.1952 69.1314 88.2281 69.274C88.2609 69.4165 88.2558 69.5652 88.2131 69.7051L86.5601 75.1042C86.5178 75.2443 86.4391 75.3707 86.3321 75.4706C86.2251 75.5704 86.0935 75.6402 85.9508 75.6728C85.8892 75.6865 85.8263 75.6936 85.7631 75.6938C85.6488 75.6939 85.5358 75.6704 85.431 75.6248C85.3261 75.5792 85.2318 75.5126 85.1539 75.429L83.8423 74.0207L77.4443 80.352C77.2881 80.5062 77.0774 80.5926 76.8579 80.5926C76.6384 80.5926 76.4277 80.5062 76.2714 80.352L70.46 74.6011L64.6487 80.352C64.491 80.5046 64.2794 80.5888 64.06 80.5864C63.8405 80.584 63.6309 80.4951 63.4766 80.339C63.3222 80.1829 63.2357 79.9723 63.2358 79.7528C63.2358 79.5334 63.3224 79.3228 63.4768 79.1668L69.8744 72.8365C70.0305 72.6823 70.2411 72.5958 70.4606 72.5958C70.6801 72.5958 70.8907 72.6823 71.0468 72.8365L76.8574 78.5875L82.6692 72.8365C82.6815 72.8252 82.6943 72.8145 82.7065 72.8031L81.3037 71.298C81.204 71.191 81.1343 71.0596 81.1015 70.917C81.0687 70.7745 81.074 70.6258 81.1168 70.486C81.1596 70.3461 81.2385 70.22 81.3455 70.1203C81.4525 70.0205 81.5838 69.9507 81.7263 69.9178L87.2286 68.6491C87.3712 68.6162 87.5199 68.6214 87.6598 68.6643C87.7998 68.7072 87.9259 68.7861 88.0256 68.8933L88.0259 68.8929ZM86.1965 70.5969L85.3892 73.2365L83.5068 71.2175L86.1965 70.5969Z" stroke="#CFFF04" stroke-width="1.2" mask="url(#path-2-inside-2_236_188)"/>
<g filter="url(#filter1_f_236_188)">
<path d="M137.092 73.0295H136.018V72.3789H137.092V73.0295ZM133.825 73.0295H132.751V72.3789H133.825V73.0295ZM130.558 73.0295H129.485V72.3789H130.558V73.0295ZM127.276 73.0295H126.203V72.3789H127.276V73.0295ZM124.01 73.0295H122.936V72.3789H124.01V73.0295ZM120.728 73.0295H119.654V72.3789H120.728V73.0295ZM117.461 73.0295H116.388V72.3789H117.461V73.0295ZM114.195 73.0295H113.121V72.3789H114.195V73.0295ZM110.928 73.0295H109.854V72.3789H110.928V73.0295ZM107.661 73.0295H106.588V72.3789H107.661V73.0295ZM104.379 73.0295H103.306V72.3789H104.379V73.0295ZM101.113 73.0295H100.039V72.3789H101.113V73.0295Z" fill="#08E2F0"/>
<path d="M44.0374 73.0295H42.9637V72.3789H44.0374V73.0295ZM40.7707 73.0295H39.697V72.3789H40.7707V73.0295ZM37.489 73.0295H36.4152V72.3789H37.489V73.0295ZM34.2223 73.0295H33.1485V72.3789H34.2223V73.0295ZM30.9405 73.0295H29.8667V72.3789H30.9405V73.0295ZM27.6738 73.0295H26.6V72.3789H27.6738V73.0295ZM24.4071 73.0295H23.3334V72.3789H24.4071V73.0295ZM21.1405 73.0295H20.0667V72.3789H21.1405V73.0295ZM17.8738 73.0295H16.8V72.3789H17.8738V73.0295ZM14.6071 73.0295H13.5333V72.3789H14.6071V73.0295ZM11.3404 73.0295H10.2667V72.3789H11.3404V73.0295ZM8.07376 73.0295H7V72.3789H8.07376V73.0295Z" fill="#08E2F0"/>
<path d="M72.3713 7.57224V8.64746H71.7207V7.57224H72.3713ZM72.3713 10.8432V11.9184H71.7207V10.8432H72.3713ZM72.3713 14.1142V15.1894H71.7207V14.1142H72.3713ZM72.3713 17.4004V18.4756H71.7207V17.4004H72.3713ZM72.3713 20.6714V21.7465H71.7207V20.6714H72.3713ZM72.3713 23.9575V25.0327H71.7207V23.9575H72.3713ZM72.3713 27.2285V28.3037H71.7207V27.2285H72.3713ZM72.3713 30.4995V31.5747H71.7207V30.4995H72.3713ZM72.3713 33.7705V34.8457H71.7207V33.7705H72.3713ZM72.3713 37.0415V38.1167H71.7207V37.0415H72.3713ZM72.3713 40.3276V41.4029H71.7207V40.3276H72.3713ZM72.3713 43.5986V44.6738H71.7207V43.5986H72.3713Z" fill="#08E2F0"/>
<path d="M72.3713 100.75V101.825H71.7207V100.75H72.3713ZM72.3713 104.021V105.096H71.7207V104.021H72.3713ZM72.3713 107.307V108.382H71.7207V107.307H72.3713ZM72.3713 110.578V111.653H71.7207V110.578H72.3713ZM72.3713 113.864V114.939H71.7207V113.864H72.3713ZM72.3713 117.135V118.21H71.7207V117.135H72.3713ZM72.3713 120.406V121.481H71.7207V120.406H72.3713ZM72.3713 123.677V124.752H71.7207V123.677H72.3713ZM72.3713 126.948V128.023H71.7207V126.948H72.3713ZM72.3713 130.219V131.294H71.7207V130.219H72.3713ZM72.3713 133.49V134.565H71.7207V133.49H72.3713ZM72.3713 136.761V137.836H71.7207V136.761H72.3713Z" fill="#08E2F0"/>
</g>
<path d="M137.092 73.0295H136.018V72.3789H137.092V73.0295ZM133.825 73.0295H132.751V72.3789H133.825V73.0295ZM130.558 73.0295H129.485V72.3789H130.558V73.0295ZM127.276 73.0295H126.203V72.3789H127.276V73.0295ZM124.01 73.0295H122.936V72.3789H124.01V73.0295ZM120.728 73.0295H119.654V72.3789H120.728V73.0295ZM117.461 73.0295H116.388V72.3789H117.461V73.0295ZM114.195 73.0295H113.121V72.3789H114.195V73.0295ZM110.928 73.0295H109.854V72.3789H110.928V73.0295ZM107.661 73.0295H106.588V72.3789H107.661V73.0295ZM104.379 73.0295H103.306V72.3789H104.379V73.0295ZM101.113 73.0295H100.039V72.3789H101.113V73.0295Z" fill="#08E2F0"/>
<path d="M44.0374 73.0295H42.9637V72.3789H44.0374V73.0295ZM40.7707 73.0295H39.697V72.3789H40.7707V73.0295ZM37.489 73.0295H36.4152V72.3789H37.489V73.0295ZM34.2223 73.0295H33.1485V72.3789H34.2223V73.0295ZM30.9405 73.0295H29.8667V72.3789H30.9405V73.0295ZM27.6738 73.0295H26.6V72.3789H27.6738V73.0295ZM24.4071 73.0295H23.3334V72.3789H24.4071V73.0295ZM21.1405 73.0295H20.0667V72.3789H21.1405V73.0295ZM17.8738 73.0295H16.8V72.3789H17.8738V73.0295ZM14.6071 73.0295H13.5333V72.3789H14.6071V73.0295ZM11.3404 73.0295H10.2667V72.3789H11.3404V73.0295ZM8.07376 73.0295H7V72.3789H8.07376V73.0295Z" fill="#08E2F0"/>
<path d="M72.3713 7.57224V8.64746H71.7207V7.57224H72.3713ZM72.3713 10.8432V11.9184H71.7207V10.8432H72.3713ZM72.3713 14.1142V15.1894H71.7207V14.1142H72.3713ZM72.3713 17.4004V18.4756H71.7207V17.4004H72.3713ZM72.3713 20.6714V21.7465H71.7207V20.6714H72.3713ZM72.3713 23.9575V25.0327H71.7207V23.9575H72.3713ZM72.3713 27.2285V28.3037H71.7207V27.2285H72.3713ZM72.3713 30.4995V31.5747H71.7207V30.4995H72.3713ZM72.3713 33.7705V34.8457H71.7207V33.7705H72.3713ZM72.3713 37.0415V38.1167H71.7207V37.0415H72.3713ZM72.3713 40.3276V41.4029H71.7207V40.3276H72.3713ZM72.3713 43.5986V44.6738H71.7207V43.5986H72.3713Z" fill="#08E2F0"/>
<path d="M72.3713 100.75V101.825H71.7207V100.75H72.3713ZM72.3713 104.021V105.096H71.7207V104.021H72.3713ZM72.3713 107.307V108.382H71.7207V107.307H72.3713ZM72.3713 110.578V111.653H71.7207V110.578H72.3713ZM72.3713 113.864V114.939H71.7207V113.864H72.3713ZM72.3713 117.135V118.21H71.7207V117.135H72.3713ZM72.3713 120.406V121.481H71.7207V120.406H72.3713ZM72.3713 123.677V124.752H71.7207V123.677H72.3713ZM72.3713 126.948V128.023H71.7207V126.948H72.3713ZM72.3713 130.219V131.294H71.7207V130.219H72.3713ZM72.3713 133.49V134.565H71.7207V133.49H72.3713ZM72.3713 136.761V137.836H71.7207V136.761H72.3713Z" fill="#08E2F0"/>
<g filter="url(#filter2_f_236_188)">
<path d="M73.9817 73.0598H70.1252C69.9437 73.0598 69.8076 72.9083 69.8076 72.7416C69.8076 72.575 69.9588 72.4235 70.1252 72.4235H73.9817C74.1632 72.4235 74.2993 72.575 74.2993 72.7416C74.2993 72.9083 74.148 73.0598 73.9817 73.0598Z" fill="#08E2F0"/>
<path d="M72.0456 74.9841C71.8641 74.9841 71.728 74.8326 71.728 74.666V70.8025C71.728 70.6207 71.8792 70.4844 72.0456 70.4844C72.212 70.4844 72.3632 70.6359 72.3632 70.8025V74.666C72.3632 74.8478 72.212 74.9841 72.0456 74.9841Z" fill="#08E2F0"/>
</g>
<path d="M73.9817 73.0598H70.1252C69.9437 73.0598 69.8076 72.9083 69.8076 72.7416C69.8076 72.575 69.9588 72.4235 70.1252 72.4235H73.9817C74.1632 72.4235 74.2993 72.575 74.2993 72.7416C74.2993 72.9083 74.148 73.0598 73.9817 73.0598Z" fill="#08E2F0"/>
<path d="M72.0456 74.9841C71.8641 74.9841 71.728 74.8326 71.728 74.666V70.8025C71.728 70.6207 71.8792 70.4844 72.0456 70.4844C72.212 70.4844 72.3632 70.6359 72.3632 70.8025V74.666C72.3632 74.8478 72.212 74.9841 72.0456 74.9841Z" fill="#08E2F0"/>
<g filter="url(#filter3_f_236_188)">
<path d="M7.60087 22.5926H5V5.57031H21.981V8.19349H7.60087V22.5926Z" fill="#08E2F0"/>
<path d="M140 22.5926H137.38V8.19349H123V5.57031H140V22.5926Z" fill="#08E2F0"/>
<path d="M140 140.768H123V138.145H137.38V123.746H140V140.768Z" fill="#08E2F0"/>
<path d="M21.981 140.768H5V123.746H7.60087V138.145H21.981V140.768Z" fill="#08E2F0"/>
</g>
<path d="M7.60087 22.5926H5V5.57031H21.981V8.19349H7.60087V22.5926Z" fill="#08E2F0"/>
<path d="M140 22.5926H137.38V8.19349H123V5.57031H140V22.5926Z" fill="#08E2F0"/>
<path d="M140 140.768H123V138.145H137.38V123.746H140V140.768Z" fill="#08E2F0"/>
<path d="M21.981 140.768H5V123.746H7.60087V138.145H21.981V140.768Z" fill="#08E2F0"/>
<rect opacity="0.07" x="20" y="8.6582" width="104.192" height="105" rx="52.0962" fill="#08E2F0"/>
<defs>
<filter id="filter0_f_236_188" x="46" y="34.6582" width="51.5254" height="54" filterUnits="userSpaceOnUse" color-interpolation-filters="sRGB">
<feFlood flood-opacity="0" result="BackgroundImageFix"/>
<feBlend mode="normal" in="SourceGraphic" in2="BackgroundImageFix" result="shape"/>
<feGaussianBlur stdDeviation="1" result="effect1_foregroundBlur_236_188"/>
</filter>
<filter id="filter1_f_236_188" x="2" y="2.57227" width="140.092" height="140.264" filterUnits="userSpaceOnUse" color-interpolation-filters="sRGB">
<feFlood flood-opacity="0" result="BackgroundImageFix"/>
<feBlend mode="normal" in="SourceGraphic" in2="BackgroundImageFix" result="shape"/>
<feGaussianBlur stdDeviation="2.5" result="effect1_foregroundBlur_236_188"/>
</filter>
<filter id="filter2_f_236_188" x="67.8076" y="68.4844" width="8.49121" height="8.5" filterUnits="userSpaceOnUse" color-interpolation-filters="sRGB">
<feFlood flood-opacity="0" result="BackgroundImageFix"/>
<feBlend mode="normal" in="SourceGraphic" in2="BackgroundImageFix" result="shape"/>
<feGaussianBlur stdDeviation="1" result="effect1_foregroundBlur_236_188"/>
</filter>
<filter id="filter3_f_236_188" x="0" y="0.570312" width="145" height="145.197" filterUnits="userSpaceOnUse" color-interpolation-filters="sRGB">
<feFlood flood-opacity="0" result="BackgroundImageFix"/>
<feBlend mode="normal" in="SourceGraphic" in2="BackgroundImageFix" result="shape"/>
<feGaussianBlur stdDeviation="2.5" result="effect1_foregroundBlur_236_188"/>
</filter>
</defs>
</svg>
