<svg width="141" height="141" viewBox="0 0 141 141" fill="none" xmlns="http://www.w3.org/2000/svg">
<g filter="url(#filter0_f_236_227)">
<path d="M68.7149 84.154C55.6351 84.154 45 73.5049 45 60.4078C45 47.3107 55.6351 36.6615 68.7149 36.6615C71.9193 36.6615 75.0269 37.2838 77.9412 38.5285C78.0932 38.5977 78.2451 38.6668 78.3832 38.736L78.6318 38.8604C78.8666 38.9711 78.9771 39.2615 78.8666 39.4967L77.2783 42.9265C77.1678 43.1616 76.8777 43.2723 76.6429 43.1616L76.3943 43.0372C76.2976 42.9818 76.1871 42.9403 76.0905 42.885C73.7563 41.8892 71.2701 41.3914 68.7011 41.3914C58.2317 41.3914 49.7237 49.9245 49.7237 60.3939C49.7237 60.6567 49.5027 60.878 49.2402 60.878C48.9778 60.878 48.7568 60.6567 48.7568 60.3939C48.7568 49.3852 57.7069 40.4232 68.7011 40.4232C71.3944 40.4232 74.0049 40.9488 76.4634 41.9861C76.5186 42.0137 76.5739 42.0275 76.6153 42.0552L77.8031 39.4967C77.7202 39.4552 77.6512 39.4275 77.5683 39.386C74.7645 38.1966 71.7812 37.5881 68.7011 37.5881C56.1462 37.5881 45.9392 47.8085 45.9392 60.3801C45.9392 72.9516 56.1462 83.1721 68.7011 83.1721C81.2561 83.1721 91.463 72.9516 91.463 60.3801C91.463 57.0747 90.7586 53.8661 89.3637 50.8373C89.2532 50.6022 89.3636 50.3118 89.5984 50.2011C89.8332 50.0905 90.1233 50.2011 90.2338 50.4362C91.684 53.5895 92.4299 56.9364 92.4299 60.3801C92.4299 73.4772 81.7947 84.1264 68.7149 84.1264V84.154ZM68.7149 80.3784C68.4525 80.3784 68.2315 80.1572 68.2315 79.8944C68.2315 79.6316 68.4525 79.4103 68.7149 79.4103C79.1843 79.4103 87.6924 70.8772 87.6924 60.4078C87.6924 57.6417 87.0985 54.9725 85.9383 52.4416C85.8278 52.2065 85.9383 51.9161 86.1731 51.8054C86.4079 51.6948 86.698 51.8054 86.8085 52.0405C88.0377 54.6821 88.6454 57.5034 88.6454 60.4078C88.6454 71.4165 79.6953 80.3784 68.7011 80.3784H68.7149ZM68.7149 74.7081C60.8422 74.7081 54.4473 68.2909 54.4473 60.4216C54.4473 52.5522 60.856 46.1212 68.7149 46.1212C70.7867 46.1212 72.7894 46.5638 74.6954 47.449C74.9302 47.5596 75.0408 47.85 74.9303 48.0851L73.3419 51.5288C73.2867 51.6395 73.19 51.7363 73.0657 51.7778C72.9414 51.8192 72.8171 51.8193 72.6928 51.764C71.4083 51.1693 70.0685 50.865 68.7149 50.865C68.4525 50.865 68.2315 50.6437 68.2315 50.3809C68.2315 50.1182 68.4525 49.8969 68.7149 49.8969C70.0547 49.8969 71.3806 50.1596 72.6651 50.699L73.8529 48.1266C72.2093 47.4351 70.4829 47.0755 68.7149 47.0755C61.367 47.0755 55.4003 53.064 55.4003 60.4078C55.4003 67.7516 61.3809 73.74 68.7149 73.74C76.049 73.74 82.0295 67.7516 82.0295 60.4078C82.0295 58.4854 81.6152 56.6045 80.7865 54.8342C80.676 54.5991 80.7865 54.3087 81.0213 54.198C81.2561 54.0874 81.5461 54.198 81.6566 54.4332C82.5406 56.3417 82.9825 58.3471 82.9825 60.4216C82.9825 68.3047 76.5739 74.7081 68.7149 74.7081ZM68.7149 65.193C66.0769 65.193 63.9361 63.0493 63.9361 60.4078C63.9361 57.7662 66.0769 55.6225 68.7149 55.6225C71.353 55.6225 73.4938 57.7662 73.4938 60.4078C73.4938 63.0493 71.353 65.193 68.7149 65.193ZM68.7149 56.5906C66.6155 56.5906 64.9029 58.3056 64.9029 60.4078C64.9029 62.5099 66.6155 64.2248 68.7149 64.2248C70.8143 64.2248 72.527 62.5099 72.527 60.4078C72.527 58.3056 70.8143 56.5906 68.7149 56.5906ZM75.4413 54.1704C75.317 54.1704 75.1927 54.115 75.096 54.0321C74.9441 53.8799 74.9165 53.6448 75.0131 53.4512L78.6457 47.0755C78.7147 46.9511 78.8528 46.8543 78.9909 46.8404C79.1429 46.8404 79.2948 46.8681 79.3915 46.9787L80.1235 47.7117L84.1428 43.2031L84.6676 39.9392C84.6814 39.8424 84.7367 39.7456 84.8057 39.6764L90.2476 34.2273C90.3995 34.0752 90.6205 34.0476 90.8 34.1444C90.9796 34.2412 91.0901 34.4486 91.0625 34.6423L90.4133 38.7083L94.474 38.0583C94.6812 38.0306 94.8884 38.1275 94.9713 38.3211C95.0679 38.5009 95.0265 38.736 94.8884 38.8743L89.4465 44.3233C89.3775 44.3925 89.2808 44.4478 89.1841 44.4617L85.9245 44.9872L81.4218 49.0117L82.1539 49.7447C82.2644 49.8554 82.3058 49.9937 82.292 50.1458C82.2781 50.2979 82.1815 50.4224 82.0572 50.4916L75.6899 54.1289C75.6208 54.1704 75.538 54.198 75.4551 54.198L75.4413 54.1704ZM79.1843 48.0989L76.7258 52.414L81.0351 49.9522L80.386 49.3022C80.2893 49.2054 80.2478 49.0809 80.2478 48.9564C80.2478 48.9288 80.2478 48.9011 80.2478 48.8735C80.2202 48.8735 80.1926 48.8735 80.1511 48.8735C80.0268 48.8735 79.9025 48.8181 79.8058 48.7352L79.1567 48.0851L79.1843 48.0989ZM85.6068 40.2296L85.082 43.4935C85.0682 43.5903 85.0267 43.6733 84.9715 43.7287L81.4356 47.6841L85.3996 44.1435C85.3996 44.1435 85.5516 44.0468 85.6483 44.0329L88.894 43.5074L93.1757 39.22L89.9161 39.7456C89.7642 39.7732 89.6122 39.7179 89.5017 39.6073C89.3912 39.4966 89.336 39.3445 89.3637 39.1924L89.8885 35.9285L85.6068 40.2158V40.2296Z" fill="#08E2F0"/>
</g>
<path d="M68.7149 84.154C55.6351 84.154 45 73.5049 45 60.4078C45 47.3107 55.6351 36.6615 68.7149 36.6615C71.9193 36.6615 75.0269 37.2838 77.9412 38.5285C78.0932 38.5977 78.2451 38.6668 78.3832 38.736L78.6318 38.8604C78.8666 38.9711 78.9771 39.2615 78.8666 39.4967L77.2783 42.9265C77.1678 43.1616 76.8777 43.2723 76.6429 43.1616L76.3943 43.0372C76.2976 42.9818 76.1871 42.9403 76.0905 42.885C73.7563 41.8892 71.2701 41.3914 68.7011 41.3914C58.2317 41.3914 49.7237 49.9245 49.7237 60.3939C49.7237 60.6567 49.5027 60.878 49.2402 60.878C48.9778 60.878 48.7568 60.6567 48.7568 60.3939C48.7568 49.3852 57.7069 40.4232 68.7011 40.4232C71.3944 40.4232 74.0049 40.9488 76.4634 41.9861C76.5186 42.0137 76.5739 42.0275 76.6153 42.0552L77.8031 39.4967C77.7202 39.4552 77.6512 39.4275 77.5683 39.386C74.7645 38.1966 71.7812 37.5881 68.7011 37.5881C56.1462 37.5881 45.9392 47.8085 45.9392 60.3801C45.9392 72.9516 56.1462 83.1721 68.7011 83.1721C81.2561 83.1721 91.463 72.9516 91.463 60.3801C91.463 57.0747 90.7586 53.8661 89.3637 50.8373C89.2532 50.6022 89.3636 50.3118 89.5984 50.2011C89.8332 50.0905 90.1233 50.2011 90.2338 50.4362C91.684 53.5895 92.4299 56.9364 92.4299 60.3801C92.4299 73.4772 81.7947 84.1264 68.7149 84.1264V84.154ZM68.7149 80.3784C68.4525 80.3784 68.2315 80.1572 68.2315 79.8944C68.2315 79.6316 68.4525 79.4103 68.7149 79.4103C79.1843 79.4103 87.6924 70.8772 87.6924 60.4078C87.6924 57.6417 87.0985 54.9725 85.9383 52.4416C85.8278 52.2065 85.9383 51.9161 86.1731 51.8054C86.4079 51.6948 86.698 51.8054 86.8085 52.0405C88.0377 54.6821 88.6454 57.5034 88.6454 60.4078C88.6454 71.4165 79.6953 80.3784 68.7011 80.3784H68.7149ZM68.7149 74.7081C60.8422 74.7081 54.4473 68.2909 54.4473 60.4216C54.4473 52.5522 60.856 46.1212 68.7149 46.1212C70.7867 46.1212 72.7894 46.5638 74.6954 47.449C74.9302 47.5596 75.0408 47.85 74.9303 48.0851L73.3419 51.5288C73.2867 51.6395 73.19 51.7363 73.0657 51.7778C72.9414 51.8192 72.8171 51.8193 72.6928 51.764C71.4083 51.1693 70.0685 50.865 68.7149 50.865C68.4525 50.865 68.2315 50.6437 68.2315 50.3809C68.2315 50.1182 68.4525 49.8969 68.7149 49.8969C70.0547 49.8969 71.3806 50.1596 72.6651 50.699L73.8529 48.1266C72.2093 47.4351 70.4829 47.0755 68.7149 47.0755C61.367 47.0755 55.4003 53.064 55.4003 60.4078C55.4003 67.7516 61.3809 73.74 68.7149 73.74C76.049 73.74 82.0295 67.7516 82.0295 60.4078C82.0295 58.4854 81.6152 56.6045 80.7865 54.8342C80.676 54.5991 80.7865 54.3087 81.0213 54.198C81.2561 54.0874 81.5461 54.198 81.6566 54.4332C82.5406 56.3417 82.9825 58.3471 82.9825 60.4216C82.9825 68.3047 76.5739 74.7081 68.7149 74.7081ZM68.7149 65.193C66.0769 65.193 63.9361 63.0493 63.9361 60.4078C63.9361 57.7662 66.0769 55.6225 68.7149 55.6225C71.353 55.6225 73.4938 57.7662 73.4938 60.4078C73.4938 63.0493 71.353 65.193 68.7149 65.193ZM68.7149 56.5906C66.6155 56.5906 64.9029 58.3056 64.9029 60.4078C64.9029 62.5099 66.6155 64.2248 68.7149 64.2248C70.8143 64.2248 72.527 62.5099 72.527 60.4078C72.527 58.3056 70.8143 56.5906 68.7149 56.5906ZM75.4413 54.1704C75.317 54.1704 75.1927 54.115 75.096 54.0321C74.9441 53.8799 74.9165 53.6448 75.0131 53.4512L78.6457 47.0755C78.7147 46.9511 78.8528 46.8543 78.9909 46.8404C79.1429 46.8404 79.2948 46.8681 79.3915 46.9787L80.1235 47.7117L84.1428 43.2031L84.6676 39.9392C84.6814 39.8424 84.7367 39.7456 84.8057 39.6764L90.2476 34.2273C90.3995 34.0752 90.6205 34.0476 90.8 34.1444C90.9796 34.2412 91.0901 34.4486 91.0625 34.6423L90.4133 38.7083L94.474 38.0583C94.6812 38.0306 94.8884 38.1275 94.9713 38.3211C95.0679 38.5009 95.0265 38.736 94.8884 38.8743L89.4465 44.3233C89.3775 44.3925 89.2808 44.4478 89.1841 44.4617L85.9245 44.9872L81.4218 49.0117L82.1539 49.7447C82.2644 49.8554 82.3058 49.9937 82.292 50.1458C82.2781 50.2979 82.1815 50.4224 82.0572 50.4916L75.6899 54.1289C75.6208 54.1704 75.538 54.198 75.4551 54.198L75.4413 54.1704ZM79.1843 48.0989L76.7258 52.414L81.0351 49.9522L80.386 49.3022C80.2893 49.2054 80.2478 49.0809 80.2478 48.9564C80.2478 48.9288 80.2478 48.9011 80.2478 48.8735C80.2202 48.8735 80.1926 48.8735 80.1511 48.8735C80.0268 48.8735 79.9025 48.8181 79.8058 48.7352L79.1567 48.0851L79.1843 48.0989ZM85.6068 40.2296L85.082 43.4935C85.0682 43.5903 85.0267 43.6733 84.9715 43.7287L81.4356 47.6841L85.3996 44.1435C85.3996 44.1435 85.5516 44.0468 85.6483 44.0329L88.894 43.5074L93.1757 39.22L89.9161 39.7456C89.7642 39.7732 89.6122 39.7179 89.5017 39.6073C89.3912 39.4966 89.336 39.3445 89.3637 39.1924L89.8885 35.9285L85.6068 40.2158V40.2296Z" fill="#CFFF04"/>
<path d="M5.60087 20.5926H3V3.57031H19.981V6.19349H5.60087V20.5926Z" fill="#08E2F0"/>
<path d="M138 20.5926H135.38V6.19349H121V3.57031H138V20.5926Z" fill="#08E2F0"/>
<path d="M138 138.768H121V136.145H135.38V121.746H138V138.768Z" fill="#08E2F0"/>
<path d="M19.981 138.768H3V121.746H5.60087V136.145H19.981V138.768Z" fill="#08E2F0"/>
<path d="M5.60087 20.5926H3V3.57031H19.981V6.19349H5.60087V20.5926Z" fill="#08E2F0"/>
<path d="M138 20.5926H135.38V6.19349H121V3.57031H138V20.5926Z" fill="#08E2F0"/>
<path d="M138 138.768H121V136.145H135.38V121.746H138V138.768Z" fill="#08E2F0"/>
<path d="M19.981 138.768H3V121.746H5.60087V136.145H19.981V138.768Z" fill="#08E2F0"/>
<g filter="url(#filter1_f_236_227)">
<path d="M135.092 71.0295H134.018V70.3789H135.092V71.0295ZM131.825 71.0295H130.751V70.3789H131.825V71.0295ZM128.558 71.0295H127.485V70.3789H128.558V71.0295ZM125.276 71.0295H124.203V70.3789H125.276V71.0295ZM122.01 71.0295H120.936V70.3789H122.01V71.0295ZM118.728 71.0295H117.654V70.3789H118.728V71.0295ZM115.461 71.0295H114.388V70.3789H115.461V71.0295ZM112.195 71.0295H111.121V70.3789H112.195V71.0295ZM108.928 71.0295H107.854V70.3789H108.928V71.0295ZM105.661 71.0295H104.588V70.3789H105.661V71.0295ZM102.379 71.0295H101.306V70.3789H102.379V71.0295ZM99.1129 71.0295H98.0391V70.3789H99.1129V71.0295Z" fill="#08E2F0"/>
<path d="M42.0374 71.0295H40.9637V70.3789H42.0374V71.0295ZM38.7707 71.0295H37.697V70.3789H38.7707V71.0295ZM35.489 71.0295H34.4152V70.3789H35.489V71.0295ZM32.2223 71.0295H31.1485V70.3789H32.2223V71.0295ZM28.9405 71.0295H27.8667V70.3789H28.9405V71.0295ZM25.6738 71.0295H24.6V70.3789H25.6738V71.0295ZM22.4071 71.0295H21.3334V70.3789H22.4071V71.0295ZM19.1405 71.0295H18.0667V70.3789H19.1405V71.0295ZM15.8738 71.0295H14.8V70.3789H15.8738V71.0295ZM12.6071 71.0295H11.5333V70.3789H12.6071V71.0295ZM9.34044 71.0295H8.26668V70.3789H9.34044V71.0295ZM6.07376 71.0295H5V70.3789H6.07376V71.0295Z" fill="#08E2F0"/>
<path d="M70.3713 5.57224V6.64746H69.7207V5.57224H70.3713ZM70.3713 8.8432V9.91842H69.7207V8.8432H70.3713ZM70.3713 12.1142V13.1894H69.7207V12.1142H70.3713ZM70.3713 15.4004V16.4756H69.7207V15.4004H70.3713ZM70.3713 18.6714V19.7465H69.7207V18.6714H70.3713ZM70.3713 21.9575V23.0327H69.7207V21.9575H70.3713ZM70.3713 25.2285V26.3037H69.7207V25.2285H70.3713ZM70.3713 28.4995V29.5747H69.7207V28.4995H70.3713ZM70.3713 31.7705V32.8457H69.7207V31.7705H70.3713ZM70.3713 35.0415V36.1167H69.7207V35.0415H70.3713ZM70.3713 38.3276V39.4029H69.7207V38.3276H70.3713ZM70.3713 41.5986V42.6738H69.7207V41.5986H70.3713Z" fill="#08E2F0"/>
<path d="M70.3713 98.7495V99.8247H69.7207V98.7495H70.3713ZM70.3713 102.021V103.096H69.7207V102.021H70.3713ZM70.3713 105.307V106.382H69.7207V105.307H70.3713ZM70.3713 108.578V109.653H69.7207V108.578H70.3713ZM70.3713 111.864V112.939H69.7207V111.864H70.3713ZM70.3713 115.135V116.21H69.7207V115.135H70.3713ZM70.3713 118.406V119.481H69.7207V118.406H70.3713ZM70.3713 121.677V122.752H69.7207V121.677H70.3713ZM70.3713 124.948V126.023H69.7207V124.948H70.3713ZM70.3713 128.219V129.294H69.7207V128.219H70.3713ZM70.3713 131.49V132.565H69.7207V131.49H70.3713ZM70.3713 134.761V135.836H69.7207V134.761H70.3713Z" fill="#08E2F0"/>
</g>
<path d="M135.092 71.0295H134.018V70.3789H135.092V71.0295ZM131.825 71.0295H130.751V70.3789H131.825V71.0295ZM128.558 71.0295H127.485V70.3789H128.558V71.0295ZM125.276 71.0295H124.203V70.3789H125.276V71.0295ZM122.01 71.0295H120.936V70.3789H122.01V71.0295ZM118.728 71.0295H117.654V70.3789H118.728V71.0295ZM115.461 71.0295H114.388V70.3789H115.461V71.0295ZM112.195 71.0295H111.121V70.3789H112.195V71.0295ZM108.928 71.0295H107.854V70.3789H108.928V71.0295ZM105.661 71.0295H104.588V70.3789H105.661V71.0295ZM102.379 71.0295H101.306V70.3789H102.379V71.0295ZM99.1129 71.0295H98.0391V70.3789H99.1129V71.0295Z" fill="#08E2F0"/>
<path d="M42.0374 71.0295H40.9637V70.3789H42.0374V71.0295ZM38.7707 71.0295H37.697V70.3789H38.7707V71.0295ZM35.489 71.0295H34.4152V70.3789H35.489V71.0295ZM32.2223 71.0295H31.1485V70.3789H32.2223V71.0295ZM28.9405 71.0295H27.8667V70.3789H28.9405V71.0295ZM25.6738 71.0295H24.6V70.3789H25.6738V71.0295ZM22.4071 71.0295H21.3334V70.3789H22.4071V71.0295ZM19.1405 71.0295H18.0667V70.3789H19.1405V71.0295ZM15.8738 71.0295H14.8V70.3789H15.8738V71.0295ZM12.6071 71.0295H11.5333V70.3789H12.6071V71.0295ZM9.34044 71.0295H8.26668V70.3789H9.34044V71.0295ZM6.07376 71.0295H5V70.3789H6.07376V71.0295Z" fill="#08E2F0"/>
<path d="M70.3713 5.57224V6.64746H69.7207V5.57224H70.3713ZM70.3713 8.8432V9.91842H69.7207V8.8432H70.3713ZM70.3713 12.1142V13.1894H69.7207V12.1142H70.3713ZM70.3713 15.4004V16.4756H69.7207V15.4004H70.3713ZM70.3713 18.6714V19.7465H69.7207V18.6714H70.3713ZM70.3713 21.9575V23.0327H69.7207V21.9575H70.3713ZM70.3713 25.2285V26.3037H69.7207V25.2285H70.3713ZM70.3713 28.4995V29.5747H69.7207V28.4995H70.3713ZM70.3713 31.7705V32.8457H69.7207V31.7705H70.3713ZM70.3713 35.0415V36.1167H69.7207V35.0415H70.3713ZM70.3713 38.3276V39.4029H69.7207V38.3276H70.3713ZM70.3713 41.5986V42.6738H69.7207V41.5986H70.3713Z" fill="#08E2F0"/>
<path d="M70.3713 98.7495V99.8247H69.7207V98.7495H70.3713ZM70.3713 102.021V103.096H69.7207V102.021H70.3713ZM70.3713 105.307V106.382H69.7207V105.307H70.3713ZM70.3713 108.578V109.653H69.7207V108.578H70.3713ZM70.3713 111.864V112.939H69.7207V111.864H70.3713ZM70.3713 115.135V116.21H69.7207V115.135H70.3713ZM70.3713 118.406V119.481H69.7207V118.406H70.3713ZM70.3713 121.677V122.752H69.7207V121.677H70.3713ZM70.3713 124.948V126.023H69.7207V124.948H70.3713ZM70.3713 128.219V129.294H69.7207V128.219H70.3713ZM70.3713 131.49V132.565H69.7207V131.49H70.3713ZM70.3713 134.761V135.836H69.7207V134.761H70.3713Z" fill="#08E2F0"/>
<g filter="url(#filter2_f_236_227)">
<path d="M71.9817 71.0598H68.1252C67.9437 71.0598 67.8076 70.9083 67.8076 70.7416C67.8076 70.575 67.9588 70.4235 68.1252 70.4235H71.9817C72.1632 70.4235 72.2993 70.575 72.2993 70.7416C72.2993 70.9083 72.148 71.0598 71.9817 71.0598Z" fill="#08E2F0"/>
<path d="M70.0456 72.9841C69.8641 72.9841 69.728 72.8326 69.728 72.666V68.8025C69.728 68.6207 69.8792 68.4844 70.0456 68.4844C70.212 68.4844 70.3632 68.6359 70.3632 68.8025V72.666C70.3632 72.8478 70.212 72.9841 70.0456 72.9841Z" fill="#08E2F0"/>
</g>
<path d="M71.9817 71.0598H68.1252C67.9437 71.0598 67.8076 70.9083 67.8076 70.7416C67.8076 70.575 67.9588 70.4235 68.1252 70.4235H71.9817C72.1632 70.4235 72.2993 70.575 72.2993 70.7416C72.2993 70.9083 72.148 71.0598 71.9817 71.0598Z" fill="#08E2F0"/>
<path d="M70.0456 72.9841C69.8641 72.9841 69.728 72.8326 69.728 72.666V68.8025C69.728 68.6207 69.8792 68.4844 70.0456 68.4844C70.212 68.4844 70.3632 68.6359 70.3632 68.8025V72.666C70.3632 72.8478 70.212 72.9841 70.0456 72.9841Z" fill="#08E2F0"/>
<rect opacity="0.07" x="18" y="7.08789" width="105" height="105" rx="52.5" fill="#08E2F0"/>
<defs>
<filter id="filter0_f_236_227" x="43" y="32.0879" width="54.0244" height="54.0664" filterUnits="userSpaceOnUse" color-interpolation-filters="sRGB">
<feFlood flood-opacity="0" result="BackgroundImageFix"/>
<feBlend mode="normal" in="SourceGraphic" in2="BackgroundImageFix" result="shape"/>
<feGaussianBlur stdDeviation="1" result="effect1_foregroundBlur_236_227"/>
</filter>
<filter id="filter1_f_236_227" x="0" y="0.572266" width="140.092" height="140.264" filterUnits="userSpaceOnUse" color-interpolation-filters="sRGB">
<feFlood flood-opacity="0" result="BackgroundImageFix"/>
<feBlend mode="normal" in="SourceGraphic" in2="BackgroundImageFix" result="shape"/>
<feGaussianBlur stdDeviation="2.5" result="effect1_foregroundBlur_236_227"/>
</filter>
<filter id="filter2_f_236_227" x="65.8076" y="66.4844" width="8.49121" height="8.5" filterUnits="userSpaceOnUse" color-interpolation-filters="sRGB">
<feFlood flood-opacity="0" result="BackgroundImageFix"/>
<feBlend mode="normal" in="SourceGraphic" in2="BackgroundImageFix" result="shape"/>
<feGaussianBlur stdDeviation="1" result="effect1_foregroundBlur_236_227"/>
</filter>
</defs>
</svg>
