<svg width="141" height="142" viewBox="0 0 141 142" fill="none" xmlns="http://www.w3.org/2000/svg">
<g filter="url(#filter0_f_236_265)">
<path d="M78.9782 60.0012L79.0387 59.5049L78.1449 59.3959L78.5249 60.2122L78.9782 60.0012ZM81.1779 64.7258L80.7246 64.9368L80.7246 64.9368L81.1779 64.7258ZM81.6243 64.7461L82.0566 64.9973L82.0566 64.9973L81.6243 64.7461ZM83.5727 61.3931L83.6587 60.9006L83.3154 60.8406L83.1404 61.1419L83.5727 61.3931ZM87.3928 62.0606L87.3067 62.5531L87.3069 62.5532L87.3928 62.0606ZM87.6647 61.7059L88.118 61.495L88.118 61.4949L87.6647 61.7059ZM84.9256 55.8226L85.3788 55.6115L85.1528 55.1261L84.684 55.3848L84.9256 55.8226ZM84.5969 56.1386L85.0154 56.4122L85.0154 56.4122L84.5969 56.1386ZM83.431 57.9213L83.8495 58.195L83.8495 58.1949L83.431 57.9213ZM59.6293 66.9168L59.3787 66.4842L59.3787 66.4842L59.6293 66.9168ZM65.2491 65.7741L65.0948 66.2497L65.0948 66.2497L65.2491 65.7741ZM74.7488 68.6937L74.903 68.2181L74.8709 68.2076L74.8376 68.2016L74.7488 68.6937ZM76.595 71.8916L76.112 71.7622L76.112 71.7622L76.595 71.8916ZM74.0838 73.6545L74.2119 73.1711L74.2119 73.1711L74.0838 73.6545ZM67.9715 72.0348L68.0995 71.5515L68.0987 71.5513L67.9715 72.0348ZM67.506 73.8038L67.6341 73.3204L67.6333 73.3202L67.506 73.8038ZM73.6184 75.4234L73.7464 74.9401L73.7464 74.9401L73.6184 75.4234ZM77.4294 73.8164L77.2923 73.3355L77.0927 73.3924L76.9921 73.574L77.4294 73.8164ZM78.8026 73.2268L79.0541 73.6589L79.0542 73.6589L78.8026 73.2268ZM88.0419 67.8454L87.7902 67.4134L87.7902 67.4134L88.0419 67.8454ZM93.8908 71.5678L93.6286 71.142L93.6286 71.142L93.8908 71.5678ZM77.1238 81.8922L77.3859 82.318L77.386 82.318L77.1238 81.8922ZM72.1449 82.5943L72.2744 82.1113L72.2743 82.1113L72.1449 82.5943ZM59.9833 79.3355L60.1127 78.8525L59.9127 78.7989L59.7333 78.9025L59.9833 79.3355ZM59.0061 79.8996L58.571 80.1459L58.8194 80.5847L59.2561 80.3326L59.0061 79.8996ZM53.6268 70.3946L53.3761 69.9619L52.9478 70.2101L53.1916 70.6408L53.6268 70.3946ZM51.1355 69.715L50.7004 69.9612L50.7004 69.9612L51.1355 69.715ZM49.2817 69.2012L49.5279 69.6363L49.528 69.6363L49.2817 69.2012ZM46.6893 70.6683L46.9356 71.1035L46.9356 71.1035L46.6893 70.6683ZM46.1754 72.5221L46.6106 72.2759L46.6106 72.2759L46.1754 72.5221ZM53.7967 85.9884L54.2319 85.7422L54.2319 85.7422L53.7967 85.9884ZM55.6506 86.5022L55.4043 86.0671L55.4042 86.0671L55.6506 86.5022ZM58.2429 85.0351L57.9966 84.6L57.9966 84.6L58.2429 85.0351ZM58.7568 83.1813L58.3216 83.4275L58.3217 83.4275L58.7568 83.1813ZM49.5034 73.2959L49.4311 72.8012L49.431 72.8012L49.5034 73.2959ZM48.4537 72.514L48.9484 72.4417L48.9484 72.4416L48.4537 72.514ZM77.5472 32.2509L77.8468 31.8507L77.8468 31.8507L77.5472 32.2509ZM79.2524 33.5274L79.5521 33.1271L79.552 33.1271L79.2524 33.5274ZM80.7914 34.0875L80.8191 33.5882L80.8191 33.5882L80.7914 34.0875ZM82.9182 34.2057L82.9459 33.7065H82.9459L82.9182 34.2057ZM85.5168 36.3862L85.03 36.5003L85.03 36.5003L85.5168 36.3862ZM86.0026 38.4602L85.5158 38.5742L85.5158 38.5743L86.0026 38.4602ZM86.8214 39.8785L87.1636 39.5139L87.1636 39.5139L86.8214 39.8785ZM88.3746 41.3362L88.0325 41.7008L88.0325 41.7008L88.3746 41.3362ZM88.9637 44.677L89.4099 44.9026L89.4099 44.9026L88.9637 44.677ZM88.0028 46.5781L88.449 46.8037L88.449 46.8036L88.0028 46.5781ZM87.7184 48.1908L87.2219 48.2502L87.2219 48.2502L87.7184 48.1908ZM87.9712 50.3059L87.4747 50.3653L87.4747 50.3653L87.9712 50.3059ZM86.275 53.2437L86.4718 53.7034L86.4718 53.7034L86.275 53.2437ZM84.3169 54.0823L84.1201 53.6226L84.12 53.6227L84.3169 54.0823ZM83.0623 55.1349L82.6439 54.8613L82.6439 54.8613L83.0623 55.1349ZM81.8964 56.9176L81.478 56.644L81.478 56.644L81.8964 56.9176ZM78.7087 58.0779L78.5641 58.5565L78.5641 58.5565L78.7087 58.0779ZM76.6697 57.4617L76.5251 57.9403L76.5251 57.9403L76.6697 57.4617ZM75.032 57.4617L75.1766 57.9403L75.1766 57.9403L75.032 57.4617ZM72.993 58.0779L73.1376 58.5565L73.1376 58.5565L72.993 58.0779ZM69.8053 56.9176L70.2237 56.644L70.2237 56.644L69.8053 56.9176ZM68.6394 55.1349L69.0578 54.8613L69.0578 54.8613L68.6394 55.1349ZM67.3848 54.0823L67.5817 53.6226L67.5816 53.6226L67.3848 54.0823ZM65.4267 53.2437L65.2298 53.7034L65.2299 53.7034L65.4267 53.2437ZM63.7305 50.3059L64.227 50.3653V50.3653L63.7305 50.3059ZM63.9833 48.1908L63.4868 48.1314L63.4868 48.1315L63.9833 48.1908ZM63.6989 46.5781L63.2527 46.8037L63.2527 46.8037L63.6989 46.5781ZM62.7379 44.677L62.2916 44.9026L62.2916 44.9026L62.7379 44.677ZM63.3269 41.3362L62.9848 40.9717L62.9848 40.9717L63.3269 41.3362ZM64.8801 39.8785L64.538 39.5139L64.5379 39.5139L64.8801 39.8785ZM65.6989 38.4602L66.1857 38.5743L66.1858 38.5742L65.6989 38.4602ZM66.1848 36.3862L65.6979 36.2722V36.2722L66.1848 36.3862ZM68.7834 34.2057L68.7556 33.7065H68.7556L68.7834 34.2057ZM70.9102 34.0875L70.8824 33.5882L70.8824 33.5882L70.9102 34.0875ZM72.4492 33.5274L72.7487 33.9277L72.7488 33.9277L72.4492 33.5274ZM74.1545 32.2509L73.855 31.8506L73.8549 31.8507L74.1545 32.2509ZM72.7239 60.0011L73.1772 60.2121L73.5573 59.3958L72.6634 59.5047L72.7239 60.0011ZM68.2711 57.921L67.8526 58.1947L67.8527 58.1947L68.2711 57.921ZM67.1052 56.1383L66.6867 56.412L66.6868 56.412L67.1052 56.1383ZM66.7766 55.8223L67.018 55.3845L66.5492 55.126L66.3233 55.6113L66.7766 55.8223ZM64.0374 61.7057L64.4906 61.9168L64.4906 61.9168L64.0374 61.7057ZM64.3093 62.0604L64.3951 62.5529L64.3953 62.5529L64.3093 62.0604ZM68.1295 61.3929L68.5618 61.1417L68.3867 60.8404L68.0434 60.9004L68.1295 61.3929ZM70.0778 64.7458L69.6455 64.9971L69.6456 64.9971L70.0778 64.7458ZM70.5243 64.7256L70.9774 64.9368L70.9775 64.9366L70.5243 64.7256ZM72.1 43.629C71.9168 43.4223 71.6008 43.4033 71.3942 43.5864C71.1875 43.7696 71.1685 44.0856 71.3516 44.2923L72.1 43.629ZM74.9919 47.6455L74.6178 47.9771C74.7127 48.0842 74.8489 48.1455 74.9919 48.1455C75.135 48.1455 75.2712 48.0842 75.3661 47.9771L74.9919 47.6455ZM80.0839 42.6545C80.267 42.4479 80.248 42.1319 80.0413 41.9487C79.8347 41.7656 79.5187 41.7846 79.3355 41.9912L80.0839 42.6545ZM78.5249 60.2122L80.7246 64.9368L81.6312 64.5148L79.4315 59.7901L78.5249 60.2122ZM80.7246 64.9368C80.9812 65.488 81.7511 65.5228 82.0566 64.9973L81.192 64.4948C81.2926 64.3218 81.5467 64.3333 81.6312 64.5147L80.7246 64.9368ZM82.0566 64.9973L84.005 61.6443L83.1404 61.1419L81.192 64.4949L82.0566 64.9973ZM83.4866 61.8857L87.3067 62.5531L87.4788 61.568L83.6587 60.9006L83.4866 61.8857ZM87.3069 62.5532C87.9054 62.6575 88.3748 62.0469 88.118 61.495L87.2113 61.9169C87.1269 61.7354 87.2823 61.5338 87.4786 61.568L87.3069 62.5532ZM88.118 61.4949L85.3788 55.6115L84.4723 56.0336L87.2114 61.917L88.118 61.4949ZM84.684 55.3848C84.4637 55.5063 84.3115 55.6615 84.1785 55.8649L85.0154 56.4122C85.0747 56.3216 85.1129 56.2903 85.1671 56.2603L84.684 55.3848ZM84.1785 55.8649L83.0126 57.6476L83.8495 58.1949L85.0154 56.4122L84.1785 55.8649ZM83.0126 57.6476C82.1284 58.9993 80.5917 59.6942 79.0387 59.5049L78.9177 60.4975C80.8465 60.7326 82.7556 59.8673 83.8495 58.195L83.0126 57.6476ZM59.88 67.3495C61.6643 66.3158 63.33 65.6772 65.0948 66.2497L65.4034 65.2985C63.2036 64.5849 61.2015 65.4282 59.3787 66.4842L59.88 67.3495ZM65.0948 66.2497C67.2431 66.9464 70.936 68.5141 74.6601 69.1858L74.8376 68.2016C71.2003 67.5457 67.6755 66.0353 65.4033 65.2985L65.0948 66.2497ZM74.5947 69.1693C75.7397 69.5405 76.4065 70.6635 76.112 71.7622L77.078 72.021C77.5269 70.3457 76.4903 68.7326 74.903 68.2181L74.5947 69.1693ZM76.112 71.7622C75.9912 72.2133 75.7186 72.6364 75.369 72.9075C75.0274 73.1724 74.6307 73.2821 74.2119 73.1711L73.9557 74.1378C74.7267 74.3421 75.4387 74.1189 75.9818 73.6977C76.5169 73.2827 76.905 72.6666 77.078 72.021L76.112 71.7622ZM74.2119 73.1711L68.0995 71.5515L67.8434 72.5182L73.9557 74.1378L74.2119 73.1711ZM68.0987 71.5513C67.3431 71.3524 66.5696 71.8039 66.3707 72.5593L67.3378 72.8138C67.3961 72.5923 67.6229 72.4601 67.8442 72.5184L68.0987 71.5513ZM66.3707 72.5593C66.1719 73.3149 66.6233 74.0885 67.3788 74.2873L67.6333 73.3202C67.4118 73.2619 67.2796 73.0352 67.3378 72.8138L66.3707 72.5593ZM67.378 74.2871L73.4903 75.9067L73.7464 74.9401L67.6341 73.3204L67.378 74.2871ZM73.4903 75.9067C75.2681 76.3778 76.9757 75.6661 77.8667 74.0588L76.9921 73.574C76.3268 74.7741 75.0887 75.2958 73.7464 74.9401L73.4903 75.9067ZM77.5665 74.2972C78.0751 74.1522 78.5703 73.9407 79.0541 73.6589L78.551 72.7947C78.1363 73.0362 77.7178 73.2142 77.2923 73.3355L77.5665 74.2972ZM79.0542 73.6589L88.2935 68.2775L87.7902 67.4134L78.5509 72.7948L79.0542 73.6589ZM88.2935 68.2775C90.0441 67.2579 91.3615 66.9219 92.3037 66.9553C93.2255 66.9881 93.8048 67.3723 94.1415 67.8678C94.49 68.3804 94.6079 69.0573 94.5011 69.6951C94.3938 70.336 94.0729 70.8685 93.6286 71.142L94.1529 71.9936C94.9026 71.532 95.3453 70.7087 95.4874 69.8603C95.63 69.0087 95.4831 68.0626 94.9686 67.3056C94.4423 66.5314 93.5605 65.9993 92.3392 65.956C91.1383 65.9133 89.6306 66.3415 87.7902 67.4134L88.2935 68.2775ZM93.6286 71.142L76.8616 81.4664L77.386 82.318L94.1529 71.9935L93.6286 71.142ZM76.8617 81.4664C75.4412 82.3409 73.896 82.546 72.2744 82.1113L72.0155 83.0772C73.8925 83.5803 75.7223 83.3422 77.3859 82.318L76.8617 81.4664ZM72.2743 82.1113L60.1127 78.8525L59.8539 79.8185L72.0155 83.0772L72.2743 82.1113ZM59.7333 78.9025L58.7561 79.4666L59.2561 80.3326L60.2333 79.7685L59.7333 78.9025ZM59.4413 79.6533L54.0619 70.1483L53.1916 70.6408L58.571 80.1459L59.4413 79.6533ZM53.8774 70.8272L59.88 67.3495L59.3787 66.4842L53.3761 69.9619L53.8774 70.8272ZM51.5707 69.4687C51.0662 68.5772 49.9268 68.2614 49.0353 68.7661L49.528 69.6363C49.9387 69.4038 50.4679 69.5504 50.7004 69.9612L51.5707 69.4687ZM49.0354 68.766L46.4431 70.2332L46.9356 71.1035L49.5279 69.6363L49.0354 68.766ZM46.4431 70.2332C45.5516 70.7377 45.2358 71.877 45.7403 72.7684L46.6106 72.2759C46.3781 71.8651 46.5247 71.336 46.9356 71.1035L46.4431 70.2332ZM45.7403 72.7684L53.3616 86.2347L54.2319 85.7422L46.6106 72.2759L45.7403 72.7684ZM53.3616 86.2347C53.8661 87.1262 55.0055 87.442 55.8969 86.9373L55.4042 86.0671C54.9935 86.2996 54.4644 86.153 54.2319 85.7422L53.3616 86.2347ZM55.8968 86.9374L58.4892 85.4703L57.9966 84.6L55.4043 86.0671L55.8968 86.9374ZM58.4891 85.4703C59.3806 84.9658 59.6965 83.8264 59.1919 82.935L58.3217 83.4275C58.5541 83.8383 58.4075 84.3675 57.9966 84.6L58.4891 85.4703ZM59.1919 82.935L51.5707 69.4687L50.7004 69.9612L58.3216 83.4275L59.1919 82.935ZM49.308 71.959C49.5405 71.925 49.7566 72.086 49.7906 72.3185L50.78 72.1739C50.6662 71.3949 49.9423 70.8556 49.1632 70.9696L49.308 71.959ZM49.7906 72.3185C49.8245 72.5512 49.6635 72.7672 49.4311 72.8012L49.5757 73.7907C50.3548 73.6768 50.8939 72.9529 50.78 72.1739L49.7906 72.3185ZM49.431 72.8012C49.1985 72.8352 48.9824 72.6743 48.9484 72.4417L47.9589 72.5863C48.0728 73.3653 48.7967 73.9047 49.5758 73.7907L49.431 72.8012ZM48.9484 72.4416C48.9144 72.2093 49.0753 71.9931 49.308 71.959L49.1632 70.9696C48.3844 71.0836 47.8449 71.8072 47.959 72.5864L48.9484 72.4416ZM75.851 37.1997C71.5757 37.1997 68.1102 40.6652 68.1102 44.9406H69.1102C69.1102 41.2175 72.128 38.1997 75.851 38.1997V37.1997ZM68.1102 44.9406C68.1102 49.2159 71.5757 52.6814 75.851 52.6814V51.6814C72.128 51.6814 69.1102 48.6636 69.1102 44.9406H68.1102ZM75.851 52.6814C80.1263 52.6814 83.5919 49.2159 83.5919 44.9406H82.5919C82.5919 48.6636 79.5741 51.6814 75.851 51.6814V52.6814ZM83.5919 44.9406C83.5919 40.6652 80.1263 37.1997 75.851 37.1997V38.1997C79.5741 38.1997 82.5919 41.2175 82.5919 44.9406H83.5919ZM77.2476 32.6512L78.9528 33.9277L79.552 33.1271L77.8468 31.8507L77.2476 32.6512ZM78.9528 33.9277C79.4981 34.3359 80.0837 34.5489 80.7636 34.5867L80.8191 33.5882C80.3359 33.5614 79.9395 33.4172 79.5521 33.1271L78.9528 33.9277ZM80.7636 34.5867L82.8904 34.705L82.9459 33.7065L80.8191 33.5882L80.7636 34.5867ZM82.8904 34.705C83.9424 34.7635 84.7898 35.4745 85.03 36.5003L86.0036 36.2722C85.6622 34.8143 84.4409 33.7896 82.9459 33.7065L82.8904 34.705ZM85.03 36.5003L85.5158 38.5742L86.4895 38.3462L86.0036 36.2722L85.03 36.5003ZM85.5158 38.5743C85.6712 39.2373 85.9826 39.777 86.4793 40.2431L87.1636 39.5139C86.8108 39.1828 86.5999 38.8175 86.4894 38.3461L85.5158 38.5743ZM86.4793 40.2431L88.0325 41.7008L88.7168 40.9717L87.1636 39.5139L86.4793 40.2431ZM88.0325 41.7008C88.8006 42.4218 88.9927 43.5112 88.5175 44.4515L89.4099 44.9026C90.0853 43.5663 89.8086 41.9963 88.7168 40.9717L88.0325 41.7008ZM88.5175 44.4515L87.5566 46.3525L88.449 46.8036L89.4099 44.9026L88.5175 44.4515ZM87.5566 46.3525C87.2492 46.9604 87.1412 47.574 87.2219 48.2502L88.2149 48.1315C88.1575 47.6509 88.2307 47.2355 88.449 46.8037L87.5566 46.3525ZM87.2219 48.2502L87.4747 50.3653L88.4676 50.2466L88.2149 48.1315L87.2219 48.2502ZM87.4747 50.3653C87.5997 51.4113 87.0466 52.3694 86.0782 52.7841L86.4718 53.7034C87.8482 53.1139 88.6453 51.7333 88.4676 50.2466L87.4747 50.3653ZM86.0782 52.7841L84.1201 53.6226L84.5137 54.5419L86.4718 53.7034L86.0782 52.7841ZM84.12 53.6227C83.494 53.8908 83.0167 54.2912 82.6439 54.8613L83.4808 55.4086C83.7457 55.0036 84.0688 54.7325 84.5138 54.5419L84.12 53.6227ZM82.6439 54.8613L81.478 56.644L82.3149 57.1913L83.4808 55.4086L82.6439 54.8613ZM81.478 56.644C80.9014 57.5257 79.8619 57.9041 78.8534 57.5993L78.5641 58.5565C79.9973 58.9897 81.4954 58.4444 82.3149 57.1913L81.478 56.644ZM78.8534 57.5993L76.8144 56.983L76.5251 57.9403L78.5641 58.5565L78.8534 57.5993ZM76.8144 56.9831C76.1624 56.786 75.5393 56.786 74.8873 56.9831L75.1766 57.9403C75.64 57.8002 76.0617 57.8002 76.5251 57.9403L76.8144 56.9831ZM74.8873 56.983L72.8483 57.5993L73.1376 58.5565L75.1766 57.9403L74.8873 56.983ZM72.8483 57.5993C71.8398 57.9041 70.8003 57.5257 70.2237 56.644L69.3868 57.1913C70.2063 58.4444 71.7043 58.9897 73.1376 58.5565L72.8483 57.5993ZM70.2237 56.644L69.0578 54.8613L68.2209 55.4086L69.3868 57.1913L70.2237 56.644ZM69.0578 54.8613C68.685 54.2912 68.2078 53.8908 67.5817 53.6226L67.1879 54.5419C67.6329 54.7325 67.956 55.0035 68.2209 55.4086L69.0578 54.8613ZM67.5816 53.6226L65.6235 52.7841L65.2299 53.7034L67.188 54.5419L67.5816 53.6226ZM65.6235 52.7841C64.6551 52.3694 64.1019 51.4113 64.227 50.3653L63.234 50.2466C63.0563 51.7333 63.8535 53.1139 65.2298 53.7034L65.6235 52.7841ZM64.227 50.3653L64.4797 48.2502L63.4868 48.1315L63.234 50.2466L64.227 50.3653ZM64.4797 48.2502C64.5607 47.5739 64.4524 46.9603 64.1451 46.3525L63.2527 46.8037C63.4711 47.2356 63.5443 47.6509 63.4868 48.1314L64.4797 48.2502ZM64.1451 46.3525L63.1841 44.4515L62.2916 44.9026L63.2527 46.8037L64.1451 46.3525ZM63.1841 44.4515C62.7089 43.5112 62.9009 42.4219 63.6691 41.7008L62.9848 40.9717C61.893 41.9964 61.6162 43.5663 62.2916 44.9026L63.1841 44.4515ZM63.6691 41.7008L65.2223 40.2431L64.5379 39.5139L62.9848 40.9717L63.6691 41.7008ZM65.2223 40.2431C65.719 39.777 66.0304 39.2373 66.1857 38.5743L65.2121 38.3461C65.1017 38.8175 64.8908 39.1828 64.538 39.5139L65.2223 40.2431ZM66.1858 38.5742L66.6716 36.5003L65.6979 36.2722L65.2121 38.3462L66.1858 38.5742ZM66.6716 36.5003C66.9119 35.4744 67.7592 34.7634 68.8112 34.705L68.7556 33.7065C67.2606 33.7896 66.0395 34.8143 65.6979 36.2722L66.6716 36.5003ZM68.8112 34.705L70.9379 34.5867L70.8824 33.5882L68.7556 33.7065L68.8112 34.705ZM70.9379 34.5867C71.618 34.5489 72.2035 34.3357 72.7487 33.9277L72.1496 33.1271C71.7621 33.4171 71.3656 33.5614 70.8824 33.5882L70.9379 34.5867ZM72.7488 33.9277L74.4541 32.6512L73.8549 31.8507L72.1495 33.1271L72.7488 33.9277ZM74.454 32.6513C75.298 32.0199 76.4042 32.0199 77.2476 32.6512L77.8468 31.8507C76.6481 30.9534 75.054 30.9535 73.855 31.8506L74.454 32.6513ZM75.851 36.3664C80.5862 36.3664 84.4252 40.2053 84.4252 44.9406H85.4252C85.4252 39.653 81.1385 35.3664 75.851 35.3664V36.3664ZM84.4252 44.9406C84.4252 49.6758 80.5863 53.5148 75.851 53.5148V54.5148C81.1386 54.5148 85.4252 50.2281 85.4252 44.9406H84.4252ZM75.851 53.5148C71.1157 53.5148 67.2768 49.6758 67.2768 44.9406H66.2768C66.2768 50.2281 70.5635 54.5148 75.851 54.5148V53.5148ZM67.2768 44.9406C67.2768 40.2053 71.1159 36.3664 75.851 36.3664V35.3664C70.5636 35.3664 66.2768 39.653 66.2768 44.9406H67.2768ZM72.6634 59.5047C71.1104 59.694 69.5738 58.9992 68.6895 57.6473L67.8527 58.1947C68.9466 59.8672 70.8555 60.7325 72.7844 60.4974L72.6634 59.5047ZM68.6896 57.6474L67.5237 55.8647L66.6868 56.412L67.8526 58.1947L68.6896 57.6474ZM67.5237 55.8647C67.3908 55.6615 67.2387 55.5061 67.018 55.3845L66.5352 56.2602C66.5893 56.29 66.6274 56.3212 66.6867 56.412L67.5237 55.8647ZM66.3233 55.6113L63.5841 61.4947L64.4906 61.9168L67.2299 56.0334L66.3233 55.6113ZM63.5841 61.4947C63.3272 62.0463 63.7964 62.6573 64.3951 62.5529L64.2234 61.5678C64.4198 61.5336 64.5752 61.7352 64.4906 61.9168L63.5841 61.4947ZM64.3953 62.5529L68.2155 61.8854L68.0434 60.9004L64.2232 61.5678L64.3953 62.5529ZM67.6972 61.6441L69.6455 64.9971L70.5102 64.4946L68.5618 61.1417L67.6972 61.6441ZM69.6456 64.9971C69.9511 65.5228 70.7207 65.4874 70.9774 64.9368L70.0711 64.5143C70.1555 64.3333 70.4094 64.3213 70.5101 64.4946L69.6456 64.9971ZM70.9775 64.9366L73.1772 60.2121L72.2706 59.79L70.071 64.5145L70.9775 64.9366ZM71.3516 44.2923L74.6178 47.9771L75.3661 47.3138L72.1 43.629L71.3516 44.2923ZM75.3661 47.9771L80.0839 42.6545L79.3355 41.9912L74.6178 47.3138L75.3661 47.9771Z" fill="#08E2F0"/>
</g>
<path d="M78.9782 60.0012L79.0145 59.7034L78.4782 59.638L78.7063 60.1278L78.9782 60.0012ZM81.1779 64.7258L80.9059 64.8524L80.9059 64.8524L81.1779 64.7258ZM81.6243 64.7461L81.8837 64.8968L81.8837 64.8968L81.6243 64.7461ZM83.5727 61.3931L83.6243 61.0976L83.4183 61.0616L83.3133 61.2424L83.5727 61.3931ZM87.3928 62.0606L87.3411 62.3561L87.3412 62.3561L87.3928 62.0606ZM87.6647 61.7059L87.9367 61.5794L87.9366 61.5793L87.6647 61.7059ZM84.9256 55.8226L85.1975 55.6959L85.0619 55.4047L84.7806 55.5599L84.9256 55.8226ZM84.5969 56.1386L84.848 56.3028L84.848 56.3028L84.5969 56.1386ZM83.431 57.9213L83.6821 58.0855L83.6821 58.0855L83.431 57.9213ZM59.6293 66.9168L59.479 66.6573L59.4789 66.6573L59.6293 66.9168ZM65.2491 65.7741L65.1565 66.0595L65.1565 66.0595L65.2491 65.7741ZM74.7488 68.6937L74.8413 68.4083L74.822 68.4021L74.8021 68.3985L74.7488 68.6937ZM76.595 71.8916L76.3052 71.8139L76.3052 71.814L76.595 71.8916ZM74.0838 73.6545L74.1606 73.3645H74.1606L74.0838 73.6545ZM67.9715 72.0348L68.0483 71.7448L68.0478 71.7447L67.9715 72.0348ZM67.506 73.8038L67.5829 73.5138L67.5824 73.5136L67.506 73.8038ZM73.6184 75.4234L73.6952 75.1334L73.6952 75.1334L73.6184 75.4234ZM77.4294 73.8164L77.3472 73.5279L77.2274 73.562L77.167 73.6709L77.4294 73.8164ZM78.8026 73.2268L78.9535 73.4861L78.9536 73.4861L78.8026 73.2268ZM88.0419 67.8454L87.8909 67.5862L87.8909 67.5862L88.0419 67.8454ZM93.8908 71.5678L93.7335 71.3123L93.7335 71.3123L93.8908 71.5678ZM77.1238 81.8922L77.2811 82.1477L77.2811 82.1477L77.1238 81.8922ZM72.1449 82.5943L72.2226 82.3045L72.2226 82.3045L72.1449 82.5943ZM59.9833 79.3355L60.0609 79.0457L59.9409 79.0136L59.8333 79.0757L59.9833 79.3355ZM59.0061 79.8996L58.745 80.0474L58.8941 80.3107L59.1561 80.1594L59.0061 79.8996ZM53.6268 70.3946L53.4764 70.135L53.2194 70.2839L53.3657 70.5423L53.6268 70.3946ZM51.1355 69.715L50.8744 69.8627L50.8744 69.8627L51.1355 69.715ZM49.2817 69.2012L49.4294 69.4623L49.4295 69.4622L49.2817 69.2012ZM46.6893 70.6683L46.8371 70.9294L46.8371 70.9294L46.6893 70.6683ZM46.1754 72.5221L46.4365 72.3744L46.4365 72.3744L46.1754 72.5221ZM53.7967 85.9884L54.0578 85.8407L54.0578 85.8407L53.7967 85.9884ZM55.6506 86.5022L55.5028 86.2411L55.5027 86.2412L55.6506 86.5022ZM58.2429 85.0351L58.0951 84.774L58.0951 84.774L58.2429 85.0351ZM58.7568 83.1813L58.4957 83.329L58.4957 83.329L58.7568 83.1813ZM49.5034 73.2959L49.46 72.9991L49.4599 72.9991L49.5034 73.2959ZM48.4537 72.514L48.7505 72.4706L48.7505 72.4706L48.4537 72.514ZM77.5472 32.2509L77.727 32.0108L77.727 32.0108L77.5472 32.2509ZM79.2524 33.5274L79.4322 33.2872L79.4322 33.2872L79.2524 33.5274ZM80.7914 34.0875L80.808 33.7879L80.808 33.7879L80.7914 34.0875ZM82.9182 34.2057L82.9348 33.9062H82.9348L82.9182 34.2057ZM85.5168 36.3862L85.2247 36.4547L85.2247 36.4547L85.5168 36.3862ZM86.0026 38.4602L85.7105 38.5286L85.7105 38.5287L86.0026 38.4602ZM86.8214 39.8785L87.0268 39.6598L87.0267 39.6598L86.8214 39.8785ZM88.3746 41.3362L88.1693 41.555V41.555L88.3746 41.3362ZM88.9637 44.677L89.2314 44.8124L89.2314 44.8124L88.9637 44.677ZM88.0028 46.5781L88.2705 46.7135L88.2705 46.7134L88.0028 46.5781ZM87.7184 48.1908L87.4205 48.2264V48.2264L87.7184 48.1908ZM87.9712 50.3059L87.6733 50.3415V50.3415L87.9712 50.3059ZM86.275 53.2437L86.3931 53.5195L86.3931 53.5195L86.275 53.2437ZM84.3169 54.0823L84.1988 53.8065L84.1987 53.8065L84.3169 54.0823ZM83.0623 55.1349L82.8112 54.9707L82.8112 54.9707L83.0623 55.1349ZM81.8964 56.9176L81.6454 56.7534L81.6453 56.7534L81.8964 56.9176ZM78.7087 58.0779L78.6219 58.3651L78.6219 58.3651L78.7087 58.0779ZM76.6697 57.4617L76.5829 57.7488L76.5829 57.7488L76.6697 57.4617ZM75.032 57.4617L75.1188 57.7488L75.1188 57.7488L75.032 57.4617ZM72.993 58.0779L73.0797 58.3651L73.0798 58.3651L72.993 58.0779ZM69.8053 56.9176L70.0563 56.7534L70.0563 56.7534L69.8053 56.9176ZM68.6394 55.1349L68.8904 54.9707L68.8904 54.9707L68.6394 55.1349ZM67.3848 54.0823L67.5029 53.8065L67.5029 53.8065L67.3848 54.0823ZM65.4267 53.2437L65.3086 53.5195L65.3086 53.5195L65.4267 53.2437ZM63.7305 50.3059L64.0284 50.3415L64.0284 50.3415L63.7305 50.3059ZM63.9833 48.1908L63.6854 48.1552L63.6854 48.1552L63.9833 48.1908ZM63.6989 46.5781L63.4311 46.7134L63.4312 46.7135L63.6989 46.5781ZM62.7379 44.677L62.4701 44.8124L62.4701 44.8124L62.7379 44.677ZM63.3269 41.3362L63.1216 41.1175L63.1216 41.1175L63.3269 41.3362ZM64.8801 39.8785L64.6748 39.6598L64.6748 39.6598L64.8801 39.8785ZM65.6989 38.4602L65.991 38.5287L65.991 38.5286L65.6989 38.4602ZM66.1848 36.3862L65.8927 36.3178L65.8927 36.3178L66.1848 36.3862ZM68.7834 34.2057L68.7667 33.9062H68.7667L68.7834 34.2057ZM70.9102 34.0875L70.8935 33.7879L70.8935 33.7879L70.9102 34.0875ZM72.4492 33.5274L72.6289 33.7676L72.6289 33.7676L72.4492 33.5274ZM74.1545 32.2509L73.9748 32.0107L73.9747 32.0108L74.1545 32.2509ZM72.7239 60.0011L72.9959 60.1277L73.2239 59.6379L72.6876 59.7033L72.7239 60.0011ZM68.2711 57.921L68.02 58.0852L68.02 58.0852L68.2711 57.921ZM67.1052 56.1383L66.8541 56.3025L66.8541 56.3025L67.1052 56.1383ZM66.7766 55.8223L66.9214 55.5596L66.6402 55.4046L66.5046 55.6957L66.7766 55.8223ZM64.0374 61.7057L64.3093 61.8324L64.3093 61.8323L64.0374 61.7057ZM64.3093 62.0604L64.3608 62.3559L64.3609 62.3559L64.3093 62.0604ZM68.1295 61.3929L68.3889 61.2422L68.2838 61.0614L68.0778 61.0974L68.1295 61.3929ZM70.0778 64.7458L69.8185 64.8966L69.8185 64.8966L70.0778 64.7458ZM70.5243 64.7256L70.7962 64.8523L70.7962 64.8522L70.5243 64.7256ZM71.9503 43.7616C71.8404 43.6376 71.6508 43.6262 71.5268 43.7361C71.4028 43.846 71.3914 44.0356 71.5013 44.1596L71.9503 43.7616ZM74.9919 47.6455L74.7674 47.8445C74.8244 47.9087 74.9061 47.9455 74.9919 47.9455C75.0778 47.9455 75.1595 47.9087 75.2164 47.8445L74.9919 47.6455ZM79.9342 42.5219C80.0441 42.3979 80.0327 42.2083 79.9087 42.0984C79.7847 41.9885 79.5951 41.9999 79.4852 42.1239L79.9342 42.5219ZM78.7063 60.1278L80.9059 64.8524L81.4498 64.5992L79.2502 59.8746L78.7063 60.1278ZM80.9059 64.8524C81.0943 65.257 81.6594 65.2826 81.8837 64.8968L81.3649 64.5953C81.3843 64.562 81.4336 64.5642 81.4498 64.5992L80.9059 64.8524ZM81.8837 64.8968L83.8321 61.5439L83.3133 61.2424L81.3649 64.5953L81.8837 64.8968ZM83.521 61.6887L87.3411 62.3561L87.4444 61.7651L83.6243 61.0976L83.521 61.6887ZM87.3412 62.3561C87.7808 62.4328 88.1252 61.9846 87.9367 61.5794L87.3927 61.8325C87.3765 61.7977 87.4069 61.7585 87.4443 61.765L87.3412 62.3561ZM87.9366 61.5793L85.1975 55.6959L84.6536 55.9492L87.3927 61.8326L87.9366 61.5793ZM84.7806 55.5599C84.5935 55.6631 84.4641 55.7936 84.3458 55.9744L84.848 56.3028C84.922 56.1896 84.983 56.1335 85.0705 56.0852L84.7806 55.5599ZM84.3459 55.9744L83.18 57.7571L83.6821 58.0855L84.848 56.3028L84.3459 55.9744ZM83.18 57.757C82.2538 59.1729 80.6426 59.9018 79.0145 59.7034L78.9419 60.299C80.7955 60.5249 82.6301 59.6937 83.6821 58.0855L83.18 57.757ZM59.7797 67.1764C61.5717 66.1382 63.3047 65.4588 65.1565 66.0595L65.3416 65.4888C63.2289 64.8034 61.2941 65.6057 59.479 66.6573L59.7797 67.1764ZM65.1565 66.0595C67.3295 66.7641 70.9889 68.3205 74.6956 68.9889L74.8021 68.3985C71.1475 67.7394 67.589 66.2175 65.3416 65.4887L65.1565 66.0595ZM74.6563 68.9791C75.8898 69.3789 76.6306 70.5999 76.3052 71.8139L76.8848 71.9693C77.3029 70.4092 76.3402 68.8942 74.8413 68.4083L74.6563 68.9791ZM76.3052 71.814C76.174 72.304 75.8783 72.7656 75.4916 73.0655C75.1097 73.3617 74.6499 73.4941 74.1606 73.3645L74.0069 73.9445C74.7075 74.1301 75.3564 73.9296 75.8593 73.5396C76.3573 73.1534 76.7223 72.576 76.8848 71.9692L76.3052 71.814ZM74.1606 73.3645L68.0483 71.7448L67.8946 72.3248L74.007 73.9445L74.1606 73.3645ZM68.0478 71.7447C67.3991 71.574 66.7349 71.9616 66.5642 72.6102L67.1444 72.7629C67.2308 72.4346 67.5669 72.2386 67.8951 72.3249L68.0478 71.7447ZM66.5642 72.6102C66.3934 73.259 66.781 73.9232 67.4297 74.0939L67.5824 73.5136C67.2541 73.4272 67.058 73.0911 67.1444 72.7629L66.5642 72.6102ZM67.4292 74.0938L73.5415 75.7134L73.6952 75.1334L67.5829 73.5138L67.4292 74.0938ZM73.5415 75.7134C75.2322 76.1614 76.8459 75.4877 77.6918 73.9618L77.167 73.6709C76.4566 74.9525 75.1246 75.5122 73.6952 75.1334L73.5415 75.7134ZM77.5116 74.1049C78.0036 73.9646 78.4835 73.7598 78.9535 73.4861L78.6516 72.9676C78.2231 73.2171 77.7892 73.4018 77.3472 73.5279L77.5116 74.1049ZM78.9536 73.4861L88.1929 68.1047L87.8909 67.5862L78.6516 72.9676L78.9536 73.4861ZM88.1929 68.1047C89.9614 67.0746 91.3169 66.7202 92.3108 66.7555C93.2925 66.7903 93.9323 67.2042 94.3069 67.7553C94.6886 68.3169 94.8123 69.0476 94.6984 69.7282C94.5841 70.4106 94.2388 71.0012 93.7335 71.3123L94.0481 71.8232C94.7367 71.3993 95.155 70.6342 95.2901 69.8272C95.4256 69.0184 95.2845 68.1262 94.8032 67.4181C94.3148 66.6996 93.4935 66.1971 92.3321 66.1558C91.183 66.1151 89.7133 66.5248 87.8909 67.5862L88.1929 68.1047ZM93.7335 71.3123L76.9665 81.6367L77.2811 82.1477L94.0481 71.8232L93.7335 71.3123ZM76.9665 81.6367C75.4974 82.5411 73.8953 82.7528 72.2226 82.3045L72.0673 82.884C73.8932 83.3734 75.6661 83.1419 77.2811 82.1477L76.9665 81.6367ZM72.2226 82.3045L60.0609 79.0457L59.9056 79.6253L72.0673 82.884L72.2226 82.3045ZM59.8333 79.0757L58.8561 79.6398L59.1561 80.1594L60.1333 79.5953L59.8333 79.0757ZM59.2672 79.7518L53.8879 70.2468L53.3657 70.5423L58.745 80.0474L59.2672 79.7518ZM53.7772 70.6541L59.7797 67.1764L59.4789 66.6573L53.4764 70.135L53.7772 70.6541ZM51.3966 69.5672C50.9465 68.7718 49.9291 68.4899 49.1339 68.9401L49.4295 69.4622C49.9363 69.1753 50.5875 69.3558 50.8744 69.8627L51.3966 69.5672ZM49.1339 68.9401L46.5416 70.4072L46.8371 70.9294L49.4294 69.4623L49.1339 68.9401ZM46.5416 70.4072C45.7462 70.8573 45.4642 71.8747 45.9143 72.6699L46.4365 72.3744C46.1496 71.8675 46.3301 71.2163 46.8371 70.9294L46.5416 70.4072ZM45.9143 72.6699L53.5356 86.1362L54.0578 85.8407L46.4365 72.3744L45.9143 72.6699ZM53.5356 86.1362C53.9857 86.9316 55.0031 87.2136 55.7984 86.7633L55.5027 86.2412C54.9959 86.5281 54.3447 86.3477 54.0578 85.8407L53.5356 86.1362ZM55.7983 86.7633L58.3906 85.2962L58.0951 84.774L55.5028 86.2411L55.7983 86.7633ZM58.3906 85.2962C59.186 84.8461 59.468 83.8288 59.0179 83.0335L58.4957 83.329C58.7826 83.8359 58.6021 84.4871 58.0951 84.774L58.3906 85.2962ZM59.0179 83.0335L51.3966 69.5672L50.8744 69.8627L58.4957 83.329L59.0179 83.0335ZM49.279 71.7612C49.6208 71.7111 49.9385 71.9478 49.9885 72.2896L50.5821 72.2029C50.4843 71.5331 49.8619 71.0695 49.1922 71.1675L49.279 71.7612ZM49.9885 72.2896C50.0384 72.6315 49.8018 72.9491 49.46 72.9991L49.5468 73.5928C50.2165 73.4949 50.68 72.8725 50.5821 72.2029L49.9885 72.2896ZM49.4599 72.9991C49.1182 73.0491 48.8005 72.8125 48.7505 72.4706L48.1568 72.5574C48.2547 73.2271 48.8771 73.6908 49.5468 73.5928L49.4599 72.9991ZM48.7505 72.4706C48.7005 72.1289 48.9371 71.8112 49.279 71.7612L49.1922 71.1675C48.5226 71.2655 48.0588 71.8876 48.1568 72.5575L48.7505 72.4706ZM75.851 37.3997C71.6861 37.3997 68.3102 40.7757 68.3102 44.9406H68.9102C68.9102 41.1071 72.0175 37.9997 75.851 37.9997V37.3997ZM68.3102 44.9406C68.3102 49.1054 71.6861 52.4814 75.851 52.4814V51.8814C72.0175 51.8814 68.9102 48.7741 68.9102 44.9406H68.3102ZM75.851 52.4814C80.0159 52.4814 83.3919 49.1054 83.3919 44.9406H82.7919C82.7919 48.7741 79.6845 51.8814 75.851 51.8814V52.4814ZM83.3919 44.9406C83.3919 40.7757 80.0159 37.3997 75.851 37.3997V37.9997C79.6845 37.9997 82.7919 41.1071 82.7919 44.9406H83.3919ZM77.3674 32.4911L79.0726 33.7676L79.4322 33.2872L77.727 32.0108L77.3674 32.4911ZM79.0726 33.7676C79.5863 34.1521 80.1341 34.3514 80.7747 34.387L80.808 33.7879C80.2854 33.7589 79.8512 33.6009 79.4322 33.2872L79.0726 33.7676ZM80.7747 34.387L82.9015 34.5053L82.9348 33.9062L80.808 33.7879L80.7747 34.387ZM82.9015 34.5053C84.0421 34.5687 84.9643 35.3424 85.2247 36.4547L85.8089 36.3178C85.4877 34.9463 84.3412 33.9844 82.9348 33.9062L82.9015 34.5053ZM85.2247 36.4547L85.7105 38.5286L86.2947 38.3918L85.8089 36.3178L85.2247 36.4547ZM85.7105 38.5287C85.8569 39.1534 86.1482 39.6581 86.6161 40.0973L87.0267 39.6598C86.6451 39.3016 86.4142 38.9014 86.2947 38.3918L85.7105 38.5287ZM86.6161 40.0973L88.1693 41.555L88.5799 41.1175L87.0268 39.6598L86.6161 40.0973ZM88.1693 41.555C89.0022 42.3367 89.2112 43.5222 88.696 44.5417L89.2314 44.8124C89.8668 43.5553 89.607 42.0814 88.5799 41.1175L88.1693 41.555ZM88.696 44.5417L87.7351 46.4428L88.2705 46.7134L89.2314 44.8124L88.696 44.5417ZM87.7351 46.4427C87.4455 47.0154 87.3444 47.5894 87.4205 48.2264L88.0163 48.1553C87.9542 47.6355 88.0344 47.1805 88.2705 46.7135L87.7351 46.4427ZM87.4205 48.2264L87.6733 50.3415L88.2691 50.2703L88.0163 48.1552L87.4205 48.2264ZM87.6733 50.3415C87.8089 51.4757 87.2069 52.5183 86.1569 52.968L86.3931 53.5195C87.6879 52.965 88.4362 51.6689 88.2691 50.2703L87.6733 50.3415ZM86.1569 52.968L84.1988 53.8065L84.435 54.358L86.3931 53.5195L86.1569 52.968ZM84.1987 53.8065C83.609 54.0592 83.1625 54.4337 82.8112 54.9707L83.3134 55.2992C83.5999 54.8611 83.9539 54.5642 84.435 54.358L84.1987 53.8065ZM82.8112 54.9707L81.6454 56.7534L82.1475 57.0818L83.3134 55.2991L82.8112 54.9707ZM81.6453 56.7534C81.0202 57.7095 79.889 58.1212 78.7955 57.7907L78.6219 58.3651C79.9702 58.7725 81.3766 58.2607 82.1475 57.0818L81.6453 56.7534ZM78.7955 57.7907L76.7565 57.1745L76.5829 57.7488L78.6219 58.3651L78.7955 57.7907ZM76.7565 57.1745C76.1422 56.9888 75.5595 56.9888 74.9452 57.1745L75.1188 57.7488C75.6198 57.5974 76.0818 57.5974 76.5829 57.7488L76.7565 57.1745ZM74.9452 57.1745L72.9062 57.7907L73.0798 58.3651L75.1188 57.7488L74.9452 57.1745ZM72.9062 57.7907C71.8127 58.1212 70.6815 57.7095 70.0563 56.7534L69.5542 57.0818C70.3251 58.2607 71.7314 58.7725 73.0797 58.3651L72.9062 57.7907ZM70.0563 56.7534L68.8904 54.9707L68.3883 55.2991L69.5542 57.0818L70.0563 56.7534ZM68.8904 54.9707C68.5392 54.4337 68.0928 54.0592 67.5029 53.8065L67.2667 54.358C67.7479 54.5642 68.1018 54.8611 68.3883 55.2992L68.8904 54.9707ZM67.5029 53.8065L65.5448 52.968L65.3086 53.5195L67.2667 54.358L67.5029 53.8065ZM65.5448 52.968C64.4947 52.5183 63.8928 51.4757 64.0284 50.3415L63.4326 50.2703C63.2655 51.6689 64.0138 52.965 65.3086 53.5195L65.5448 52.968ZM64.0284 50.3415L64.2812 48.2264L63.6854 48.1552L63.4326 50.2703L64.0284 50.3415ZM64.2812 48.2265C64.3574 47.5893 64.2561 47.0154 63.9666 46.4427L63.4312 46.7135C63.6673 47.1805 63.7476 47.6355 63.6854 48.1552L64.2812 48.2265ZM63.9666 46.4427L63.0056 44.5417L62.4701 44.8124L63.4311 46.7134L63.9666 46.4427ZM63.0056 44.5417C62.4903 43.5222 62.6994 42.3368 63.5323 41.555L63.1216 41.1175C62.0946 42.0815 61.8348 43.5553 62.4701 44.8124L63.0056 44.5417ZM63.5322 41.555L65.0854 40.0973L64.6748 39.6598L63.1216 41.1175L63.5322 41.555ZM65.0854 40.0973C65.5533 39.6581 65.8446 39.1534 65.991 38.5287L65.4068 38.3918C65.2874 38.9014 65.0564 39.3016 64.6748 39.6598L65.0854 40.0973ZM65.991 38.5286L66.4769 36.4547L65.8927 36.3178L65.4068 38.3918L65.991 38.5286ZM66.4769 36.4547C66.7374 35.3424 67.6595 34.5687 68.8001 34.5053L68.7667 33.9062C67.3603 33.9844 66.214 34.9464 65.8927 36.3178L66.4769 36.4547ZM68.8001 34.5053L70.9268 34.387L70.8935 33.7879L68.7667 33.9062L68.8001 34.5053ZM70.9268 34.387C71.5675 34.3514 72.1152 34.152 72.6289 33.7676L72.2694 33.2872C71.8504 33.6008 71.4161 33.7589 70.8935 33.7879L70.9268 34.387ZM72.6289 33.7676L74.3343 32.4911L73.9747 32.0108L72.2694 33.2872L72.6289 33.7676ZM74.3342 32.4911C75.2492 31.8066 76.453 31.8066 77.3674 32.4911L77.727 32.0108C76.5993 31.1667 75.1028 31.1668 73.9748 32.0107L74.3342 32.4911ZM75.851 36.1664C80.6966 36.1664 84.6252 40.0949 84.6252 44.9406H85.2252C85.2252 39.7635 81.028 35.5664 75.851 35.5664V36.1664ZM84.6252 44.9406C84.6252 49.7863 80.6967 53.7148 75.851 53.7148V54.3148C81.0281 54.3148 85.2252 50.1177 85.2252 44.9406H84.6252ZM75.851 53.7148C71.0053 53.7148 67.0768 49.7863 67.0768 44.9406H66.4768C66.4768 50.1177 70.6739 54.3148 75.851 54.3148V53.7148ZM67.0768 44.9406C67.0768 40.0949 71.0054 36.1664 75.851 36.1664V35.5664C70.674 35.5664 66.4768 39.7635 66.4768 44.9406H67.0768ZM72.6876 59.7033C71.0594 59.9017 69.4483 59.1728 68.5222 57.7568L68.02 58.0852C69.072 59.6936 70.9065 60.5248 72.7602 60.2989L72.6876 59.7033ZM68.5222 57.7568L67.3563 55.9741L66.8541 56.3025L68.02 58.0852L68.5222 57.7568ZM67.3563 55.9742C67.2381 55.7934 67.1088 55.6629 66.9214 55.5596L66.6318 56.085C66.7192 56.1332 66.7801 56.1893 66.8541 56.3025L67.3563 55.9742ZM66.5046 55.6957L63.7654 61.5791L64.3093 61.8323L67.0486 55.9489L66.5046 55.6957ZM63.7654 61.5791C63.5768 61.9841 63.921 62.4325 64.3608 62.3559L64.2578 61.7648C64.2951 61.7583 64.3256 61.7974 64.3093 61.8324L63.7654 61.5791ZM64.3609 62.3559L68.1811 61.6884L68.0778 61.0974L64.2576 61.7648L64.3609 62.3559ZM67.8701 61.5436L69.8185 64.8966L70.3372 64.5951L68.3889 61.2422L67.8701 61.5436ZM69.8185 64.8966C70.0428 65.2825 70.6077 65.2566 70.7962 64.8523L70.2524 64.5988C70.2685 64.5642 70.3178 64.5616 70.3372 64.5951L69.8185 64.8966ZM70.7962 64.8522L72.9959 60.1277L72.452 59.8744L70.2523 64.5989L70.7962 64.8522ZM71.5013 44.1596L74.7674 47.8445L75.2164 47.4465L71.9503 43.7616L71.5013 44.1596ZM75.2164 47.8445L79.9342 42.5219L79.4852 42.1239L74.7674 47.4465L75.2164 47.8445Z" fill="#CFFF04"/>
<path d="M5.60087 20.87H3V3.84766H19.981V6.47083H5.60087V20.87Z" fill="#08E2F0"/>
<path d="M138 20.87H135.38V6.47083H121V3.84766H138V20.87Z" fill="#08E2F0"/>
<path d="M138 139.046H121V136.423H135.38V122.023H138V139.046Z" fill="#08E2F0"/>
<path d="M19.981 139.046H3V122.023H5.60087V136.423H19.981V139.046Z" fill="#08E2F0"/>
<path d="M5.60087 20.87H3V3.84766H19.981V6.47083H5.60087V20.87Z" fill="#08E2F0"/>
<path d="M138 20.87H135.38V6.47083H121V3.84766H138V20.87Z" fill="#08E2F0"/>
<path d="M138 139.046H121V136.423H135.38V122.023H138V139.046Z" fill="#08E2F0"/>
<path d="M19.981 139.046H3V122.023H5.60087V136.423H19.981V139.046Z" fill="#08E2F0"/>
<g filter="url(#filter1_f_236_265)">
<path d="M135.092 71.3069H134.018V70.6562H135.092V71.3069ZM131.825 71.3069H130.751V70.6562H131.825V71.3069ZM128.558 71.3069H127.485V70.6562H128.558V71.3069ZM125.276 71.3069H124.203V70.6562H125.276V71.3069ZM122.01 71.3069H120.936V70.6562H122.01V71.3069ZM118.728 71.3069H117.654V70.6562H118.728V71.3069ZM115.461 71.3069H114.388V70.6562H115.461V71.3069ZM112.195 71.3069H111.121V70.6562H112.195V71.3069ZM108.928 71.3069H107.854V70.6562H108.928V71.3069ZM105.661 71.3069H104.588V70.6562H105.661V71.3069ZM102.379 71.3069H101.306V70.6562H102.379V71.3069ZM99.1129 71.3069H98.0391V70.6562H99.1129V71.3069Z" fill="#08E2F0"/>
<path d="M42.0374 71.3069H40.9637V70.6562H42.0374V71.3069ZM38.7707 71.3069H37.697V70.6562H38.7707V71.3069ZM35.489 71.3069H34.4152V70.6562H35.489V71.3069ZM32.2223 71.3069H31.1485V70.6562H32.2223V71.3069ZM28.9405 71.3069H27.8667V70.6562H28.9405V71.3069ZM25.6738 71.3069H24.6V70.6562H25.6738V71.3069ZM22.4071 71.3069H21.3334V70.6562H22.4071V71.3069ZM19.1405 71.3069H18.0667V70.6562H19.1405V71.3069ZM15.8738 71.3069H14.8V70.6562H15.8738V71.3069ZM12.6071 71.3069H11.5333V70.6562H12.6071V71.3069ZM9.34044 71.3069H8.26668V70.6562H9.34044V71.3069ZM6.07376 71.3069H5V70.6562H6.07376V71.3069Z" fill="#08E2F0"/>
<path d="M70.3713 5.84958V6.9248H69.7207V5.84958H70.3713ZM70.3713 9.12054V10.1958H69.7207V9.12054H70.3713ZM70.3713 12.3916V13.4667H69.7207V12.3916H70.3713ZM70.3713 15.6777V16.7529H69.7207V15.6777H70.3713ZM70.3713 18.9488V20.0239H69.7207V18.9488H70.3713ZM70.3713 22.2349V23.31H69.7207V22.2349H70.3713ZM70.3713 25.5058V26.581H69.7207V25.5058H70.3713ZM70.3713 28.7769V29.852H69.7207V28.7769H70.3713ZM70.3713 32.0478V33.1231H69.7207V32.0478H70.3713ZM70.3713 35.3189V36.394H69.7207V35.3189H70.3713ZM70.3713 38.605V39.6802H69.7207V38.605H70.3713ZM70.3713 41.8759V42.9512H69.7207V41.8759H70.3713Z" fill="#08E2F0"/>
<path d="M70.3713 99.0269V100.102H69.7207V99.0269H70.3713ZM70.3713 102.298V103.373H69.7207V102.298H70.3713ZM70.3713 105.584V106.659H69.7207V105.584H70.3713ZM70.3713 108.855V109.93H69.7207V108.855H70.3713ZM70.3713 112.141V113.216H69.7207V112.141H70.3713ZM70.3713 115.412V116.487H69.7207V115.412H70.3713ZM70.3713 118.683V119.758H69.7207V118.683H70.3713ZM70.3713 121.954V123.029H69.7207V121.954H70.3713ZM70.3713 125.225V126.3H69.7207V125.225H70.3713ZM70.3713 128.496V129.571H69.7207V128.496H70.3713ZM70.3713 131.767V132.842H69.7207V131.767H70.3713ZM70.3713 135.038V136.113H69.7207V135.038H70.3713Z" fill="#08E2F0"/>
</g>
<path d="M135.092 71.3069H134.018V70.6562H135.092V71.3069ZM131.825 71.3069H130.751V70.6562H131.825V71.3069ZM128.558 71.3069H127.485V70.6562H128.558V71.3069ZM125.276 71.3069H124.203V70.6562H125.276V71.3069ZM122.01 71.3069H120.936V70.6562H122.01V71.3069ZM118.728 71.3069H117.654V70.6562H118.728V71.3069ZM115.461 71.3069H114.388V70.6562H115.461V71.3069ZM112.195 71.3069H111.121V70.6562H112.195V71.3069ZM108.928 71.3069H107.854V70.6562H108.928V71.3069ZM105.661 71.3069H104.588V70.6562H105.661V71.3069ZM102.379 71.3069H101.306V70.6562H102.379V71.3069ZM99.1129 71.3069H98.0391V70.6562H99.1129V71.3069Z" fill="#08E2F0"/>
<path d="M42.0374 71.3069H40.9637V70.6562H42.0374V71.3069ZM38.7707 71.3069H37.697V70.6562H38.7707V71.3069ZM35.489 71.3069H34.4152V70.6562H35.489V71.3069ZM32.2223 71.3069H31.1485V70.6562H32.2223V71.3069ZM28.9405 71.3069H27.8667V70.6562H28.9405V71.3069ZM25.6738 71.3069H24.6V70.6562H25.6738V71.3069ZM22.4071 71.3069H21.3334V70.6562H22.4071V71.3069ZM19.1405 71.3069H18.0667V70.6562H19.1405V71.3069ZM15.8738 71.3069H14.8V70.6562H15.8738V71.3069ZM12.6071 71.3069H11.5333V70.6562H12.6071V71.3069ZM9.34044 71.3069H8.26668V70.6562H9.34044V71.3069ZM6.07376 71.3069H5V70.6562H6.07376V71.3069Z" fill="#08E2F0"/>
<path d="M70.3713 5.84958V6.9248H69.7207V5.84958H70.3713ZM70.3713 9.12054V10.1958H69.7207V9.12054H70.3713ZM70.3713 12.3916V13.4667H69.7207V12.3916H70.3713ZM70.3713 15.6777V16.7529H69.7207V15.6777H70.3713ZM70.3713 18.9488V20.0239H69.7207V18.9488H70.3713ZM70.3713 22.2349V23.31H69.7207V22.2349H70.3713ZM70.3713 25.5058V26.581H69.7207V25.5058H70.3713ZM70.3713 28.7769V29.852H69.7207V28.7769H70.3713ZM70.3713 32.0478V33.1231H69.7207V32.0478H70.3713ZM70.3713 35.3189V36.394H69.7207V35.3189H70.3713ZM70.3713 38.605V39.6802H69.7207V38.605H70.3713ZM70.3713 41.8759V42.9512H69.7207V41.8759H70.3713Z" fill="#08E2F0"/>
<path d="M70.3713 99.0269V100.102H69.7207V99.0269H70.3713ZM70.3713 102.298V103.373H69.7207V102.298H70.3713ZM70.3713 105.584V106.659H69.7207V105.584H70.3713ZM70.3713 108.855V109.93H69.7207V108.855H70.3713ZM70.3713 112.141V113.216H69.7207V112.141H70.3713ZM70.3713 115.412V116.487H69.7207V115.412H70.3713ZM70.3713 118.683V119.758H69.7207V118.683H70.3713ZM70.3713 121.954V123.029H69.7207V121.954H70.3713ZM70.3713 125.225V126.3H69.7207V125.225H70.3713ZM70.3713 128.496V129.571H69.7207V128.496H70.3713ZM70.3713 131.767V132.842H69.7207V131.767H70.3713ZM70.3713 135.038V136.113H69.7207V135.038H70.3713Z" fill="#08E2F0"/>
<g filter="url(#filter2_f_236_265)">
<path d="M71.9817 71.3372H68.1252C67.9437 71.3372 67.8076 71.1856 67.8076 71.019C67.8076 70.8523 67.9588 70.7008 68.1252 70.7008H71.9817C72.1632 70.7008 72.2993 70.8523 72.2993 71.019C72.2993 71.1856 72.148 71.3372 71.9817 71.3372Z" fill="#08E2F0"/>
<path d="M70.0456 73.2615C69.8641 73.2615 69.728 73.11 69.728 72.9433V69.0799C69.728 68.8981 69.8792 68.7617 70.0456 68.7617C70.212 68.7617 70.3632 68.9132 70.3632 69.0799V72.9433C70.3632 73.1251 70.212 73.2615 70.0456 73.2615Z" fill="#08E2F0"/>
</g>
<path d="M71.9817 71.3372H68.1252C67.9437 71.3372 67.8076 71.1856 67.8076 71.019C67.8076 70.8523 67.9588 70.7008 68.1252 70.7008H71.9817C72.1632 70.7008 72.2993 70.8523 72.2993 71.019C72.2993 71.1856 72.148 71.3372 71.9817 71.3372Z" fill="#08E2F0"/>
<path d="M70.0456 73.2615C69.8641 73.2615 69.728 73.11 69.728 72.9433V69.0799C69.728 68.8981 69.8792 68.7617 70.0456 68.7617C70.212 68.7617 70.3632 68.9132 70.3632 69.0799V72.9433C70.3632 73.1251 70.212 73.2615 70.0456 73.2615Z" fill="#08E2F0"/>
<rect opacity="0.07" x="18" y="6.67773" width="105" height="105" rx="52.5" fill="#08E2F0"/>
<defs>
<filter id="filter0_f_236_265" x="43.5" y="29.1777" width="54.0391" height="60" filterUnits="userSpaceOnUse" color-interpolation-filters="sRGB">
<feFlood flood-opacity="0" result="BackgroundImageFix"/>
<feBlend mode="normal" in="SourceGraphic" in2="BackgroundImageFix" result="shape"/>
<feGaussianBlur stdDeviation="1" result="effect1_foregroundBlur_236_265"/>
</filter>
<filter id="filter1_f_236_265" x="0" y="0.849609" width="140.092" height="140.264" filterUnits="userSpaceOnUse" color-interpolation-filters="sRGB">
<feFlood flood-opacity="0" result="BackgroundImageFix"/>
<feBlend mode="normal" in="SourceGraphic" in2="BackgroundImageFix" result="shape"/>
<feGaussianBlur stdDeviation="2.5" result="effect1_foregroundBlur_236_265"/>
</filter>
<filter id="filter2_f_236_265" x="65.8076" y="66.7617" width="8.49121" height="8.5" filterUnits="userSpaceOnUse" color-interpolation-filters="sRGB">
<feFlood flood-opacity="0" result="BackgroundImageFix"/>
<feBlend mode="normal" in="SourceGraphic" in2="BackgroundImageFix" result="shape"/>
<feGaussianBlur stdDeviation="1" result="effect1_foregroundBlur_236_265"/>
</filter>
</defs>
</svg>
