<svg width="145" height="147" viewBox="0 0 145 147" fill="none" xmlns="http://www.w3.org/2000/svg">
<g filter="url(#filter0_f_236_302)">
<mask id="path-1-inside-1_236_302" fill="white">
<path fill-rule="evenodd" clip-rule="evenodd" d="M91.3308 44.3612L84.886 44.3549V37.9892L91.3308 44.3612ZM53 85.9485C53.0002 86.1418 53.077 86.3272 53.2137 86.4639C53.3504 86.6006 53.5357 86.6775 53.729 86.6777H91.8413C92.0347 86.6776 92.2201 86.6008 92.3568 86.464C92.4935 86.3273 92.5704 86.1419 92.5705 85.9485V46.0289L84.0517 46.0206C83.8308 46.0204 83.619 45.9326 83.4629 45.7763C83.3068 45.62 83.2192 45.4081 83.2193 45.1872V36.6777H53.729C53.5357 36.678 53.3504 36.755 53.2138 36.8917C53.0771 37.0284 53.0003 37.2137 53 37.4069V85.9485ZM59.9813 50.9603C59.8367 50.7963 59.7623 50.5821 59.7741 50.3637C59.786 50.1454 59.8832 49.9405 60.0447 49.7932C60.2063 49.6458 60.4192 49.5679 60.6377 49.5761C60.8562 49.5844 61.0627 49.6781 61.2127 49.8372L63.4268 52.2631L68.2205 47.6113C68.2989 47.5345 68.3917 47.474 68.4936 47.4332C68.5955 47.3923 68.7044 47.372 68.8142 47.3734C68.9239 47.3748 69.0323 47.3979 69.1331 47.4413C69.2339 47.4847 69.3251 47.5476 69.4016 47.6263C69.478 47.7051 69.5381 47.7982 69.5785 47.9002C69.6188 48.0023 69.6386 48.1113 69.6367 48.2211C69.6348 48.3308 69.6113 48.4391 69.5674 48.5397C69.5236 48.6403 69.4603 48.7313 69.3812 48.8073L63.9717 54.057C63.816 54.2077 63.608 54.2921 63.3914 54.2925H63.3669C63.2554 54.289 63.1456 54.2632 63.0442 54.2167C62.9427 54.1702 62.8516 54.1039 62.7762 54.0217L59.9813 50.9604V50.9603ZM73.4011 50.834C73.4011 50.7245 73.4226 50.6162 73.4645 50.5151C73.5063 50.414 73.5677 50.3221 73.6451 50.2447C73.7225 50.1673 73.8143 50.1059 73.9155 50.0641C74.0166 50.0222 74.1249 50.0007 74.2344 50.0007H84.9735C85.193 50.0031 85.4026 50.0919 85.557 50.2479C85.7113 50.404 85.7979 50.6146 85.7979 50.834C85.7979 51.0535 85.7113 51.2641 85.557 51.4201C85.4026 51.5762 85.193 51.665 84.9735 51.6674H74.2342C74.1247 51.6674 74.0164 51.6459 73.9152 51.604C73.8141 51.5621 73.7222 51.5007 73.6449 51.4233C73.5675 51.3459 73.5061 51.2541 73.4642 51.1529C73.4224 51.0518 73.4008 50.9434 73.4009 50.834H73.4011ZM59.9812 59.1902C59.9074 59.1094 59.8502 59.0147 59.813 58.9118C59.7758 58.8088 59.7592 58.6995 59.7642 58.5902C59.7692 58.4808 59.7957 58.3735 59.8422 58.2744C59.8887 58.1752 59.9542 58.0862 60.0351 58.0125C60.116 57.9387 60.2106 57.8815 60.3136 57.8443C60.4165 57.8071 60.5258 57.7905 60.6352 57.7955C60.7445 57.8005 60.8519 57.827 60.951 57.8735C61.0501 57.92 61.1391 57.9855 61.2129 58.0664L63.427 60.4924L68.2207 55.8405C68.2992 55.7643 68.3919 55.7043 68.4936 55.6639C68.5953 55.6236 68.704 55.6036 68.8134 55.6053C68.9227 55.6069 69.0308 55.63 69.1312 55.6734C69.2316 55.7167 69.3226 55.7795 69.3988 55.858C69.475 55.9365 69.535 56.0292 69.5754 56.1309C69.6157 56.2326 69.6357 56.3412 69.6341 56.4506C69.6324 56.56 69.6093 56.668 69.5659 56.7685C69.5226 56.8689 69.4598 56.9598 69.3813 57.036L63.9719 62.2862C63.8162 62.4369 63.6082 62.5212 63.3916 62.5216H63.3671C63.2556 62.5181 63.1458 62.4924 63.0444 62.4459C62.9429 62.3994 62.8518 62.3331 62.7764 62.2509L59.9815 59.1902H59.9812ZM73.4009 59.0633C73.4008 58.9538 73.4223 58.8454 73.4641 58.7442C73.506 58.6431 73.5674 58.5511 73.6447 58.4737C73.7221 58.3963 73.814 58.3348 73.9152 58.2929C74.0163 58.251 74.1247 58.2295 74.2342 58.2295H84.9735C85.1946 58.2295 85.4066 58.3173 85.563 58.4736C85.7193 58.63 85.8071 58.842 85.8071 59.0631C85.8071 59.2842 85.7193 59.4962 85.563 59.6525C85.4066 59.8089 85.1946 59.8967 84.9735 59.8967H74.2342C74.1247 59.8967 74.0164 59.8752 73.9152 59.8333C73.8141 59.7914 73.7222 59.73 73.6449 59.6526C73.5675 59.5752 73.5061 59.4834 73.4642 59.3822C73.4224 59.2811 73.4008 59.1727 73.4009 59.0633ZM59.9812 67.4199C59.9073 67.339 59.8501 67.2444 59.8128 67.1414C59.7756 67.0385 59.759 66.9291 59.7639 66.8197C59.774 66.5988 59.8714 66.3909 60.0347 66.2417C60.1981 66.0926 60.4139 66.0145 60.6349 66.0245C60.8558 66.0346 61.0638 66.132 61.2129 66.2953L63.427 68.7217L68.2207 64.0694C68.2991 63.9926 68.3919 63.9321 68.4938 63.8913C68.5957 63.8504 68.7046 63.8301 68.8144 63.8315C68.9241 63.8329 69.0325 63.856 69.1333 63.8994C69.2341 63.9428 69.3253 64.0057 69.4018 64.0844C69.4782 64.1632 69.5383 64.2563 69.5787 64.3584C69.619 64.4604 69.6388 64.5694 69.6369 64.6792C69.635 64.7889 69.6115 64.8972 69.5676 64.9978C69.5238 65.0984 69.4605 65.1894 69.3813 65.2654L63.9715 70.5156C63.8159 70.6664 63.6078 70.7508 63.3912 70.751H63.3667C63.2552 70.7475 63.1455 70.7217 63.044 70.6752C62.9426 70.6287 62.8514 70.5625 62.776 70.4803L59.9812 67.4199ZM73.4009 67.293C73.4009 67.1835 73.4224 67.0752 73.4643 66.974C73.5061 66.8729 73.5675 66.7811 73.6449 66.7037C73.7223 66.6263 73.8141 66.5649 73.9153 66.523C74.0164 66.4812 74.1247 66.4596 74.2342 66.4597H84.9735C85.193 66.462 85.4026 66.5509 85.557 66.7069C85.7113 66.8629 85.7979 67.0735 85.7979 67.293C85.7979 67.5125 85.7113 67.7231 85.557 67.8791C85.4026 68.0351 85.193 68.124 84.9735 68.1264H74.2342C74.1247 68.1264 74.0164 68.1049 73.9152 68.063C73.8141 68.0211 73.7222 67.9597 73.6449 67.8823C73.5675 67.8049 73.5061 67.713 73.4642 67.6119C73.4224 67.5108 73.4008 67.4024 73.4009 67.293ZM59.9812 75.6485C59.9074 75.5677 59.8502 75.473 59.813 75.3701C59.7758 75.2671 59.7592 75.1578 59.7642 75.0485C59.7693 74.9391 59.7958 74.8318 59.8422 74.7327C59.8887 74.6336 59.9543 74.5446 60.0352 74.4708C60.116 74.397 60.2107 74.3399 60.3136 74.3027C60.4166 74.2654 60.5258 74.2489 60.6352 74.2539C60.7446 74.2589 60.8519 74.2854 60.951 74.3319C61.0501 74.3784 61.1391 74.4439 61.2129 74.5248L63.4266 76.9512L68.2203 72.2988C68.38 72.1512 68.5911 72.0719 68.8084 72.0778C69.0258 72.0837 69.2322 72.1743 69.3837 72.3303C69.5352 72.4863 69.6197 72.6953 69.6192 72.9128C69.6187 73.1302 69.5332 73.3389 69.381 73.4941L63.9715 78.7444C63.8158 78.8951 63.6078 78.9794 63.3912 78.9798H63.3667C63.2552 78.9763 63.1454 78.9505 63.044 78.904C62.9426 78.8575 62.8514 78.7912 62.776 78.709L59.9812 75.6483V75.6485ZM73.4009 75.5216C73.4009 75.4122 73.4225 75.3038 73.4643 75.2028C73.5062 75.1017 73.5676 75.0099 73.645 74.9325C73.7224 74.8552 73.8142 74.7938 73.9153 74.752C74.0164 74.7101 74.1248 74.6886 74.2342 74.6887H84.9735C85.193 74.691 85.4026 74.7799 85.557 74.9359C85.7113 75.0919 85.7979 75.3026 85.7979 75.522C85.7979 75.7415 85.7113 75.9521 85.557 76.1081C85.4026 76.2642 85.193 76.353 84.9735 76.3554H74.2342C74.1247 76.3554 74.0163 76.3338 73.9151 76.2919C73.8139 76.25 73.722 76.1885 73.6446 76.1111C73.5673 76.0336 73.5059 75.9416 73.4641 75.8404C73.4222 75.7392 73.4008 75.6308 73.4009 75.5213V75.5216Z"/>
</mask>
<path fill-rule="evenodd" clip-rule="evenodd" d="M91.3308 44.3612L84.886 44.3549V37.9892L91.3308 44.3612ZM53 85.9485C53.0002 86.1418 53.077 86.3272 53.2137 86.4639C53.3504 86.6006 53.5357 86.6775 53.729 86.6777H91.8413C92.0347 86.6776 92.2201 86.6008 92.3568 86.464C92.4935 86.3273 92.5704 86.1419 92.5705 85.9485V46.0289L84.0517 46.0206C83.8308 46.0204 83.619 45.9326 83.4629 45.7763C83.3068 45.62 83.2192 45.4081 83.2193 45.1872V36.6777H53.729C53.5357 36.678 53.3504 36.755 53.2138 36.8917C53.0771 37.0284 53.0003 37.2137 53 37.4069V85.9485ZM59.9813 50.9603C59.8367 50.7963 59.7623 50.5821 59.7741 50.3637C59.786 50.1454 59.8832 49.9405 60.0447 49.7932C60.2063 49.6458 60.4192 49.5679 60.6377 49.5761C60.8562 49.5844 61.0627 49.6781 61.2127 49.8372L63.4268 52.2631L68.2205 47.6113C68.2989 47.5345 68.3917 47.474 68.4936 47.4332C68.5955 47.3923 68.7044 47.372 68.8142 47.3734C68.9239 47.3748 69.0323 47.3979 69.1331 47.4413C69.2339 47.4847 69.3251 47.5476 69.4016 47.6263C69.478 47.7051 69.5381 47.7982 69.5785 47.9002C69.6188 48.0023 69.6386 48.1113 69.6367 48.2211C69.6348 48.3308 69.6113 48.4391 69.5674 48.5397C69.5236 48.6403 69.4603 48.7313 69.3812 48.8073L63.9717 54.057C63.816 54.2077 63.608 54.2921 63.3914 54.2925H63.3669C63.2554 54.289 63.1456 54.2632 63.0442 54.2167C62.9427 54.1702 62.8516 54.1039 62.7762 54.0217L59.9813 50.9604V50.9603ZM73.4011 50.834C73.4011 50.7245 73.4226 50.6162 73.4645 50.5151C73.5063 50.414 73.5677 50.3221 73.6451 50.2447C73.7225 50.1673 73.8143 50.1059 73.9155 50.0641C74.0166 50.0222 74.1249 50.0007 74.2344 50.0007H84.9735C85.193 50.0031 85.4026 50.0919 85.557 50.2479C85.7113 50.404 85.7979 50.6146 85.7979 50.834C85.7979 51.0535 85.7113 51.2641 85.557 51.4201C85.4026 51.5762 85.193 51.665 84.9735 51.6674H74.2342C74.1247 51.6674 74.0164 51.6459 73.9152 51.604C73.8141 51.5621 73.7222 51.5007 73.6449 51.4233C73.5675 51.3459 73.5061 51.2541 73.4642 51.1529C73.4224 51.0518 73.4008 50.9434 73.4009 50.834H73.4011ZM59.9812 59.1902C59.9074 59.1094 59.8502 59.0147 59.813 58.9118C59.7758 58.8088 59.7592 58.6995 59.7642 58.5902C59.7692 58.4808 59.7957 58.3735 59.8422 58.2744C59.8887 58.1752 59.9542 58.0862 60.0351 58.0125C60.116 57.9387 60.2106 57.8815 60.3136 57.8443C60.4165 57.8071 60.5258 57.7905 60.6352 57.7955C60.7445 57.8005 60.8519 57.827 60.951 57.8735C61.0501 57.92 61.1391 57.9855 61.2129 58.0664L63.427 60.4924L68.2207 55.8405C68.2992 55.7643 68.3919 55.7043 68.4936 55.6639C68.5953 55.6236 68.704 55.6036 68.8134 55.6053C68.9227 55.6069 69.0308 55.63 69.1312 55.6734C69.2316 55.7167 69.3226 55.7795 69.3988 55.858C69.475 55.9365 69.535 56.0292 69.5754 56.1309C69.6157 56.2326 69.6357 56.3412 69.6341 56.4506C69.6324 56.56 69.6093 56.668 69.5659 56.7685C69.5226 56.8689 69.4598 56.9598 69.3813 57.036L63.9719 62.2862C63.8162 62.4369 63.6082 62.5212 63.3916 62.5216H63.3671C63.2556 62.5181 63.1458 62.4924 63.0444 62.4459C62.9429 62.3994 62.8518 62.3331 62.7764 62.2509L59.9815 59.1902H59.9812ZM73.4009 59.0633C73.4008 58.9538 73.4223 58.8454 73.4641 58.7442C73.506 58.6431 73.5674 58.5511 73.6447 58.4737C73.7221 58.3963 73.814 58.3348 73.9152 58.2929C74.0163 58.251 74.1247 58.2295 74.2342 58.2295H84.9735C85.1946 58.2295 85.4066 58.3173 85.563 58.4736C85.7193 58.63 85.8071 58.842 85.8071 59.0631C85.8071 59.2842 85.7193 59.4962 85.563 59.6525C85.4066 59.8089 85.1946 59.8967 84.9735 59.8967H74.2342C74.1247 59.8967 74.0164 59.8752 73.9152 59.8333C73.8141 59.7914 73.7222 59.73 73.6449 59.6526C73.5675 59.5752 73.5061 59.4834 73.4642 59.3822C73.4224 59.2811 73.4008 59.1727 73.4009 59.0633ZM59.9812 67.4199C59.9073 67.339 59.8501 67.2444 59.8128 67.1414C59.7756 67.0385 59.759 66.9291 59.7639 66.8197C59.774 66.5988 59.8714 66.3909 60.0347 66.2417C60.1981 66.0926 60.4139 66.0145 60.6349 66.0245C60.8558 66.0346 61.0638 66.132 61.2129 66.2953L63.427 68.7217L68.2207 64.0694C68.2991 63.9926 68.3919 63.9321 68.4938 63.8913C68.5957 63.8504 68.7046 63.8301 68.8144 63.8315C68.9241 63.8329 69.0325 63.856 69.1333 63.8994C69.2341 63.9428 69.3253 64.0057 69.4018 64.0844C69.4782 64.1632 69.5383 64.2563 69.5787 64.3584C69.619 64.4604 69.6388 64.5694 69.6369 64.6792C69.635 64.7889 69.6115 64.8972 69.5676 64.9978C69.5238 65.0984 69.4605 65.1894 69.3813 65.2654L63.9715 70.5156C63.8159 70.6664 63.6078 70.7508 63.3912 70.751H63.3667C63.2552 70.7475 63.1455 70.7217 63.044 70.6752C62.9426 70.6287 62.8514 70.5625 62.776 70.4803L59.9812 67.4199ZM73.4009 67.293C73.4009 67.1835 73.4224 67.0752 73.4643 66.974C73.5061 66.8729 73.5675 66.7811 73.6449 66.7037C73.7223 66.6263 73.8141 66.5649 73.9153 66.523C74.0164 66.4812 74.1247 66.4596 74.2342 66.4597H84.9735C85.193 66.462 85.4026 66.5509 85.557 66.7069C85.7113 66.8629 85.7979 67.0735 85.7979 67.293C85.7979 67.5125 85.7113 67.7231 85.557 67.8791C85.4026 68.0351 85.193 68.124 84.9735 68.1264H74.2342C74.1247 68.1264 74.0164 68.1049 73.9152 68.063C73.8141 68.0211 73.7222 67.9597 73.6449 67.8823C73.5675 67.8049 73.5061 67.713 73.4642 67.6119C73.4224 67.5108 73.4008 67.4024 73.4009 67.293ZM59.9812 75.6485C59.9074 75.5677 59.8502 75.473 59.813 75.3701C59.7758 75.2671 59.7592 75.1578 59.7642 75.0485C59.7693 74.9391 59.7958 74.8318 59.8422 74.7327C59.8887 74.6336 59.9543 74.5446 60.0352 74.4708C60.116 74.397 60.2107 74.3399 60.3136 74.3027C60.4166 74.2654 60.5258 74.2489 60.6352 74.2539C60.7446 74.2589 60.8519 74.2854 60.951 74.3319C61.0501 74.3784 61.1391 74.4439 61.2129 74.5248L63.4266 76.9512L68.2203 72.2988C68.38 72.1512 68.5911 72.0719 68.8084 72.0778C69.0258 72.0837 69.2322 72.1743 69.3837 72.3303C69.5352 72.4863 69.6197 72.6953 69.6192 72.9128C69.6187 73.1302 69.5332 73.3389 69.381 73.4941L63.9715 78.7444C63.8158 78.8951 63.6078 78.9794 63.3912 78.9798H63.3667C63.2552 78.9763 63.1454 78.9505 63.044 78.904C62.9426 78.8575 62.8514 78.7912 62.776 78.709L59.9812 75.6483V75.6485ZM73.4009 75.5216C73.4009 75.4122 73.4225 75.3038 73.4643 75.2028C73.5062 75.1017 73.5676 75.0099 73.645 74.9325C73.7224 74.8552 73.8142 74.7938 73.9153 74.752C74.0164 74.7101 74.1248 74.6886 74.2342 74.6887H84.9735C85.193 74.691 85.4026 74.7799 85.557 74.9359C85.7113 75.0919 85.7979 75.3026 85.7979 75.522C85.7979 75.7415 85.7113 75.9521 85.557 76.1081C85.4026 76.2642 85.193 76.353 84.9735 76.3554H74.2342C74.1247 76.3554 74.0163 76.3338 73.9151 76.2919C73.8139 76.25 73.722 76.1885 73.6446 76.1111C73.5673 76.0336 73.5059 75.9416 73.4641 75.8404C73.4222 75.7392 73.4008 75.6308 73.4009 75.5213V75.5216Z" stroke="#08E2F0" stroke-width="2" mask="url(#path-1-inside-1_236_302)"/>
</g>
<mask id="path-2-inside-2_236_302" fill="white">
<path fill-rule="evenodd" clip-rule="evenodd" d="M91.3308 44.3612L84.886 44.3549V37.9892L91.3308 44.3612ZM53 85.9485C53.0002 86.1418 53.077 86.3272 53.2137 86.4639C53.3504 86.6006 53.5357 86.6775 53.729 86.6777H91.8413C92.0347 86.6776 92.2201 86.6008 92.3568 86.464C92.4935 86.3273 92.5704 86.1419 92.5705 85.9485V46.0289L84.0517 46.0206C83.8308 46.0204 83.619 45.9326 83.4629 45.7763C83.3068 45.62 83.2192 45.4081 83.2193 45.1872V36.6777H53.729C53.5357 36.678 53.3504 36.755 53.2138 36.8917C53.0771 37.0284 53.0003 37.2137 53 37.4069V85.9485ZM59.9813 50.9603C59.8367 50.7963 59.7623 50.5821 59.7741 50.3637C59.786 50.1454 59.8832 49.9405 60.0447 49.7932C60.2063 49.6458 60.4192 49.5679 60.6377 49.5761C60.8562 49.5844 61.0627 49.6781 61.2127 49.8372L63.4268 52.2631L68.2205 47.6113C68.2989 47.5345 68.3917 47.474 68.4936 47.4332C68.5955 47.3923 68.7044 47.372 68.8142 47.3734C68.9239 47.3748 69.0323 47.3979 69.1331 47.4413C69.2339 47.4847 69.3251 47.5476 69.4016 47.6263C69.478 47.7051 69.5381 47.7982 69.5785 47.9002C69.6188 48.0023 69.6386 48.1113 69.6367 48.2211C69.6348 48.3308 69.6113 48.4391 69.5674 48.5397C69.5236 48.6403 69.4603 48.7313 69.3812 48.8073L63.9717 54.057C63.816 54.2077 63.608 54.2921 63.3914 54.2925H63.3669C63.2554 54.289 63.1456 54.2632 63.0442 54.2167C62.9427 54.1702 62.8516 54.1039 62.7762 54.0217L59.9813 50.9604V50.9603ZM73.4011 50.834C73.4011 50.7245 73.4226 50.6162 73.4645 50.5151C73.5063 50.414 73.5677 50.3221 73.6451 50.2447C73.7225 50.1673 73.8143 50.1059 73.9155 50.0641C74.0166 50.0222 74.1249 50.0007 74.2344 50.0007H84.9735C85.193 50.0031 85.4026 50.0919 85.557 50.2479C85.7113 50.404 85.7979 50.6146 85.7979 50.834C85.7979 51.0535 85.7113 51.2641 85.557 51.4201C85.4026 51.5762 85.193 51.665 84.9735 51.6674H74.2342C74.1247 51.6674 74.0164 51.6459 73.9152 51.604C73.8141 51.5621 73.7222 51.5007 73.6449 51.4233C73.5675 51.3459 73.5061 51.2541 73.4642 51.1529C73.4224 51.0518 73.4008 50.9434 73.4009 50.834H73.4011ZM59.9812 59.1902C59.9074 59.1094 59.8502 59.0147 59.813 58.9118C59.7758 58.8088 59.7592 58.6995 59.7642 58.5902C59.7692 58.4808 59.7957 58.3735 59.8422 58.2744C59.8887 58.1752 59.9542 58.0862 60.0351 58.0125C60.116 57.9387 60.2106 57.8815 60.3136 57.8443C60.4165 57.8071 60.5258 57.7905 60.6352 57.7955C60.7445 57.8005 60.8519 57.827 60.951 57.8735C61.0501 57.92 61.1391 57.9855 61.2129 58.0664L63.427 60.4924L68.2207 55.8405C68.2992 55.7643 68.3919 55.7043 68.4936 55.6639C68.5953 55.6236 68.704 55.6036 68.8134 55.6053C68.9227 55.6069 69.0308 55.63 69.1312 55.6734C69.2316 55.7167 69.3226 55.7795 69.3988 55.858C69.475 55.9365 69.535 56.0292 69.5754 56.1309C69.6157 56.2326 69.6357 56.3412 69.6341 56.4506C69.6324 56.56 69.6093 56.668 69.5659 56.7685C69.5226 56.8689 69.4598 56.9598 69.3813 57.036L63.9719 62.2862C63.8162 62.4369 63.6082 62.5212 63.3916 62.5216H63.3671C63.2556 62.5181 63.1458 62.4924 63.0444 62.4459C62.9429 62.3994 62.8518 62.3331 62.7764 62.2509L59.9815 59.1902H59.9812ZM73.4009 59.0633C73.4008 58.9538 73.4223 58.8454 73.4641 58.7442C73.506 58.6431 73.5674 58.5511 73.6447 58.4737C73.7221 58.3963 73.814 58.3348 73.9152 58.2929C74.0163 58.251 74.1247 58.2295 74.2342 58.2295H84.9735C85.1946 58.2295 85.4066 58.3173 85.563 58.4736C85.7193 58.63 85.8071 58.842 85.8071 59.0631C85.8071 59.2842 85.7193 59.4962 85.563 59.6525C85.4066 59.8089 85.1946 59.8967 84.9735 59.8967H74.2342C74.1247 59.8967 74.0164 59.8752 73.9152 59.8333C73.8141 59.7914 73.7222 59.73 73.6449 59.6526C73.5675 59.5752 73.5061 59.4834 73.4642 59.3822C73.4224 59.2811 73.4008 59.1727 73.4009 59.0633ZM59.9812 67.4199C59.9073 67.339 59.8501 67.2444 59.8128 67.1414C59.7756 67.0385 59.759 66.9291 59.7639 66.8197C59.774 66.5988 59.8714 66.3909 60.0347 66.2417C60.1981 66.0926 60.4139 66.0145 60.6349 66.0245C60.8558 66.0346 61.0638 66.132 61.2129 66.2953L63.427 68.7217L68.2207 64.0694C68.2991 63.9926 68.3919 63.9321 68.4938 63.8913C68.5957 63.8504 68.7046 63.8301 68.8144 63.8315C68.9241 63.8329 69.0325 63.856 69.1333 63.8994C69.2341 63.9428 69.3253 64.0057 69.4018 64.0844C69.4782 64.1632 69.5383 64.2563 69.5787 64.3584C69.619 64.4604 69.6388 64.5694 69.6369 64.6792C69.635 64.7889 69.6115 64.8972 69.5676 64.9978C69.5238 65.0984 69.4605 65.1894 69.3813 65.2654L63.9715 70.5156C63.8159 70.6664 63.6078 70.7508 63.3912 70.751H63.3667C63.2552 70.7475 63.1455 70.7217 63.044 70.6752C62.9426 70.6287 62.8514 70.5625 62.776 70.4803L59.9812 67.4199ZM73.4009 67.293C73.4009 67.1835 73.4224 67.0752 73.4643 66.974C73.5061 66.8729 73.5675 66.7811 73.6449 66.7037C73.7223 66.6263 73.8141 66.5649 73.9153 66.523C74.0164 66.4812 74.1247 66.4596 74.2342 66.4597H84.9735C85.193 66.462 85.4026 66.5509 85.557 66.7069C85.7113 66.8629 85.7979 67.0735 85.7979 67.293C85.7979 67.5125 85.7113 67.7231 85.557 67.8791C85.4026 68.0351 85.193 68.124 84.9735 68.1264H74.2342C74.1247 68.1264 74.0164 68.1049 73.9152 68.063C73.8141 68.0211 73.7222 67.9597 73.6449 67.8823C73.5675 67.8049 73.5061 67.713 73.4642 67.6119C73.4224 67.5108 73.4008 67.4024 73.4009 67.293ZM59.9812 75.6485C59.9074 75.5677 59.8502 75.473 59.813 75.3701C59.7758 75.2671 59.7592 75.1578 59.7642 75.0485C59.7693 74.9391 59.7958 74.8318 59.8422 74.7327C59.8887 74.6336 59.9543 74.5446 60.0352 74.4708C60.116 74.397 60.2107 74.3399 60.3136 74.3027C60.4166 74.2654 60.5258 74.2489 60.6352 74.2539C60.7446 74.2589 60.8519 74.2854 60.951 74.3319C61.0501 74.3784 61.1391 74.4439 61.2129 74.5248L63.4266 76.9512L68.2203 72.2988C68.38 72.1512 68.5911 72.0719 68.8084 72.0778C69.0258 72.0837 69.2322 72.1743 69.3837 72.3303C69.5352 72.4863 69.6197 72.6953 69.6192 72.9128C69.6187 73.1302 69.5332 73.3389 69.381 73.4941L63.9715 78.7444C63.8158 78.8951 63.6078 78.9794 63.3912 78.9798H63.3667C63.2552 78.9763 63.1454 78.9505 63.044 78.904C62.9426 78.8575 62.8514 78.7912 62.776 78.709L59.9812 75.6483V75.6485ZM73.4009 75.5216C73.4009 75.4122 73.4225 75.3038 73.4643 75.2028C73.5062 75.1017 73.5676 75.0099 73.645 74.9325C73.7224 74.8552 73.8142 74.7938 73.9153 74.752C74.0164 74.7101 74.1248 74.6886 74.2342 74.6887H84.9735C85.193 74.691 85.4026 74.7799 85.557 74.9359C85.7113 75.0919 85.7979 75.3026 85.7979 75.522C85.7979 75.7415 85.7113 75.9521 85.557 76.1081C85.4026 76.2642 85.193 76.353 84.9735 76.3554H74.2342C74.1247 76.3554 74.0163 76.3338 73.9151 76.2919C73.8139 76.25 73.722 76.1885 73.6446 76.1111C73.5673 76.0336 73.5059 75.9416 73.4641 75.8404C73.4222 75.7392 73.4008 75.6308 73.4009 75.5213V75.5216Z"/>
</mask>
<path fill-rule="evenodd" clip-rule="evenodd" d="M91.3308 44.3612L84.886 44.3549V37.9892L91.3308 44.3612ZM53 85.9485C53.0002 86.1418 53.077 86.3272 53.2137 86.4639C53.3504 86.6006 53.5357 86.6775 53.729 86.6777H91.8413C92.0347 86.6776 92.2201 86.6008 92.3568 86.464C92.4935 86.3273 92.5704 86.1419 92.5705 85.9485V46.0289L84.0517 46.0206C83.8308 46.0204 83.619 45.9326 83.4629 45.7763C83.3068 45.62 83.2192 45.4081 83.2193 45.1872V36.6777H53.729C53.5357 36.678 53.3504 36.755 53.2138 36.8917C53.0771 37.0284 53.0003 37.2137 53 37.4069V85.9485ZM59.9813 50.9603C59.8367 50.7963 59.7623 50.5821 59.7741 50.3637C59.786 50.1454 59.8832 49.9405 60.0447 49.7932C60.2063 49.6458 60.4192 49.5679 60.6377 49.5761C60.8562 49.5844 61.0627 49.6781 61.2127 49.8372L63.4268 52.2631L68.2205 47.6113C68.2989 47.5345 68.3917 47.474 68.4936 47.4332C68.5955 47.3923 68.7044 47.372 68.8142 47.3734C68.9239 47.3748 69.0323 47.3979 69.1331 47.4413C69.2339 47.4847 69.3251 47.5476 69.4016 47.6263C69.478 47.7051 69.5381 47.7982 69.5785 47.9002C69.6188 48.0023 69.6386 48.1113 69.6367 48.2211C69.6348 48.3308 69.6113 48.4391 69.5674 48.5397C69.5236 48.6403 69.4603 48.7313 69.3812 48.8073L63.9717 54.057C63.816 54.2077 63.608 54.2921 63.3914 54.2925H63.3669C63.2554 54.289 63.1456 54.2632 63.0442 54.2167C62.9427 54.1702 62.8516 54.1039 62.7762 54.0217L59.9813 50.9604V50.9603ZM73.4011 50.834C73.4011 50.7245 73.4226 50.6162 73.4645 50.5151C73.5063 50.414 73.5677 50.3221 73.6451 50.2447C73.7225 50.1673 73.8143 50.1059 73.9155 50.0641C74.0166 50.0222 74.1249 50.0007 74.2344 50.0007H84.9735C85.193 50.0031 85.4026 50.0919 85.557 50.2479C85.7113 50.404 85.7979 50.6146 85.7979 50.834C85.7979 51.0535 85.7113 51.2641 85.557 51.4201C85.4026 51.5762 85.193 51.665 84.9735 51.6674H74.2342C74.1247 51.6674 74.0164 51.6459 73.9152 51.604C73.8141 51.5621 73.7222 51.5007 73.6449 51.4233C73.5675 51.3459 73.5061 51.2541 73.4642 51.1529C73.4224 51.0518 73.4008 50.9434 73.4009 50.834H73.4011ZM59.9812 59.1902C59.9074 59.1094 59.8502 59.0147 59.813 58.9118C59.7758 58.8088 59.7592 58.6995 59.7642 58.5902C59.7692 58.4808 59.7957 58.3735 59.8422 58.2744C59.8887 58.1752 59.9542 58.0862 60.0351 58.0125C60.116 57.9387 60.2106 57.8815 60.3136 57.8443C60.4165 57.8071 60.5258 57.7905 60.6352 57.7955C60.7445 57.8005 60.8519 57.827 60.951 57.8735C61.0501 57.92 61.1391 57.9855 61.2129 58.0664L63.427 60.4924L68.2207 55.8405C68.2992 55.7643 68.3919 55.7043 68.4936 55.6639C68.5953 55.6236 68.704 55.6036 68.8134 55.6053C68.9227 55.6069 69.0308 55.63 69.1312 55.6734C69.2316 55.7167 69.3226 55.7795 69.3988 55.858C69.475 55.9365 69.535 56.0292 69.5754 56.1309C69.6157 56.2326 69.6357 56.3412 69.6341 56.4506C69.6324 56.56 69.6093 56.668 69.5659 56.7685C69.5226 56.8689 69.4598 56.9598 69.3813 57.036L63.9719 62.2862C63.8162 62.4369 63.6082 62.5212 63.3916 62.5216H63.3671C63.2556 62.5181 63.1458 62.4924 63.0444 62.4459C62.9429 62.3994 62.8518 62.3331 62.7764 62.2509L59.9815 59.1902H59.9812ZM73.4009 59.0633C73.4008 58.9538 73.4223 58.8454 73.4641 58.7442C73.506 58.6431 73.5674 58.5511 73.6447 58.4737C73.7221 58.3963 73.814 58.3348 73.9152 58.2929C74.0163 58.251 74.1247 58.2295 74.2342 58.2295H84.9735C85.1946 58.2295 85.4066 58.3173 85.563 58.4736C85.7193 58.63 85.8071 58.842 85.8071 59.0631C85.8071 59.2842 85.7193 59.4962 85.563 59.6525C85.4066 59.8089 85.1946 59.8967 84.9735 59.8967H74.2342C74.1247 59.8967 74.0164 59.8752 73.9152 59.8333C73.8141 59.7914 73.7222 59.73 73.6449 59.6526C73.5675 59.5752 73.5061 59.4834 73.4642 59.3822C73.4224 59.2811 73.4008 59.1727 73.4009 59.0633ZM59.9812 67.4199C59.9073 67.339 59.8501 67.2444 59.8128 67.1414C59.7756 67.0385 59.759 66.9291 59.7639 66.8197C59.774 66.5988 59.8714 66.3909 60.0347 66.2417C60.1981 66.0926 60.4139 66.0145 60.6349 66.0245C60.8558 66.0346 61.0638 66.132 61.2129 66.2953L63.427 68.7217L68.2207 64.0694C68.2991 63.9926 68.3919 63.9321 68.4938 63.8913C68.5957 63.8504 68.7046 63.8301 68.8144 63.8315C68.9241 63.8329 69.0325 63.856 69.1333 63.8994C69.2341 63.9428 69.3253 64.0057 69.4018 64.0844C69.4782 64.1632 69.5383 64.2563 69.5787 64.3584C69.619 64.4604 69.6388 64.5694 69.6369 64.6792C69.635 64.7889 69.6115 64.8972 69.5676 64.9978C69.5238 65.0984 69.4605 65.1894 69.3813 65.2654L63.9715 70.5156C63.8159 70.6664 63.6078 70.7508 63.3912 70.751H63.3667C63.2552 70.7475 63.1455 70.7217 63.044 70.6752C62.9426 70.6287 62.8514 70.5625 62.776 70.4803L59.9812 67.4199ZM73.4009 67.293C73.4009 67.1835 73.4224 67.0752 73.4643 66.974C73.5061 66.8729 73.5675 66.7811 73.6449 66.7037C73.7223 66.6263 73.8141 66.5649 73.9153 66.523C74.0164 66.4812 74.1247 66.4596 74.2342 66.4597H84.9735C85.193 66.462 85.4026 66.5509 85.557 66.7069C85.7113 66.8629 85.7979 67.0735 85.7979 67.293C85.7979 67.5125 85.7113 67.7231 85.557 67.8791C85.4026 68.0351 85.193 68.124 84.9735 68.1264H74.2342C74.1247 68.1264 74.0164 68.1049 73.9152 68.063C73.8141 68.0211 73.7222 67.9597 73.6449 67.8823C73.5675 67.8049 73.5061 67.713 73.4642 67.6119C73.4224 67.5108 73.4008 67.4024 73.4009 67.293ZM59.9812 75.6485C59.9074 75.5677 59.8502 75.473 59.813 75.3701C59.7758 75.2671 59.7592 75.1578 59.7642 75.0485C59.7693 74.9391 59.7958 74.8318 59.8422 74.7327C59.8887 74.6336 59.9543 74.5446 60.0352 74.4708C60.116 74.397 60.2107 74.3399 60.3136 74.3027C60.4166 74.2654 60.5258 74.2489 60.6352 74.2539C60.7446 74.2589 60.8519 74.2854 60.951 74.3319C61.0501 74.3784 61.1391 74.4439 61.2129 74.5248L63.4266 76.9512L68.2203 72.2988C68.38 72.1512 68.5911 72.0719 68.8084 72.0778C69.0258 72.0837 69.2322 72.1743 69.3837 72.3303C69.5352 72.4863 69.6197 72.6953 69.6192 72.9128C69.6187 73.1302 69.5332 73.3389 69.381 73.4941L63.9715 78.7444C63.8158 78.8951 63.6078 78.9794 63.3912 78.9798H63.3667C63.2552 78.9763 63.1454 78.9505 63.044 78.904C62.9426 78.8575 62.8514 78.7912 62.776 78.709L59.9812 75.6483V75.6485ZM73.4009 75.5216C73.4009 75.4122 73.4225 75.3038 73.4643 75.2028C73.5062 75.1017 73.5676 75.0099 73.645 74.9325C73.7224 74.8552 73.8142 74.7938 73.9153 74.752C74.0164 74.7101 74.1248 74.6886 74.2342 74.6887H84.9735C85.193 74.691 85.4026 74.7799 85.557 74.9359C85.7113 75.0919 85.7979 75.3026 85.7979 75.522C85.7979 75.7415 85.7113 75.9521 85.557 76.1081C85.4026 76.2642 85.193 76.353 84.9735 76.3554H74.2342C74.1247 76.3554 74.0163 76.3338 73.9151 76.2919C73.8139 76.25 73.722 76.1885 73.6446 76.1111C73.5673 76.0336 73.5059 75.9416 73.4641 75.8404C73.4222 75.7392 73.4008 75.6308 73.4009 75.5213V75.5216Z" stroke="#CFFF04" stroke-width="1.2" mask="url(#path-2-inside-2_236_302)"/>
<g filter="url(#filter1_f_236_302)">
<path d="M7.60087 22.87H5V5.84766H21.981V8.47083H7.60087V22.87Z" fill="#08E2F0"/>
<path d="M140 22.87H137.38V8.47083H123V5.84766H140V22.87Z" fill="#08E2F0"/>
<path d="M140 141.046H123V138.423H137.38V124.023H140V141.046Z" fill="#08E2F0"/>
<path d="M21.981 141.046H5V124.023H7.60087V138.423H21.981V141.046Z" fill="#08E2F0"/>
</g>
<path d="M7.60087 22.87H5V5.84766H21.981V8.47083H7.60087V22.87Z" fill="#08E2F0"/>
<path d="M140 22.87H137.38V8.47083H123V5.84766H140V22.87Z" fill="#08E2F0"/>
<path d="M140 141.046H123V138.423H137.38V124.023H140V141.046Z" fill="#08E2F0"/>
<path d="M21.981 141.046H5V124.023H7.60087V138.423H21.981V141.046Z" fill="#08E2F0"/>
<rect opacity="0.07" x="20" y="8.67773" width="105" height="105" rx="52.5" fill="#08E2F0"/>
<g filter="url(#filter2_f_236_302)">
<path d="M137.092 74.053H136.018V73.4023H137.092V74.053ZM133.825 74.053H132.751V73.4023H133.825V74.053ZM130.558 74.053H129.485V73.4023H130.558V74.053ZM127.276 74.053H126.203V73.4023H127.276V74.053ZM124.01 74.053H122.936V73.4023H124.01V74.053ZM120.728 74.053H119.654V73.4023H120.728V74.053ZM117.461 74.053H116.388V73.4023H117.461V74.053ZM114.195 74.053H113.121V73.4023H114.195V74.053ZM110.928 74.053H109.854V73.4023H110.928V74.053ZM107.661 74.053H106.588V73.4023H107.661V74.053ZM104.379 74.053H103.306V73.4023H104.379V74.053ZM101.113 74.053H100.039V73.4023H101.113V74.053Z" fill="#08E2F0"/>
<path d="M44.0374 74.053H42.9637V73.4023H44.0374V74.053ZM40.7707 74.053H39.697V73.4023H40.7707V74.053ZM37.489 74.053H36.4152V73.4023H37.489V74.053ZM34.2223 74.053H33.1485V73.4023H34.2223V74.053ZM30.9405 74.053H29.8667V73.4023H30.9405V74.053ZM27.6738 74.053H26.6V73.4023H27.6738V74.053ZM24.4071 74.053H23.3334V73.4023H24.4071V74.053ZM21.1405 74.053H20.0667V73.4023H21.1405V74.053ZM17.8738 74.053H16.8V73.4023H17.8738V74.053ZM14.6071 74.053H13.5333V73.4023H14.6071V74.053ZM11.3404 74.053H10.2667V73.4023H11.3404V74.053ZM8.07376 74.053H7V73.4023H8.07376V74.053Z" fill="#08E2F0"/>
<path d="M72.3713 8.59568V9.6709H71.7207V8.59568H72.3713ZM72.3713 11.8666V12.9419H71.7207V11.8666H72.3713ZM72.3713 15.1377V16.2128H71.7207V15.1377H72.3713ZM72.3713 18.4238V19.499H71.7207V18.4238H72.3713ZM72.3713 21.6948V22.77H71.7207V21.6948H72.3713ZM72.3713 24.981V26.0561H71.7207V24.981H72.3713ZM72.3713 28.2519V29.3271H71.7207V28.2519H72.3713ZM72.3713 31.523V32.5981H71.7207V31.523H72.3713ZM72.3713 34.7939V35.8691H71.7207V34.7939H72.3713ZM72.3713 38.065V39.1401H71.7207V38.065H72.3713ZM72.3713 41.3511V42.4263H71.7207V41.3511H72.3713ZM72.3713 44.622V45.6973H71.7207V44.622H72.3713Z" fill="#08E2F0"/>
<path d="M72.3713 101.773V102.848H71.7207V101.773H72.3713ZM72.3713 105.044V106.119H71.7207V105.044H72.3713ZM72.3713 108.33V109.405H71.7207V108.33H72.3713ZM72.3713 111.601V112.676H71.7207V111.601H72.3713ZM72.3713 114.887V115.962H71.7207V114.887H72.3713ZM72.3713 118.158V119.233H71.7207V118.158H72.3713ZM72.3713 121.429V122.504H71.7207V121.429H72.3713ZM72.3713 124.7V125.775H71.7207V124.7H72.3713ZM72.3713 127.971V129.046H71.7207V127.971H72.3713ZM72.3713 131.242V132.317H71.7207V131.242H72.3713ZM72.3713 134.513V135.588H71.7207V134.513H72.3713ZM72.3713 137.784V138.859H71.7207V137.784H72.3713Z" fill="#08E2F0"/>
</g>
<path d="M137.092 74.053H136.018V73.4023H137.092V74.053ZM133.825 74.053H132.751V73.4023H133.825V74.053ZM130.558 74.053H129.485V73.4023H130.558V74.053ZM127.276 74.053H126.203V73.4023H127.276V74.053ZM124.01 74.053H122.936V73.4023H124.01V74.053ZM120.728 74.053H119.654V73.4023H120.728V74.053ZM117.461 74.053H116.388V73.4023H117.461V74.053ZM114.195 74.053H113.121V73.4023H114.195V74.053ZM110.928 74.053H109.854V73.4023H110.928V74.053ZM107.661 74.053H106.588V73.4023H107.661V74.053ZM104.379 74.053H103.306V73.4023H104.379V74.053ZM101.113 74.053H100.039V73.4023H101.113V74.053Z" fill="#08E2F0"/>
<path d="M44.0374 74.053H42.9637V73.4023H44.0374V74.053ZM40.7707 74.053H39.697V73.4023H40.7707V74.053ZM37.489 74.053H36.4152V73.4023H37.489V74.053ZM34.2223 74.053H33.1485V73.4023H34.2223V74.053ZM30.9405 74.053H29.8667V73.4023H30.9405V74.053ZM27.6738 74.053H26.6V73.4023H27.6738V74.053ZM24.4071 74.053H23.3334V73.4023H24.4071V74.053ZM21.1405 74.053H20.0667V73.4023H21.1405V74.053ZM17.8738 74.053H16.8V73.4023H17.8738V74.053ZM14.6071 74.053H13.5333V73.4023H14.6071V74.053ZM11.3404 74.053H10.2667V73.4023H11.3404V74.053ZM8.07376 74.053H7V73.4023H8.07376V74.053Z" fill="#08E2F0"/>
<path d="M72.3713 8.59568V9.6709H71.7207V8.59568H72.3713ZM72.3713 11.8666V12.9419H71.7207V11.8666H72.3713ZM72.3713 15.1377V16.2128H71.7207V15.1377H72.3713ZM72.3713 18.4238V19.499H71.7207V18.4238H72.3713ZM72.3713 21.6948V22.77H71.7207V21.6948H72.3713ZM72.3713 24.981V26.0561H71.7207V24.981H72.3713ZM72.3713 28.2519V29.3271H71.7207V28.2519H72.3713ZM72.3713 31.523V32.5981H71.7207V31.523H72.3713ZM72.3713 34.7939V35.8691H71.7207V34.7939H72.3713ZM72.3713 38.065V39.1401H71.7207V38.065H72.3713ZM72.3713 41.3511V42.4263H71.7207V41.3511H72.3713ZM72.3713 44.622V45.6973H71.7207V44.622H72.3713Z" fill="#08E2F0"/>
<path d="M72.3713 101.773V102.848H71.7207V101.773H72.3713ZM72.3713 105.044V106.119H71.7207V105.044H72.3713ZM72.3713 108.33V109.405H71.7207V108.33H72.3713ZM72.3713 111.601V112.676H71.7207V111.601H72.3713ZM72.3713 114.887V115.962H71.7207V114.887H72.3713ZM72.3713 118.158V119.233H71.7207V118.158H72.3713ZM72.3713 121.429V122.504H71.7207V121.429H72.3713ZM72.3713 124.7V125.775H71.7207V124.7H72.3713ZM72.3713 127.971V129.046H71.7207V127.971H72.3713ZM72.3713 131.242V132.317H71.7207V131.242H72.3713ZM72.3713 134.513V135.588H71.7207V134.513H72.3713ZM72.3713 137.784V138.859H71.7207V137.784H72.3713Z" fill="#08E2F0"/>
<g filter="url(#filter3_f_236_302)">
<path d="M73.9817 74.0832H70.1252C69.9437 74.0832 69.8076 73.9317 69.8076 73.765C69.8076 73.5984 69.9588 73.4469 70.1252 73.4469H73.9817C74.1632 73.4469 74.2993 73.5984 74.2993 73.765C74.2993 73.9317 74.148 74.0832 73.9817 74.0832Z" fill="#08E2F0"/>
<path d="M72.0456 76.0076C71.8641 76.0076 71.728 75.8561 71.728 75.6894V71.826C71.728 71.6442 71.8792 71.5078 72.0456 71.5078C72.212 71.5078 72.3632 71.6593 72.3632 71.826V75.6894C72.3632 75.8712 72.212 76.0076 72.0456 76.0076Z" fill="#08E2F0"/>
</g>
<path d="M73.9817 74.0832H70.1252C69.9437 74.0832 69.8076 73.9317 69.8076 73.765C69.8076 73.5984 69.9588 73.4469 70.1252 73.4469H73.9817C74.1632 73.4469 74.2993 73.5984 74.2993 73.765C74.2993 73.9317 74.148 74.0832 73.9817 74.0832Z" fill="#08E2F0"/>
<path d="M72.0456 76.0076C71.8641 76.0076 71.728 75.8561 71.728 75.6894V71.826C71.728 71.6442 71.8792 71.5078 72.0456 71.5078C72.212 71.5078 72.3632 71.6593 72.3632 71.826V75.6894C72.3632 75.8712 72.212 76.0076 72.0456 76.0076Z" fill="#08E2F0"/>
<defs>
<filter id="filter0_f_236_302" x="51" y="34.6777" width="43.5703" height="54" filterUnits="userSpaceOnUse" color-interpolation-filters="sRGB">
<feFlood flood-opacity="0" result="BackgroundImageFix"/>
<feBlend mode="normal" in="SourceGraphic" in2="BackgroundImageFix" result="shape"/>
<feGaussianBlur stdDeviation="1" result="effect1_foregroundBlur_236_302"/>
</filter>
<filter id="filter1_f_236_302" x="0" y="0.847656" width="145" height="145.197" filterUnits="userSpaceOnUse" color-interpolation-filters="sRGB">
<feFlood flood-opacity="0" result="BackgroundImageFix"/>
<feBlend mode="normal" in="SourceGraphic" in2="BackgroundImageFix" result="shape"/>
<feGaussianBlur stdDeviation="2.5" result="effect1_foregroundBlur_236_302"/>
</filter>
<filter id="filter2_f_236_302" x="2" y="3.5957" width="140.092" height="140.264" filterUnits="userSpaceOnUse" color-interpolation-filters="sRGB">
<feFlood flood-opacity="0" result="BackgroundImageFix"/>
<feBlend mode="normal" in="SourceGraphic" in2="BackgroundImageFix" result="shape"/>
<feGaussianBlur stdDeviation="2.5" result="effect1_foregroundBlur_236_302"/>
</filter>
<filter id="filter3_f_236_302" x="67.8076" y="69.5078" width="8.49121" height="8.5" filterUnits="userSpaceOnUse" color-interpolation-filters="sRGB">
<feFlood flood-opacity="0" result="BackgroundImageFix"/>
<feBlend mode="normal" in="SourceGraphic" in2="BackgroundImageFix" result="shape"/>
<feGaussianBlur stdDeviation="1" result="effect1_foregroundBlur_236_302"/>
</filter>
</defs>
</svg>
