<svg width="145" height="147" viewBox="0 0 145 147" fill="none" xmlns="http://www.w3.org/2000/svg">
<g filter="url(#filter0_f_236_342)">
<mask id="path-1-inside-1_236_342" fill="white">
<path fill-rule="evenodd" clip-rule="evenodd" d="M76.3549 50.834C76.3549 50.7245 76.3765 50.6162 76.4183 50.515C76.4602 50.4139 76.5216 50.322 76.599 50.2447C76.6764 50.1673 76.7683 50.1059 76.8694 50.064C76.9705 50.0222 77.0789 50.0006 77.1883 50.0007H91.0193C91.1295 49.9995 91.2388 50.0202 91.341 50.0615C91.4431 50.1029 91.5361 50.164 91.6144 50.2416C91.6928 50.3191 91.755 50.4113 91.7974 50.513C91.8399 50.6147 91.8617 50.7238 91.8617 50.834C91.8617 50.9442 91.8399 51.0533 91.7974 51.155C91.755 51.2567 91.6928 51.349 91.6144 51.4265C91.5361 51.504 91.4431 51.5652 91.341 51.6066C91.2388 51.6479 91.1295 51.6686 91.0193 51.6674H77.1883C76.9673 51.6674 76.7554 51.5795 76.5991 51.4233C76.4428 51.267 76.355 51.055 76.3549 50.834ZM77.1883 56.6331H91.0193C91.1295 56.6343 91.2388 56.6136 91.341 56.5723C91.4431 56.5309 91.5361 56.4697 91.6144 56.3922C91.6928 56.3147 91.755 56.2225 91.7974 56.1208C91.8399 56.0191 91.8617 55.91 91.8617 55.7998C91.8617 55.6896 91.8399 55.5804 91.7974 55.4787C91.755 55.377 91.6928 55.2848 91.6144 55.2073C91.5361 55.1298 91.4431 55.0686 91.341 55.0272C91.2388 54.9859 91.1295 54.9652 91.0193 54.9664H77.1883C77.0781 54.9652 76.9688 54.9859 76.8666 55.0272C76.7645 55.0686 76.6716 55.1298 76.5932 55.2073C76.5149 55.2848 76.4527 55.377 76.4102 55.4787C76.3678 55.5804 76.3459 55.6896 76.3459 55.7998C76.3459 55.91 76.3678 56.0191 76.4102 56.1208C76.4527 56.2225 76.5149 56.3147 76.5932 56.3922C76.6716 56.4697 76.7645 56.5309 76.8666 56.5723C76.9688 56.6136 77.0781 56.6343 77.1883 56.6331ZM77.1883 61.5983H91.0193C91.1295 61.5995 91.2388 61.5789 91.341 61.5375C91.4431 61.4962 91.5361 61.435 91.6144 61.3575C91.6928 61.28 91.755 61.1877 91.7974 61.086C91.8399 60.9843 91.8617 60.8752 91.8617 60.765C91.8617 60.6548 91.8399 60.5457 91.7974 60.444C91.755 60.3423 91.6928 60.25 91.6144 60.1725C91.5361 60.095 91.4431 60.0338 91.341 59.9925C91.2388 59.9511 91.1295 59.9304 91.0193 59.9316H77.1883C77.0781 59.9304 76.9688 59.9511 76.8666 59.9925C76.7645 60.0338 76.6716 60.095 76.5932 60.1725C76.5149 60.25 76.4527 60.3423 76.4102 60.444C76.3678 60.5457 76.3459 60.6548 76.3459 60.765C76.3459 60.8752 76.3678 60.9843 76.4102 61.086C76.4527 61.1877 76.5149 61.28 76.5932 61.3575C76.6716 61.435 76.7645 61.4962 76.8666 61.5375C76.9688 61.5789 77.0781 61.5995 77.1883 61.5983ZM77.1883 66.5642H91.0193C91.2403 66.5642 91.4523 66.4764 91.6086 66.3201C91.7649 66.1638 91.8527 65.9518 91.8527 65.7308C91.8527 65.5097 91.7649 65.2978 91.6086 65.1415C91.4523 64.9852 91.2403 64.8974 91.0193 64.8974H77.1883C76.9673 64.8974 76.7553 64.9852 76.599 65.1415C76.4427 65.2978 76.3549 65.5097 76.3549 65.7308C76.3549 65.9518 76.4427 66.1638 76.599 66.3201C76.7553 66.4764 76.9673 66.5642 77.1883 66.5642ZM87.8402 37.9892V44.3549L94.2864 44.3607L87.8402 37.9892ZM55.9539 41.4052C56.7583 41.2219 57.579 41.119 58.4039 41.098C58.515 41.0954 58.6255 41.1149 58.7289 41.1556C58.8324 41.1962 58.9266 41.2572 59.0062 41.3347C59.0857 41.4123 59.149 41.5051 59.1922 41.6074C59.2354 41.7098 59.2578 41.8198 59.2579 41.931V52.9479H70.2748C70.386 52.948 70.4961 52.9704 70.5985 53.0137C70.7009 53.057 70.7937 53.1204 70.8713 53.2C70.949 53.2796 71.0099 53.374 71.0506 53.4775C71.0913 53.581 71.1108 53.6916 71.1082 53.8028C71.0588 55.637 70.6032 57.4375 69.7741 59.0744C68.945 60.7112 67.7631 62.1438 66.3136 63.2688C64.864 64.3938 63.183 65.1833 61.3916 65.5802C59.6001 65.9772 57.743 65.9718 55.9539 65.5645V85.9485C55.9539 86.1418 56.0307 86.3272 56.1674 86.4639C56.304 86.6006 56.4893 86.6775 56.6826 86.6777H94.7978C94.9907 86.6768 95.1755 86.5996 95.3117 86.463C95.448 86.3264 95.5246 86.1415 95.5251 85.9485V46.0284L87.0062 46.0206C86.7853 46.0204 86.5736 45.9325 86.4175 45.7762C86.2614 45.6199 86.1738 45.4081 86.1738 45.1872V36.6777H56.6826C56.4893 36.678 56.3041 36.755 56.1674 36.8917C56.0308 37.0284 55.954 37.2137 55.9539 37.4069V41.4052ZM51.14 61.0657C49.7088 59.6342 48.712 57.8268 48.2649 55.8525C47.8177 53.8782 47.9386 51.8177 48.6134 49.9092C49.2882 48.0007 50.4894 46.3221 52.0781 45.0677C53.6668 43.8132 55.5782 43.0341 57.5912 42.8203V53.7812C57.5911 53.8907 57.6127 53.9991 57.6545 54.1002C57.6964 54.2013 57.7578 54.2932 57.8352 54.3705C57.9126 54.4479 58.0044 54.5093 58.1055 54.5512C58.2067 54.593 58.315 54.6146 58.4245 54.6146H69.3859C69.1723 56.6277 68.3932 58.5392 67.1388 60.1281C65.8843 61.717 64.2057 62.9184 62.297 63.5932C60.3884 64.268 58.3277 64.3888 56.3533 63.9415C54.3789 63.4942 52.5715 62.4972 51.14 61.0657ZM61.0808 38.4412C61.0808 38.2238 61.1657 38.0151 61.3175 37.8594C61.4692 37.7037 61.6757 37.6135 61.893 37.6079C63.5733 37.5645 65.2448 37.8634 66.8058 38.4866C68.3669 39.1097 69.7848 40.044 70.9733 41.2325C72.1618 42.4211 73.0959 43.839 73.719 45.4001C74.342 46.9612 74.6409 48.6327 74.5973 50.313C74.5921 50.5302 74.5021 50.7367 74.3465 50.8884C74.191 51.0401 73.9823 51.1249 73.765 51.1247H61.9142C61.6933 51.1246 61.4814 51.0369 61.3252 50.8807C61.1689 50.7245 61.081 50.5127 61.0808 50.2918V38.4412ZM62.7475 49.4582V39.2829C65.4032 39.4158 67.9149 40.5306 69.795 42.4109C71.6751 44.2912 72.7896 46.803 72.9222 49.4587L62.7475 49.4582ZM88.0259 68.9124C88.1255 69.0196 88.1952 69.151 88.2281 69.2935C88.2609 69.436 88.2558 69.5847 88.2131 69.7246L86.5601 75.1237C86.5178 75.2638 86.4391 75.3902 86.3321 75.4901C86.2251 75.59 86.0935 75.6597 85.9508 75.6923C85.8892 75.7061 85.8263 75.7131 85.7631 75.7134C85.6488 75.7134 85.5358 75.6899 85.431 75.6443C85.3261 75.5988 85.2318 75.5321 85.1539 75.4485L83.8423 74.0402L77.4443 80.3715C77.2881 80.5257 77.0774 80.6122 76.8579 80.6122C76.6384 80.6122 76.4277 80.5257 76.2714 80.3715L70.46 74.6206L64.6487 80.3715C64.491 80.5241 64.2794 80.6083 64.06 80.6059C63.8405 80.6035 63.6309 80.5146 63.4766 80.3585C63.3222 80.2025 63.2357 79.9918 63.2358 79.7724C63.2358 79.5529 63.3224 79.3423 63.4768 79.1863L69.8744 72.8561C70.0305 72.7018 70.2411 72.6154 70.4606 72.6154C70.6801 72.6154 70.8907 72.7018 71.0468 72.8561L76.8574 78.607L82.6692 72.8561C82.6815 72.8447 82.6943 72.834 82.7065 72.8227L81.3037 71.3176C81.204 71.2105 81.1343 71.0791 81.1015 70.9366C81.0687 70.794 81.074 70.6454 81.1168 70.5055C81.1596 70.3657 81.2385 70.2395 81.3455 70.1398C81.4525 70.0401 81.5838 69.9702 81.7263 69.9373L87.2286 68.6687C87.3712 68.6357 87.5199 68.641 87.6598 68.6838C87.7998 68.7267 87.9259 68.8057 88.0256 68.9128L88.0259 68.9124ZM86.1965 70.6164L85.3892 73.2561L83.5068 71.237L86.1965 70.6164Z"/>
</mask>
<path fill-rule="evenodd" clip-rule="evenodd" d="M76.3549 50.834C76.3549 50.7245 76.3765 50.6162 76.4183 50.515C76.4602 50.4139 76.5216 50.322 76.599 50.2447C76.6764 50.1673 76.7683 50.1059 76.8694 50.064C76.9705 50.0222 77.0789 50.0006 77.1883 50.0007H91.0193C91.1295 49.9995 91.2388 50.0202 91.341 50.0615C91.4431 50.1029 91.5361 50.164 91.6144 50.2416C91.6928 50.3191 91.755 50.4113 91.7974 50.513C91.8399 50.6147 91.8617 50.7238 91.8617 50.834C91.8617 50.9442 91.8399 51.0533 91.7974 51.155C91.755 51.2567 91.6928 51.349 91.6144 51.4265C91.5361 51.504 91.4431 51.5652 91.341 51.6066C91.2388 51.6479 91.1295 51.6686 91.0193 51.6674H77.1883C76.9673 51.6674 76.7554 51.5795 76.5991 51.4233C76.4428 51.267 76.355 51.055 76.3549 50.834ZM77.1883 56.6331H91.0193C91.1295 56.6343 91.2388 56.6136 91.341 56.5723C91.4431 56.5309 91.5361 56.4697 91.6144 56.3922C91.6928 56.3147 91.755 56.2225 91.7974 56.1208C91.8399 56.0191 91.8617 55.91 91.8617 55.7998C91.8617 55.6896 91.8399 55.5804 91.7974 55.4787C91.755 55.377 91.6928 55.2848 91.6144 55.2073C91.5361 55.1298 91.4431 55.0686 91.341 55.0272C91.2388 54.9859 91.1295 54.9652 91.0193 54.9664H77.1883C77.0781 54.9652 76.9688 54.9859 76.8666 55.0272C76.7645 55.0686 76.6716 55.1298 76.5932 55.2073C76.5149 55.2848 76.4527 55.377 76.4102 55.4787C76.3678 55.5804 76.3459 55.6896 76.3459 55.7998C76.3459 55.91 76.3678 56.0191 76.4102 56.1208C76.4527 56.2225 76.5149 56.3147 76.5932 56.3922C76.6716 56.4697 76.7645 56.5309 76.8666 56.5723C76.9688 56.6136 77.0781 56.6343 77.1883 56.6331ZM77.1883 61.5983H91.0193C91.1295 61.5995 91.2388 61.5789 91.341 61.5375C91.4431 61.4962 91.5361 61.435 91.6144 61.3575C91.6928 61.28 91.755 61.1877 91.7974 61.086C91.8399 60.9843 91.8617 60.8752 91.8617 60.765C91.8617 60.6548 91.8399 60.5457 91.7974 60.444C91.755 60.3423 91.6928 60.25 91.6144 60.1725C91.5361 60.095 91.4431 60.0338 91.341 59.9925C91.2388 59.9511 91.1295 59.9304 91.0193 59.9316H77.1883C77.0781 59.9304 76.9688 59.9511 76.8666 59.9925C76.7645 60.0338 76.6716 60.095 76.5932 60.1725C76.5149 60.25 76.4527 60.3423 76.4102 60.444C76.3678 60.5457 76.3459 60.6548 76.3459 60.765C76.3459 60.8752 76.3678 60.9843 76.4102 61.086C76.4527 61.1877 76.5149 61.28 76.5932 61.3575C76.6716 61.435 76.7645 61.4962 76.8666 61.5375C76.9688 61.5789 77.0781 61.5995 77.1883 61.5983ZM77.1883 66.5642H91.0193C91.2403 66.5642 91.4523 66.4764 91.6086 66.3201C91.7649 66.1638 91.8527 65.9518 91.8527 65.7308C91.8527 65.5097 91.7649 65.2978 91.6086 65.1415C91.4523 64.9852 91.2403 64.8974 91.0193 64.8974H77.1883C76.9673 64.8974 76.7553 64.9852 76.599 65.1415C76.4427 65.2978 76.3549 65.5097 76.3549 65.7308C76.3549 65.9518 76.4427 66.1638 76.599 66.3201C76.7553 66.4764 76.9673 66.5642 77.1883 66.5642ZM87.8402 37.9892V44.3549L94.2864 44.3607L87.8402 37.9892ZM55.9539 41.4052C56.7583 41.2219 57.579 41.119 58.4039 41.098C58.515 41.0954 58.6255 41.1149 58.7289 41.1556C58.8324 41.1962 58.9266 41.2572 59.0062 41.3347C59.0857 41.4123 59.149 41.5051 59.1922 41.6074C59.2354 41.7098 59.2578 41.8198 59.2579 41.931V52.9479H70.2748C70.386 52.948 70.4961 52.9704 70.5985 53.0137C70.7009 53.057 70.7937 53.1204 70.8713 53.2C70.949 53.2796 71.0099 53.374 71.0506 53.4775C71.0913 53.581 71.1108 53.6916 71.1082 53.8028C71.0588 55.637 70.6032 57.4375 69.7741 59.0744C68.945 60.7112 67.7631 62.1438 66.3136 63.2688C64.864 64.3938 63.183 65.1833 61.3916 65.5802C59.6001 65.9772 57.743 65.9718 55.9539 65.5645V85.9485C55.9539 86.1418 56.0307 86.3272 56.1674 86.4639C56.304 86.6006 56.4893 86.6775 56.6826 86.6777H94.7978C94.9907 86.6768 95.1755 86.5996 95.3117 86.463C95.448 86.3264 95.5246 86.1415 95.5251 85.9485V46.0284L87.0062 46.0206C86.7853 46.0204 86.5736 45.9325 86.4175 45.7762C86.2614 45.6199 86.1738 45.4081 86.1738 45.1872V36.6777H56.6826C56.4893 36.678 56.3041 36.755 56.1674 36.8917C56.0308 37.0284 55.954 37.2137 55.9539 37.4069V41.4052ZM51.14 61.0657C49.7088 59.6342 48.712 57.8268 48.2649 55.8525C47.8177 53.8782 47.9386 51.8177 48.6134 49.9092C49.2882 48.0007 50.4894 46.3221 52.0781 45.0677C53.6668 43.8132 55.5782 43.0341 57.5912 42.8203V53.7812C57.5911 53.8907 57.6127 53.9991 57.6545 54.1002C57.6964 54.2013 57.7578 54.2932 57.8352 54.3705C57.9126 54.4479 58.0044 54.5093 58.1055 54.5512C58.2067 54.593 58.315 54.6146 58.4245 54.6146H69.3859C69.1723 56.6277 68.3932 58.5392 67.1388 60.1281C65.8843 61.717 64.2057 62.9184 62.297 63.5932C60.3884 64.268 58.3277 64.3888 56.3533 63.9415C54.3789 63.4942 52.5715 62.4972 51.14 61.0657ZM61.0808 38.4412C61.0808 38.2238 61.1657 38.0151 61.3175 37.8594C61.4692 37.7037 61.6757 37.6135 61.893 37.6079C63.5733 37.5645 65.2448 37.8634 66.8058 38.4866C68.3669 39.1097 69.7848 40.044 70.9733 41.2325C72.1618 42.4211 73.0959 43.839 73.719 45.4001C74.342 46.9612 74.6409 48.6327 74.5973 50.313C74.5921 50.5302 74.5021 50.7367 74.3465 50.8884C74.191 51.0401 73.9823 51.1249 73.765 51.1247H61.9142C61.6933 51.1246 61.4814 51.0369 61.3252 50.8807C61.1689 50.7245 61.081 50.5127 61.0808 50.2918V38.4412ZM62.7475 49.4582V39.2829C65.4032 39.4158 67.9149 40.5306 69.795 42.4109C71.6751 44.2912 72.7896 46.803 72.9222 49.4587L62.7475 49.4582ZM88.0259 68.9124C88.1255 69.0196 88.1952 69.151 88.2281 69.2935C88.2609 69.436 88.2558 69.5847 88.2131 69.7246L86.5601 75.1237C86.5178 75.2638 86.4391 75.3902 86.3321 75.4901C86.2251 75.59 86.0935 75.6597 85.9508 75.6923C85.8892 75.7061 85.8263 75.7131 85.7631 75.7134C85.6488 75.7134 85.5358 75.6899 85.431 75.6443C85.3261 75.5988 85.2318 75.5321 85.1539 75.4485L83.8423 74.0402L77.4443 80.3715C77.2881 80.5257 77.0774 80.6122 76.8579 80.6122C76.6384 80.6122 76.4277 80.5257 76.2714 80.3715L70.46 74.6206L64.6487 80.3715C64.491 80.5241 64.2794 80.6083 64.06 80.6059C63.8405 80.6035 63.6309 80.5146 63.4766 80.3585C63.3222 80.2025 63.2357 79.9918 63.2358 79.7724C63.2358 79.5529 63.3224 79.3423 63.4768 79.1863L69.8744 72.8561C70.0305 72.7018 70.2411 72.6154 70.4606 72.6154C70.6801 72.6154 70.8907 72.7018 71.0468 72.8561L76.8574 78.607L82.6692 72.8561C82.6815 72.8447 82.6943 72.834 82.7065 72.8227L81.3037 71.3176C81.204 71.2105 81.1343 71.0791 81.1015 70.9366C81.0687 70.794 81.074 70.6454 81.1168 70.5055C81.1596 70.3657 81.2385 70.2395 81.3455 70.1398C81.4525 70.0401 81.5838 69.9702 81.7263 69.9373L87.2286 68.6687C87.3712 68.6357 87.5199 68.641 87.6598 68.6838C87.7998 68.7267 87.9259 68.8057 88.0256 68.9128L88.0259 68.9124ZM86.1965 70.6164L85.3892 73.2561L83.5068 71.237L86.1965 70.6164Z" stroke="#08E2F0" stroke-width="2" mask="url(#path-1-inside-1_236_342)"/>
</g>
<mask id="path-2-inside-2_236_342" fill="white">
<path fill-rule="evenodd" clip-rule="evenodd" d="M76.3549 50.834C76.3549 50.7245 76.3765 50.6162 76.4183 50.515C76.4602 50.4139 76.5216 50.322 76.599 50.2447C76.6764 50.1673 76.7683 50.1059 76.8694 50.064C76.9705 50.0222 77.0789 50.0006 77.1883 50.0007H91.0193C91.1295 49.9995 91.2388 50.0202 91.341 50.0615C91.4431 50.1029 91.5361 50.164 91.6144 50.2416C91.6928 50.3191 91.755 50.4113 91.7974 50.513C91.8399 50.6147 91.8617 50.7238 91.8617 50.834C91.8617 50.9442 91.8399 51.0533 91.7974 51.155C91.755 51.2567 91.6928 51.349 91.6144 51.4265C91.5361 51.504 91.4431 51.5652 91.341 51.6066C91.2388 51.6479 91.1295 51.6686 91.0193 51.6674H77.1883C76.9673 51.6674 76.7554 51.5795 76.5991 51.4233C76.4428 51.267 76.355 51.055 76.3549 50.834ZM77.1883 56.6331H91.0193C91.1295 56.6343 91.2388 56.6136 91.341 56.5723C91.4431 56.5309 91.5361 56.4697 91.6144 56.3922C91.6928 56.3147 91.755 56.2225 91.7974 56.1208C91.8399 56.0191 91.8617 55.91 91.8617 55.7998C91.8617 55.6896 91.8399 55.5804 91.7974 55.4787C91.755 55.377 91.6928 55.2848 91.6144 55.2073C91.5361 55.1298 91.4431 55.0686 91.341 55.0272C91.2388 54.9859 91.1295 54.9652 91.0193 54.9664H77.1883C77.0781 54.9652 76.9688 54.9859 76.8666 55.0272C76.7645 55.0686 76.6716 55.1298 76.5932 55.2073C76.5149 55.2848 76.4527 55.377 76.4102 55.4787C76.3678 55.5804 76.3459 55.6896 76.3459 55.7998C76.3459 55.91 76.3678 56.0191 76.4102 56.1208C76.4527 56.2225 76.5149 56.3147 76.5932 56.3922C76.6716 56.4697 76.7645 56.5309 76.8666 56.5723C76.9688 56.6136 77.0781 56.6343 77.1883 56.6331ZM77.1883 61.5983H91.0193C91.1295 61.5995 91.2388 61.5789 91.341 61.5375C91.4431 61.4962 91.5361 61.435 91.6144 61.3575C91.6928 61.28 91.755 61.1877 91.7974 61.086C91.8399 60.9843 91.8617 60.8752 91.8617 60.765C91.8617 60.6548 91.8399 60.5457 91.7974 60.444C91.755 60.3423 91.6928 60.25 91.6144 60.1725C91.5361 60.095 91.4431 60.0338 91.341 59.9925C91.2388 59.9511 91.1295 59.9304 91.0193 59.9316H77.1883C77.0781 59.9304 76.9688 59.9511 76.8666 59.9925C76.7645 60.0338 76.6716 60.095 76.5932 60.1725C76.5149 60.25 76.4527 60.3423 76.4102 60.444C76.3678 60.5457 76.3459 60.6548 76.3459 60.765C76.3459 60.8752 76.3678 60.9843 76.4102 61.086C76.4527 61.1877 76.5149 61.28 76.5932 61.3575C76.6716 61.435 76.7645 61.4962 76.8666 61.5375C76.9688 61.5789 77.0781 61.5995 77.1883 61.5983ZM77.1883 66.5642H91.0193C91.2403 66.5642 91.4523 66.4764 91.6086 66.3201C91.7649 66.1638 91.8527 65.9518 91.8527 65.7308C91.8527 65.5097 91.7649 65.2978 91.6086 65.1415C91.4523 64.9852 91.2403 64.8974 91.0193 64.8974H77.1883C76.9673 64.8974 76.7553 64.9852 76.599 65.1415C76.4427 65.2978 76.3549 65.5097 76.3549 65.7308C76.3549 65.9518 76.4427 66.1638 76.599 66.3201C76.7553 66.4764 76.9673 66.5642 77.1883 66.5642ZM87.8402 37.9892V44.3549L94.2864 44.3607L87.8402 37.9892ZM55.9539 41.4052C56.7583 41.2219 57.579 41.119 58.4039 41.098C58.515 41.0954 58.6255 41.1149 58.7289 41.1556C58.8324 41.1962 58.9266 41.2572 59.0062 41.3347C59.0857 41.4123 59.149 41.5051 59.1922 41.6074C59.2354 41.7098 59.2578 41.8198 59.2579 41.931V52.9479H70.2748C70.386 52.948 70.4961 52.9704 70.5985 53.0137C70.7009 53.057 70.7937 53.1204 70.8713 53.2C70.949 53.2796 71.0099 53.374 71.0506 53.4775C71.0913 53.581 71.1108 53.6916 71.1082 53.8028C71.0588 55.637 70.6032 57.4375 69.7741 59.0744C68.945 60.7112 67.7631 62.1438 66.3136 63.2688C64.864 64.3938 63.183 65.1833 61.3916 65.5802C59.6001 65.9772 57.743 65.9718 55.9539 65.5645V85.9485C55.9539 86.1418 56.0307 86.3272 56.1674 86.4639C56.304 86.6006 56.4893 86.6775 56.6826 86.6777H94.7978C94.9907 86.6768 95.1755 86.5996 95.3117 86.463C95.448 86.3264 95.5246 86.1415 95.5251 85.9485V46.0284L87.0062 46.0206C86.7853 46.0204 86.5736 45.9325 86.4175 45.7762C86.2614 45.6199 86.1738 45.4081 86.1738 45.1872V36.6777H56.6826C56.4893 36.678 56.3041 36.755 56.1674 36.8917C56.0308 37.0284 55.954 37.2137 55.9539 37.4069V41.4052ZM51.14 61.0657C49.7088 59.6342 48.712 57.8268 48.2649 55.8525C47.8177 53.8782 47.9386 51.8177 48.6134 49.9092C49.2882 48.0007 50.4894 46.3221 52.0781 45.0677C53.6668 43.8132 55.5782 43.0341 57.5912 42.8203V53.7812C57.5911 53.8907 57.6127 53.9991 57.6545 54.1002C57.6964 54.2013 57.7578 54.2932 57.8352 54.3705C57.9126 54.4479 58.0044 54.5093 58.1055 54.5512C58.2067 54.593 58.315 54.6146 58.4245 54.6146H69.3859C69.1723 56.6277 68.3932 58.5392 67.1388 60.1281C65.8843 61.717 64.2057 62.9184 62.297 63.5932C60.3884 64.268 58.3277 64.3888 56.3533 63.9415C54.3789 63.4942 52.5715 62.4972 51.14 61.0657ZM61.0808 38.4412C61.0808 38.2238 61.1657 38.0151 61.3175 37.8594C61.4692 37.7037 61.6757 37.6135 61.893 37.6079C63.5733 37.5645 65.2448 37.8634 66.8058 38.4866C68.3669 39.1097 69.7848 40.044 70.9733 41.2325C72.1618 42.4211 73.0959 43.839 73.719 45.4001C74.342 46.9612 74.6409 48.6327 74.5973 50.313C74.5921 50.5302 74.5021 50.7367 74.3465 50.8884C74.191 51.0401 73.9823 51.1249 73.765 51.1247H61.9142C61.6933 51.1246 61.4814 51.0369 61.3252 50.8807C61.1689 50.7245 61.081 50.5127 61.0808 50.2918V38.4412ZM62.7475 49.4582V39.2829C65.4032 39.4158 67.9149 40.5306 69.795 42.4109C71.6751 44.2912 72.7896 46.803 72.9222 49.4587L62.7475 49.4582ZM88.0259 68.9124C88.1255 69.0196 88.1952 69.151 88.2281 69.2935C88.2609 69.436 88.2558 69.5847 88.2131 69.7246L86.5601 75.1237C86.5178 75.2638 86.4391 75.3902 86.3321 75.4901C86.2251 75.59 86.0935 75.6597 85.9508 75.6923C85.8892 75.7061 85.8263 75.7131 85.7631 75.7134C85.6488 75.7134 85.5358 75.6899 85.431 75.6443C85.3261 75.5988 85.2318 75.5321 85.1539 75.4485L83.8423 74.0402L77.4443 80.3715C77.2881 80.5257 77.0774 80.6122 76.8579 80.6122C76.6384 80.6122 76.4277 80.5257 76.2714 80.3715L70.46 74.6206L64.6487 80.3715C64.491 80.5241 64.2794 80.6083 64.06 80.6059C63.8405 80.6035 63.6309 80.5146 63.4766 80.3585C63.3222 80.2025 63.2357 79.9918 63.2358 79.7724C63.2358 79.5529 63.3224 79.3423 63.4768 79.1863L69.8744 72.8561C70.0305 72.7018 70.2411 72.6154 70.4606 72.6154C70.6801 72.6154 70.8907 72.7018 71.0468 72.8561L76.8574 78.607L82.6692 72.8561C82.6815 72.8447 82.6943 72.834 82.7065 72.8227L81.3037 71.3176C81.204 71.2105 81.1343 71.0791 81.1015 70.9366C81.0687 70.794 81.074 70.6454 81.1168 70.5055C81.1596 70.3657 81.2385 70.2395 81.3455 70.1398C81.4525 70.0401 81.5838 69.9702 81.7263 69.9373L87.2286 68.6687C87.3712 68.6357 87.5199 68.641 87.6598 68.6838C87.7998 68.7267 87.9259 68.8057 88.0256 68.9128L88.0259 68.9124ZM86.1965 70.6164L85.3892 73.2561L83.5068 71.237L86.1965 70.6164Z"/>
</mask>
<path fill-rule="evenodd" clip-rule="evenodd" d="M76.3549 50.834C76.3549 50.7245 76.3765 50.6162 76.4183 50.515C76.4602 50.4139 76.5216 50.322 76.599 50.2447C76.6764 50.1673 76.7683 50.1059 76.8694 50.064C76.9705 50.0222 77.0789 50.0006 77.1883 50.0007H91.0193C91.1295 49.9995 91.2388 50.0202 91.341 50.0615C91.4431 50.1029 91.5361 50.164 91.6144 50.2416C91.6928 50.3191 91.755 50.4113 91.7974 50.513C91.8399 50.6147 91.8617 50.7238 91.8617 50.834C91.8617 50.9442 91.8399 51.0533 91.7974 51.155C91.755 51.2567 91.6928 51.349 91.6144 51.4265C91.5361 51.504 91.4431 51.5652 91.341 51.6066C91.2388 51.6479 91.1295 51.6686 91.0193 51.6674H77.1883C76.9673 51.6674 76.7554 51.5795 76.5991 51.4233C76.4428 51.267 76.355 51.055 76.3549 50.834ZM77.1883 56.6331H91.0193C91.1295 56.6343 91.2388 56.6136 91.341 56.5723C91.4431 56.5309 91.5361 56.4697 91.6144 56.3922C91.6928 56.3147 91.755 56.2225 91.7974 56.1208C91.8399 56.0191 91.8617 55.91 91.8617 55.7998C91.8617 55.6896 91.8399 55.5804 91.7974 55.4787C91.755 55.377 91.6928 55.2848 91.6144 55.2073C91.5361 55.1298 91.4431 55.0686 91.341 55.0272C91.2388 54.9859 91.1295 54.9652 91.0193 54.9664H77.1883C77.0781 54.9652 76.9688 54.9859 76.8666 55.0272C76.7645 55.0686 76.6716 55.1298 76.5932 55.2073C76.5149 55.2848 76.4527 55.377 76.4102 55.4787C76.3678 55.5804 76.3459 55.6896 76.3459 55.7998C76.3459 55.91 76.3678 56.0191 76.4102 56.1208C76.4527 56.2225 76.5149 56.3147 76.5932 56.3922C76.6716 56.4697 76.7645 56.5309 76.8666 56.5723C76.9688 56.6136 77.0781 56.6343 77.1883 56.6331ZM77.1883 61.5983H91.0193C91.1295 61.5995 91.2388 61.5789 91.341 61.5375C91.4431 61.4962 91.5361 61.435 91.6144 61.3575C91.6928 61.28 91.755 61.1877 91.7974 61.086C91.8399 60.9843 91.8617 60.8752 91.8617 60.765C91.8617 60.6548 91.8399 60.5457 91.7974 60.444C91.755 60.3423 91.6928 60.25 91.6144 60.1725C91.5361 60.095 91.4431 60.0338 91.341 59.9925C91.2388 59.9511 91.1295 59.9304 91.0193 59.9316H77.1883C77.0781 59.9304 76.9688 59.9511 76.8666 59.9925C76.7645 60.0338 76.6716 60.095 76.5932 60.1725C76.5149 60.25 76.4527 60.3423 76.4102 60.444C76.3678 60.5457 76.3459 60.6548 76.3459 60.765C76.3459 60.8752 76.3678 60.9843 76.4102 61.086C76.4527 61.1877 76.5149 61.28 76.5932 61.3575C76.6716 61.435 76.7645 61.4962 76.8666 61.5375C76.9688 61.5789 77.0781 61.5995 77.1883 61.5983ZM77.1883 66.5642H91.0193C91.2403 66.5642 91.4523 66.4764 91.6086 66.3201C91.7649 66.1638 91.8527 65.9518 91.8527 65.7308C91.8527 65.5097 91.7649 65.2978 91.6086 65.1415C91.4523 64.9852 91.2403 64.8974 91.0193 64.8974H77.1883C76.9673 64.8974 76.7553 64.9852 76.599 65.1415C76.4427 65.2978 76.3549 65.5097 76.3549 65.7308C76.3549 65.9518 76.4427 66.1638 76.599 66.3201C76.7553 66.4764 76.9673 66.5642 77.1883 66.5642ZM87.8402 37.9892V44.3549L94.2864 44.3607L87.8402 37.9892ZM55.9539 41.4052C56.7583 41.2219 57.579 41.119 58.4039 41.098C58.515 41.0954 58.6255 41.1149 58.7289 41.1556C58.8324 41.1962 58.9266 41.2572 59.0062 41.3347C59.0857 41.4123 59.149 41.5051 59.1922 41.6074C59.2354 41.7098 59.2578 41.8198 59.2579 41.931V52.9479H70.2748C70.386 52.948 70.4961 52.9704 70.5985 53.0137C70.7009 53.057 70.7937 53.1204 70.8713 53.2C70.949 53.2796 71.0099 53.374 71.0506 53.4775C71.0913 53.581 71.1108 53.6916 71.1082 53.8028C71.0588 55.637 70.6032 57.4375 69.7741 59.0744C68.945 60.7112 67.7631 62.1438 66.3136 63.2688C64.864 64.3938 63.183 65.1833 61.3916 65.5802C59.6001 65.9772 57.743 65.9718 55.9539 65.5645V85.9485C55.9539 86.1418 56.0307 86.3272 56.1674 86.4639C56.304 86.6006 56.4893 86.6775 56.6826 86.6777H94.7978C94.9907 86.6768 95.1755 86.5996 95.3117 86.463C95.448 86.3264 95.5246 86.1415 95.5251 85.9485V46.0284L87.0062 46.0206C86.7853 46.0204 86.5736 45.9325 86.4175 45.7762C86.2614 45.6199 86.1738 45.4081 86.1738 45.1872V36.6777H56.6826C56.4893 36.678 56.3041 36.755 56.1674 36.8917C56.0308 37.0284 55.954 37.2137 55.9539 37.4069V41.4052ZM51.14 61.0657C49.7088 59.6342 48.712 57.8268 48.2649 55.8525C47.8177 53.8782 47.9386 51.8177 48.6134 49.9092C49.2882 48.0007 50.4894 46.3221 52.0781 45.0677C53.6668 43.8132 55.5782 43.0341 57.5912 42.8203V53.7812C57.5911 53.8907 57.6127 53.9991 57.6545 54.1002C57.6964 54.2013 57.7578 54.2932 57.8352 54.3705C57.9126 54.4479 58.0044 54.5093 58.1055 54.5512C58.2067 54.593 58.315 54.6146 58.4245 54.6146H69.3859C69.1723 56.6277 68.3932 58.5392 67.1388 60.1281C65.8843 61.717 64.2057 62.9184 62.297 63.5932C60.3884 64.268 58.3277 64.3888 56.3533 63.9415C54.3789 63.4942 52.5715 62.4972 51.14 61.0657ZM61.0808 38.4412C61.0808 38.2238 61.1657 38.0151 61.3175 37.8594C61.4692 37.7037 61.6757 37.6135 61.893 37.6079C63.5733 37.5645 65.2448 37.8634 66.8058 38.4866C68.3669 39.1097 69.7848 40.044 70.9733 41.2325C72.1618 42.4211 73.0959 43.839 73.719 45.4001C74.342 46.9612 74.6409 48.6327 74.5973 50.313C74.5921 50.5302 74.5021 50.7367 74.3465 50.8884C74.191 51.0401 73.9823 51.1249 73.765 51.1247H61.9142C61.6933 51.1246 61.4814 51.0369 61.3252 50.8807C61.1689 50.7245 61.081 50.5127 61.0808 50.2918V38.4412ZM62.7475 49.4582V39.2829C65.4032 39.4158 67.9149 40.5306 69.795 42.4109C71.6751 44.2912 72.7896 46.803 72.9222 49.4587L62.7475 49.4582ZM88.0259 68.9124C88.1255 69.0196 88.1952 69.151 88.2281 69.2935C88.2609 69.436 88.2558 69.5847 88.2131 69.7246L86.5601 75.1237C86.5178 75.2638 86.4391 75.3902 86.3321 75.4901C86.2251 75.59 86.0935 75.6597 85.9508 75.6923C85.8892 75.7061 85.8263 75.7131 85.7631 75.7134C85.6488 75.7134 85.5358 75.6899 85.431 75.6443C85.3261 75.5988 85.2318 75.5321 85.1539 75.4485L83.8423 74.0402L77.4443 80.3715C77.2881 80.5257 77.0774 80.6122 76.8579 80.6122C76.6384 80.6122 76.4277 80.5257 76.2714 80.3715L70.46 74.6206L64.6487 80.3715C64.491 80.5241 64.2794 80.6083 64.06 80.6059C63.8405 80.6035 63.6309 80.5146 63.4766 80.3585C63.3222 80.2025 63.2357 79.9918 63.2358 79.7724C63.2358 79.5529 63.3224 79.3423 63.4768 79.1863L69.8744 72.8561C70.0305 72.7018 70.2411 72.6154 70.4606 72.6154C70.6801 72.6154 70.8907 72.7018 71.0468 72.8561L76.8574 78.607L82.6692 72.8561C82.6815 72.8447 82.6943 72.834 82.7065 72.8227L81.3037 71.3176C81.204 71.2105 81.1343 71.0791 81.1015 70.9366C81.0687 70.794 81.074 70.6454 81.1168 70.5055C81.1596 70.3657 81.2385 70.2395 81.3455 70.1398C81.4525 70.0401 81.5838 69.9702 81.7263 69.9373L87.2286 68.6687C87.3712 68.6357 87.5199 68.641 87.6598 68.6838C87.7998 68.7267 87.9259 68.8057 88.0256 68.9128L88.0259 68.9124ZM86.1965 70.6164L85.3892 73.2561L83.5068 71.237L86.1965 70.6164Z" stroke="#CFFF04" stroke-width="1.2" mask="url(#path-2-inside-2_236_342)"/>
<g filter="url(#filter1_f_236_342)">
<path d="M137.092 73.3069H136.018V72.6562H137.092V73.3069ZM133.825 73.3069H132.751V72.6562H133.825V73.3069ZM130.558 73.3069H129.485V72.6562H130.558V73.3069ZM127.276 73.3069H126.203V72.6562H127.276V73.3069ZM124.01 73.3069H122.936V72.6562H124.01V73.3069ZM120.728 73.3069H119.654V72.6562H120.728V73.3069ZM117.461 73.3069H116.388V72.6562H117.461V73.3069ZM114.195 73.3069H113.121V72.6562H114.195V73.3069ZM110.928 73.3069H109.854V72.6562H110.928V73.3069ZM107.661 73.3069H106.588V72.6562H107.661V73.3069ZM104.379 73.3069H103.306V72.6562H104.379V73.3069ZM101.113 73.3069H100.039V72.6562H101.113V73.3069Z" fill="#08E2F0"/>
<path d="M44.0374 73.3069H42.9637V72.6562H44.0374V73.3069ZM40.7707 73.3069H39.697V72.6562H40.7707V73.3069ZM37.489 73.3069H36.4152V72.6562H37.489V73.3069ZM34.2223 73.3069H33.1485V72.6562H34.2223V73.3069ZM30.9405 73.3069H29.8667V72.6562H30.9405V73.3069ZM27.6738 73.3069H26.6V72.6562H27.6738V73.3069ZM24.4071 73.3069H23.3334V72.6562H24.4071V73.3069ZM21.1405 73.3069H20.0667V72.6562H21.1405V73.3069ZM17.8738 73.3069H16.8V72.6562H17.8738V73.3069ZM14.6071 73.3069H13.5333V72.6562H14.6071V73.3069ZM11.3404 73.3069H10.2667V72.6562H11.3404V73.3069ZM8.07376 73.3069H7V72.6562H8.07376V73.3069Z" fill="#08E2F0"/>
<path d="M72.3713 7.84958V8.9248H71.7207V7.84958H72.3713ZM72.3713 11.1205V12.1958H71.7207V11.1205H72.3713ZM72.3713 14.3916V15.4667H71.7207V14.3916H72.3713ZM72.3713 17.6777V18.7529H71.7207V17.6777H72.3713ZM72.3713 20.9488V22.0239H71.7207V20.9488H72.3713ZM72.3713 24.2349V25.31H71.7207V24.2349H72.3713ZM72.3713 27.5058V28.581H71.7207V27.5058H72.3713ZM72.3713 30.7769V31.852H71.7207V30.7769H72.3713ZM72.3713 34.0478V35.1231H71.7207V34.0478H72.3713ZM72.3713 37.3189V38.394H71.7207V37.3189H72.3713ZM72.3713 40.605V41.6802H71.7207V40.605H72.3713ZM72.3713 43.8759V44.9512H71.7207V43.8759H72.3713Z" fill="#08E2F0"/>
<path d="M72.3713 101.027V102.102H71.7207V101.027H72.3713ZM72.3713 104.298V105.373H71.7207V104.298H72.3713ZM72.3713 107.584V108.659H71.7207V107.584H72.3713ZM72.3713 110.855V111.93H71.7207V110.855H72.3713ZM72.3713 114.141V115.216H71.7207V114.141H72.3713ZM72.3713 117.412V118.487H71.7207V117.412H72.3713ZM72.3713 120.683V121.758H71.7207V120.683H72.3713ZM72.3713 123.954V125.029H71.7207V123.954H72.3713ZM72.3713 127.225V128.3H71.7207V127.225H72.3713ZM72.3713 130.496V131.571H71.7207V130.496H72.3713ZM72.3713 133.767V134.842H71.7207V133.767H72.3713ZM72.3713 137.038V138.113H71.7207V137.038H72.3713Z" fill="#08E2F0"/>
</g>
<path d="M137.092 73.3069H136.018V72.6562H137.092V73.3069ZM133.825 73.3069H132.751V72.6562H133.825V73.3069ZM130.558 73.3069H129.485V72.6562H130.558V73.3069ZM127.276 73.3069H126.203V72.6562H127.276V73.3069ZM124.01 73.3069H122.936V72.6562H124.01V73.3069ZM120.728 73.3069H119.654V72.6562H120.728V73.3069ZM117.461 73.3069H116.388V72.6562H117.461V73.3069ZM114.195 73.3069H113.121V72.6562H114.195V73.3069ZM110.928 73.3069H109.854V72.6562H110.928V73.3069ZM107.661 73.3069H106.588V72.6562H107.661V73.3069ZM104.379 73.3069H103.306V72.6562H104.379V73.3069ZM101.113 73.3069H100.039V72.6562H101.113V73.3069Z" fill="#08E2F0"/>
<path d="M44.0374 73.3069H42.9637V72.6562H44.0374V73.3069ZM40.7707 73.3069H39.697V72.6562H40.7707V73.3069ZM37.489 73.3069H36.4152V72.6562H37.489V73.3069ZM34.2223 73.3069H33.1485V72.6562H34.2223V73.3069ZM30.9405 73.3069H29.8667V72.6562H30.9405V73.3069ZM27.6738 73.3069H26.6V72.6562H27.6738V73.3069ZM24.4071 73.3069H23.3334V72.6562H24.4071V73.3069ZM21.1405 73.3069H20.0667V72.6562H21.1405V73.3069ZM17.8738 73.3069H16.8V72.6562H17.8738V73.3069ZM14.6071 73.3069H13.5333V72.6562H14.6071V73.3069ZM11.3404 73.3069H10.2667V72.6562H11.3404V73.3069ZM8.07376 73.3069H7V72.6562H8.07376V73.3069Z" fill="#08E2F0"/>
<path d="M72.3713 7.84958V8.9248H71.7207V7.84958H72.3713ZM72.3713 11.1205V12.1958H71.7207V11.1205H72.3713ZM72.3713 14.3916V15.4667H71.7207V14.3916H72.3713ZM72.3713 17.6777V18.7529H71.7207V17.6777H72.3713ZM72.3713 20.9488V22.0239H71.7207V20.9488H72.3713ZM72.3713 24.2349V25.31H71.7207V24.2349H72.3713ZM72.3713 27.5058V28.581H71.7207V27.5058H72.3713ZM72.3713 30.7769V31.852H71.7207V30.7769H72.3713ZM72.3713 34.0478V35.1231H71.7207V34.0478H72.3713ZM72.3713 37.3189V38.394H71.7207V37.3189H72.3713ZM72.3713 40.605V41.6802H71.7207V40.605H72.3713ZM72.3713 43.8759V44.9512H71.7207V43.8759H72.3713Z" fill="#08E2F0"/>
<path d="M72.3713 101.027V102.102H71.7207V101.027H72.3713ZM72.3713 104.298V105.373H71.7207V104.298H72.3713ZM72.3713 107.584V108.659H71.7207V107.584H72.3713ZM72.3713 110.855V111.93H71.7207V110.855H72.3713ZM72.3713 114.141V115.216H71.7207V114.141H72.3713ZM72.3713 117.412V118.487H71.7207V117.412H72.3713ZM72.3713 120.683V121.758H71.7207V120.683H72.3713ZM72.3713 123.954V125.029H71.7207V123.954H72.3713ZM72.3713 127.225V128.3H71.7207V127.225H72.3713ZM72.3713 130.496V131.571H71.7207V130.496H72.3713ZM72.3713 133.767V134.842H71.7207V133.767H72.3713ZM72.3713 137.038V138.113H71.7207V137.038H72.3713Z" fill="#08E2F0"/>
<g filter="url(#filter2_f_236_342)">
<path d="M73.9817 73.3372H70.1252C69.9437 73.3372 69.8076 73.1856 69.8076 73.019C69.8076 72.8523 69.9588 72.7008 70.1252 72.7008H73.9817C74.1632 72.7008 74.2993 72.8523 74.2993 73.019C74.2993 73.1856 74.148 73.3372 73.9817 73.3372Z" fill="#08E2F0"/>
<path d="M72.0456 75.2615C71.8641 75.2615 71.728 75.11 71.728 74.9433V71.0799C71.728 70.8981 71.8792 70.7617 72.0456 70.7617C72.212 70.7617 72.3632 70.9132 72.3632 71.0799V74.9433C72.3632 75.1251 72.212 75.2615 72.0456 75.2615Z" fill="#08E2F0"/>
</g>
<path d="M73.9817 73.3372H70.1252C69.9437 73.3372 69.8076 73.1856 69.8076 73.019C69.8076 72.8523 69.9588 72.7008 70.1252 72.7008H73.9817C74.1632 72.7008 74.2993 72.8523 74.2993 73.019C74.2993 73.1856 74.148 73.3372 73.9817 73.3372Z" fill="#08E2F0"/>
<path d="M72.0456 75.2615C71.8641 75.2615 71.728 75.11 71.728 74.9433V71.0799C71.728 70.8981 71.8792 70.7617 72.0456 70.7617C72.212 70.7617 72.3632 70.9132 72.3632 71.0799V74.9433C72.3632 75.1251 72.212 75.2615 72.0456 75.2615Z" fill="#08E2F0"/>
<g filter="url(#filter3_f_236_342)">
<path d="M7.60087 22.87H5V5.84766H21.981V8.47083H7.60087V22.87Z" fill="#08E2F0"/>
<path d="M140 22.87H137.38V8.47083H123V5.84766H140V22.87Z" fill="#08E2F0"/>
<path d="M140 141.046H123V138.423H137.38V124.023H140V141.046Z" fill="#08E2F0"/>
<path d="M21.981 141.046H5V124.023H7.60087V138.423H21.981V141.046Z" fill="#08E2F0"/>
</g>
<path d="M7.60087 22.87H5V5.84766H21.981V8.47083H7.60087V22.87Z" fill="#08E2F0"/>
<path d="M140 22.87H137.38V8.47083H123V5.84766H140V22.87Z" fill="#08E2F0"/>
<path d="M140 141.046H123V138.423H137.38V124.023H140V141.046Z" fill="#08E2F0"/>
<path d="M21.981 141.046H5V124.023H7.60087V138.423H21.981V141.046Z" fill="#08E2F0"/>
<rect opacity="0.07" x="20" y="8.67773" width="104.192" height="105" rx="52.0962" fill="#08E2F0"/>
<defs>
<filter id="filter0_f_236_342" x="46" y="34.6777" width="51.5254" height="54" filterUnits="userSpaceOnUse" color-interpolation-filters="sRGB">
<feFlood flood-opacity="0" result="BackgroundImageFix"/>
<feBlend mode="normal" in="SourceGraphic" in2="BackgroundImageFix" result="shape"/>
<feGaussianBlur stdDeviation="1" result="effect1_foregroundBlur_236_342"/>
</filter>
<filter id="filter1_f_236_342" x="2" y="2.84961" width="140.092" height="140.264" filterUnits="userSpaceOnUse" color-interpolation-filters="sRGB">
<feFlood flood-opacity="0" result="BackgroundImageFix"/>
<feBlend mode="normal" in="SourceGraphic" in2="BackgroundImageFix" result="shape"/>
<feGaussianBlur stdDeviation="2.5" result="effect1_foregroundBlur_236_342"/>
</filter>
<filter id="filter2_f_236_342" x="67.8076" y="68.7617" width="8.49121" height="8.5" filterUnits="userSpaceOnUse" color-interpolation-filters="sRGB">
<feFlood flood-opacity="0" result="BackgroundImageFix"/>
<feBlend mode="normal" in="SourceGraphic" in2="BackgroundImageFix" result="shape"/>
<feGaussianBlur stdDeviation="1" result="effect1_foregroundBlur_236_342"/>
</filter>
<filter id="filter3_f_236_342" x="0" y="0.847656" width="145" height="145.197" filterUnits="userSpaceOnUse" color-interpolation-filters="sRGB">
<feFlood flood-opacity="0" result="BackgroundImageFix"/>
<feBlend mode="normal" in="SourceGraphic" in2="BackgroundImageFix" result="shape"/>
<feGaussianBlur stdDeviation="2.5" result="effect1_foregroundBlur_236_342"/>
</filter>
</defs>
</svg>
