<svg width="26" height="24" viewBox="0 0 26 24" fill="none" xmlns="http://www.w3.org/2000/svg">
<path opacity="0.5" d="M0.543278 0.523351C0.891243 0.201972 1.36312 0.0214315 1.85515 0.0214315C2.34717 0.0214315 2.81905 0.201972 3.16701 0.523351L12.9884 9.59706L22.8098 0.523351C22.981 0.359619 23.1857 0.229021 23.4121 0.139177C23.6385 0.0493333 23.882 0.0020427 24.1283 6.47258e-05C24.3747 -0.00191325 24.619 0.0414612 24.8471 0.127657C25.0751 0.213853 25.2823 0.341144 25.4565 0.502103C25.6307 0.663061 25.7685 0.854465 25.8618 1.06514C25.9551 1.27582 26.0021 1.50156 25.9999 1.72918C25.9978 1.9568 25.9466 2.18175 25.8494 2.3909C25.7521 2.60005 25.6107 2.78921 25.4335 2.94735L15.6121 12.0211L25.4335 21.0948C25.7715 21.4181 25.9586 21.8511 25.9543 22.3006C25.9501 22.7501 25.755 23.1801 25.4109 23.4979C25.0669 23.8157 24.6015 23.996 24.115 23.9999C23.6285 24.0038 23.1597 23.8311 22.8098 23.5188L12.9884 14.4451L3.16701 23.5188C2.81706 23.8311 2.34834 24.0038 1.86182 23.9999C1.37531 23.996 0.909913 23.8157 0.565881 23.4979C0.221848 23.1801 0.026703 22.7501 0.0224753 22.3006C0.0182476 21.8511 0.205276 21.4181 0.543278 21.0948L10.3647 12.0211L0.543278 2.94735C0.195417 2.62588 0 2.18992 0 1.73535C0 1.28078 0.195417 0.844827 0.543278 0.523351Z" fill="white"/>
</svg>
