<svg width="434" height="376" viewBox="0 0 434 376" fill="none" xmlns="http://www.w3.org/2000/svg">
<path style="mix-blend-mode:lighten" d="M58.8234 262.797C52.4529 259.706 47.2677 255.996 43.4418 251.683C37.767 245.293 35.2819 237.764 36.0516 229.317C37.9245 208.852 58.7007 185.439 94.5468 163.408C129.992 141.609 176.092 123.557 224.37 112.578C302.325 94.85 369.518 99.6381 391.56 124.481C397.235 130.871 399.72 138.399 398.95 146.846C397.086 167.295 376.312 190.702 340.455 212.755C305.01 234.554 258.908 252.599 210.635 263.58C146.22 278.235 89.1443 277.506 58.8234 262.797ZM374.9 116.291C363.404 110.711 347.7 107.019 328.91 105.604C298.833 103.337 262.602 106.765 224.14 115.509C176.13 126.402 130.283 144.367 95.0866 166.015C78.0444 176.495 64.4497 187.266 54.6718 198.04C44.7631 208.954 39.2971 219.315 38.4252 228.843C37.7277 236.474 40.0366 243.345 45.2869 249.256C55.5527 260.826 77.1419 268.401 106.065 270.575C136.142 272.842 172.373 269.414 210.837 260.664C258.848 249.771 304.693 231.812 339.891 210.158C356.933 199.678 370.525 188.913 380.292 178.161C390.201 167.248 395.667 156.886 396.539 147.358C397.236 139.727 394.928 132.856 389.677 126.945C386.098 122.87 381.112 119.306 374.9 116.291Z" fill="url(#paint0_linear_236_1061)"/>
<path style="mix-blend-mode:lighten" d="M148.253 251.811C142.963 246.132 137.888 240.243 133.054 234.178C107.733 202.445 90.4945 167.899 84.5105 136.913C78.5082 105.844 84.556 82.0319 101.515 69.9052C116.509 59.1831 139.18 58.3377 165.334 67.5005C199.095 79.3375 234.432 106.141 262.277 141.034C274.904 156.827 285.581 173.811 293.835 191.236C301.55 207.42 306.883 223.78 309.595 239.58C312.186 254.957 311.979 268.68 308.981 280.364C305.882 292.434 299.954 301.669 291.373 307.819C284.082 313.015 275.033 315.856 264.83 316.152C254.838 316.498 243.735 314.542 231.8 310.37C215.737 304.738 198.414 295.015 181.709 282.259C169.897 273.217 158.655 262.986 148.253 251.811ZM247.382 126.116C222.513 99.4636 193.446 79.2238 165.482 69.4192C139.839 60.4279 117.644 61.251 102.983 71.7338C86.4231 83.5939 80.5469 106.913 86.3907 137.342C92.2861 167.893 109.294 201.968 134.29 233.29C163.165 269.476 198.65 296.89 231.63 308.427C243.315 312.525 254.2 314.434 263.985 314.104C273.937 313.807 282.763 311.03 289.876 305.959C298.261 299.962 304.053 290.935 307.082 279.131C310.025 267.665 310.225 254.186 307.679 239.072C305.004 223.5 299.748 207.378 292.145 191.428C281.106 168.195 265.783 145.839 247.379 126.112L247.382 126.116Z" fill="url(#paint1_linear_236_1061)"/>
<g filter="url(#filter0_f_236_1061)">
<mask id="path-3-outside-1_236_1061" maskUnits="userSpaceOnUse" x="4" y="135.971" width="426" height="79" fill="black">
<rect fill="white" x="4" y="135.971" width="426" height="79"/>
<path d="M25.9873 197.256C25.5147 199.033 24.2857 199.921 22.3004 199.921C21.1659 199.921 20.2206 199.583 19.4643 198.906C18.708 198.229 18.3298 197.425 18.3298 196.495C18.3298 195.479 18.708 194.633 19.4643 193.956C20.2206 193.28 21.1659 192.941 22.3004 192.941C24.2857 192.941 25.5147 193.787 25.9873 195.479H72.0744V211.852H5V137.225H23.293V139.128H6.98529C6.98529 139.128 6.98529 162.777 6.98529 210.075C6.98529 210.075 28.0199 210.075 70.0891 210.075C70.0891 210.075 70.0891 205.802 70.0891 197.256H25.9873Z"/>
<path d="M86.7658 182.788V172.888H121.083V182.788H86.7658Z"/>
<path d="M194.718 151.82V139.128H171.32C160.354 139.128 150.994 142.597 143.242 149.535C135.49 156.389 131.614 164.723 131.614 174.538C131.614 184.353 135.49 192.73 143.242 199.668C150.994 206.606 160.354 210.075 171.32 210.075H194.718V195.479H196.703V211.852H171.32C165.742 211.852 160.401 210.921 155.296 209.059C150.191 207.113 145.7 204.406 141.824 200.937C133.694 193.66 129.629 184.861 129.629 174.538C129.629 164.216 133.694 155.416 141.824 148.139C145.7 144.67 150.191 142.005 155.296 140.144C160.401 138.198 165.742 137.225 171.32 137.225H196.703V153.597H194.718C193.3 153.597 190.937 153.597 187.628 153.597C184.414 153.512 182.05 153.47 180.537 153.47C179.119 153.47 177.323 153.512 175.149 153.597C173.069 153.681 171.226 153.808 169.618 153.978C162.434 154.824 157.045 157.15 153.452 160.958C150.522 164.089 148.726 168.023 148.064 172.761C147.78 174.792 147.875 176.653 148.347 178.346C148.536 178.346 148.726 178.346 148.915 178.346C149.955 178.346 150.853 178.684 151.609 179.361C152.365 180.038 152.743 180.884 152.743 181.899C152.743 182.83 152.365 183.634 151.609 184.311C150.853 184.988 149.907 185.326 148.773 185.326C147.733 185.326 146.835 184.988 146.079 184.311C145.322 183.634 144.944 182.83 144.944 181.899C144.944 180.63 145.464 179.657 146.504 178.98C146.031 177.034 145.937 174.877 146.22 172.507C146.882 167.431 148.82 163.2 152.034 159.816C156.005 155.67 161.772 153.174 169.335 152.328C172.36 151.989 180.821 151.82 194.718 151.82Z"/>
<path d="M276.626 168.827C276.626 168.827 276.626 173.269 276.626 182.153C276.626 190.953 273.175 198.441 266.274 204.617C259.373 210.794 251.006 213.882 241.174 213.882C231.437 213.882 223.07 210.794 216.074 204.617C209.173 198.441 205.723 190.953 205.723 182.153V168.827C205.723 160.027 209.173 152.539 216.074 146.363C223.07 140.101 231.437 136.971 241.174 136.971C251.006 136.971 259.373 140.101 266.274 146.363C273.175 152.539 276.626 160.027 276.626 168.827ZM274.64 168.827C274.64 160.535 271.379 153.47 264.856 147.632C258.333 141.794 250.439 138.874 241.174 138.874C232.004 138.874 224.11 141.794 217.492 147.632C210.969 153.47 207.708 160.535 207.708 168.827V182.153C207.708 190.445 210.969 197.51 217.492 203.348C224.11 209.186 232.004 212.105 241.174 212.105C250.439 212.105 258.333 209.186 264.856 203.348C271.379 197.51 274.64 190.445 274.64 182.153V168.827ZM237.345 197.764C233.469 197.002 230.255 195.226 227.702 192.433C225.15 189.641 223.874 186.426 223.874 182.788V168.192C223.874 163.962 225.575 160.323 228.979 157.277C232.382 154.231 236.447 152.708 241.174 152.708C245.239 152.708 248.832 153.851 251.951 156.135C255.166 158.42 257.198 161.296 258.049 164.766C258.994 164.85 259.751 165.231 260.318 165.908C260.98 166.585 261.311 167.346 261.311 168.192C261.311 169.123 260.932 169.969 260.176 170.731C259.42 171.407 258.474 171.746 257.34 171.746C256.3 171.746 255.402 171.407 254.646 170.731C253.889 169.969 253.511 169.123 253.511 168.192C253.511 166.585 254.362 165.485 256.064 164.892C255.213 161.931 253.417 159.477 250.675 157.531C247.934 155.585 244.767 154.612 241.174 154.612C237.014 154.612 233.422 155.966 230.397 158.673C227.466 161.296 226.001 164.469 226.001 168.192V182.788C226.001 185.918 227.088 188.71 229.262 191.164C231.437 193.618 234.226 195.226 237.629 195.987C238.291 194.549 239.472 193.829 241.174 193.829C242.309 193.829 243.254 194.168 244.01 194.845C244.767 195.522 245.145 196.368 245.145 197.383C245.145 198.314 244.767 199.118 244.01 199.795C243.254 200.471 242.309 200.81 241.174 200.81C240.229 200.81 239.378 200.514 238.622 199.921C237.96 199.329 237.534 198.61 237.345 197.764Z"/>
<path d="M307.387 184.311L323.269 210.075C323.269 210.075 330.028 210.075 343.547 210.075C340.995 206.183 334.802 196.918 324.971 182.28L325.821 180.884C325.821 180.884 326.389 180.884 327.523 180.884C333.952 180.884 339.435 178.853 343.973 174.792C348.605 170.731 350.921 165.823 350.921 160.07C350.921 154.231 348.605 149.282 343.973 145.22C339.435 141.159 333.952 139.128 327.523 139.128H287.817V211.852H285.832V137.225H327.523C334.519 137.225 340.475 139.467 345.391 143.951C350.401 148.351 352.906 153.724 352.906 160.07C352.906 166.246 350.449 171.577 345.533 176.061C340.617 180.461 334.661 182.703 327.665 182.788L347.234 211.852H321.993L305.685 185.199C305.401 185.284 305.07 185.326 304.692 185.326C303.652 185.326 302.754 184.988 301.998 184.311C301.242 183.634 300.864 182.83 300.864 181.899C300.864 180.884 301.242 180.038 301.998 179.361C302.754 178.684 303.652 178.346 304.692 178.346C305.827 178.346 306.772 178.684 307.528 179.361C308.285 180.038 308.663 180.884 308.663 181.899C308.663 182.83 308.237 183.634 307.387 184.311ZM332.345 154.231C334.141 155.839 335.039 157.785 335.039 160.07C335.039 162.269 334.141 164.173 332.345 165.781C330.548 167.388 328.374 168.192 325.821 168.192H303.7V151.82H325.821C328.374 151.82 330.548 152.624 332.345 154.231ZM330.926 164.512C332.345 163.243 333.054 161.762 333.054 160.07C333.054 158.293 332.345 156.77 330.926 155.501C329.508 154.231 327.807 153.597 325.821 153.597H305.685C305.685 153.597 305.685 157.87 305.685 166.415H325.821C327.807 166.415 329.508 165.781 330.926 164.512Z"/>
<path d="M383.906 180.884H403.617C410.045 180.884 415.528 178.853 420.066 174.792C424.699 170.731 427.015 165.823 427.015 160.07C427.015 154.231 424.699 149.282 420.066 145.22C415.528 141.159 410.045 139.128 403.617 139.128H363.911V210.075H380.219V211.852H361.926V137.225H403.617C410.612 137.225 416.568 139.467 421.484 143.951C426.495 148.351 429 153.724 429 160.07C429 166.331 426.495 171.704 421.484 176.188C416.568 180.588 410.612 182.788 403.617 182.788H383.906C383.433 184.48 382.204 185.326 380.219 185.326C379.084 185.326 378.139 184.988 377.382 184.311C376.626 183.634 376.248 182.83 376.248 181.899C376.248 180.884 376.626 180.038 377.382 179.361C378.139 178.684 379.084 178.346 380.219 178.346C382.204 178.346 383.433 179.192 383.906 180.884ZM408.438 154.231C410.234 155.839 411.132 157.785 411.132 160.07C411.132 162.269 410.234 164.173 408.438 165.781C406.642 167.388 404.467 168.192 401.915 168.192H379.793V151.82H401.915C404.467 151.82 406.642 152.624 408.438 154.231ZM407.02 164.512C408.438 163.243 409.147 161.762 409.147 160.07C409.147 158.293 408.438 156.77 407.02 155.501C405.602 154.231 403.9 153.597 401.915 153.597H381.778V166.415H401.915C403.9 166.415 405.602 165.781 407.02 164.512Z"/>
</mask>
<path d="M25.9873 197.256C25.5147 199.033 24.2857 199.921 22.3004 199.921C21.1659 199.921 20.2206 199.583 19.4643 198.906C18.708 198.229 18.3298 197.425 18.3298 196.495C18.3298 195.479 18.708 194.633 19.4643 193.956C20.2206 193.28 21.1659 192.941 22.3004 192.941C24.2857 192.941 25.5147 193.787 25.9873 195.479H72.0744V211.852H5V137.225H23.293V139.128H6.98529C6.98529 139.128 6.98529 162.777 6.98529 210.075C6.98529 210.075 28.0199 210.075 70.0891 210.075C70.0891 210.075 70.0891 205.802 70.0891 197.256H25.9873Z" fill="url(#paint2_linear_236_1061)"/>
<path d="M86.7658 182.788V172.888H121.083V182.788H86.7658Z" fill="url(#paint3_linear_236_1061)"/>
<path d="M194.718 151.82V139.128H171.32C160.354 139.128 150.994 142.597 143.242 149.535C135.49 156.389 131.614 164.723 131.614 174.538C131.614 184.353 135.49 192.73 143.242 199.668C150.994 206.606 160.354 210.075 171.32 210.075H194.718V195.479H196.703V211.852H171.32C165.742 211.852 160.401 210.921 155.296 209.059C150.191 207.113 145.7 204.406 141.824 200.937C133.694 193.66 129.629 184.861 129.629 174.538C129.629 164.216 133.694 155.416 141.824 148.139C145.7 144.67 150.191 142.005 155.296 140.144C160.401 138.198 165.742 137.225 171.32 137.225H196.703V153.597H194.718C193.3 153.597 190.937 153.597 187.628 153.597C184.414 153.512 182.05 153.47 180.537 153.47C179.119 153.47 177.323 153.512 175.149 153.597C173.069 153.681 171.226 153.808 169.618 153.978C162.434 154.824 157.045 157.15 153.452 160.958C150.522 164.089 148.726 168.023 148.064 172.761C147.78 174.792 147.875 176.653 148.347 178.346C148.536 178.346 148.726 178.346 148.915 178.346C149.955 178.346 150.853 178.684 151.609 179.361C152.365 180.038 152.743 180.884 152.743 181.899C152.743 182.83 152.365 183.634 151.609 184.311C150.853 184.988 149.907 185.326 148.773 185.326C147.733 185.326 146.835 184.988 146.079 184.311C145.322 183.634 144.944 182.83 144.944 181.899C144.944 180.63 145.464 179.657 146.504 178.98C146.031 177.034 145.937 174.877 146.22 172.507C146.882 167.431 148.82 163.2 152.034 159.816C156.005 155.67 161.772 153.174 169.335 152.328C172.36 151.989 180.821 151.82 194.718 151.82Z" fill="url(#paint4_linear_236_1061)"/>
<path d="M276.626 168.827C276.626 168.827 276.626 173.269 276.626 182.153C276.626 190.953 273.175 198.441 266.274 204.617C259.373 210.794 251.006 213.882 241.174 213.882C231.437 213.882 223.07 210.794 216.074 204.617C209.173 198.441 205.723 190.953 205.723 182.153V168.827C205.723 160.027 209.173 152.539 216.074 146.363C223.07 140.101 231.437 136.971 241.174 136.971C251.006 136.971 259.373 140.101 266.274 146.363C273.175 152.539 276.626 160.027 276.626 168.827ZM274.64 168.827C274.64 160.535 271.379 153.47 264.856 147.632C258.333 141.794 250.439 138.874 241.174 138.874C232.004 138.874 224.11 141.794 217.492 147.632C210.969 153.47 207.708 160.535 207.708 168.827V182.153C207.708 190.445 210.969 197.51 217.492 203.348C224.11 209.186 232.004 212.105 241.174 212.105C250.439 212.105 258.333 209.186 264.856 203.348C271.379 197.51 274.64 190.445 274.64 182.153V168.827ZM237.345 197.764C233.469 197.002 230.255 195.226 227.702 192.433C225.15 189.641 223.874 186.426 223.874 182.788V168.192C223.874 163.962 225.575 160.323 228.979 157.277C232.382 154.231 236.447 152.708 241.174 152.708C245.239 152.708 248.832 153.851 251.951 156.135C255.166 158.42 257.198 161.296 258.049 164.766C258.994 164.85 259.751 165.231 260.318 165.908C260.98 166.585 261.311 167.346 261.311 168.192C261.311 169.123 260.932 169.969 260.176 170.731C259.42 171.407 258.474 171.746 257.34 171.746C256.3 171.746 255.402 171.407 254.646 170.731C253.889 169.969 253.511 169.123 253.511 168.192C253.511 166.585 254.362 165.485 256.064 164.892C255.213 161.931 253.417 159.477 250.675 157.531C247.934 155.585 244.767 154.612 241.174 154.612C237.014 154.612 233.422 155.966 230.397 158.673C227.466 161.296 226.001 164.469 226.001 168.192V182.788C226.001 185.918 227.088 188.71 229.262 191.164C231.437 193.618 234.226 195.226 237.629 195.987C238.291 194.549 239.472 193.829 241.174 193.829C242.309 193.829 243.254 194.168 244.01 194.845C244.767 195.522 245.145 196.368 245.145 197.383C245.145 198.314 244.767 199.118 244.01 199.795C243.254 200.471 242.309 200.81 241.174 200.81C240.229 200.81 239.378 200.514 238.622 199.921C237.96 199.329 237.534 198.61 237.345 197.764Z" fill="url(#paint5_linear_236_1061)"/>
<path d="M307.387 184.311L323.269 210.075C323.269 210.075 330.028 210.075 343.547 210.075C340.995 206.183 334.802 196.918 324.971 182.28L325.821 180.884C325.821 180.884 326.389 180.884 327.523 180.884C333.952 180.884 339.435 178.853 343.973 174.792C348.605 170.731 350.921 165.823 350.921 160.07C350.921 154.231 348.605 149.282 343.973 145.22C339.435 141.159 333.952 139.128 327.523 139.128H287.817V211.852H285.832V137.225H327.523C334.519 137.225 340.475 139.467 345.391 143.951C350.401 148.351 352.906 153.724 352.906 160.07C352.906 166.246 350.449 171.577 345.533 176.061C340.617 180.461 334.661 182.703 327.665 182.788L347.234 211.852H321.993L305.685 185.199C305.401 185.284 305.07 185.326 304.692 185.326C303.652 185.326 302.754 184.988 301.998 184.311C301.242 183.634 300.864 182.83 300.864 181.899C300.864 180.884 301.242 180.038 301.998 179.361C302.754 178.684 303.652 178.346 304.692 178.346C305.827 178.346 306.772 178.684 307.528 179.361C308.285 180.038 308.663 180.884 308.663 181.899C308.663 182.83 308.237 183.634 307.387 184.311ZM332.345 154.231C334.141 155.839 335.039 157.785 335.039 160.07C335.039 162.269 334.141 164.173 332.345 165.781C330.548 167.388 328.374 168.192 325.821 168.192H303.7V151.82H325.821C328.374 151.82 330.548 152.624 332.345 154.231ZM330.926 164.512C332.345 163.243 333.054 161.762 333.054 160.07C333.054 158.293 332.345 156.77 330.926 155.501C329.508 154.231 327.807 153.597 325.821 153.597H305.685C305.685 153.597 305.685 157.87 305.685 166.415H325.821C327.807 166.415 329.508 165.781 330.926 164.512Z" fill="url(#paint6_linear_236_1061)"/>
<path d="M383.906 180.884H403.617C410.045 180.884 415.528 178.853 420.066 174.792C424.699 170.731 427.015 165.823 427.015 160.07C427.015 154.231 424.699 149.282 420.066 145.22C415.528 141.159 410.045 139.128 403.617 139.128H363.911V210.075H380.219V211.852H361.926V137.225H403.617C410.612 137.225 416.568 139.467 421.484 143.951C426.495 148.351 429 153.724 429 160.07C429 166.331 426.495 171.704 421.484 176.188C416.568 180.588 410.612 182.788 403.617 182.788H383.906C383.433 184.48 382.204 185.326 380.219 185.326C379.084 185.326 378.139 184.988 377.382 184.311C376.626 183.634 376.248 182.83 376.248 181.899C376.248 180.884 376.626 180.038 377.382 179.361C378.139 178.684 379.084 178.346 380.219 178.346C382.204 178.346 383.433 179.192 383.906 180.884ZM408.438 154.231C410.234 155.839 411.132 157.785 411.132 160.07C411.132 162.269 410.234 164.173 408.438 165.781C406.642 167.388 404.467 168.192 401.915 168.192H379.793V151.82H401.915C404.467 151.82 406.642 152.624 408.438 154.231ZM407.02 164.512C408.438 163.243 409.147 161.762 409.147 160.07C409.147 158.293 408.438 156.77 407.02 155.501C405.602 154.231 403.9 153.597 401.915 153.597H381.778V166.415H401.915C403.9 166.415 405.602 165.781 407.02 164.512Z" fill="url(#paint7_linear_236_1061)"/>
<path d="M25.9873 197.256C25.5147 199.033 24.2857 199.921 22.3004 199.921C21.1659 199.921 20.2206 199.583 19.4643 198.906C18.708 198.229 18.3298 197.425 18.3298 196.495C18.3298 195.479 18.708 194.633 19.4643 193.956C20.2206 193.28 21.1659 192.941 22.3004 192.941C24.2857 192.941 25.5147 193.787 25.9873 195.479H72.0744V211.852H5V137.225H23.293V139.128H6.98529C6.98529 139.128 6.98529 162.777 6.98529 210.075C6.98529 210.075 28.0199 210.075 70.0891 210.075C70.0891 210.075 70.0891 205.802 70.0891 197.256H25.9873Z" stroke="url(#paint8_linear_236_1061)" stroke-width="2" mask="url(#path-3-outside-1_236_1061)"/>
<path d="M86.7658 182.788V172.888H121.083V182.788H86.7658Z" stroke="url(#paint9_linear_236_1061)" stroke-width="2" mask="url(#path-3-outside-1_236_1061)"/>
<path d="M194.718 151.82V139.128H171.32C160.354 139.128 150.994 142.597 143.242 149.535C135.49 156.389 131.614 164.723 131.614 174.538C131.614 184.353 135.49 192.73 143.242 199.668C150.994 206.606 160.354 210.075 171.32 210.075H194.718V195.479H196.703V211.852H171.32C165.742 211.852 160.401 210.921 155.296 209.059C150.191 207.113 145.7 204.406 141.824 200.937C133.694 193.66 129.629 184.861 129.629 174.538C129.629 164.216 133.694 155.416 141.824 148.139C145.7 144.67 150.191 142.005 155.296 140.144C160.401 138.198 165.742 137.225 171.32 137.225H196.703V153.597H194.718C193.3 153.597 190.937 153.597 187.628 153.597C184.414 153.512 182.05 153.47 180.537 153.47C179.119 153.47 177.323 153.512 175.149 153.597C173.069 153.681 171.226 153.808 169.618 153.978C162.434 154.824 157.045 157.15 153.452 160.958C150.522 164.089 148.726 168.023 148.064 172.761C147.78 174.792 147.875 176.653 148.347 178.346C148.536 178.346 148.726 178.346 148.915 178.346C149.955 178.346 150.853 178.684 151.609 179.361C152.365 180.038 152.743 180.884 152.743 181.899C152.743 182.83 152.365 183.634 151.609 184.311C150.853 184.988 149.907 185.326 148.773 185.326C147.733 185.326 146.835 184.988 146.079 184.311C145.322 183.634 144.944 182.83 144.944 181.899C144.944 180.63 145.464 179.657 146.504 178.98C146.031 177.034 145.937 174.877 146.22 172.507C146.882 167.431 148.82 163.2 152.034 159.816C156.005 155.67 161.772 153.174 169.335 152.328C172.36 151.989 180.821 151.82 194.718 151.82Z" stroke="url(#paint10_linear_236_1061)" stroke-width="2" mask="url(#path-3-outside-1_236_1061)"/>
<path d="M276.626 168.827C276.626 168.827 276.626 173.269 276.626 182.153C276.626 190.953 273.175 198.441 266.274 204.617C259.373 210.794 251.006 213.882 241.174 213.882C231.437 213.882 223.07 210.794 216.074 204.617C209.173 198.441 205.723 190.953 205.723 182.153V168.827C205.723 160.027 209.173 152.539 216.074 146.363C223.07 140.101 231.437 136.971 241.174 136.971C251.006 136.971 259.373 140.101 266.274 146.363C273.175 152.539 276.626 160.027 276.626 168.827ZM274.64 168.827C274.64 160.535 271.379 153.47 264.856 147.632C258.333 141.794 250.439 138.874 241.174 138.874C232.004 138.874 224.11 141.794 217.492 147.632C210.969 153.47 207.708 160.535 207.708 168.827V182.153C207.708 190.445 210.969 197.51 217.492 203.348C224.11 209.186 232.004 212.105 241.174 212.105C250.439 212.105 258.333 209.186 264.856 203.348C271.379 197.51 274.64 190.445 274.64 182.153V168.827ZM237.345 197.764C233.469 197.002 230.255 195.226 227.702 192.433C225.15 189.641 223.874 186.426 223.874 182.788V168.192C223.874 163.962 225.575 160.323 228.979 157.277C232.382 154.231 236.447 152.708 241.174 152.708C245.239 152.708 248.832 153.851 251.951 156.135C255.166 158.42 257.198 161.296 258.049 164.766C258.994 164.85 259.751 165.231 260.318 165.908C260.98 166.585 261.311 167.346 261.311 168.192C261.311 169.123 260.932 169.969 260.176 170.731C259.42 171.407 258.474 171.746 257.34 171.746C256.3 171.746 255.402 171.407 254.646 170.731C253.889 169.969 253.511 169.123 253.511 168.192C253.511 166.585 254.362 165.485 256.064 164.892C255.213 161.931 253.417 159.477 250.675 157.531C247.934 155.585 244.767 154.612 241.174 154.612C237.014 154.612 233.422 155.966 230.397 158.673C227.466 161.296 226.001 164.469 226.001 168.192V182.788C226.001 185.918 227.088 188.71 229.262 191.164C231.437 193.618 234.226 195.226 237.629 195.987C238.291 194.549 239.472 193.829 241.174 193.829C242.309 193.829 243.254 194.168 244.01 194.845C244.767 195.522 245.145 196.368 245.145 197.383C245.145 198.314 244.767 199.118 244.01 199.795C243.254 200.471 242.309 200.81 241.174 200.81C240.229 200.81 239.378 200.514 238.622 199.921C237.96 199.329 237.534 198.61 237.345 197.764Z" stroke="url(#paint11_linear_236_1061)" stroke-width="2" mask="url(#path-3-outside-1_236_1061)"/>
<path d="M307.387 184.311L323.269 210.075C323.269 210.075 330.028 210.075 343.547 210.075C340.995 206.183 334.802 196.918 324.971 182.28L325.821 180.884C325.821 180.884 326.389 180.884 327.523 180.884C333.952 180.884 339.435 178.853 343.973 174.792C348.605 170.731 350.921 165.823 350.921 160.07C350.921 154.231 348.605 149.282 343.973 145.22C339.435 141.159 333.952 139.128 327.523 139.128H287.817V211.852H285.832V137.225H327.523C334.519 137.225 340.475 139.467 345.391 143.951C350.401 148.351 352.906 153.724 352.906 160.07C352.906 166.246 350.449 171.577 345.533 176.061C340.617 180.461 334.661 182.703 327.665 182.788L347.234 211.852H321.993L305.685 185.199C305.401 185.284 305.07 185.326 304.692 185.326C303.652 185.326 302.754 184.988 301.998 184.311C301.242 183.634 300.864 182.83 300.864 181.899C300.864 180.884 301.242 180.038 301.998 179.361C302.754 178.684 303.652 178.346 304.692 178.346C305.827 178.346 306.772 178.684 307.528 179.361C308.285 180.038 308.663 180.884 308.663 181.899C308.663 182.83 308.237 183.634 307.387 184.311ZM332.345 154.231C334.141 155.839 335.039 157.785 335.039 160.07C335.039 162.269 334.141 164.173 332.345 165.781C330.548 167.388 328.374 168.192 325.821 168.192H303.7V151.82H325.821C328.374 151.82 330.548 152.624 332.345 154.231ZM330.926 164.512C332.345 163.243 333.054 161.762 333.054 160.07C333.054 158.293 332.345 156.77 330.926 155.501C329.508 154.231 327.807 153.597 325.821 153.597H305.685C305.685 153.597 305.685 157.87 305.685 166.415H325.821C327.807 166.415 329.508 165.781 330.926 164.512Z" stroke="url(#paint12_linear_236_1061)" stroke-width="2" mask="url(#path-3-outside-1_236_1061)"/>
<path d="M383.906 180.884H403.617C410.045 180.884 415.528 178.853 420.066 174.792C424.699 170.731 427.015 165.823 427.015 160.07C427.015 154.231 424.699 149.282 420.066 145.22C415.528 141.159 410.045 139.128 403.617 139.128H363.911V210.075H380.219V211.852H361.926V137.225H403.617C410.612 137.225 416.568 139.467 421.484 143.951C426.495 148.351 429 153.724 429 160.07C429 166.331 426.495 171.704 421.484 176.188C416.568 180.588 410.612 182.788 403.617 182.788H383.906C383.433 184.48 382.204 185.326 380.219 185.326C379.084 185.326 378.139 184.988 377.382 184.311C376.626 183.634 376.248 182.83 376.248 181.899C376.248 180.884 376.626 180.038 377.382 179.361C378.139 178.684 379.084 178.346 380.219 178.346C382.204 178.346 383.433 179.192 383.906 180.884ZM408.438 154.231C410.234 155.839 411.132 157.785 411.132 160.07C411.132 162.269 410.234 164.173 408.438 165.781C406.642 167.388 404.467 168.192 401.915 168.192H379.793V151.82H401.915C404.467 151.82 406.642 152.624 408.438 154.231ZM407.02 164.512C408.438 163.243 409.147 161.762 409.147 160.07C409.147 158.293 408.438 156.77 407.02 155.501C405.602 154.231 403.9 153.597 401.915 153.597H381.778V166.415H401.915C403.9 166.415 405.602 165.781 407.02 164.512Z" stroke="url(#paint13_linear_236_1061)" stroke-width="2" mask="url(#path-3-outside-1_236_1061)"/>
</g>
<mask id="path-4-outside-2_236_1061" maskUnits="userSpaceOnUse" x="4" y="135.971" width="426" height="79" fill="black">
<rect fill="white" x="4" y="135.971" width="426" height="79"/>
<path d="M25.9873 197.256C25.5147 199.033 24.2857 199.921 22.3004 199.921C21.1659 199.921 20.2206 199.583 19.4643 198.906C18.708 198.229 18.3298 197.425 18.3298 196.495C18.3298 195.479 18.708 194.633 19.4643 193.956C20.2206 193.28 21.1659 192.941 22.3004 192.941C24.2857 192.941 25.5147 193.787 25.9873 195.479H72.0744V211.852H5V137.225H23.293V139.128H6.98529C6.98529 139.128 6.98529 162.777 6.98529 210.075C6.98529 210.075 28.0199 210.075 70.0891 210.075C70.0891 210.075 70.0891 205.802 70.0891 197.256H25.9873Z"/>
<path d="M86.7658 182.788V172.888H121.083V182.788H86.7658Z"/>
<path d="M194.718 151.82V139.128H171.32C160.354 139.128 150.994 142.597 143.242 149.535C135.49 156.389 131.614 164.723 131.614 174.538C131.614 184.353 135.49 192.73 143.242 199.668C150.994 206.606 160.354 210.075 171.32 210.075H194.718V195.479H196.703V211.852H171.32C165.742 211.852 160.401 210.921 155.296 209.059C150.191 207.113 145.7 204.406 141.824 200.937C133.694 193.66 129.629 184.861 129.629 174.538C129.629 164.216 133.694 155.416 141.824 148.139C145.7 144.67 150.191 142.005 155.296 140.144C160.401 138.198 165.742 137.225 171.32 137.225H196.703V153.597H194.718C193.3 153.597 190.937 153.597 187.628 153.597C184.414 153.512 182.05 153.47 180.537 153.47C179.119 153.47 177.323 153.512 175.149 153.597C173.069 153.681 171.226 153.808 169.618 153.978C162.434 154.824 157.045 157.15 153.452 160.958C150.522 164.089 148.726 168.023 148.064 172.761C147.78 174.792 147.875 176.653 148.347 178.346C148.536 178.346 148.726 178.346 148.915 178.346C149.955 178.346 150.853 178.684 151.609 179.361C152.365 180.038 152.743 180.884 152.743 181.899C152.743 182.83 152.365 183.634 151.609 184.311C150.853 184.988 149.907 185.326 148.773 185.326C147.733 185.326 146.835 184.988 146.079 184.311C145.322 183.634 144.944 182.83 144.944 181.899C144.944 180.63 145.464 179.657 146.504 178.98C146.031 177.034 145.937 174.877 146.22 172.507C146.882 167.431 148.82 163.2 152.034 159.816C156.005 155.67 161.772 153.174 169.335 152.328C172.36 151.989 180.821 151.82 194.718 151.82Z"/>
<path d="M276.626 168.827C276.626 168.827 276.626 173.269 276.626 182.153C276.626 190.953 273.175 198.441 266.274 204.617C259.373 210.794 251.006 213.882 241.174 213.882C231.437 213.882 223.07 210.794 216.074 204.617C209.173 198.441 205.723 190.953 205.723 182.153V168.827C205.723 160.027 209.173 152.539 216.074 146.363C223.07 140.101 231.437 136.971 241.174 136.971C251.006 136.971 259.373 140.101 266.274 146.363C273.175 152.539 276.626 160.027 276.626 168.827ZM274.64 168.827C274.64 160.535 271.379 153.47 264.856 147.632C258.333 141.794 250.439 138.874 241.174 138.874C232.004 138.874 224.11 141.794 217.492 147.632C210.969 153.47 207.708 160.535 207.708 168.827V182.153C207.708 190.445 210.969 197.51 217.492 203.348C224.11 209.186 232.004 212.105 241.174 212.105C250.439 212.105 258.333 209.186 264.856 203.348C271.379 197.51 274.64 190.445 274.64 182.153V168.827ZM237.345 197.764C233.469 197.002 230.255 195.226 227.702 192.433C225.15 189.641 223.874 186.426 223.874 182.788V168.192C223.874 163.962 225.575 160.323 228.979 157.277C232.382 154.231 236.447 152.708 241.174 152.708C245.239 152.708 248.832 153.851 251.951 156.135C255.166 158.42 257.198 161.296 258.049 164.766C258.994 164.85 259.751 165.231 260.318 165.908C260.98 166.585 261.311 167.346 261.311 168.192C261.311 169.123 260.932 169.969 260.176 170.731C259.42 171.407 258.474 171.746 257.34 171.746C256.3 171.746 255.402 171.407 254.646 170.731C253.889 169.969 253.511 169.123 253.511 168.192C253.511 166.585 254.362 165.485 256.064 164.892C255.213 161.931 253.417 159.477 250.675 157.531C247.934 155.585 244.767 154.612 241.174 154.612C237.014 154.612 233.422 155.966 230.397 158.673C227.466 161.296 226.001 164.469 226.001 168.192V182.788C226.001 185.918 227.088 188.71 229.262 191.164C231.437 193.618 234.226 195.226 237.629 195.987C238.291 194.549 239.472 193.829 241.174 193.829C242.309 193.829 243.254 194.168 244.01 194.845C244.767 195.522 245.145 196.368 245.145 197.383C245.145 198.314 244.767 199.118 244.01 199.795C243.254 200.471 242.309 200.81 241.174 200.81C240.229 200.81 239.378 200.514 238.622 199.921C237.96 199.329 237.534 198.61 237.345 197.764Z"/>
<path d="M307.387 184.311L323.269 210.075C323.269 210.075 330.028 210.075 343.547 210.075C340.995 206.183 334.802 196.918 324.971 182.28L325.821 180.884C325.821 180.884 326.389 180.884 327.523 180.884C333.952 180.884 339.435 178.853 343.973 174.792C348.605 170.731 350.921 165.823 350.921 160.07C350.921 154.231 348.605 149.282 343.973 145.22C339.435 141.159 333.952 139.128 327.523 139.128H287.817V211.852H285.832V137.225H327.523C334.519 137.225 340.475 139.467 345.391 143.951C350.401 148.351 352.906 153.724 352.906 160.07C352.906 166.246 350.449 171.577 345.533 176.061C340.617 180.461 334.661 182.703 327.665 182.788L347.234 211.852H321.993L305.685 185.199C305.401 185.284 305.07 185.326 304.692 185.326C303.652 185.326 302.754 184.988 301.998 184.311C301.242 183.634 300.864 182.83 300.864 181.899C300.864 180.884 301.242 180.038 301.998 179.361C302.754 178.684 303.652 178.346 304.692 178.346C305.827 178.346 306.772 178.684 307.528 179.361C308.285 180.038 308.663 180.884 308.663 181.899C308.663 182.83 308.237 183.634 307.387 184.311ZM332.345 154.231C334.141 155.839 335.039 157.785 335.039 160.07C335.039 162.269 334.141 164.173 332.345 165.781C330.548 167.388 328.374 168.192 325.821 168.192H303.7V151.82H325.821C328.374 151.82 330.548 152.624 332.345 154.231ZM330.926 164.512C332.345 163.243 333.054 161.762 333.054 160.07C333.054 158.293 332.345 156.77 330.926 155.501C329.508 154.231 327.807 153.597 325.821 153.597H305.685C305.685 153.597 305.685 157.87 305.685 166.415H325.821C327.807 166.415 329.508 165.781 330.926 164.512Z"/>
<path d="M383.906 180.884H403.617C410.045 180.884 415.528 178.853 420.066 174.792C424.699 170.731 427.015 165.823 427.015 160.07C427.015 154.231 424.699 149.282 420.066 145.22C415.528 141.159 410.045 139.128 403.617 139.128H363.911V210.075H380.219V211.852H361.926V137.225H403.617C410.612 137.225 416.568 139.467 421.484 143.951C426.495 148.351 429 153.724 429 160.07C429 166.331 426.495 171.704 421.484 176.188C416.568 180.588 410.612 182.788 403.617 182.788H383.906C383.433 184.48 382.204 185.326 380.219 185.326C379.084 185.326 378.139 184.988 377.382 184.311C376.626 183.634 376.248 182.83 376.248 181.899C376.248 180.884 376.626 180.038 377.382 179.361C378.139 178.684 379.084 178.346 380.219 178.346C382.204 178.346 383.433 179.192 383.906 180.884ZM408.438 154.231C410.234 155.839 411.132 157.785 411.132 160.07C411.132 162.269 410.234 164.173 408.438 165.781C406.642 167.388 404.467 168.192 401.915 168.192H379.793V151.82H401.915C404.467 151.82 406.642 152.624 408.438 154.231ZM407.02 164.512C408.438 163.243 409.147 161.762 409.147 160.07C409.147 158.293 408.438 156.77 407.02 155.501C405.602 154.231 403.9 153.597 401.915 153.597H381.778V166.415H401.915C403.9 166.415 405.602 165.781 407.02 164.512Z"/>
</mask>
<path d="M25.9873 197.256C25.5147 199.033 24.2857 199.921 22.3004 199.921C21.1659 199.921 20.2206 199.583 19.4643 198.906C18.708 198.229 18.3298 197.425 18.3298 196.495C18.3298 195.479 18.708 194.633 19.4643 193.956C20.2206 193.28 21.1659 192.941 22.3004 192.941C24.2857 192.941 25.5147 193.787 25.9873 195.479H72.0744V211.852H5V137.225H23.293V139.128H6.98529C6.98529 139.128 6.98529 162.777 6.98529 210.075C6.98529 210.075 28.0199 210.075 70.0891 210.075C70.0891 210.075 70.0891 205.802 70.0891 197.256H25.9873Z" stroke="url(#paint14_linear_236_1061)" stroke-width="2" mask="url(#path-4-outside-2_236_1061)"/>
<path d="M86.7658 182.788V172.888H121.083V182.788H86.7658Z" stroke="url(#paint15_linear_236_1061)" stroke-width="2" mask="url(#path-4-outside-2_236_1061)"/>
<path d="M194.718 151.82V139.128H171.32C160.354 139.128 150.994 142.597 143.242 149.535C135.49 156.389 131.614 164.723 131.614 174.538C131.614 184.353 135.49 192.73 143.242 199.668C150.994 206.606 160.354 210.075 171.32 210.075H194.718V195.479H196.703V211.852H171.32C165.742 211.852 160.401 210.921 155.296 209.059C150.191 207.113 145.7 204.406 141.824 200.937C133.694 193.66 129.629 184.861 129.629 174.538C129.629 164.216 133.694 155.416 141.824 148.139C145.7 144.67 150.191 142.005 155.296 140.144C160.401 138.198 165.742 137.225 171.32 137.225H196.703V153.597H194.718C193.3 153.597 190.937 153.597 187.628 153.597C184.414 153.512 182.05 153.47 180.537 153.47C179.119 153.47 177.323 153.512 175.149 153.597C173.069 153.681 171.226 153.808 169.618 153.978C162.434 154.824 157.045 157.15 153.452 160.958C150.522 164.089 148.726 168.023 148.064 172.761C147.78 174.792 147.875 176.653 148.347 178.346C148.536 178.346 148.726 178.346 148.915 178.346C149.955 178.346 150.853 178.684 151.609 179.361C152.365 180.038 152.743 180.884 152.743 181.899C152.743 182.83 152.365 183.634 151.609 184.311C150.853 184.988 149.907 185.326 148.773 185.326C147.733 185.326 146.835 184.988 146.079 184.311C145.322 183.634 144.944 182.83 144.944 181.899C144.944 180.63 145.464 179.657 146.504 178.98C146.031 177.034 145.937 174.877 146.22 172.507C146.882 167.431 148.82 163.2 152.034 159.816C156.005 155.67 161.772 153.174 169.335 152.328C172.36 151.989 180.821 151.82 194.718 151.82Z" stroke="url(#paint16_linear_236_1061)" stroke-width="2" mask="url(#path-4-outside-2_236_1061)"/>
<path d="M276.626 168.827C276.626 168.827 276.626 173.269 276.626 182.153C276.626 190.953 273.175 198.441 266.274 204.617C259.373 210.794 251.006 213.882 241.174 213.882C231.437 213.882 223.07 210.794 216.074 204.617C209.173 198.441 205.723 190.953 205.723 182.153V168.827C205.723 160.027 209.173 152.539 216.074 146.363C223.07 140.101 231.437 136.971 241.174 136.971C251.006 136.971 259.373 140.101 266.274 146.363C273.175 152.539 276.626 160.027 276.626 168.827ZM274.64 168.827C274.64 160.535 271.379 153.47 264.856 147.632C258.333 141.794 250.439 138.874 241.174 138.874C232.004 138.874 224.11 141.794 217.492 147.632C210.969 153.47 207.708 160.535 207.708 168.827V182.153C207.708 190.445 210.969 197.51 217.492 203.348C224.11 209.186 232.004 212.105 241.174 212.105C250.439 212.105 258.333 209.186 264.856 203.348C271.379 197.51 274.64 190.445 274.64 182.153V168.827ZM237.345 197.764C233.469 197.002 230.255 195.226 227.702 192.433C225.15 189.641 223.874 186.426 223.874 182.788V168.192C223.874 163.962 225.575 160.323 228.979 157.277C232.382 154.231 236.447 152.708 241.174 152.708C245.239 152.708 248.832 153.851 251.951 156.135C255.166 158.42 257.198 161.296 258.049 164.766C258.994 164.85 259.751 165.231 260.318 165.908C260.98 166.585 261.311 167.346 261.311 168.192C261.311 169.123 260.932 169.969 260.176 170.731C259.42 171.407 258.474 171.746 257.34 171.746C256.3 171.746 255.402 171.407 254.646 170.731C253.889 169.969 253.511 169.123 253.511 168.192C253.511 166.585 254.362 165.485 256.064 164.892C255.213 161.931 253.417 159.477 250.675 157.531C247.934 155.585 244.767 154.612 241.174 154.612C237.014 154.612 233.422 155.966 230.397 158.673C227.466 161.296 226.001 164.469 226.001 168.192V182.788C226.001 185.918 227.088 188.71 229.262 191.164C231.437 193.618 234.226 195.226 237.629 195.987C238.291 194.549 239.472 193.829 241.174 193.829C242.309 193.829 243.254 194.168 244.01 194.845C244.767 195.522 245.145 196.368 245.145 197.383C245.145 198.314 244.767 199.118 244.01 199.795C243.254 200.471 242.309 200.81 241.174 200.81C240.229 200.81 239.378 200.514 238.622 199.921C237.96 199.329 237.534 198.61 237.345 197.764Z" stroke="url(#paint17_linear_236_1061)" stroke-width="2" mask="url(#path-4-outside-2_236_1061)"/>
<path d="M307.387 184.311L323.269 210.075C323.269 210.075 330.028 210.075 343.547 210.075C340.995 206.183 334.802 196.918 324.971 182.28L325.821 180.884C325.821 180.884 326.389 180.884 327.523 180.884C333.952 180.884 339.435 178.853 343.973 174.792C348.605 170.731 350.921 165.823 350.921 160.07C350.921 154.231 348.605 149.282 343.973 145.22C339.435 141.159 333.952 139.128 327.523 139.128H287.817V211.852H285.832V137.225H327.523C334.519 137.225 340.475 139.467 345.391 143.951C350.401 148.351 352.906 153.724 352.906 160.07C352.906 166.246 350.449 171.577 345.533 176.061C340.617 180.461 334.661 182.703 327.665 182.788L347.234 211.852H321.993L305.685 185.199C305.401 185.284 305.07 185.326 304.692 185.326C303.652 185.326 302.754 184.988 301.998 184.311C301.242 183.634 300.864 182.83 300.864 181.899C300.864 180.884 301.242 180.038 301.998 179.361C302.754 178.684 303.652 178.346 304.692 178.346C305.827 178.346 306.772 178.684 307.528 179.361C308.285 180.038 308.663 180.884 308.663 181.899C308.663 182.83 308.237 183.634 307.387 184.311ZM332.345 154.231C334.141 155.839 335.039 157.785 335.039 160.07C335.039 162.269 334.141 164.173 332.345 165.781C330.548 167.388 328.374 168.192 325.821 168.192H303.7V151.82H325.821C328.374 151.82 330.548 152.624 332.345 154.231ZM330.926 164.512C332.345 163.243 333.054 161.762 333.054 160.07C333.054 158.293 332.345 156.77 330.926 155.501C329.508 154.231 327.807 153.597 325.821 153.597H305.685C305.685 153.597 305.685 157.87 305.685 166.415H325.821C327.807 166.415 329.508 165.781 330.926 164.512Z" stroke="url(#paint18_linear_236_1061)" stroke-width="2" mask="url(#path-4-outside-2_236_1061)"/>
<path d="M383.906 180.884H403.617C410.045 180.884 415.528 178.853 420.066 174.792C424.699 170.731 427.015 165.823 427.015 160.07C427.015 154.231 424.699 149.282 420.066 145.22C415.528 141.159 410.045 139.128 403.617 139.128H363.911V210.075H380.219V211.852H361.926V137.225H403.617C410.612 137.225 416.568 139.467 421.484 143.951C426.495 148.351 429 153.724 429 160.07C429 166.331 426.495 171.704 421.484 176.188C416.568 180.588 410.612 182.788 403.617 182.788H383.906C383.433 184.48 382.204 185.326 380.219 185.326C379.084 185.326 378.139 184.988 377.382 184.311C376.626 183.634 376.248 182.83 376.248 181.899C376.248 180.884 376.626 180.038 377.382 179.361C378.139 178.684 379.084 178.346 380.219 178.346C382.204 178.346 383.433 179.192 383.906 180.884ZM408.438 154.231C410.234 155.839 411.132 157.785 411.132 160.07C411.132 162.269 410.234 164.173 408.438 165.781C406.642 167.388 404.467 168.192 401.915 168.192H379.793V151.82H401.915C404.467 151.82 406.642 152.624 408.438 154.231ZM407.02 164.512C408.438 163.243 409.147 161.762 409.147 160.07C409.147 158.293 408.438 156.77 407.02 155.501C405.602 154.231 403.9 153.597 401.915 153.597H381.778V166.415H401.915C403.9 166.415 405.602 165.781 407.02 164.512Z" stroke="url(#paint19_linear_236_1061)" stroke-width="2" mask="url(#path-4-outside-2_236_1061)"/>
<defs>
<filter id="filter0_f_236_1061" x="0" y="131.971" width="434" height="86.9121" filterUnits="userSpaceOnUse" color-interpolation-filters="sRGB">
<feFlood flood-opacity="0" result="BackgroundImageFix"/>
<feBlend mode="normal" in="SourceGraphic" in2="BackgroundImageFix" result="shape"/>
<feGaussianBlur stdDeviation="2" result="effect1_foregroundBlur_236_1061"/>
</filter>
<linearGradient id="paint0_linear_236_1061" x1="219.337" y1="110.948" x2="298.04" y2="238.682" gradientUnits="userSpaceOnUse">
<stop offset="0.0277191" stop-color="#B488EB" stop-opacity="0.2"/>
<stop offset="1" stop-color="#08E2F0"/>
</linearGradient>
<linearGradient id="paint1_linear_236_1061" x1="121.049" y1="218.468" x2="256.708" y2="132.241" gradientUnits="userSpaceOnUse">
<stop stop-color="#B488EB"/>
<stop offset="1" stop-color="#08E2F0"/>
<stop offset="1" stop-color="#08E2F0"/>
</linearGradient>
<linearGradient id="paint2_linear_236_1061" x1="5" y1="170.207" x2="429" y2="170.207" gradientUnits="userSpaceOnUse">
<stop stop-color="#B488EB"/>
<stop offset="0.265625" stop-color="#08E2F0"/>
<stop offset="0.520833" stop-color="#08E2F0"/>
<stop offset="0.770833" stop-color="#CFFF04"/>
<stop offset="1" stop-color="#CFFF04"/>
</linearGradient>
<linearGradient id="paint3_linear_236_1061" x1="5" y1="170.207" x2="429" y2="170.207" gradientUnits="userSpaceOnUse">
<stop stop-color="#B488EB"/>
<stop offset="0.265625" stop-color="#08E2F0"/>
<stop offset="0.520833" stop-color="#08E2F0"/>
<stop offset="0.770833" stop-color="#CFFF04"/>
<stop offset="1" stop-color="#CFFF04"/>
</linearGradient>
<linearGradient id="paint4_linear_236_1061" x1="5" y1="170.207" x2="429" y2="170.207" gradientUnits="userSpaceOnUse">
<stop stop-color="#B488EB"/>
<stop offset="0.265625" stop-color="#08E2F0"/>
<stop offset="0.520833" stop-color="#08E2F0"/>
<stop offset="0.770833" stop-color="#CFFF04"/>
<stop offset="1" stop-color="#CFFF04"/>
</linearGradient>
<linearGradient id="paint5_linear_236_1061" x1="5" y1="170.207" x2="429" y2="170.207" gradientUnits="userSpaceOnUse">
<stop stop-color="#B488EB"/>
<stop offset="0.265625" stop-color="#08E2F0"/>
<stop offset="0.520833" stop-color="#08E2F0"/>
<stop offset="0.770833" stop-color="#CFFF04"/>
<stop offset="1" stop-color="#CFFF04"/>
</linearGradient>
<linearGradient id="paint6_linear_236_1061" x1="5" y1="170.207" x2="429" y2="170.207" gradientUnits="userSpaceOnUse">
<stop stop-color="#B488EB"/>
<stop offset="0.265625" stop-color="#08E2F0"/>
<stop offset="0.520833" stop-color="#08E2F0"/>
<stop offset="0.770833" stop-color="#CFFF04"/>
<stop offset="1" stop-color="#CFFF04"/>
</linearGradient>
<linearGradient id="paint7_linear_236_1061" x1="5" y1="170.207" x2="429" y2="170.207" gradientUnits="userSpaceOnUse">
<stop stop-color="#B488EB"/>
<stop offset="0.265625" stop-color="#08E2F0"/>
<stop offset="0.520833" stop-color="#08E2F0"/>
<stop offset="0.770833" stop-color="#CFFF04"/>
<stop offset="1" stop-color="#CFFF04"/>
</linearGradient>
<linearGradient id="paint8_linear_236_1061" x1="5" y1="170.207" x2="429" y2="170.207" gradientUnits="userSpaceOnUse">
<stop stop-color="#B488EB"/>
<stop offset="0.265625" stop-color="#08E2F0"/>
<stop offset="0.520833" stop-color="#08E2F0"/>
<stop offset="0.770833" stop-color="#CFFF04"/>
<stop offset="1" stop-color="#CFFF04"/>
</linearGradient>
<linearGradient id="paint9_linear_236_1061" x1="5" y1="170.207" x2="429" y2="170.207" gradientUnits="userSpaceOnUse">
<stop stop-color="#B488EB"/>
<stop offset="0.265625" stop-color="#08E2F0"/>
<stop offset="0.520833" stop-color="#08E2F0"/>
<stop offset="0.770833" stop-color="#CFFF04"/>
<stop offset="1" stop-color="#CFFF04"/>
</linearGradient>
<linearGradient id="paint10_linear_236_1061" x1="5" y1="170.207" x2="429" y2="170.207" gradientUnits="userSpaceOnUse">
<stop stop-color="#B488EB"/>
<stop offset="0.265625" stop-color="#08E2F0"/>
<stop offset="0.520833" stop-color="#08E2F0"/>
<stop offset="0.770833" stop-color="#CFFF04"/>
<stop offset="1" stop-color="#CFFF04"/>
</linearGradient>
<linearGradient id="paint11_linear_236_1061" x1="5" y1="170.207" x2="429" y2="170.207" gradientUnits="userSpaceOnUse">
<stop stop-color="#B488EB"/>
<stop offset="0.265625" stop-color="#08E2F0"/>
<stop offset="0.520833" stop-color="#08E2F0"/>
<stop offset="0.770833" stop-color="#CFFF04"/>
<stop offset="1" stop-color="#CFFF04"/>
</linearGradient>
<linearGradient id="paint12_linear_236_1061" x1="5" y1="170.207" x2="429" y2="170.207" gradientUnits="userSpaceOnUse">
<stop stop-color="#B488EB"/>
<stop offset="0.265625" stop-color="#08E2F0"/>
<stop offset="0.520833" stop-color="#08E2F0"/>
<stop offset="0.770833" stop-color="#CFFF04"/>
<stop offset="1" stop-color="#CFFF04"/>
</linearGradient>
<linearGradient id="paint13_linear_236_1061" x1="5" y1="170.207" x2="429" y2="170.207" gradientUnits="userSpaceOnUse">
<stop stop-color="#B488EB"/>
<stop offset="0.265625" stop-color="#08E2F0"/>
<stop offset="0.520833" stop-color="#08E2F0"/>
<stop offset="0.770833" stop-color="#CFFF04"/>
<stop offset="1" stop-color="#CFFF04"/>
</linearGradient>
<linearGradient id="paint14_linear_236_1061" x1="5" y1="170.207" x2="429" y2="170.207" gradientUnits="userSpaceOnUse">
<stop stop-color="#B488EB"/>
<stop offset="0.265625" stop-color="#08E2F0"/>
<stop offset="0.520833" stop-color="#08E2F0"/>
<stop offset="0.770833" stop-color="#CFFF04"/>
<stop offset="1" stop-color="#CFFF04"/>
</linearGradient>
<linearGradient id="paint15_linear_236_1061" x1="5" y1="170.207" x2="429" y2="170.207" gradientUnits="userSpaceOnUse">
<stop stop-color="#B488EB"/>
<stop offset="0.265625" stop-color="#08E2F0"/>
<stop offset="0.520833" stop-color="#08E2F0"/>
<stop offset="0.770833" stop-color="#CFFF04"/>
<stop offset="1" stop-color="#CFFF04"/>
</linearGradient>
<linearGradient id="paint16_linear_236_1061" x1="5" y1="170.207" x2="429" y2="170.207" gradientUnits="userSpaceOnUse">
<stop stop-color="#B488EB"/>
<stop offset="0.265625" stop-color="#08E2F0"/>
<stop offset="0.520833" stop-color="#08E2F0"/>
<stop offset="0.770833" stop-color="#CFFF04"/>
<stop offset="1" stop-color="#CFFF04"/>
</linearGradient>
<linearGradient id="paint17_linear_236_1061" x1="5" y1="170.207" x2="429" y2="170.207" gradientUnits="userSpaceOnUse">
<stop stop-color="#B488EB"/>
<stop offset="0.265625" stop-color="#08E2F0"/>
<stop offset="0.520833" stop-color="#08E2F0"/>
<stop offset="0.770833" stop-color="#CFFF04"/>
<stop offset="1" stop-color="#CFFF04"/>
</linearGradient>
<linearGradient id="paint18_linear_236_1061" x1="5" y1="170.207" x2="429" y2="170.207" gradientUnits="userSpaceOnUse">
<stop stop-color="#B488EB"/>
<stop offset="0.265625" stop-color="#08E2F0"/>
<stop offset="0.520833" stop-color="#08E2F0"/>
<stop offset="0.770833" stop-color="#CFFF04"/>
<stop offset="1" stop-color="#CFFF04"/>
</linearGradient>
<linearGradient id="paint19_linear_236_1061" x1="5" y1="170.207" x2="429" y2="170.207" gradientUnits="userSpaceOnUse">
<stop stop-color="#B488EB"/>
<stop offset="0.265625" stop-color="#08E2F0"/>
<stop offset="0.520833" stop-color="#08E2F0"/>
<stop offset="0.770833" stop-color="#CFFF04"/>
<stop offset="1" stop-color="#CFFF04"/>
</linearGradient>
</defs>
</svg>
