<svg width="39" height="36" viewBox="0 0 39 36" fill="none" xmlns="http://www.w3.org/2000/svg">
<path d="M0.814917 0.785027C1.33686 0.302958 2.04468 0.0321472 2.78272 0.0321472C3.52075 0.0321472 4.22857 0.302958 4.75052 0.785027L19.4826 14.3956L34.2147 0.785027C34.4714 0.539429 34.7786 0.343532 35.1181 0.208766C35.4577 0.0739999 35.8229 0.00306404 36.1925 9.70887e-05C36.5621 -0.00286987 36.9286 0.0621917 37.2706 0.191485C37.6127 0.320779 37.9235 0.511715 38.1848 0.753154C38.4461 0.994592 38.6528 1.2817 38.7927 1.59772C38.9327 1.91374 39.0031 2.25234 38.9999 2.59377C38.9967 2.93521 38.9199 3.27263 38.774 3.58635C38.6282 3.90008 38.4161 4.18382 38.1503 4.42103L23.4182 18.0316L38.1503 31.6422C38.6573 32.1271 38.9378 32.7767 38.9315 33.4509C38.9251 34.1251 38.6324 34.7701 38.1164 35.2468C37.6003 35.7236 36.9022 35.994 36.1725 35.9999C35.4427 36.0058 34.7396 35.7466 34.2147 35.2782L19.4826 21.6676L4.75052 35.2782C4.22558 35.7466 3.52251 36.0058 2.79274 35.9999C2.06296 35.994 1.36487 35.7236 0.848821 35.2468C0.332772 34.7701 0.0400544 34.1251 0.0337129 33.4509C0.0273713 32.7767 0.307914 32.1271 0.814917 31.6422L15.547 18.0316L0.814917 4.42103C0.293126 3.93881 0 3.28488 0 2.60303C0 1.92118 0.293126 1.26724 0.814917 0.785027Z" fill="#CFFF04"/>
</svg>
