<svg width="46" height="53" viewBox="0 0 46 53" fill="none" xmlns="http://www.w3.org/2000/svg">
<g filter="url(#filter0_f_249_451)">
<path d="M22.4475 49.1542L22.4473 49.1541L9.64909 37.259C5.86244 33.7396 3.5 28.7442 3.5 23.2029C3.5 12.5577 12.225 3.91797 23 3.91797C33.7742 3.91797 42.5 12.5577 42.5 23.2029C42.5 28.7442 40.1376 33.7396 36.3509 37.259L23.5532 49.1536C23.5531 49.1537 23.553 49.1538 23.5529 49.1538C23.4084 49.2876 23.2141 49.3696 23 49.3696C22.7846 49.3696 22.5906 49.2873 22.4475 49.1542ZM23 14.961C18.4064 14.961 14.6739 18.6456 14.6739 23.2029C14.6739 27.7603 18.4064 31.4449 23 31.4449C27.5936 31.4449 31.3261 27.7603 31.3261 23.2029C31.3261 18.6456 27.5936 14.961 23 14.961Z" stroke="#08E2F0"/>
</g>
<path d="M22.4475 49.1542L22.4473 49.1541L9.64909 37.259C5.86244 33.7396 3.5 28.7442 3.5 23.2029C3.5 12.5577 12.225 3.91797 23 3.91797C33.7742 3.91797 42.5 12.5577 42.5 23.2029C42.5 28.7442 40.1376 33.7396 36.3509 37.259L23.5532 49.1536C23.5531 49.1537 23.553 49.1538 23.5529 49.1538C23.4084 49.2876 23.2141 49.3696 23 49.3696C22.7846 49.3696 22.5906 49.2873 22.4475 49.1542ZM23 14.961C18.4064 14.961 14.6739 18.6456 14.6739 23.2029C14.6739 27.7603 18.4064 31.4449 23 31.4449C27.5936 31.4449 31.3261 27.7603 31.3261 23.2029C31.3261 18.6456 27.5936 14.961 23 14.961Z" stroke="#08E2F0"/>
<defs>
<filter id="filter0_f_249_451" x="0" y="0.417969" width="46" height="52.4531" filterUnits="userSpaceOnUse" color-interpolation-filters="sRGB">
<feFlood flood-opacity="0" result="BackgroundImageFix"/>
<feBlend mode="normal" in="SourceGraphic" in2="BackgroundImageFix" result="shape"/>
<feGaussianBlur stdDeviation="1.5" result="effect1_foregroundBlur_249_451"/>
</filter>
</defs>
</svg>
