<svg width="45" height="45" viewBox="0 0 45 45" fill="none" xmlns="http://www.w3.org/2000/svg">
<g clip-path="url(#clip0_402_460)">
<g filter="url(#filter0_f_402_460)">
<path d="M14.4393 6.77888L18.3656 11.82C18.9907 12.6232 19.2113 13.6698 18.9642 14.6576M18.9642 14.6576L17.7676 19.4454ZM18.9642 14.6576L17.7676 19.4454ZM17.7676 19.4454C17.6848 19.777 17.6893 20.1247 17.7805 20.4541C17.8718 20.7835 18.0467 21.0837 18.2883 21.3256M18.2883 21.3256L23.6631 26.6973ZM18.2883 21.3256L23.6631 26.6973ZM23.6631 26.6973C23.9054 26.9392 24.2064 27.1144 24.5365 27.2056ZM30.3348 26.022C30.8226 25.9001 31.3318 25.8907 31.8238 25.9943Z" stroke="#08E2F0"/>
</g>
<path d="M23.6631 26.7207L18.2883 21.3491C18.0467 21.1072 17.8718 20.807 17.7805 20.4775C17.6893 20.1481 17.6848 19.8005 17.7676 19.4688L18.9642 14.6811C19.2113 13.6932 18.9907 12.6467 18.3656 11.8434L14.4393 6.80232C14.1506 6.43166 13.7864 6.12651 13.3707 5.90714C12.9551 5.68776 12.4975 5.55917 12.0284 5.52988C11.5592 5.5006 11.0892 5.5713 10.6494 5.73729C10.2098 5.90324 9.81049 6.16063 9.47795 6.4924L7.21614 8.75286C5.71711 10.251 5.07601 12.4735 5.79654 14.5226C7.80287 20.2198 11.0668 25.3926 15.3464 29.6572L15.3474 29.6582C19.6151 33.9354 24.7918 37.1975 30.4933 39.2024C32.5462 39.9248 34.768 39.284 36.2671 37.7857L38.5291 35.525C39.9388 34.1181 39.7951 31.7913 38.2189 30.5657L33.1747 26.6437M23.6631 26.7207C23.9054 26.9626 24.2064 27.1379 24.5365 27.229M23.6631 26.7207L24.5365 27.229M24.5365 27.229C24.8664 27.3202 25.2148 27.3243 25.5468 27.2412M24.5365 27.229L25.5468 27.2412M30.3348 26.0455L25.5468 27.2412M30.3348 26.0455C30.8226 25.9236 31.3318 25.9141 31.8238 26.0178M30.3348 26.0455L31.8238 26.0178M31.8238 26.0178C32.3158 26.1214 32.7777 26.3355 33.1747 26.6437M31.8238 26.0178L33.1747 26.6437" stroke="#08E2F0"/>
</g>
<defs>
<filter id="filter0_f_402_460" x="0" y="0" width="45" height="44.9766" filterUnits="userSpaceOnUse" color-interpolation-filters="sRGB">
<feFlood flood-opacity="0" result="BackgroundImageFix"/>
<feBlend mode="normal" in="SourceGraphic" in2="BackgroundImageFix" result="shape"/>
<feGaussianBlur stdDeviation="2.5" result="effect1_foregroundBlur_402_460"/>
</filter>
<clipPath id="clip0_402_460">
<rect width="45" height="45" fill="white"/>
</clipPath>
</defs>
</svg>
