<svg width="159" height="160" viewBox="0 0 159 160" fill="none" xmlns="http://www.w3.org/2000/svg">
<g filter="url(#filter0_f_236_4072)">
<path d="M102.569 56.8723C102.705 57.0086 102.814 57.1704 102.888 57.3486C102.962 57.5268 103 57.7178 103 57.9107C103 58.1037 102.962 58.2947 102.888 58.4729C102.814 58.6511 102.705 58.8129 102.569 58.9492L90.3878 71.1112H98.5915C98.981 71.1112 99.3546 71.2657 99.63 71.5408C99.9054 71.8159 100.06 72.1889 100.06 72.5779C100.06 72.9669 99.9054 73.34 99.63 73.6151C99.3546 73.8901 98.981 74.0447 98.5915 74.0447H86.8425C86.453 74.0447 86.0794 73.8901 85.804 73.6151C85.5286 73.34 85.3739 72.9669 85.3739 72.5779V60.8442C85.3739 60.4552 85.5286 60.0821 85.804 59.8071C86.0794 59.532 86.453 59.3775 86.8425 59.3775C87.232 59.3775 87.6056 59.532 87.881 59.8071C88.1564 60.0821 88.3111 60.4552 88.3111 60.8442V69.0373L100.489 56.8723C100.625 56.7357 100.787 56.6274 100.966 56.5534C101.144 56.4795 101.336 56.4414 101.529 56.4414C101.722 56.4414 101.913 56.4795 102.092 56.5534C102.27 56.6274 102.432 56.7357 102.569 56.8723ZM66.7341 60.3396C66.5607 60.1169 66.3418 59.9335 66.092 59.8017C65.8422 59.6699 65.5672 59.5927 65.2852 59.5752C65.0032 59.5578 64.7207 59.6004 64.4565 59.7003C64.1923 59.8003 63.9524 59.9552 63.7528 60.1548L60.7157 63.1909C59.297 64.6107 58.7741 66.6201 59.3939 68.3831C61.9662 75.6803 66.1504 82.3055 71.6364 87.7673C77.1053 93.246 83.7391 97.4248 91.0457 99.9938C92.811 100.613 94.823 100.091 96.2446 98.6738L99.2818 95.6406C99.4816 95.4412 99.6368 95.2016 99.7368 94.9378C99.8369 94.6739 99.8796 94.3918 99.8621 94.1102C99.8446 93.8286 99.7673 93.5539 99.6353 93.3044C99.5034 93.0549 99.3198 92.8363 99.0967 92.6632L92.3205 87.4006C92.0822 87.216 91.805 87.0879 91.5099 87.0259C91.2148 86.9639 90.9094 86.9696 90.6169 87.0427L84.1843 88.6473C83.3257 88.8616 82.4261 88.8503 81.5732 88.6143C80.7203 88.3783 79.9431 87.9258 79.3173 87.3009L72.1034 80.0934C71.4771 79.4687 71.0234 78.6926 70.7867 77.8408C70.5499 76.989 70.538 76.0904 70.7522 75.2327L72.3619 68.8085C72.435 68.5163 72.4408 68.2113 72.3787 67.9166C72.3166 67.6219 72.1883 67.3451 72.0035 67.1071L66.7341 60.3396ZM61.5352 57.943C62.0492 57.4295 62.6667 57.0311 63.3467 56.7742C64.0267 56.5173 64.7536 56.4079 65.4792 56.4531C66.2049 56.4983 66.9125 56.6972 67.5553 57.0365C68.198 57.3758 68.7612 57.8478 69.2073 58.4212L74.4767 65.1857C75.443 66.4265 75.7838 68.0428 75.4019 69.5682L73.7952 75.9925C73.7122 76.3252 73.7167 76.6737 73.8083 77.0042C73.8999 77.3347 74.0755 77.6359 74.3181 77.8787L81.5349 85.0861C81.7782 85.3289 82.0803 85.5045 82.4118 85.596C82.7433 85.6876 83.0929 85.6918 83.4265 85.6083L89.8561 84.0037C90.6099 83.8155 91.3966 83.8008 92.1568 83.9609C92.917 84.121 93.6309 84.4516 94.2444 84.9277L101.018 90.1903C103.453 92.0824 103.676 95.6758 101.496 97.8495L98.4593 100.883C96.2858 103.053 93.0372 104.007 90.0089 102.942C82.258 100.218 75.2206 95.7868 69.4187 89.9761C63.6009 84.1827 59.1636 77.1554 56.4361 69.4157C55.3728 66.3942 56.3274 63.1469 58.501 60.9762L61.5381 57.943H61.5352Z" fill="#08E2F0"/>
</g>
<path d="M102.569 56.8723C102.705 57.0086 102.814 57.1704 102.888 57.3486C102.962 57.5268 103 57.7178 103 57.9107C103 58.1037 102.962 58.2947 102.888 58.4729C102.814 58.6511 102.705 58.8129 102.569 58.9492L90.3878 71.1112H98.5915C98.981 71.1112 99.3546 71.2657 99.63 71.5408C99.9054 71.8159 100.06 72.1889 100.06 72.5779C100.06 72.9669 99.9054 73.34 99.63 73.6151C99.3546 73.8901 98.981 74.0447 98.5915 74.0447H86.8425C86.453 74.0447 86.0794 73.8901 85.804 73.6151C85.5286 73.34 85.3739 72.9669 85.3739 72.5779V60.8442C85.3739 60.4552 85.5286 60.0821 85.804 59.8071C86.0794 59.532 86.453 59.3775 86.8425 59.3775C87.232 59.3775 87.6056 59.532 87.881 59.8071C88.1564 60.0821 88.3111 60.4552 88.3111 60.8442V69.0373L100.489 56.8723C100.625 56.7357 100.787 56.6274 100.966 56.5534C101.144 56.4795 101.336 56.4414 101.529 56.4414C101.722 56.4414 101.913 56.4795 102.092 56.5534C102.27 56.6274 102.432 56.7357 102.569 56.8723ZM66.7341 60.3396C66.5607 60.1169 66.3418 59.9335 66.092 59.8017C65.8422 59.6699 65.5672 59.5927 65.2852 59.5752C65.0032 59.5578 64.7207 59.6004 64.4565 59.7003C64.1923 59.8003 63.9524 59.9552 63.7528 60.1548L60.7157 63.1909C59.297 64.6107 58.7741 66.6201 59.3939 68.3831C61.9662 75.6803 66.1504 82.3055 71.6364 87.7673C77.1053 93.246 83.7391 97.4248 91.0457 99.9938C92.811 100.613 94.823 100.091 96.2446 98.6738L99.2818 95.6406C99.4816 95.4412 99.6368 95.2016 99.7368 94.9378C99.8369 94.6739 99.8796 94.3918 99.8621 94.1102C99.8446 93.8286 99.7673 93.5539 99.6353 93.3044C99.5034 93.0549 99.3198 92.8363 99.0967 92.6632L92.3205 87.4006C92.0822 87.216 91.805 87.0879 91.5099 87.0259C91.2148 86.9639 90.9094 86.9696 90.6169 87.0427L84.1843 88.6473C83.3257 88.8616 82.4261 88.8503 81.5732 88.6143C80.7203 88.3783 79.9431 87.9258 79.3173 87.3009L72.1034 80.0934C71.4771 79.4687 71.0234 78.6926 70.7867 77.8408C70.5499 76.989 70.538 76.0904 70.7522 75.2327L72.3619 68.8085C72.435 68.5163 72.4408 68.2113 72.3787 67.9166C72.3166 67.6219 72.1883 67.3451 72.0035 67.1071L66.7341 60.3396ZM61.5352 57.943C62.0492 57.4295 62.6667 57.0311 63.3467 56.7742C64.0267 56.5173 64.7536 56.4079 65.4792 56.4531C66.2049 56.4983 66.9125 56.6972 67.5553 57.0365C68.198 57.3758 68.7612 57.8478 69.2073 58.4212L74.4767 65.1857C75.443 66.4265 75.7838 68.0428 75.4019 69.5682L73.7952 75.9925C73.7122 76.3252 73.7167 76.6737 73.8083 77.0042C73.8999 77.3347 74.0755 77.6359 74.3181 77.8787L81.5349 85.0861C81.7782 85.3289 82.0803 85.5045 82.4118 85.596C82.7433 85.6876 83.0929 85.6918 83.4265 85.6083L89.8561 84.0037C90.6099 83.8155 91.3966 83.8008 92.1568 83.9609C92.917 84.121 93.6309 84.4516 94.2444 84.9277L101.018 90.1903C103.453 92.0824 103.676 95.6758 101.496 97.8495L98.4593 100.883C96.2858 103.053 93.0372 104.007 90.0089 102.942C82.258 100.218 75.2206 95.7868 69.4187 89.9761C63.6009 84.1827 59.1636 77.1554 56.4361 69.4157C55.3728 66.3942 56.3274 63.1469 58.501 60.9762L61.5381 57.943H61.5352Z" fill="#08E2F0"/>
<rect opacity="0.14" x="19.2988" y="19.5762" width="121.138" height="121.138" rx="60.5692" fill="#08E2F0"/>
<g filter="url(#filter1_f_236_4072)">
<path d="M79.5 147.012C42.2786 147.012 12 116.733 12 79.5117C12 42.2903 42.2786 12.0117 79.5 12.0117C116.721 12.0117 147 42.2903 147 79.5117C147 116.733 116.721 147.012 79.5 147.012ZM79.5 14.4224C43.6105 14.4224 14.4107 43.6222 14.4107 79.5117C14.4107 115.401 43.6105 144.601 79.5 144.601C115.39 144.601 144.589 115.401 144.589 79.5117C144.589 43.6222 115.39 14.4224 79.5 14.4224Z" fill="#08E2F0"/>
<path d="M70.0987 134.88C70.0324 134.88 69.96 134.88 69.8937 134.862C46.4375 130.818 28.0377 112.328 24.1082 88.8538C23.9997 88.1968 24.4397 87.5761 25.0966 87.4676C25.7535 87.3591 26.3743 87.799 26.4828 88.456C30.2435 110.918 47.8538 128.612 70.2975 132.482C70.9544 132.596 71.3944 133.217 71.2799 133.874C71.1774 134.458 70.6712 134.874 70.0926 134.874L70.0987 134.88Z" fill="#08E2F0"/>
<path d="M89.5158 134.772C88.9432 134.772 88.437 134.368 88.3346 133.783C88.214 133.127 88.6479 132.5 89.2988 132.379C111.429 128.305 128.798 110.653 132.517 88.456C132.625 87.799 133.252 87.3591 133.903 87.4676C134.56 87.5761 135 88.1968 134.891 88.8538C131.004 112.045 112.858 130.487 89.7327 134.748C89.6604 134.76 89.5881 134.766 89.5158 134.766V134.772Z" fill="#08E2F0"/>
<path d="M133.501 70.4229C132.934 70.4229 132.428 70.0191 132.319 69.4406C128.233 47.8707 110.984 30.6763 89.4026 26.6564C88.7456 26.5359 88.3177 25.9031 88.4383 25.2522C88.5588 24.5952 89.1857 24.1674 89.8426 24.2879C112.395 28.4886 130.415 46.4484 134.688 68.9885C134.814 69.6394 134.38 70.2723 133.73 70.3988C133.651 70.4109 133.579 70.4229 133.507 70.4229H133.501Z" fill="#08E2F0"/>
<path d="M25.5178 70.3321C25.4455 70.3321 25.3671 70.3261 25.2888 70.308C24.6379 70.1814 24.204 69.5546 24.3306 68.8977C28.6939 46.0803 47.0033 28.1024 69.887 24.1548C70.5439 24.0403 71.1647 24.4803 71.2792 25.1372C71.3937 25.7941 70.9538 26.4149 70.2969 26.5294C48.3895 30.3082 30.8696 47.5147 26.6991 69.3497C26.5906 69.9283 26.0843 70.3261 25.5178 70.3261V70.3321Z" fill="#08E2F0"/>
</g>
<path d="M79.5 147.012C42.2786 147.012 12 116.733 12 79.5117C12 42.2903 42.2786 12.0117 79.5 12.0117C116.721 12.0117 147 42.2903 147 79.5117C147 116.733 116.721 147.012 79.5 147.012ZM79.5 14.4224C43.6105 14.4224 14.4107 43.6222 14.4107 79.5117C14.4107 115.401 43.6105 144.601 79.5 144.601C115.39 144.601 144.589 115.401 144.589 79.5117C144.589 43.6222 115.39 14.4224 79.5 14.4224Z" fill="#08E2F0"/>
<path d="M70.0987 134.88C70.0324 134.88 69.96 134.88 69.8937 134.862C46.4375 130.818 28.0377 112.328 24.1082 88.8538C23.9997 88.1968 24.4397 87.5761 25.0966 87.4676C25.7535 87.3591 26.3743 87.799 26.4828 88.456C30.2435 110.918 47.8538 128.612 70.2975 132.482C70.9544 132.596 71.3944 133.217 71.2799 133.874C71.1774 134.458 70.6712 134.874 70.0926 134.874L70.0987 134.88Z" fill="#08E2F0"/>
<path d="M89.5158 134.772C88.9432 134.772 88.437 134.368 88.3346 133.783C88.214 133.127 88.6479 132.5 89.2988 132.379C111.429 128.305 128.798 110.653 132.517 88.456C132.625 87.799 133.252 87.3591 133.903 87.4676C134.56 87.5761 135 88.1968 134.891 88.8538C131.004 112.045 112.858 130.487 89.7327 134.748C89.6604 134.76 89.5881 134.766 89.5158 134.766V134.772Z" fill="#08E2F0"/>
<path d="M133.501 70.4229C132.934 70.4229 132.428 70.0191 132.319 69.4406C128.233 47.8707 110.984 30.6763 89.4026 26.6564C88.7456 26.5359 88.3177 25.9031 88.4383 25.2522C88.5588 24.5952 89.1857 24.1674 89.8426 24.2879C112.395 28.4886 130.415 46.4484 134.688 68.9885C134.814 69.6394 134.38 70.2723 133.73 70.3988C133.651 70.4109 133.579 70.4229 133.507 70.4229H133.501Z" fill="#08E2F0"/>
<path d="M25.5178 70.3321C25.4455 70.3321 25.3671 70.3261 25.2888 70.308C24.6379 70.1814 24.204 69.5546 24.3306 68.8977C28.6939 46.0803 47.0033 28.1024 69.887 24.1548C70.5439 24.0403 71.1647 24.4803 71.2792 25.1372C71.3937 25.7941 70.9538 26.4149 70.2969 26.5294C48.3895 30.3082 30.8696 47.5147 26.6991 69.3497C26.5906 69.9283 26.0843 70.3261 25.5178 70.3261V70.3321Z" fill="#08E2F0"/>
<path d="M128.615 79.5596H127.801V79.0664H128.615V79.5596ZM126.138 79.5596H125.324V79.0664H126.138V79.5596ZM123.662 79.5596H122.848V79.0664H123.662V79.5596ZM121.174 79.5596H120.36V79.0664H121.174V79.5596ZM118.698 79.5596H117.884V79.0664H118.698V79.5596ZM116.21 79.5596H115.396V79.0664H116.21V79.5596ZM113.734 79.5596H112.92V79.0664H113.734V79.5596ZM111.258 79.5596H110.444V79.0664H111.258V79.5596ZM108.782 79.5596H107.968V79.0664H108.782V79.5596ZM106.305 79.5596H105.491V79.0664H106.305V79.5596ZM103.818 79.5596H103.004V79.0664H103.818V79.5596ZM101.341 79.5596H100.527V79.0664H101.341V79.5596Z" fill="#08E2F0"/>
<path d="M58.0758 79.5596H57.2618V79.0664H58.0758V79.5596ZM55.5995 79.5596H54.7856V79.0664H55.5995V79.5596ZM53.1118 79.5596H52.2978V79.0664H53.1118V79.5596ZM50.6355 79.5596H49.8216V79.0664H50.6355V79.5596ZM48.1478 79.5596H47.3338V79.0664H48.1478V79.5596ZM45.6715 79.5596H44.8576V79.0664H45.6715V79.5596ZM43.1953 79.5596H42.3813V79.0664H43.1953V79.5596ZM40.719 79.5596H39.905V79.0664H40.719V79.5596ZM38.2428 79.5596H37.4288V79.0664H38.2428V79.5596ZM35.7665 79.5596H34.9525V79.0664H35.7665V79.5596ZM33.2902 79.5596H32.4763V79.0664H33.2902V79.5596ZM30.8139 79.5596H30V79.0664H30.8139V79.5596Z" fill="#08E2F0"/>
<path d="M79.5537 30.0143V30.8282H79.0605V30.0143H79.5537ZM79.5537 32.4902V33.3041H79.0605V32.4902H79.5537ZM79.5537 34.9662V35.78H79.0605V34.9662H79.5537ZM79.5537 37.4535V38.2674H79.0605V37.4535H79.5537ZM79.5537 39.9295V40.7433H79.0605V39.9295H79.5537ZM79.5537 42.4168V43.2306H79.0605V42.4168H79.5537ZM79.5537 44.8927V45.7066H79.0605V44.8927H79.5537ZM79.5537 47.3687V48.1825H79.0605V47.3687H79.5537ZM79.5537 49.8446V50.6585H79.0605V49.8446H79.5537ZM79.5537 52.3205V53.1343H79.0605V52.3205H79.5537ZM79.5537 54.8079V55.6218H79.0605V54.8079H79.5537ZM79.5537 57.2838V58.0977H79.0605V57.2838H79.5537Z" fill="#08E2F0"/>
<path d="M79.5537 100.541V101.355H79.0605V100.541H79.5537ZM79.5537 103.017V103.831H79.0605V103.017H79.5537ZM79.5537 105.505V106.319H79.0605V105.505H79.5537ZM79.5537 107.981V108.794H79.0605V107.981H79.5537ZM79.5537 110.468V111.282H79.0605V110.468H79.5537ZM79.5537 112.944V113.758H79.0605V112.944H79.5537ZM79.5537 115.42V116.234H79.0605V115.42H79.5537ZM79.5537 117.896V118.71H79.0605V117.896H79.5537ZM79.5537 120.372V121.186H79.0605V120.372H79.5537ZM79.5537 122.848V123.661H79.0605V122.848H79.5537ZM79.5537 125.324V126.137H79.0605V125.324H79.5537ZM79.5537 127.799V128.613H79.0605V127.799H79.5537Z" fill="#08E2F0"/>
<path d="M80.7754 79.5845H77.8521C77.7145 79.5845 77.6113 79.4697 77.6113 79.3436C77.6113 79.2174 77.726 79.1027 77.8521 79.1027H80.7754C80.913 79.1027 81.0162 79.2174 81.0162 79.3436C81.0162 79.4697 80.9015 79.5845 80.7754 79.5845Z" fill="#08E2F0"/>
<path d="M79.3078 81.0412C79.1702 81.0412 79.0671 80.9266 79.0671 80.8004V77.8756C79.0671 77.738 79.1817 77.6348 79.3078 77.6348C79.4339 77.6348 79.5486 77.7495 79.5486 77.8756V80.8004C79.5486 80.938 79.4339 81.0412 79.3078 81.0412Z" fill="#08E2F0"/>
<defs>
<filter id="filter0_f_236_4072" x="52" y="52.4414" width="55" height="54.9375" filterUnits="userSpaceOnUse" color-interpolation-filters="sRGB">
<feFlood flood-opacity="0" result="BackgroundImageFix"/>
<feBlend mode="normal" in="SourceGraphic" in2="BackgroundImageFix" result="shape"/>
<feGaussianBlur stdDeviation="2" result="effect1_foregroundBlur_236_4072"/>
</filter>
<filter id="filter1_f_236_4072" x="0" y="0.0117188" width="159" height="159" filterUnits="userSpaceOnUse" color-interpolation-filters="sRGB">
<feFlood flood-opacity="0" result="BackgroundImageFix"/>
<feBlend mode="normal" in="SourceGraphic" in2="BackgroundImageFix" result="shape"/>
<feGaussianBlur stdDeviation="6" result="effect1_foregroundBlur_236_4072"/>
</filter>
</defs>
</svg>
